<svg width="48" height="48" viewBox="0 0 48 48" fill="none" xmlns="http://www.w3.org/2000/svg">
<circle cx="24" cy="24.0001" r="24" fill="#F3F6FB"/>
<path d="M24 24C26.4853 24 28.5 21.9853 28.5 19.5C28.5 17.0147 26.4853 15 24 15C21.5147 15 19.5 17.0147 19.5 19.5C19.5 21.9853 21.5147 24 24 24Z" fill="#053969"/>
<path d="M26.5 26H21.5C20.1044 26 19.4067 26 18.8389 26.2192C17.5605 26.7128 16.56 27.986 16.1722 29.6131C16.0617 30.0768 16.0221 30.6087 16.0079 31.3996C15.9981 31.9498 15.9931 32.225 16.1007 32.4428C16.1942 32.6321 16.3509 32.7917 16.5385 32.8886C16.7544 33 17.0363 33 17.6 33H30.4C30.9637 33 31.2456 33 31.4615 32.8886C31.6491 32.7917 31.8058 32.6321 31.8993 32.4428C32.0069 32.225 32.0019 31.9498 31.9921 31.3996C31.9779 30.6087 31.9383 30.0768 31.8278 29.6131C31.44 27.986 30.4395 26.7128 29.1611 26.2192C28.5933 26 27.8956 26 26.5 26Z" fill="#053969"/>
</svg>
