<svg width="99" height="25" viewBox="0 0 99 25" fill="none" xmlns="http://www.w3.org/2000/svg">
<rect opacity="0.3" width="99" height="25" rx="12" fill="white"/>
<g clip-path="url(#clip0_18_4588)">
<path d="M18.501 6.6029C15.2336 6.6029 12.4739 9.36265 12.4739 12.63C12.4739 15.8974 15.2336 18.6571 18.501 18.6571C21.7684 18.6571 24.5281 15.8974 24.5281 12.63C24.5281 9.36265 21.7684 6.6029 18.501 6.6029ZM18.501 17.3178C15.9602 17.3178 13.8132 15.1708 13.8132 12.63C13.8132 10.0893 15.9602 7.94226 18.501 7.94226C21.0418 7.94226 23.1888 10.0893 23.1888 12.63C23.1888 15.1708 21.0418 17.3178 18.501 17.3178Z" fill="white"/>
<path d="M19.1709 9.28161H17.8316V11.9603H15.1528V13.2997H17.8316V15.9784H19.1709V13.2997H21.8496V11.9603H19.1709V9.28161Z" fill="white"/>
</g>
<path d="M30.5913 15.7817L33.4313 8.84174H34.1113L36.9413 15.7817H35.9213L33.5913 9.91174H33.9413L31.5913 15.7817H30.5913ZM31.9413 14.2117V13.3917H35.5913V14.2117H31.9413ZM39.6114 15.8817C39.1714 15.8817 38.7781 15.7751 38.4314 15.5617C38.0847 15.3417 37.8081 15.0451 37.6014 14.6717C37.4014 14.2984 37.3014 13.8784 37.3014 13.4117C37.3014 12.9451 37.4014 12.5251 37.6014 12.1517C37.8081 11.7784 38.0847 11.4817 38.4314 11.2617C38.7781 11.0417 39.1714 10.9317 39.6114 10.9317C39.9647 10.9317 40.2847 11.0084 40.5714 11.1617C40.8581 11.3084 41.0881 11.5151 41.2614 11.7817C41.4414 12.0417 41.5414 12.3451 41.5614 12.6917V14.1217C41.5414 14.4617 41.4447 14.7651 41.2714 15.0317C41.0981 15.2984 40.8681 15.5084 40.5814 15.6617C40.2947 15.8084 39.9714 15.8817 39.6114 15.8817ZM39.7614 15.0317C40.0614 15.0317 40.3214 14.9617 40.5414 14.8217C40.7681 14.6817 40.9447 14.4917 41.0714 14.2517C41.1981 14.0051 41.2614 13.7251 41.2614 13.4117C41.2614 13.0851 41.1947 12.8017 41.0614 12.5617C40.9347 12.3217 40.7581 12.1317 40.5314 11.9917C40.3114 11.8517 40.0514 11.7817 39.7514 11.7817C39.4514 11.7817 39.1881 11.8517 38.9614 11.9917C38.7347 12.1317 38.5547 12.3251 38.4214 12.5717C38.2947 12.8117 38.2314 13.0884 38.2314 13.4017C38.2314 13.7217 38.2947 14.0051 38.4214 14.2517C38.5547 14.4917 38.7347 14.6817 38.9614 14.8217C39.1947 14.9617 39.4614 15.0317 39.7614 15.0317ZM42.1114 15.7817H41.2014V14.5017L41.3714 13.3417L41.2014 12.1917V8.64174H42.1114V15.7817ZM45.4317 15.8817C44.9917 15.8817 44.5984 15.7751 44.2517 15.5617C43.9051 15.3417 43.6284 15.0451 43.4217 14.6717C43.2217 14.2984 43.1217 13.8784 43.1217 13.4117C43.1217 12.9451 43.2217 12.5251 43.4217 12.1517C43.6284 11.7784 43.9051 11.4817 44.2517 11.2617C44.5984 11.0417 44.9917 10.9317 45.4317 10.9317C45.7851 10.9317 46.1051 11.0084 46.3917 11.1617C46.6784 11.3084 46.9084 11.5151 47.0817 11.7817C47.2617 12.0417 47.3617 12.3451 47.3817 12.6917V14.1217C47.3617 14.4617 47.2651 14.7651 47.0917 15.0317C46.9184 15.2984 46.6884 15.5084 46.4017 15.6617C46.1151 15.8084 45.7917 15.8817 45.4317 15.8817ZM45.5817 15.0317C45.8817 15.0317 46.1417 14.9617 46.3617 14.8217C46.5884 14.6817 46.7651 14.4917 46.8917 14.2517C47.0184 14.0051 47.0817 13.7251 47.0817 13.4117C47.0817 13.0851 47.0151 12.8017 46.8817 12.5617C46.7551 12.3217 46.5784 12.1317 46.3517 11.9917C46.1317 11.8517 45.8717 11.7817 45.5717 11.7817C45.2717 11.7817 45.0084 11.8517 44.7817 11.9917C44.5551 12.1317 44.3751 12.3251 44.2417 12.5717C44.1151 12.8117 44.0517 13.0884 44.0517 13.4017C44.0517 13.7217 44.1151 14.0051 44.2417 14.2517C44.3751 14.4917 44.5551 14.6817 44.7817 14.8217C45.0151 14.9617 45.2817 15.0317 45.5817 15.0317ZM47.9317 15.7817H47.0217V14.5017L47.1917 13.3417L47.0217 12.1917V8.64174H47.9317V15.7817ZM51.4821 15.7817V8.84174H52.1421L55.0821 13.6717H54.6321L57.5721 8.84174H58.2321V15.7817H57.2921V10.4917L57.5121 10.5517L55.1921 14.3617H54.5321L52.2121 10.5517L52.4221 10.4917V15.7817H51.4821ZM61.8808 15.8817C61.4141 15.8817 60.9941 15.7717 60.6208 15.5517C60.2474 15.3317 59.9508 15.0351 59.7308 14.6617C59.5108 14.2817 59.4008 13.8584 59.4008 13.3917C59.4008 12.9317 59.5108 12.5184 59.7308 12.1517C59.9508 11.7784 60.2474 11.4817 60.6208 11.2617C60.9941 11.0417 61.4141 10.9317 61.8808 10.9317C62.3408 10.9317 62.7574 11.0417 63.1308 11.2617C63.5108 11.4751 63.8108 11.7684 64.0308 12.1417C64.2508 12.5151 64.3608 12.9317 64.3608 13.3917C64.3608 13.8584 64.2508 14.2817 64.0308 14.6617C63.8108 15.0351 63.5108 15.3317 63.1308 15.5517C62.7574 15.7717 62.3408 15.8817 61.8808 15.8817ZM61.8808 15.0117C62.1808 15.0117 62.4474 14.9417 62.6808 14.8017C62.9141 14.6617 63.0974 14.4717 63.2308 14.2317C63.3641 13.9851 63.4308 13.7051 63.4308 13.3917C63.4308 13.0851 63.3608 12.8117 63.2208 12.5717C63.0874 12.3317 62.9041 12.1451 62.6708 12.0117C62.4441 11.8717 62.1808 11.8017 61.8808 11.8017C61.5808 11.8017 61.3141 11.8717 61.0808 12.0117C60.8474 12.1451 60.6641 12.3317 60.5308 12.5717C60.3974 12.8117 60.3308 13.0851 60.3308 13.3917C60.3308 13.7051 60.3974 13.9851 60.5308 14.2317C60.6641 14.4717 60.8474 14.6617 61.0808 14.8017C61.3141 14.9417 61.5808 15.0117 61.8808 15.0117ZM68.7348 15.7817V13.0117C68.7348 12.6517 68.6215 12.3551 68.3948 12.1217C68.1682 11.8884 67.8748 11.7717 67.5148 11.7717C67.2748 11.7717 67.0615 11.8251 66.8748 11.9317C66.6882 12.0384 66.5415 12.1851 66.4348 12.3717C66.3282 12.5584 66.2748 12.7717 66.2748 13.0117L65.9048 12.8017C65.9048 12.4417 65.9848 12.1217 66.1448 11.8417C66.3048 11.5617 66.5282 11.3417 66.8148 11.1817C67.1015 11.0151 67.4248 10.9317 67.7848 10.9317C68.1448 10.9317 68.4615 11.0217 68.7348 11.2017C69.0148 11.3817 69.2348 11.6184 69.3948 11.9117C69.5548 12.1984 69.6348 12.5051 69.6348 12.8317V15.7817H68.7348ZM65.3748 15.7817V11.0317H66.2748V15.7817H65.3748ZM73.0534 15.8817C72.58 15.8817 72.1534 15.7751 71.7734 15.5617C71.3934 15.3417 71.0934 15.0451 70.8734 14.6717C70.6534 14.2984 70.5434 13.8751 70.5434 13.4017C70.5434 12.9351 70.65 12.5151 70.8634 12.1417C71.0834 11.7684 71.3767 11.4751 71.7434 11.2617C72.1167 11.0417 72.5334 10.9317 72.9934 10.9317C73.4334 10.9317 73.82 11.0317 74.1534 11.2317C74.4934 11.4317 74.7567 11.7084 74.9434 12.0617C75.1367 12.4151 75.2334 12.8151 75.2334 13.2617C75.2334 13.3284 75.23 13.4017 75.2234 13.4817C75.2167 13.5551 75.2034 13.6417 75.1834 13.7417H71.1734V12.9917H74.7034L74.3734 13.2817C74.3734 12.9617 74.3167 12.6917 74.2034 12.4717C74.09 12.2451 73.93 12.0717 73.7234 11.9517C73.5167 11.8251 73.2667 11.7617 72.9734 11.7617C72.6667 11.7617 72.3967 11.8284 72.1634 11.9617C71.93 12.0951 71.75 12.2817 71.6234 12.5217C71.4967 12.7617 71.4334 13.0451 71.4334 13.3717C71.4334 13.7051 71.5 13.9984 71.6334 14.2517C71.7667 14.4984 71.9567 14.6917 72.2034 14.8317C72.45 14.9651 72.7334 15.0317 73.0534 15.0317C73.32 15.0317 73.5634 14.9851 73.7834 14.8917C74.01 14.7984 74.2034 14.6584 74.3634 14.4717L74.9434 15.0617C74.7167 15.3284 74.4367 15.5317 74.1034 15.6717C73.7767 15.8117 73.4267 15.8817 73.0534 15.8817ZM77.6966 15.8217L75.6366 11.0317H76.6366L78.1666 14.7817H77.8466L79.4566 11.0317H80.4566L78.2366 15.8217H77.6966ZM76.3366 17.7717L77.7366 14.9017L78.2366 15.8217L77.3366 17.7717H76.3366Z" fill="white"/>
<defs>
<clipPath id="clip0_18_4588">
<rect width="13" height="13" fill="white" transform="translate(12 6)"/>
</clipPath>
</defs>
</svg>
