<svg width="24" height="24" viewBox="0 0 24 24" fill="none" xmlns="http://www.w3.org/2000/svg">
<path d="M16 13C16 12.4477 16.4477 12 17 12C17.5523 12 18 12.4477 18 13V15C18 15.5523 17.5523 16 17 16C16.4477 16 16 15.5523 16 15V13Z" fill="#F2F2F2"/>
<path d="M20 7V5C20 3.897 19.103 3 18 3H5C3.346 3 2 4.346 2 6V18C2 20.201 3.794 21 5 21H20C21.103 21 22 20.103 22 19V9C22 7.897 21.103 7 20 7ZM5 5H18V7H5C4.448 7 4 6.551 4 6C4 5.449 4.448 5 5 5ZM20 19H5.012C4.55 18.988 4 18.805 4 18V8.815C4.314 8.928 4.647 9 5 9H20V19Z" fill="#F2F2F2"/>
</svg>
