<svg width="48" height="48" viewBox="0 0 48 48" fill="none" xmlns="http://www.w3.org/2000/svg">
<circle cx="24" cy="24.0001" r="24" fill="#F3F6FB"/>
<path d="M16.8571 16C16.0994 16 15.3727 16.3372 14.8368 16.9373C14.301 17.5374 14 18.3513 14 19.2V20H34V19.2C34 18.3513 33.699 17.5374 33.1632 16.9373C32.6273 16.3372 31.9006 16 31.1429 16H16.8571Z" fill="#FF9C44"/>
<path fill-rule="evenodd" clip-rule="evenodd" d="M34 22H14V29.1429C14 29.9006 14.301 30.6274 14.8368 31.1632C15.3727 31.699 16.0994 32 16.8571 32H31.1429C31.9006 32 32.6273 31.699 33.1632 31.1632C33.699 30.6274 34 29.9006 34 29.1429V22ZM16.8571 25.5715C16.8571 25.382 16.9324 25.2003 17.0664 25.0664C17.2003 24.9324 17.382 24.8572 17.5714 24.8572H23.2857C23.4752 24.8572 23.6568 24.9324 23.7908 25.0664C23.9247 25.2003 24 25.382 24 25.5715C24 25.7609 23.9247 25.9426 23.7908 26.0765C23.6568 26.2105 23.4752 26.2857 23.2857 26.2857H17.5714C17.382 26.2857 17.2003 26.2105 17.0664 26.0765C16.9324 25.9426 16.8571 25.7609 16.8571 25.5715ZM17.5714 27.7143C17.382 27.7143 17.2003 27.7896 17.0664 27.9235C16.9324 28.0575 16.8571 28.2392 16.8571 28.4286C16.8571 28.618 16.9324 28.7997 17.0664 28.9337C17.2003 29.0676 17.382 29.1429 17.5714 29.1429H20.4286C20.618 29.1429 20.7997 29.0676 20.9336 28.9337C21.0676 28.7997 21.1429 28.618 21.1429 28.4286C21.1429 28.2392 21.0676 28.0575 20.9336 27.9235C20.7997 27.7896 20.618 27.7143 20.4286 27.7143H17.5714Z" fill="#FF9C44"/>
</svg>
