<svg width="44" height="44" viewBox="0 0 44 44" fill="none" xmlns="http://www.w3.org/2000/svg">
<rect width="44" height="44" rx="22" fill="white" fill-opacity="0.2"/>
<path d="M25.3337 19.5V17C25.3337 15.1591 23.8413 13.6667 22.0004 13.6667C20.1594 13.6667 18.6671 15.1591 18.6671 17V19.5M14.9937 20.6266L14.4937 25.96C14.3516 27.4764 14.2805 28.2346 14.5321 28.8202C14.7531 29.3347 15.1405 29.7601 15.6321 30.0282C16.1917 30.3333 16.9532 30.3333 18.4763 30.3333H25.5245C27.0476 30.3333 27.8091 30.3333 28.3687 30.0282C28.8603 29.7601 29.2476 29.3347 29.4687 28.8202C29.7203 28.2346 29.6492 27.4764 29.5071 25.96L29.0071 20.6266C28.887 19.3461 28.827 18.7059 28.539 18.2218C28.2854 17.7955 27.9107 17.4543 27.4625 17.2415C26.9537 17 26.3106 17 25.0245 17L18.9763 17C17.6901 17 17.0471 17 16.5382 17.2415C16.0901 17.4543 15.7154 17.7955 15.4618 18.2218C15.1738 18.7059 15.1138 19.3461 14.9937 20.6266Z" stroke="white" stroke-width="1.5" stroke-linecap="round" stroke-linejoin="round"/>
</svg>
