<svg width="56" height="56" viewBox="0 0 56 56" fill="none" xmlns="http://www.w3.org/2000/svg">
<rect x="0.5" y="0.5" width="55" height="55" rx="27.5" stroke="#EAEAEA"/>
<path d="M32.0004 25V22C32.0004 19.7909 30.2095 18 28.0004 18C25.7912 18 24.0004 19.7909 24.0004 22V25M19.5924 26.352L18.9924 32.752C18.8218 34.5717 18.7365 35.4815 19.0384 36.1843C19.3037 36.8016 19.7685 37.3121 20.3584 37.6338C21.0299 38 21.9437 38 23.7714 38H32.2293C34.057 38 34.9708 38 35.6423 37.6338C36.2322 37.3121 36.6971 36.8016 36.9623 36.1843C37.2643 35.4815 37.179 34.5717 37.0084 32.752L36.4084 26.352C36.2643 24.8153 36.1923 24.047 35.8467 23.4662C35.5424 22.9546 35.0927 22.5451 34.555 22.2898C33.9444 22 33.1727 22 31.6293 22L24.3714 22C22.8281 22 22.0564 22 21.4458 22.2898C20.908 22.5451 20.4584 22.9546 20.154 23.4662C19.8085 24.047 19.7364 24.8153 19.5924 26.352Z" stroke="#053969" stroke-width="1.5" stroke-linecap="round" stroke-linejoin="round"/>
</svg>
