<svg width="78" height="26" viewBox="0 0 78 26" fill="none" xmlns="http://www.w3.org/2000/svg">
<rect y="0.5" width="78" height="25" rx="6" fill="#101010" fill-opacity="0.08"/>
<path d="M14.24 17.62C13.7133 17.62 13.2233 17.5233 12.77 17.33C12.3233 17.1367 11.9333 16.87 11.6 16.53C11.2733 16.1833 11.0167 15.7767 10.83 15.31C10.6433 14.8433 10.55 14.33 10.55 13.77C10.55 13.2167 10.64 12.7067 10.82 12.24C11.0067 11.7667 11.2667 11.36 11.6 11.02C11.9333 10.6733 12.3233 10.4067 12.77 10.22C13.2167 10.0267 13.7067 9.93 14.24 9.93C14.7667 9.93 15.2367 10.02 15.65 10.2C16.07 10.38 16.4233 10.6167 16.71 10.91C16.9967 11.1967 17.2033 11.51 17.33 11.85L16.27 12.35C16.11 11.95 15.8533 11.6267 15.5 11.38C15.1533 11.1267 14.7333 11 14.24 11C13.7467 11 13.31 11.1167 12.93 11.35C12.55 11.5833 12.2533 11.9067 12.04 12.32C11.8333 12.7333 11.73 13.2167 11.73 13.77C11.73 14.3233 11.8333 14.81 12.04 15.23C12.2533 15.6433 12.55 15.9667 12.93 16.2C13.31 16.4267 13.7467 16.54 14.24 16.54C14.7333 16.54 15.1533 16.4167 15.5 16.17C15.8533 15.9233 16.11 15.6 16.27 15.2L17.33 15.7C17.2033 16.0333 16.9967 16.3467 16.71 16.64C16.4233 16.9333 16.07 17.17 15.65 17.35C15.2367 17.53 14.7667 17.62 14.24 17.62ZM21.1458 17.62C20.6258 17.62 20.1491 17.4967 19.7158 17.25C19.2891 17.0033 18.9491 16.6667 18.6958 16.24C18.4424 15.8133 18.3158 15.33 18.3158 14.79C18.3158 14.2433 18.4424 13.76 18.6958 13.34C18.9491 12.9133 19.2891 12.58 19.7158 12.34C20.1424 12.0933 20.6191 11.97 21.1458 11.97C21.6791 11.97 22.1558 12.0933 22.5758 12.34C23.0024 12.58 23.3391 12.9133 23.5858 13.34C23.8391 13.76 23.9658 14.2433 23.9658 14.79C23.9658 15.3367 23.8391 15.8233 23.5858 16.25C23.3324 16.6767 22.9924 17.0133 22.5658 17.26C22.1391 17.5 21.6658 17.62 21.1458 17.62ZM21.1458 16.57C21.4658 16.57 21.7491 16.4933 21.9958 16.34C22.2424 16.1867 22.4358 15.9767 22.5758 15.71C22.7224 15.4367 22.7958 15.13 22.7958 14.79C22.7958 14.45 22.7224 14.1467 22.5758 13.88C22.4358 13.6133 22.2424 13.4033 21.9958 13.25C21.7491 13.0967 21.4658 13.02 21.1458 13.02C20.8324 13.02 20.5491 13.0967 20.2958 13.25C20.0491 13.4033 19.8524 13.6133 19.7058 13.88C19.5658 14.1467 19.4958 14.45 19.4958 14.79C19.4958 15.13 19.5658 15.4367 19.7058 15.71C19.8524 15.9767 20.0491 16.1867 20.2958 16.34C20.5491 16.4933 20.8324 16.57 21.1458 16.57ZM25.269 17.5V12.09H26.349V13.26L26.209 13.08C26.3223 12.7133 26.529 12.4367 26.829 12.25C27.129 12.0633 27.4723 11.97 27.859 11.97C28.2923 11.97 28.6757 12.0867 29.009 12.32C29.349 12.5467 29.5757 12.85 29.689 13.23L29.369 13.26C29.529 12.8267 29.7723 12.5033 30.099 12.29C30.4323 12.0767 30.8123 11.97 31.239 11.97C31.6123 11.97 31.949 12.0567 32.249 12.23C32.5557 12.4033 32.799 12.6433 32.979 12.95C33.159 13.2567 33.249 13.6067 33.249 14V17.5H32.119V14.31C32.119 14.0367 32.069 13.8067 31.969 13.62C31.8757 13.4267 31.7423 13.28 31.569 13.18C31.4023 13.0733 31.2057 13.02 30.979 13.02C30.7523 13.02 30.5523 13.0733 30.379 13.18C30.2057 13.28 30.069 13.4267 29.969 13.62C29.869 13.8133 29.819 14.0433 29.819 14.31V17.5H28.699V14.31C28.699 14.0367 28.649 13.8067 28.549 13.62C28.4557 13.4267 28.3223 13.28 28.149 13.18C27.9823 13.0733 27.7823 13.02 27.549 13.02C27.3223 13.02 27.1223 13.0733 26.949 13.18C26.7757 13.28 26.639 13.4267 26.539 13.62C26.4457 13.8133 26.399 14.0433 26.399 14.31V17.5H25.269ZM34.6584 19.5V12.09H35.7384V13.21L35.6084 12.95C35.8084 12.6433 36.0751 12.4033 36.4084 12.23C36.7418 12.0567 37.1218 11.97 37.5484 11.97C38.0618 11.97 38.5218 12.0933 38.9284 12.34C39.3418 12.5867 39.6651 12.9233 39.8984 13.35C40.1384 13.7767 40.2584 14.2567 40.2584 14.79C40.2584 15.3233 40.1384 15.8033 39.8984 16.23C39.6651 16.6567 39.3451 16.9967 38.9384 17.25C38.5318 17.4967 38.0684 17.62 37.5484 17.62C37.1284 17.62 36.7451 17.5333 36.3984 17.36C36.0584 17.1867 35.7951 16.9367 35.6084 16.61L35.7884 16.4V19.5H34.6584ZM37.4384 16.57C37.7584 16.57 38.0418 16.4933 38.2884 16.34C38.5351 16.1867 38.7284 15.9767 38.8684 15.71C39.0151 15.4367 39.0884 15.13 39.0884 14.79C39.0884 14.45 39.0151 14.1467 38.8684 13.88C38.7284 13.6133 38.5351 13.4033 38.2884 13.25C38.0418 13.0967 37.7584 13.02 37.4384 13.02C37.1251 13.02 36.8418 13.0967 36.5884 13.25C36.3418 13.4033 36.1451 13.6133 35.9984 13.88C35.8584 14.1467 35.7884 14.45 35.7884 14.79C35.7884 15.13 35.8584 15.4367 35.9984 15.71C36.1451 15.9767 36.3418 16.1867 36.5884 16.34C36.8418 16.4933 37.1251 16.57 37.4384 16.57ZM41.5577 17.5V9.93H42.6877V17.5H41.5577ZM46.7488 17.62C46.2088 17.62 45.7288 17.4967 45.3088 17.25C44.8955 16.9967 44.5722 16.6567 44.3388 16.23C44.1055 15.7967 43.9888 15.3133 43.9888 14.78C43.9888 14.2333 44.1055 13.75 44.3388 13.33C44.5788 12.91 44.8988 12.58 45.2988 12.34C45.6988 12.0933 46.1522 11.97 46.6588 11.97C47.0655 11.97 47.4288 12.04 47.7488 12.18C48.0688 12.32 48.3388 12.5133 48.5588 12.76C48.7788 13 48.9455 13.2767 49.0588 13.59C49.1788 13.9033 49.2388 14.2367 49.2388 14.59C49.2388 14.6767 49.2355 14.7667 49.2288 14.86C49.2222 14.9533 49.2088 15.04 49.1888 15.12H44.8788V14.22H48.5488L48.0088 14.63C48.0755 14.3033 48.0522 14.0133 47.9388 13.76C47.8322 13.5 47.6655 13.2967 47.4388 13.15C47.2188 12.9967 46.9588 12.92 46.6588 12.92C46.3588 12.92 46.0922 12.9967 45.8588 13.15C45.6255 13.2967 45.4455 13.51 45.3188 13.79C45.1922 14.0633 45.1422 14.3967 45.1688 14.79C45.1355 15.1567 45.1855 15.4767 45.3188 15.75C45.4588 16.0233 45.6522 16.2367 45.8988 16.39C46.1522 16.5433 46.4388 16.62 46.7588 16.62C47.0855 16.62 47.3622 16.5467 47.5888 16.4C47.8222 16.2533 48.0055 16.0633 48.1388 15.83L49.0588 16.28C48.9522 16.5333 48.7855 16.7633 48.5588 16.97C48.3388 17.17 48.0722 17.33 47.7588 17.45C47.4522 17.5633 47.1155 17.62 46.7488 17.62ZM52.8816 17.56C52.315 17.56 51.875 17.4 51.5616 17.08C51.2483 16.76 51.0916 16.31 51.0916 15.73V13.11H50.1416V12.09H50.2916C50.545 12.09 50.7416 12.0167 50.8816 11.87C51.0216 11.7233 51.0916 11.5233 51.0916 11.27V10.85H52.2216V12.09H53.4516V13.11H52.2216V15.68C52.2216 15.8667 52.2516 16.0267 52.3116 16.16C52.3716 16.2867 52.4683 16.3867 52.6016 16.46C52.735 16.5267 52.9083 16.56 53.1216 16.56C53.175 16.56 53.235 16.5567 53.3016 16.55C53.3683 16.5433 53.4316 16.5367 53.4916 16.53V17.5C53.3983 17.5133 53.295 17.5267 53.1816 17.54C53.0683 17.5533 52.9683 17.56 52.8816 17.56ZM57.2367 17.62C56.6967 17.62 56.2167 17.4967 55.7967 17.25C55.3834 16.9967 55.0601 16.6567 54.8267 16.23C54.5934 15.7967 54.4767 15.3133 54.4767 14.78C54.4767 14.2333 54.5934 13.75 54.8267 13.33C55.0667 12.91 55.3867 12.58 55.7867 12.34C56.1867 12.0933 56.6401 11.97 57.1467 11.97C57.5534 11.97 57.9167 12.04 58.2367 12.18C58.5567 12.32 58.8267 12.5133 59.0467 12.76C59.2667 13 59.4334 13.2767 59.5467 13.59C59.6667 13.9033 59.7267 14.2367 59.7267 14.59C59.7267 14.6767 59.7234 14.7667 59.7167 14.86C59.7101 14.9533 59.6967 15.04 59.6767 15.12H55.3667V14.22H59.0367L58.4967 14.63C58.5634 14.3033 58.5401 14.0133 58.4267 13.76C58.3201 13.5 58.1534 13.2967 57.9267 13.15C57.7067 12.9967 57.4467 12.92 57.1467 12.92C56.8467 12.92 56.5801 12.9967 56.3467 13.15C56.1134 13.2967 55.9334 13.51 55.8067 13.79C55.6801 14.0633 55.6301 14.3967 55.6567 14.79C55.6234 15.1567 55.6734 15.4767 55.8067 15.75C55.9467 16.0233 56.1401 16.2367 56.3867 16.39C56.6401 16.5433 56.9267 16.62 57.2467 16.62C57.5734 16.62 57.8501 16.5467 58.0767 16.4C58.3101 16.2533 58.4934 16.0633 58.6267 15.83L59.5467 16.28C59.4401 16.5333 59.2734 16.7633 59.0467 16.97C58.8267 17.17 58.5601 17.33 58.2467 17.45C57.9401 17.5633 57.6034 17.62 57.2367 17.62ZM63.5295 17.62C63.0095 17.62 62.5429 17.4967 62.1295 17.25C61.7229 16.9967 61.3995 16.6567 61.1595 16.23C60.9262 15.8033 60.8095 15.3233 60.8095 14.79C60.8095 14.2567 60.9295 13.7767 61.1695 13.35C61.4095 12.9233 61.7329 12.5867 62.1395 12.34C62.5462 12.0933 63.0062 11.97 63.5195 11.97C63.9529 11.97 64.3362 12.0567 64.6695 12.23C65.0029 12.4033 65.2662 12.6433 65.4595 12.95L65.2895 13.21V9.93H66.4095V17.5H65.3395V16.4L65.4695 16.61C65.2829 16.9367 65.0162 17.1867 64.6695 17.36C64.3229 17.5333 63.9429 17.62 63.5295 17.62ZM63.6395 16.57C63.9529 16.57 64.2329 16.4933 64.4795 16.34C64.7329 16.1867 64.9295 15.9767 65.0695 15.71C65.2162 15.4367 65.2895 15.13 65.2895 14.79C65.2895 14.45 65.2162 14.1467 65.0695 13.88C64.9295 13.6133 64.7329 13.4033 64.4795 13.25C64.2329 13.0967 63.9529 13.02 63.6395 13.02C63.3262 13.02 63.0429 13.0967 62.7895 13.25C62.5362 13.4033 62.3395 13.6133 62.1995 13.88C62.0595 14.1467 61.9895 14.45 61.9895 14.79C61.9895 15.13 62.0595 15.4367 62.1995 15.71C62.3395 15.9767 62.5329 16.1867 62.7795 16.34C63.0329 16.4933 63.3195 16.57 63.6395 16.57Z" fill="#35383F"/>
</svg>
