<svg width="48" height="48" viewBox="0 0 48 48" fill="none" xmlns="http://www.w3.org/2000/svg">
<circle cx="24" cy="24" r="24" fill="#F3F6FB"/>
<path fill-rule="evenodd" clip-rule="evenodd" d="M19.3338 15.8187C20.1376 15.7545 20.9007 15.4385 21.5145 14.9154C22.9467 13.6949 25.0533 13.6949 26.4855 14.9154C27.0993 15.4385 27.8624 15.7545 28.6662 15.8187C30.5421 15.9684 32.0316 17.4579 32.1813 19.3338C32.2455 20.1376 32.5615 20.9007 33.0846 21.5145C34.3051 22.9467 34.3051 25.0533 33.0846 26.4855C32.5615 27.0993 32.2455 27.8624 32.1813 28.6662C32.0316 30.5421 30.5421 32.0316 28.6662 32.1813C27.8624 32.2455 27.0993 32.5615 26.4855 33.0846C25.0533 34.3051 22.9467 34.3051 21.5145 33.0846C20.9007 32.5615 20.1376 32.2455 19.3338 32.1813C17.4579 32.0316 15.9684 30.5421 15.8187 28.6662C15.7545 27.8624 15.4385 27.0993 14.9154 26.4855C13.6949 25.0533 13.6949 22.9467 14.9154 21.5145C15.4385 20.9007 15.7545 20.1376 15.8187 19.3338C15.9684 17.4579 17.4579 15.9684 19.3338 15.8187ZM28.5303 20.5303C28.8232 20.2374 28.8232 19.7626 28.5303 19.4697C28.2374 19.1768 27.7626 19.1768 27.4697 19.4697L19.4697 27.4697C19.1768 27.7626 19.1768 28.2374 19.4697 28.5303C19.7626 28.8232 20.2374 28.8232 20.5303 28.5303L28.5303 20.5303ZM21 19.75C20.3096 19.75 19.75 20.3096 19.75 21C19.75 21.6904 20.3096 22.25 21 22.25C21.6904 22.25 22.25 21.6904 22.25 21C22.25 20.3096 21.6904 19.75 21 19.75ZM27 25.75C26.3096 25.75 25.75 26.3096 25.75 27C25.75 27.6904 26.3096 28.25 27 28.25C27.6904 28.25 28.25 27.6904 28.25 27C28.25 26.3096 27.6904 25.75 27 25.75Z" fill="#FF5944"/>
</svg>
