<svg width="201" height="201" viewBox="0 0 201 201" fill="none" xmlns="http://www.w3.org/2000/svg">
<g clip-path="url(#clip0_61_761)">
<path d="M13.5683 90.8243L17.282 104.963C18.4399 109.372 30.0741 111.459 28.4236 117.969C27.2557 122.575 26.6399 125.862 26.3094 130.734C25.6355 140.669 29.6282 150.087 35.6492 157.693C41.6092 165.221 50.7294 155.035 54.3281 149.337C58.8376 142.196 65.847 144.089 73.2711 143.363C82.6048 142.451 83.6994 151.56 91.0411 157.693C96.4607 162.219 106.397 159.395 108.25 166.448C110.301 174.257 111.9 182.39 121.291 182.041C125.825 181.872 130.284 180.498 134.839 180.298C140.071 180.068 144.742 180.148 149.811 178.816C160.648 175.97 171.595 169.812 179.101 161.319C182.884 157.04 174.649 149.874 173.556 145.71C171.588 138.217 182.638 135.547 186.108 130.884C189.942 125.732 193.096 117.928 191.412 111.517C190.34 107.436 189.278 104.583 185.76 102.38C178.726 97.9764 182.178 86.1608 183.854 79.6418C185.933 71.5551 187.567 64.4722 190.927 56.8596C193.64 50.7129 194.063 47.2977 192.408 40.9932C190.744 34.6586 186.039 31.3759 181.356 26.7841C178.967 24.4415 176.153 22.7768 173.183 25.2541C169.837 28.0454 166.115 29.2319 161.924 30.2084C159.123 30.8612 156.425 29.5655 154.074 28.1853C150.193 25.907 145.998 24.4281 142.018 22.3648C136.156 19.3257 129.596 14.141 123.192 12.7849C115.84 11.2285 106.065 11.2208 98.6465 11.8787C96.8582 12.0372 94.9394 12.293 93.1755 11.8631C86.7976 10.309 78.5279 13.2261 73.1349 16.5821C68.6574 19.3683 64.6131 22.3968 61.4455 26.7784C58.0359 31.4946 55.4968 32.8343 49.7855 34.3343C43.5941 35.9605 35.7153 37.4647 31.9501 43.1492C29.3916 47.0118 25.2935 50.3053 26.2247 55.4101C27.1213 60.3255 28.5352 66.3122 28.7313 71.3188C28.8568 74.5224 19.0635 78.113 16.7543 80.592C13.3034 84.2967 12.2403 85.7679 13.5683 90.8243Z" fill="#F4F7FA"/>
<path d="M116.761 27.2699C114.479 25.3142 109.549 26.3238 107.4 27.5033C106.069 28.1976 105.191 28.2868 104.1 28.0729C103.695 27.9911 103.276 28.0129 102.883 28.1359C102.488 28.259 102.131 28.4795 101.845 28.777C101.653 28.9907 101.427 29.172 101.176 29.3136C100.642 29.6411 99.9406 29.7793 99.3881 29.4847C98.0607 28.2453 95.9584 28.2416 94.2863 28.6877C92.0751 29.8489 90.0792 31.4184 87.9537 32.736C87.0981 33.3471 86.1555 33.8043 85.1019 33.8862C85.5248 35.1085 85.6324 36.3772 85.6446 37.6594C88.9558 37.8623 90.6415 34.2712 93.2413 32.736C95.4415 31.3915 98.0083 32.4915 100.453 33.2249C102.531 33.7138 103.997 32.1248 105.709 31.2692C106.931 30.5359 108.642 31.8804 110.109 31.2692C111.698 30.5359 112.798 29.0691 114.265 27.969C114.716 27.6305 116.928 28.3431 117.414 28.2135C117.202 27.5657 117.267 28.4298 116.761 27.2699Z" fill="#1B5EC9"/>
<path d="M83.047 36.2159C83.5359 37.7022 85.5172 38.2156 86.9913 37.6826C88.4654 37.1497 89.5496 35.9274 90.6118 34.7736C91.6739 33.6197 92.8657 32.4512 94.4009 32.1346C97.5458 31.4868 101.206 34.5731 103.717 32.571C104.431 32.0026 104.959 31.0529 105.868 30.9698C106.333 30.9282 106.779 31.1372 107.232 31.2534C109.54 31.8449 111.702 30.0311 113.443 28.4078C114.256 27.6476 115.473 26.8616 116.376 27.5131C116.799 27.8175 116.98 28.3479 117.138 28.8442C123.676 49.475 130.215 70.1053 136.756 90.7352C136.785 90.8269 132.653 91.5774 132.275 91.6263C130.725 91.8189 129.164 91.9213 127.602 91.9331C124.462 91.9636 121.328 91.6788 118.216 91.2816C115.038 90.877 111.881 90.3514 108.713 89.8943C105.575 89.4408 102.423 89.0485 99.2534 88.9165C96.161 88.7942 93.0478 88.9164 90.0006 89.4885C89.3308 89.6107 88.4299 90.0214 87.7577 89.9774C87.0475 89.9334 87.1001 88.6622 86.9974 88.1134C86.6625 86.3166 86.348 84.5165 86.0538 82.7133C85.4631 79.0904 84.9558 75.4544 84.532 71.8055C84.1091 68.1753 83.7698 64.5369 83.5139 60.8904C83.2565 57.2235 83.0824 53.5566 82.9919 49.8897C82.9024 46.2366 82.8966 42.5825 82.9748 38.9269C82.9928 38.024 83.0169 37.1204 83.047 36.2159Z" fill="white"/>
<path d="M127.138 92.4244C124.528 92.4244 121.657 92.2129 118.154 91.7668C116.109 91.5052 114.039 91.1911 112.042 90.8867C110.929 90.7168 109.778 90.542 108.647 90.3783C105.851 89.9737 102.546 89.5422 99.2353 89.4004C95.8422 89.2598 92.8536 89.4444 90.0925 89.9639C89.8786 90.0042 89.6256 90.0861 89.3591 90.1619C88.8152 90.3257 88.2517 90.4956 87.7322 90.4638C86.7544 90.4039 86.6321 89.2574 86.5661 88.5729C86.5515 88.4287 86.538 88.2942 86.5209 88.2062C86.186 86.4131 85.8682 84.5931 85.5749 82.7963C84.9857 79.182 84.4748 75.5041 84.0494 71.8653C83.629 68.2473 83.2855 64.567 83.03 60.9282C82.7746 57.2895 82.5973 53.5627 82.5069 49.9031C82.4164 46.2436 82.4116 42.5608 82.4898 38.9196C82.5081 38.0163 82.5338 37.102 82.5631 36.1999C82.5671 36.0855 82.6113 35.976 82.6878 35.8908C82.7642 35.8055 82.8682 35.7499 82.9815 35.7334C83.0948 35.7169 83.2104 35.7408 83.308 35.8009C83.4055 35.8609 83.4789 35.9533 83.5153 36.0618C83.599 36.2941 83.7288 36.507 83.8968 36.6878C84.0648 36.8687 84.2676 37.0136 84.4931 37.1142C85.2285 37.4549 86.0674 37.4961 86.8326 37.2291C88.1233 36.7671 89.1317 35.667 90.1059 34.6036L90.2538 34.4423C91.3233 33.2762 92.608 32.0038 94.3021 31.6554C95.7688 31.3535 97.282 31.7777 98.7414 32.1981C100.586 32.7213 102.177 33.176 103.413 32.1884C103.619 32.0146 103.814 31.8272 103.995 31.6273C104.474 31.1262 105.016 30.5566 105.828 30.4833C106.267 30.4441 106.664 30.5688 107.017 30.6788C107.139 30.7167 107.248 30.7509 107.358 30.7803C109.414 31.3059 111.407 29.6472 113.113 28.0509C114.476 26.7773 115.737 26.446 116.666 27.1158C117.237 27.5277 117.451 28.2037 117.607 28.6975L137.221 90.5873C137.243 90.6561 137.25 90.7288 137.241 90.8004C137.231 90.8719 137.207 90.9406 137.168 91.0016C137.031 91.2168 137.009 91.2461 134.723 91.6849C133.745 91.8719 132.56 92.0821 132.34 92.1103C130.77 92.3063 129.191 92.4104 127.609 92.4219L127.138 92.4244ZM97.0962 88.3822C97.8052 88.3822 98.5312 88.3978 99.2744 88.4287C102.627 88.5668 105.962 89.002 108.782 89.4065C109.918 89.5703 111.07 89.7463 112.185 89.9162C114.181 90.2194 116.244 90.5274 118.278 90.7926C121.945 91.2607 124.909 91.4661 127.597 91.4404C129.141 91.4287 130.682 91.3275 132.214 91.1373C132.572 91.0909 135.106 90.6276 136.138 90.4039L116.666 28.9921C116.516 28.5215 116.369 28.1144 116.084 27.9091C115.351 27.3811 114.129 28.431 113.772 28.7647C112.573 29.8868 110.471 31.8535 108.12 31.8547C107.778 31.8548 107.437 31.8118 107.105 31.7263C106.971 31.6921 106.841 31.6518 106.715 31.6127C106.424 31.521 106.151 31.4354 105.907 31.4574C105.465 31.4978 105.109 31.8706 104.697 32.302C104.486 32.5342 104.259 32.7518 104.018 32.9535C102.39 34.2528 100.396 33.6869 98.4701 33.1381C97.1256 32.7555 95.7285 32.3595 94.494 32.6125C93.0859 32.9022 91.9357 34.0511 90.9689 35.1035L90.8222 35.2637C89.7673 36.4151 88.6758 37.6068 87.1553 38.1495C86.1416 38.5018 85.0306 38.4453 84.058 37.9918C83.8581 37.8958 83.6688 37.779 83.4933 37.6435C83.4823 38.0762 83.4713 38.5101 83.4627 38.9403C83.3857 42.5669 83.3906 46.2472 83.4798 49.8799C83.5691 53.5126 83.7439 57.2137 84.0005 60.8598C84.2572 64.5059 84.597 68.1483 85.0163 71.7517C85.438 75.3758 85.9489 79.039 86.5356 82.6387C86.8277 84.4281 87.1467 86.2408 87.478 88.0278C87.5024 88.1598 87.5183 88.315 87.5342 88.4788C87.5978 89.09 87.6784 89.4371 87.7787 89.4909C88.1343 89.5129 88.6123 89.3686 89.0755 89.2305C89.35 89.1417 89.6291 89.0673 89.9116 89.0081C92.2817 88.5759 94.6871 88.3664 97.0962 88.3822Z" fill="black"/>
<path d="M92.3437 36.6608C91.955 37.4137 92.3547 38.724 93.1553 39.0003C93.9559 39.2765 95.0963 38.7949 95.4777 38.0371C95.8591 37.2793 95.562 36.1254 94.8299 35.7147C93.7359 35.1158 92.9341 35.5253 92.3437 36.6608ZM107.861 33.1919C107.127 33.9253 107.386 35.3737 108.331 35.804C109.276 36.2342 110.54 35.4788 110.61 34.4423C110.679 33.4058 109.528 32.4866 108.532 32.7898L107.861 33.1919Z" fill="#1B5EC9"/>
<path d="M93.484 36.772C93.3734 36.7721 93.2661 36.7346 93.1794 36.6658C93.0929 36.597 93.0323 36.5009 93.0073 36.3931C92.4377 33.9253 92.3008 31.8058 92.5893 29.9149C92.956 27.5302 94.0255 25.4645 95.6072 24.0956C96.6803 23.1691 98.0371 22.5066 99.6407 22.1118C100.69 21.8563 101.533 21.8135 102.292 21.9749C104.404 22.4271 105.686 24.4085 106.467 25.8593C107.741 28.2239 108.677 30.755 109.248 33.3789C109.261 33.4416 109.262 33.5065 109.251 33.5697C109.24 33.633 109.217 33.6934 109.182 33.7474C109.148 33.8016 109.102 33.8483 109.05 33.885C108.997 33.9216 108.937 33.9477 108.875 33.9613C108.811 33.975 108.747 33.9763 108.684 33.965C108.621 33.9536 108.56 33.9299 108.506 33.8952C108.452 33.8606 108.406 33.8156 108.369 33.7628C108.332 33.7102 108.305 33.6506 108.292 33.5879C107.739 31.0525 106.834 28.6071 105.603 26.3226C104.503 24.2875 103.389 23.2106 102.084 22.9319C101.473 22.8012 100.77 22.8427 99.8669 23.0615C98.416 23.4135 97.1961 24.0112 96.2428 24.8351C94.8359 26.0512 93.8801 27.9079 93.5537 30.0616C93.2848 31.8303 93.4168 33.8287 93.9583 36.1731C93.9748 36.2448 93.975 36.3193 93.9588 36.391C93.9425 36.4628 93.9102 36.53 93.8644 36.5876C93.8186 36.6451 93.7604 36.6916 93.6941 36.7236C93.6278 36.7555 93.5552 36.772 93.4816 36.772H93.484Z" fill="black"/>
<path d="M95.5368 29.8159C95.4297 29.8161 95.3257 29.7811 95.2404 29.7164C95.1552 29.6518 95.0936 29.5608 95.065 29.4578C94.5639 27.6574 94.4441 26.1075 94.6983 24.719C94.998 23.0021 95.9552 21.4696 97.3666 20.447C98.2992 19.7784 99.4787 19.2968 100.869 19.0169C101.776 18.8336 102.505 18.803 103.159 18.9192C105.004 19.2443 106.135 20.6866 106.815 21.7488C107.91 23.423 108.731 25.2618 109.245 27.1953C109.271 27.3189 109.249 27.4481 109.183 27.5558C109.117 27.6635 109.012 27.7413 108.89 27.773C108.767 27.8045 108.637 27.7875 108.527 27.7254C108.417 27.6633 108.335 27.5609 108.298 27.4398C107.812 25.6066 107.035 23.8631 105.996 22.2756C105.063 20.8394 104.107 20.0754 102.99 19.8811C102.458 19.787 101.847 19.8163 101.064 19.974C99.8099 20.227 98.7576 20.6524 97.9374 21.2403C96.7322 22.1161 95.9158 23.4271 95.6615 24.895C95.4329 26.1344 95.5466 27.54 96.0074 29.1938C96.0277 29.2664 96.031 29.3428 96.0169 29.417C96.0029 29.491 95.9718 29.561 95.9262 29.6211C95.8806 29.6812 95.8218 29.73 95.7542 29.7636C95.6867 29.7972 95.6122 29.8147 95.5368 29.8147V29.8159ZM93.6824 62.2068C93.5309 62.2068 93.3793 62.2068 93.229 62.1909C91.1071 62.0479 89.138 60.8232 88.2102 59.0728C87.2972 57.3482 87.3143 55.126 88.2579 52.9748C89.6428 49.8164 91.4493 48.1137 93.6262 47.9133C96.4876 47.6505 100.254 48.6271 101.455 52.2451C102.343 54.9256 101.254 58.2209 98.8051 60.2609C97.3029 61.5077 95.4597 62.2068 93.6824 62.2068ZM89.0744 58.6157C89.8469 60.0739 91.5031 61.0945 93.295 61.2155C94.961 61.3292 96.7406 60.7071 98.1842 59.5043C100.332 57.7161 101.297 54.8596 100.531 52.5482C99.5116 49.4741 96.2273 48.6515 93.7216 48.8813C91.9248 49.0463 90.3896 50.5534 89.1575 53.3623C88.3349 55.2373 88.3019 57.1514 89.0793 58.6096L89.0744 58.6157Z" fill="black"/>
<path d="M101.763 52.7743C101.726 52.7738 101.691 52.7696 101.654 52.7621C101.528 52.733 101.418 52.655 101.35 52.5452C101.281 52.4353 101.259 52.3028 101.287 52.1766C101.409 51.6404 101.691 51.1533 102.093 50.7785C102.496 50.4038 103.001 50.1587 103.545 50.0752C104.089 49.9916 104.645 50.0734 105.141 50.31C105.637 50.5465 106.052 50.9269 106.329 51.4016C106.368 51.4571 106.394 51.52 106.407 51.5862C106.42 51.6523 106.418 51.7205 106.404 51.7863C106.389 51.8521 106.361 51.914 106.321 51.9684C106.281 52.0228 106.23 52.0683 106.173 52.1021C106.114 52.1359 106.049 52.1573 105.982 52.165C105.915 52.1726 105.848 52.1662 105.783 52.1464C105.718 52.1265 105.659 52.0935 105.608 52.0495C105.557 52.0055 105.515 51.9513 105.486 51.8906C105.307 51.5854 105.041 51.3409 104.721 51.189C104.402 51.0369 104.043 50.9845 103.694 51.0381C103.344 51.0919 103.019 51.2495 102.76 51.4904C102.501 51.7312 102.32 52.0445 102.241 52.3893C102.217 52.4984 102.156 52.5961 102.069 52.6661C101.983 52.7362 101.875 52.7743 101.763 52.7743Z" fill="black"/>
<path d="M111.045 56.2419H110.929C108.818 56.2028 106.815 55.005 105.943 53.262C104.865 51.1046 105.526 48.6429 106.272 46.9561C106.87 45.603 107.632 44.5115 108.538 43.7268C110.167 42.3053 112.02 41.7247 113.897 42.0474C114.968 42.2469 115.967 42.7277 116.792 43.4407C117.616 44.1535 118.236 45.0728 118.588 46.1042C119.443 48.7187 118.514 51.8954 116.287 54.01C114.786 55.4315 112.882 56.2419 111.045 56.2419ZM112.878 42.936C111.588 42.936 110.349 43.4469 109.186 44.4626C108.388 45.1581 107.71 46.1299 107.171 47.3497C106.63 48.572 105.866 50.9115 106.822 52.8232C107.536 54.2496 109.196 55.2311 110.952 55.2678H111.05C112.639 55.2678 114.299 54.5552 115.619 53.3023C117.574 51.4432 118.401 48.6735 117.664 46.4085C117.368 45.5454 116.848 44.7763 116.157 44.1802C115.466 43.5842 114.629 43.1827 113.732 43.0167C113.449 42.9652 113.162 42.9382 112.873 42.936H112.878Z" fill="black"/>
<path d="M90.2879 54.4672C89.7427 56.1136 90.1559 58.1658 91.5982 59.129C92.6066 59.8037 93.9376 59.8477 95.1001 59.503C96.9567 58.9518 98.5298 57.3616 98.8256 55.4474C98.9276 54.754 98.8705 54.0466 98.6588 53.3785C98.4469 52.7103 98.0861 52.0992 97.6033 51.5911C96.6878 50.6426 94.6918 49.6354 93.4585 50.535C92.1213 51.508 90.8147 52.8757 90.2879 54.4672Z" fill="#FACBDF"/>
<path d="M92.5038 57.0218C92.4182 57.0213 92.3344 56.9984 92.2605 56.9552C92.1865 56.9121 92.1253 56.8503 92.0826 56.7762C92.0401 56.7018 92.0177 56.6177 92.0178 56.5322C92.0181 56.4466 92.0406 56.3625 92.0833 56.2885L94.3739 52.415C94.4399 52.3033 94.5476 52.2224 94.6731 52.1901C94.7988 52.1578 94.9322 52.1766 95.0437 52.2427C95.1555 52.3087 95.2364 52.4162 95.2686 52.5419C95.301 52.6675 95.2821 52.8008 95.2161 52.9125L92.9243 56.7859C92.8806 56.8583 92.8189 56.9179 92.7452 56.9594C92.6715 57.0007 92.5884 57.0222 92.5038 57.0218ZM95.0573 56.5916C94.995 56.5916 94.9332 56.58 94.8752 56.5574C94.7549 56.509 94.6588 56.415 94.608 56.2957C94.5571 56.1765 94.5556 56.042 94.6038 55.9218C94.9198 55.135 95.3999 54.4246 96.0119 53.8378C96.0581 53.7924 96.1129 53.7567 96.173 53.7326C96.233 53.7086 96.2973 53.6967 96.3621 53.6978C96.4269 53.6988 96.4907 53.7126 96.5501 53.7385C96.6094 53.7644 96.663 53.8018 96.7078 53.8486C96.7525 53.8954 96.7875 53.9506 96.8108 54.0111C96.834 54.0715 96.845 54.1359 96.8432 54.2007C96.8414 54.2653 96.8267 54.329 96.7999 54.388C96.7733 54.4469 96.7352 54.5001 96.6879 54.5442C96.1767 55.0345 95.7754 55.6278 95.5108 56.2848C95.4745 56.3754 95.4119 56.453 95.331 56.5076C95.2502 56.5623 95.1548 56.5916 95.0573 56.5916Z" fill="black"/>
<path d="M74.9478 90.4419C68.8071 70.7594 63.9746 50.6923 60.4819 30.3721C60.4244 30.0359 60.3682 29.6815 60.4916 29.3637C60.6334 28.997 60.9806 28.7525 61.3191 28.5533C64.1977 26.8066 67.5223 25.9669 70.7895 25.1516L82.977 22.1057C83.4415 21.9908 83.9292 21.8747 84.3912 21.9981C85.4265 22.2756 85.7859 23.5321 85.9692 24.5869C89.8635 47.0907 92.5867 69.812 97.7094 92.0737C90.4954 91.8821 83.281 91.9902 76.0662 92.3976L73.3368 84.4367L74.9478 90.4419Z" fill="white"/>
<path d="M76.0668 92.8865C75.965 92.8864 75.8657 92.8546 75.783 92.7954C75.7001 92.7363 75.6378 92.6526 75.6048 92.5565L75.0425 90.9186C74.9236 90.9431 74.7998 90.9226 74.6951 90.8609C74.5905 90.7993 74.5126 90.7009 74.4766 90.5849C68.336 70.8813 63.5004 50.7946 60.0009 30.4552C59.9422 30.1117 59.8604 29.6411 60.0364 29.1864C60.2258 28.6975 60.6475 28.3919 61.0655 28.1353C64.0333 26.3348 67.408 25.4914 70.6716 24.6774L82.8591 21.6265C83.3334 21.5043 83.9237 21.3613 84.519 21.5214C85.8501 21.8783 86.2595 23.3915 86.4514 24.4989C87.73 31.8938 88.9009 39.4244 90.034 46.7081C92.3564 61.6201 94.7484 77.0272 98.1855 91.9636C98.2022 92.0364 98.2021 92.1119 98.1852 92.1846C98.1683 92.2572 98.1349 92.3251 98.0877 92.3829C98.0405 92.4407 97.9808 92.4869 97.9129 92.5181C97.8452 92.5492 97.7711 92.5644 97.6966 92.5626C90.5266 92.3743 83.26 92.4843 76.0986 92.8865H76.0668ZM73.4865 83.971C73.5589 83.9943 73.6249 84.0341 73.6793 84.0874C73.7335 84.1407 73.7747 84.2058 73.7994 84.2778L76.409 91.8891C83.2673 91.5126 90.221 91.4002 97.0879 91.5676C93.7168 76.7888 91.3516 61.5761 89.0623 46.8572C87.9304 39.5772 86.7595 32.0478 85.4822 24.67C85.2511 23.3255 84.8624 22.6313 84.2599 22.4699C83.9091 22.3758 83.4739 22.4846 83.0901 22.5811L70.9087 25.6259C67.7161 26.4228 64.4146 27.2479 61.5728 28.9713C61.3173 29.1265 61.0362 29.3111 60.9482 29.5397C60.8761 29.7267 60.9115 29.9785 60.9641 30.2889C64.0835 48.4135 68.2666 66.3389 73.4914 83.9723L73.4865 83.971Z" fill="black"/>
<path d="M71.0552 35.5803C70.5431 36.7293 70.5663 38.0359 70.6054 39.2949C70.7496 44.2391 70.8975 49.2236 72.0917 54.0174C73.2859 58.8113 75.6291 63.4731 79.4707 66.5851C80.0892 67.085 80.8153 67.5629 81.6073 67.5116C82.8296 67.4309 83.5911 66.1744 84.0433 65.0377C85.9428 60.2499 86.109 54.8865 85.1019 49.836C84.0947 44.7854 81.963 40.016 79.3986 35.5497C78.6738 34.2883 77.9319 33.8385 76.5788 33.1736C75.3333 32.5624 73.6074 32.8631 72.6308 33.6381C71.9569 34.1492 71.4164 34.8155 71.0552 35.5803Z" fill="#FF8D55"/>
<path d="M75.0017 53.4722C74.8876 53.4721 74.7771 53.4321 74.6893 53.3591C74.6016 53.2862 74.5421 53.1847 74.5214 53.0725C73.8601 49.5095 73.3712 45.8732 73.0681 42.2625C72.9128 40.4107 72.8089 38.6091 73.2453 36.9137C73.322 36.5965 73.4811 36.3053 73.7065 36.0691C73.9317 35.8331 74.2154 35.6606 74.5287 35.5692C74.9615 35.4445 75.4183 35.4278 75.8591 35.5202C76.2998 35.6127 76.7114 35.8116 77.0576 36.0997C78.0159 36.9211 78.3741 38.1703 78.6625 39.1738L81.7256 49.8481C81.7757 50.0204 81.8918 50.4238 81.6535 50.7709C81.5207 50.9481 81.3356 51.0789 81.1242 51.1449L75.1777 53.4343C75.1219 53.4578 75.0622 53.4706 75.0017 53.4722ZM75.2706 36.4419C75.1191 36.4406 74.9682 36.4625 74.8233 36.5067C74.6691 36.5479 74.5291 36.63 74.418 36.7446C74.3069 36.8591 74.229 37.0016 74.1926 37.157C73.7941 38.7044 73.8943 40.4168 74.0422 42.1806C74.327 45.5627 74.7756 48.9692 75.377 52.3147L80.7722 50.2368L80.8113 50.2221C80.8113 50.1977 80.7979 50.1647 80.7856 50.1219L77.7226 39.4488C77.4708 38.5699 77.1566 37.4772 76.4208 36.8477C76.0953 36.5843 75.6893 36.4411 75.2706 36.4419Z" fill="white"/>
<path d="M76.8744 57.2198C76.7618 57.2193 76.653 57.18 76.566 57.1085C76.4791 57.0371 76.4195 56.9379 76.3973 56.8275C76.3749 56.7173 76.3914 56.6027 76.4439 56.5031C76.4963 56.4035 76.5814 56.3252 76.6849 56.281C78.915 55.3442 81.2256 54.6122 83.5884 54.0944C83.6518 54.0786 83.7176 54.0758 83.7822 54.0859C83.8467 54.0961 83.9086 54.1189 83.9641 54.1534C84.0195 54.1879 84.0676 54.2331 84.1054 54.2864C84.143 54.3397 84.1698 54.3999 84.1837 54.4637C84.1978 54.5275 84.199 54.5934 84.1871 54.6576C84.1753 54.7219 84.1506 54.783 84.1148 54.8376C84.0788 54.8921 84.0324 54.939 83.9781 54.9753C83.9238 55.0116 83.8628 55.0366 83.7987 55.049C81.4937 55.5556 79.2391 56.2694 77.0626 57.1819C77.0029 57.2068 76.939 57.2196 76.8744 57.2198Z" fill="black"/>
<path d="M108.407 41.1833C108.352 40.3277 108.305 39.4305 108.672 38.6629C109.331 37.2793 111.015 36.8588 112.49 36.6144C130.277 33.6738 148.428 33.7014 166.207 36.6963C166.679 36.7757 167.185 36.8808 167.501 37.2549C167.868 37.6998 167.823 38.3549 167.754 38.938C165.792 55.6761 163.592 72.3809 161.154 89.0522C161.087 89.513 161.007 90.0007 160.717 90.3576C160.33 90.8318 159.68 90.9504 159.084 91.0311C147.376 92.62 135.494 91.6043 123.744 90.3857C120.558 90.0557 116.643 89.8014 113.945 87.7993C113.137 87.2004 112.801 86.3668 112.621 85.3828C112.295 83.6019 112.151 81.7709 111.939 79.9729C111.45 75.8383 110.998 71.6996 110.582 67.5568C110.167 63.4141 109.784 59.2676 109.435 55.1175C109.086 50.9511 108.773 46.7811 108.495 42.6073C108.469 42.1346 108.44 41.66 108.407 41.1833Z" fill="white"/>
<path d="M146.134 92.3425C138.723 92.3425 131.263 91.6605 123.698 90.8758L122.981 90.8036C119.833 90.4871 116.259 90.1302 113.658 88.1965C112.616 87.4228 112.301 86.3361 112.143 85.4744C111.899 84.1653 111.76 82.8208 111.621 81.5203C111.568 81.0228 111.515 80.5266 111.456 80.0328C110.968 75.9124 110.515 71.7321 110.1 67.6093C109.684 63.4865 109.298 59.2916 108.953 55.1615C108.606 51.013 108.289 46.8009 108.012 42.6439C107.98 42.1688 107.95 41.693 107.919 41.2163C107.865 40.39 107.797 39.3596 108.231 38.4539C108.973 36.8967 110.76 36.4065 112.411 36.1315C130.25 33.1695 148.459 33.1971 166.289 36.2134C166.868 36.3112 167.467 36.4481 167.878 36.9468C168.367 37.5347 168.32 38.3145 168.244 38.999C166.289 55.6614 164.071 72.5279 161.644 89.1291C161.578 89.5801 161.489 90.1998 161.104 90.6716C160.615 91.2828 159.84 91.4282 159.157 91.5211C154.839 92.0884 150.489 92.3628 146.134 92.3425ZM108.894 41.1539C108.926 41.6282 108.957 42.1033 108.987 42.5791C109.265 46.7349 109.58 50.936 109.927 55.0808C110.272 59.2048 110.661 63.3863 111.073 67.5103C111.485 71.6344 111.943 75.8024 112.428 79.9191C112.487 80.4166 112.539 80.9153 112.593 81.4164C112.73 82.6986 112.872 84.026 113.105 85.2984C113.295 86.3288 113.633 86.9607 114.241 87.4105C116.629 89.1841 120.057 89.5276 123.079 89.8307L123.799 89.9028C135.747 91.1422 147.431 92.125 159.022 90.5494C159.542 90.4797 160.072 90.3832 160.342 90.0519C160.54 89.8075 160.606 89.4408 160.673 88.9849C163.097 72.3922 165.318 55.5355 167.274 38.8829C167.33 38.394 167.37 37.8586 167.13 37.5677C166.933 37.3318 166.545 37.2499 166.131 37.1802C148.408 34.1817 130.308 34.1541 112.575 37.0983C111.108 37.3428 109.666 37.7266 109.118 38.8743C108.819 39.5014 108.841 40.2458 108.899 41.1539H108.894Z" fill="black"/>
<path d="M128.483 56.9973C124.797 60.5872 128.231 69.6139 133.435 66.8442C133.759 66.6778 134.114 66.582 134.478 66.5629C134.843 66.544 135.206 66.6024 135.546 66.7341C137.083 67.3074 138.497 66.7818 139.579 66.1132C141.317 65.0388 143.189 62.0796 143.192 59.3209C143.192 55.1468 139.688 54.3009 137.213 55.335C136.122 55.8313 135.685 56.6331 134.97 56.7113C134.255 56.7895 134.019 56.0158 132.885 55.8068C131.37 55.6064 129.652 55.9633 128.483 56.9973Z" fill="black"/>
<path d="M134.69 57.8664C134.632 57.8663 134.575 57.8559 134.521 57.8359C134.4 57.7913 134.301 57.7002 134.246 57.5826C134.191 57.465 134.186 57.3306 134.23 57.2088C135.226 54.4831 137.676 50.8627 140.696 49.3593C140.754 49.3307 140.816 49.3135 140.881 49.309C140.944 49.3046 141.009 49.3128 141.07 49.3331C141.13 49.3535 141.188 49.3857 141.235 49.4278C141.284 49.4699 141.323 49.5212 141.353 49.5787C141.381 49.6361 141.398 49.6987 141.403 49.7627C141.406 49.8268 141.399 49.8911 141.378 49.9519C141.357 50.0128 141.326 50.0692 141.284 50.1176C141.241 50.1661 141.19 50.2058 141.133 50.2344C138.475 51.5569 136.11 54.9134 135.143 57.545C135.109 57.6382 135.048 57.719 134.967 57.7764C134.885 57.8338 134.789 57.8652 134.69 57.8664Z" fill="black"/>
<path d="M136.177 50.1843C135.688 49.006 134.42 48.3851 133.255 47.868L131.287 46.9941C131.145 46.9136 130.983 46.8775 130.82 46.8902C130.434 46.9623 130.368 47.4818 130.403 47.868C130.543 49.4423 130.84 51.057 131.722 52.3673C132.361 53.3158 133.366 54.0785 134.502 54.3022C134.95 54.3914 135.34 54.4085 135.593 53.9856C135.868 53.5248 136.06 52.9234 136.204 52.4113C136.411 51.6877 136.473 50.8993 136.177 50.1843Z" fill="#1B5EC9"/>
<path d="M135.822 55.0209C135.741 55.0209 135.662 55.0007 135.59 54.9623C135.519 54.9239 135.459 54.8684 135.414 54.8008C134.741 53.7802 133.547 51.8673 133.107 50.5619C133.086 50.501 133.079 50.4366 133.083 50.3726C133.088 50.3085 133.105 50.246 133.133 50.1885C133.162 50.1309 133.201 50.0797 133.25 50.0376C133.299 49.9954 133.355 49.9632 133.416 49.9428C133.476 49.9224 133.541 49.9142 133.606 49.9187C133.669 49.9231 133.732 49.9403 133.789 49.969C133.847 49.9976 133.898 50.0373 133.941 50.0857C133.982 50.1342 134.014 50.1906 134.035 50.2515C134.438 51.4554 135.584 53.2815 136.235 54.2618C136.284 54.3355 136.312 54.4211 136.316 54.5094C136.321 54.5978 136.3 54.6856 136.258 54.7636C136.217 54.8414 136.154 54.9065 136.079 54.9518C136.003 54.9971 135.915 55.021 135.827 55.0209H135.822ZM158.365 39.3865H158.313L149.037 38.4245C148.908 38.4111 148.789 38.3466 148.707 38.2454C148.624 38.1442 148.586 38.0145 148.6 37.8849C148.613 37.7552 148.677 37.6361 148.778 37.554C148.88 37.4718 149.009 37.4332 149.139 37.4467L158.418 38.4062C158.548 38.4126 158.67 38.4703 158.757 38.5667C158.845 38.663 158.89 38.7899 158.883 38.9195C158.877 39.0492 158.819 39.171 158.723 39.2581C158.626 39.3451 158.499 39.3905 158.37 39.384L158.365 39.3865ZM143.645 38.4147H141.724C141.595 38.4147 141.47 38.3633 141.378 38.2715C141.287 38.1798 141.235 38.0555 141.235 37.9258C141.235 37.7961 141.287 37.6718 141.378 37.5801C141.47 37.4883 141.595 37.4369 141.724 37.4369H143.645C143.774 37.4369 143.899 37.4883 143.991 37.5801C144.082 37.6718 144.134 37.7961 144.134 37.9258C144.134 38.0555 144.082 38.1798 143.991 38.2715C143.899 38.3633 143.774 38.4147 143.645 38.4147ZM130.825 66.3882C130.72 66.3882 130.616 66.3539 130.532 66.2904C129.355 65.4067 128.576 63.984 128.399 62.3901C128.222 60.7962 128.663 59.2366 129.614 58.112C129.655 58.0608 129.706 58.0183 129.763 57.987C129.82 57.9557 129.884 57.9363 129.949 57.9299C130.014 57.9236 130.08 57.9303 130.142 57.9498C130.205 57.9693 130.263 58.0012 130.313 58.0435C130.363 58.0859 130.403 58.1378 130.433 58.1963C130.462 58.2547 130.48 58.3185 130.484 58.3838C130.489 58.4492 130.48 58.5147 130.458 58.5765C130.438 58.6384 130.403 58.6953 130.359 58.744C129.582 59.6619 129.221 60.9502 129.371 62.2789C129.52 63.6075 130.157 64.7846 131.118 65.5069C131.2 65.5686 131.262 65.6544 131.292 65.7523C131.323 65.8503 131.321 65.9553 131.29 66.0527C131.257 66.15 131.194 66.2347 131.111 66.2947C131.028 66.3547 130.928 66.387 130.825 66.387V66.3882ZM68.272 89.7573C68.1674 89.7572 68.0656 89.7235 67.9816 89.6613C67.8975 89.599 67.8356 89.5114 67.8051 89.4114L56.9829 54.2948C56.6651 53.2644 56.2238 52.1778 55.3621 51.9419C54.9526 51.8294 54.4845 51.9199 53.9601 52.0409C52.1548 52.4577 50.3519 52.9637 48.5918 53.548C48.6402 53.5897 48.6969 53.621 48.758 53.6397C48.8193 53.659 48.8761 53.6903 48.9252 53.7316C48.9744 53.7728 49.015 53.8234 49.0445 53.8803C49.0742 53.9374 49.0923 53.9996 49.0978 54.0636C49.1035 54.1276 49.0964 54.192 49.0771 54.2533C49.0577 54.3145 49.0265 54.3713 48.9851 54.4205C48.9438 54.4697 48.8932 54.5102 48.8363 54.5399C48.7793 54.5695 48.7171 54.5876 48.653 54.5932C48.5891 54.5987 48.5247 54.5916 48.4635 54.5723C48.1897 54.4832 47.9468 54.3183 47.7628 54.0968C47.579 53.8752 47.4617 53.6062 47.4245 53.3206C47.4112 53.2097 47.4362 53.0973 47.4956 53.0026C47.555 52.9079 47.6451 52.8364 47.7509 52.7999C49.7164 52.1267 51.7155 51.5555 53.7401 51.0887C54.372 50.942 54.9918 50.8259 55.6212 50.9983C56.9389 51.365 57.5207 52.7229 57.9167 54.0076L68.7402 89.1242C68.7628 89.1974 68.7678 89.2749 68.7549 89.3504C68.7421 89.426 68.7117 89.4975 68.6661 89.5591C68.6205 89.6207 68.5611 89.6708 68.4926 89.7051C68.4242 89.7396 68.3486 89.7575 68.272 89.7573ZM78.3644 59.3466C78.253 59.3466 78.145 59.3086 78.0581 59.2388C77.9713 59.169 77.9109 59.0716 77.887 58.9628C77.863 58.854 77.8769 58.7403 77.9264 58.6404C77.9758 58.5407 78.058 58.4608 78.159 58.414C79.6254 57.7371 81.1622 57.2245 82.7414 56.8861C82.8048 56.8712 82.8704 56.869 82.9344 56.8797C82.9986 56.8905 83.06 56.9139 83.115 56.9488C83.1699 56.9835 83.2174 57.0288 83.2546 57.0821C83.2917 57.1354 83.318 57.1957 83.3317 57.2593C83.3453 57.3228 83.3461 57.3885 83.3341 57.4524C83.322 57.5163 83.2975 57.5772 83.2615 57.6314C83.2257 57.6857 83.1795 57.7323 83.1254 57.7683C83.0713 57.8045 83.0106 57.8296 82.9468 57.8419C81.4381 58.1657 79.9698 58.6552 78.5685 59.3013C78.5046 59.3309 78.4349 59.3464 78.3644 59.3466ZM80.0902 61.5027C79.9898 61.5026 79.8919 61.4715 79.8098 61.4138C79.7276 61.3563 79.6652 61.2746 79.6309 61.1803C79.5968 61.0859 79.5926 60.9832 79.6187 60.8863C79.6449 60.7894 79.7002 60.7029 79.7772 60.6385C80.6932 59.8757 81.7986 59.3748 82.976 59.1889C83.1042 59.1688 83.2351 59.2005 83.34 59.2769C83.4449 59.3533 83.5152 59.4683 83.5352 59.5965C83.5554 59.7248 83.5237 59.8557 83.4472 59.9605C83.3708 60.0654 83.2558 60.1357 83.1276 60.1557C82.1247 60.3137 81.1831 60.7404 80.4031 61.3903C80.3152 61.4631 80.2044 61.5029 80.0902 61.5027Z" fill="black"/>
<path d="M175.484 65.8957C175.314 62.0247 174.752 58.1809 173.806 54.4232C173.691 53.9661 173.569 53.5105 173.439 53.0567C172.403 49.3421 170.786 45.4919 167.769 43.2013L166.921 49.9398C167.333 51.7115 167.999 53.4143 168.899 54.9952C168.169 54.1852 167.394 53.4171 166.576 52.6949L166.56 52.8171L166.576 52.6949C163.161 49.6782 158.958 47.5026 154.475 47.7067C153.209 47.7629 151.62 48.3496 151.821 49.7528C151.862 50.0075 151.955 50.2514 152.093 50.4698C152.23 50.6881 152.411 50.8766 152.622 51.024C156.289 53.658 160.779 55.4683 163.924 58.6242C163.992 58.6954 164.034 58.789 164.037 58.8878C164.042 58.9864 164.012 59.0836 163.951 59.1611C163.888 59.2386 163.802 59.2911 163.704 59.3091C163.607 59.3271 163.507 59.3091 163.421 59.2586C158.976 56.5696 154.031 54.5039 148.934 55.0735C147.698 55.2116 146.144 55.9107 146.527 57.2602C146.658 57.6888 146.949 58.0506 147.338 58.2698C152.181 61.0811 158.31 61.7729 162.73 65.012C162.809 65.0704 162.864 65.1553 162.886 65.2513C162.907 65.3472 162.893 65.4476 162.847 65.5341C162.801 65.6207 162.724 65.6874 162.632 65.7221C162.54 65.7568 162.439 65.7573 162.346 65.7233C158.552 64.3574 154.616 63.4254 150.612 62.9451C148.925 62.7434 147.03 62.6786 145.792 63.9168C145.576 64.1263 145.424 64.3949 145.358 64.6893C145.163 65.6427 146.027 66.2367 146.808 66.6107C151.709 68.9588 157.631 69.0553 162.283 71.6698C162.368 71.7179 162.433 71.7944 162.467 71.8857C162.5 71.977 162.5 72.0771 162.466 72.1683C162.431 72.2593 162.367 72.3355 162.282 72.383C162.197 72.4306 162.098 72.4463 162.002 72.4276C156.524 71.3031 150.857 69.9684 145.54 71.242C143.379 71.759 143.665 73.5216 145.071 74.1841C147.301 75.234 149.941 75.6508 152.415 76.0518C156.194 76.6727 160.39 77.7776 162.304 81.095C163.126 82.5189 163.437 84.2411 164.627 85.4414C165.7 86.5293 167.272 87.061 168.782 86.973C170.868 86.8507 172.974 86.0355 173.811 83.9967C174.667 81.9188 174.581 79.4571 174.873 77.2569C175.378 73.4788 175.654 69.7117 175.484 65.8957Z" fill="#FBD2B5"/>
<path d="M156.754 51.6314C156.657 51.6315 156.562 51.6027 156.481 51.5486C156.401 51.4946 156.338 51.4178 156.302 51.328C156.265 51.2382 156.255 51.1395 156.275 51.0444C156.294 50.9493 156.342 50.8622 156.411 50.7941C156.637 50.5717 156.64 50.2209 156.568 49.9678C156.496 49.7148 156.309 49.419 156.001 49.3481C155.939 49.3337 155.88 49.3072 155.827 49.27C155.775 49.2327 155.73 49.1856 155.697 49.1312C155.662 49.0768 155.639 49.0162 155.628 48.9528C155.617 48.8894 155.62 48.8246 155.634 48.762C155.648 48.6995 155.675 48.6403 155.713 48.588C155.749 48.5355 155.797 48.4911 155.851 48.457C155.906 48.4229 155.966 48.3999 156.029 48.3891C156.093 48.3785 156.157 48.3803 156.22 48.3947C156.831 48.5341 157.32 49.0352 157.509 49.7014C157.699 50.3675 157.54 51.0532 157.097 51.4896C157.006 51.5802 156.882 51.6311 156.754 51.6314ZM151.436 58.475C151.332 58.4748 151.23 58.4414 151.147 58.3798C151.063 58.3181 151.002 58.2314 150.97 58.1322C150.94 58.033 150.941 57.9266 150.975 57.8282C151.008 57.7298 151.071 57.6447 151.157 57.5852C151.217 57.5302 151.263 57.4633 151.295 57.389C151.327 57.3147 151.342 57.2345 151.34 57.1538C151.339 57.0731 151.321 56.9936 151.287 56.9205C151.252 56.8474 151.202 56.7824 151.141 56.7296C151.039 56.657 150.968 56.5476 150.943 56.424C150.92 56.3006 150.944 56.1725 151.012 56.0665C151.08 55.9605 151.185 55.8849 151.307 55.8552C151.43 55.8255 151.559 55.844 151.668 55.907C151.866 56.0466 152.027 56.2305 152.141 56.4443C152.255 56.658 152.316 56.8953 152.319 57.1371C152.324 57.3789 152.272 57.6183 152.167 57.8361C152.062 58.0539 151.906 58.2439 151.714 58.3907C151.633 58.4464 151.535 58.4759 151.436 58.475ZM150.825 66.607C150.734 66.607 150.645 66.5816 150.568 66.5336C150.491 66.4857 150.427 66.4173 150.387 66.3359C150.347 66.2545 150.33 66.1634 150.338 66.0729C150.347 65.9824 150.38 65.8961 150.435 65.8235C150.605 65.5916 150.705 65.3172 150.727 65.0311C150.749 64.7449 150.69 64.4585 150.557 64.2039C150.507 64.0917 150.501 63.9647 150.541 63.8482C150.58 63.7318 150.662 63.6345 150.77 63.5756C150.877 63.5166 151.003 63.5006 151.123 63.5306C151.241 63.5604 151.345 63.6342 151.413 63.737C151.636 64.1563 151.735 64.6301 151.7 65.1037C151.664 65.5772 151.496 66.031 151.213 66.4126C151.168 66.4728 151.109 66.5217 151.042 66.5554C150.975 66.5891 150.9 66.6067 150.825 66.607ZM148.027 73.8356C147.941 73.8355 147.857 73.8129 147.782 73.77C147.709 73.727 147.647 73.6653 147.604 73.5909C147.561 73.5166 147.539 73.4324 147.539 73.3466C147.539 73.2608 147.561 73.1766 147.604 73.1023C147.764 72.8198 147.814 72.4878 147.743 72.1709C147.715 72.0442 147.737 71.9115 147.807 71.8016C147.876 71.6919 147.986 71.6141 148.112 71.5854C148.239 71.5567 148.371 71.5795 148.481 71.6487C148.591 71.7179 148.67 71.8279 148.698 71.9545C148.821 72.5108 148.734 73.0928 148.453 73.5887C148.411 73.664 148.348 73.7265 148.274 73.7699C148.199 73.8133 148.114 73.836 148.027 73.8356ZM167.388 74.6497C167.302 74.6498 167.218 74.6273 167.143 74.5844C167.069 74.5416 167.008 74.4799 166.964 74.4056C166.921 74.3312 166.899 74.2468 166.899 74.1609C166.899 74.0751 166.921 73.9907 166.964 73.9163L167.2 73.5081C167.297 73.2962 167.365 73.0721 167.4 72.8419C167.409 72.7768 167.43 72.7138 167.461 72.6569C167.494 72.6 167.538 72.5503 167.591 72.5105C167.643 72.4709 167.703 72.4422 167.767 72.4262C167.83 72.4102 167.896 72.4071 167.961 72.4172C168.026 72.4273 168.088 72.4504 168.143 72.485C168.2 72.5196 168.247 72.5652 168.285 72.6188C168.323 72.6725 168.35 72.7331 168.363 72.7973C168.378 72.8615 168.378 72.9278 168.366 72.9923C168.356 73.0619 168.343 73.1304 168.328 73.2C168.347 73.2637 168.352 73.3306 168.345 73.3966C168.338 73.4626 168.316 73.5263 168.283 73.5838L168.066 73.9615C167.987 74.1274 167.895 74.2868 167.79 74.4382C167.746 74.5034 167.685 74.5567 167.615 74.5935C167.546 74.6304 167.467 74.6496 167.388 74.6497ZM168.717 68.4966C168.587 68.4966 168.462 68.4452 168.371 68.3534C168.279 68.2617 168.228 68.1374 168.228 68.0077V66.7292C168.228 66.5995 168.279 66.4752 168.371 66.3835C168.462 66.2917 168.587 66.2403 168.717 66.2403C168.846 66.2403 168.971 66.2917 169.063 66.3835C169.154 66.4752 169.206 66.5995 169.206 66.7292V68.009C169.206 68.1384 169.154 68.2625 169.063 68.3539C168.971 68.4453 168.846 68.4966 168.717 68.4966ZM169.572 63.3764C169.443 63.3764 169.318 63.325 169.226 63.2332C169.135 63.1415 169.083 63.0172 169.083 62.8875V61.6078C169.083 61.4781 169.135 61.3538 169.226 61.2621C169.318 61.1703 169.443 61.1189 169.572 61.1189C169.702 61.1189 169.826 61.1703 169.918 61.2621C170.01 61.3538 170.061 61.4781 170.061 61.6078V62.8875C170.061 63.0172 170.01 63.1415 169.918 63.2332C169.826 63.325 169.702 63.3764 169.572 63.3764Z" fill="black"/>
<path d="M69.2108 174.126H69.157C64.527 174.071 60.3712 173.356 55.262 171.733C54.3037 171.429 53.3209 171.053 52.3712 170.689C50.7651 170.078 49.1052 169.44 47.4918 169.12C46.8306 168.989 46.1326 168.875 45.4579 168.768C43.4423 168.444 41.3571 168.108 39.5689 167.196L27.9901 161.296C26.3815 160.476 24.3782 159.455 23.316 157.735C22.2807 156.057 22.2501 153.765 23.2365 151.605C24.1007 149.711 25.5357 148.144 26.923 146.628L34.1101 138.782C34.4035 138.462 34.687 138.131 34.9877 137.78C35.8238 136.802 36.6879 135.799 37.7574 135.038C38.7084 134.361 39.7131 134.168 40.9293 134.427C43.1588 134.909 45.4127 135.475 47.592 136.016C48.5882 136.261 49.6186 136.526 50.6307 136.772C54.2291 137.648 57.8667 138.578 61.4431 139.534C65.0196 140.49 68.6645 141.509 72.2287 142.549L73.5524 142.937C74.2308 143.137 75.0754 143.385 75.6511 143.998C76.2879 144.676 76.3979 145.567 76.4566 146.42C77.0162 154.598 76.1113 162.809 73.7847 170.668C73.4958 171.661 72.8948 172.532 72.0707 173.156C71.2468 173.778 70.2438 174.119 69.2108 174.126ZM39.9441 135.3C39.3597 135.299 38.7909 135.487 38.3234 135.838C37.3455 136.528 36.5278 137.489 35.7309 138.419C35.4375 138.76 35.1344 139.114 34.8313 139.445L27.6441 147.291C26.3082 148.757 24.9258 150.26 24.1252 152.014C23.2757 153.876 23.2842 155.824 24.1484 157.223C25.0663 158.711 26.934 159.668 28.435 160.428L40.0089 166.326C41.6602 167.167 43.6685 167.49 45.6095 167.802C46.294 167.912 47.0004 168.026 47.6788 168.16C49.3729 168.496 51.0731 169.147 52.7171 169.776C53.6534 170.134 54.6227 170.509 55.5541 170.802C60.5655 172.391 64.637 173.095 69.1644 173.148H69.2071C70.0278 173.142 70.8247 172.872 71.4795 172.377C72.1344 171.882 72.6122 171.19 72.8423 170.402C75.1365 162.654 76.029 154.559 75.4775 146.497C75.4299 145.791 75.3553 145.121 74.9348 144.677C74.54 144.258 73.8348 144.052 73.2725 143.884L71.9512 143.498C68.3931 142.46 64.7714 141.448 61.1864 140.489C57.6014 139.529 53.9859 138.606 50.396 137.731C49.3803 137.487 48.3486 137.225 47.35 136.975C45.178 136.429 42.9326 135.865 40.7191 135.386C40.4646 135.329 40.2047 135.301 39.9441 135.3Z" fill="#1B5EC9"/>
<path d="M70.0285 169.13H70.0151C68.9223 169.099 67.8895 168.763 66.8909 168.433L63.1678 167.211C62.9514 167.14 62.3769 166.951 62.2254 166.366C62.1723 166.109 62.1875 165.844 62.2694 165.595C63.5748 160.637 65.1234 155.528 67.5912 151.739C67.744 151.505 67.8968 151.257 68.0606 150.993C69.1509 149.233 70.5052 147.04 72.4609 148.008C72.5185 148.036 72.5698 148.077 72.612 148.124C72.6543 148.173 72.6865 148.229 72.7071 148.291C72.7275 148.352 72.7358 148.415 72.7314 148.48C72.727 148.544 72.7101 148.607 72.6815 148.665C72.6529 148.722 72.6133 148.773 72.5649 148.815C72.5165 148.858 72.4602 148.89 72.3993 148.91C72.3384 148.931 72.2741 148.94 72.2099 148.935C72.1459 148.93 72.0833 148.913 72.0257 148.885C70.9538 148.353 70.0505 149.636 68.8918 151.509C68.7255 151.777 68.5691 152.03 68.4102 152.273C66.0182 155.946 64.4988 160.966 63.2142 165.84C63.185 165.93 63.1706 166.024 63.1714 166.118C63.1714 166.139 63.2166 166.195 63.4721 166.278L67.1952 167.5C68.1278 167.806 69.0922 168.121 70.0432 168.149C70.1729 168.152 70.2964 168.204 70.3868 168.297C70.4771 168.391 70.5267 168.516 70.5248 168.645C70.5228 168.775 70.4694 168.898 70.3764 168.989C70.2832 169.079 70.1582 169.13 70.0285 169.127V169.13ZM42.5831 163.671C41.9192 163.674 41.2701 163.476 40.7215 163.102C38.3392 161.486 39.6214 157.345 40.3964 154.871L40.433 154.749C42.2833 148.826 45.4352 143.392 49.6577 138.845C49.7015 138.798 49.7541 138.76 49.8127 138.733C49.8711 138.707 49.9343 138.692 49.9985 138.689C50.0628 138.687 50.1268 138.698 50.1871 138.72C50.2472 138.742 50.3025 138.776 50.3495 138.82C50.3966 138.864 50.4345 138.917 50.4611 138.975C50.4879 139.034 50.5027 139.096 50.505 139.161C50.5073 139.226 50.4968 139.29 50.4744 139.349C50.452 139.409 50.4177 139.466 50.374 139.512C46.2496 143.954 43.172 149.261 41.3669 155.047L41.3302 155.17C40.6408 157.384 39.4882 161.092 41.2703 162.301C41.5423 162.484 41.8494 162.609 42.1721 162.667C42.4948 162.726 42.8262 162.717 43.1453 162.642C44.3114 162.404 45.4506 161.488 45.9297 160.745C47.3219 158.588 48.4574 156.222 49.5538 153.92C50.1295 152.718 50.7248 151.476 51.3518 150.271C51.8236 149.365 52.2392 148.415 52.6401 147.497C53.7781 144.897 54.9551 142.208 57.478 140.501C57.5854 140.429 57.7173 140.402 57.8447 140.426C57.972 140.451 58.0843 140.525 58.1569 140.633C58.2296 140.74 58.2564 140.871 58.2319 141C58.2072 141.127 58.133 141.239 58.0256 141.311C55.7374 142.86 54.6679 145.303 53.5361 147.89C53.1278 148.822 52.7061 149.787 52.2184 150.722C51.5987 151.912 51.0083 153.148 50.4363 154.343C49.3252 156.666 48.1775 159.066 46.7511 161.275C46.1485 162.208 44.7844 163.306 43.3409 163.597C43.0914 163.648 42.8374 163.672 42.5831 163.671Z" fill="#1B5EC9"/>
<path d="M42.9032 157.117C41.9804 157.78 42.1063 159.453 43.1269 159.951C44.1475 160.45 45.5458 159.487 45.4309 158.352C45.316 157.218 43.7197 156.568 42.8641 157.315L42.9032 157.117Z" fill="black"/>
<path d="M43.7244 160.575C43.4434 160.576 43.1658 160.514 42.9128 160.391C42.2821 160.082 41.8665 159.432 41.7993 158.651C41.7321 157.87 42.0438 157.13 42.617 156.72C42.6762 156.677 42.744 156.649 42.8158 156.635C42.8874 156.623 42.9611 156.625 43.0314 156.645C43.5336 156.453 44.0906 156.46 44.5874 156.667C45.3342 156.962 45.8439 157.589 45.9172 158.304C45.9906 159.019 45.6324 159.714 44.9895 160.162C44.6196 160.424 44.1783 160.569 43.7244 160.575ZM42.9336 157.798C42.8029 158.032 42.7474 158.301 42.7747 158.568C42.8101 158.997 43.0277 159.358 43.3419 159.512C43.7195 159.696 44.1522 159.554 44.4309 159.36C44.7096 159.165 44.9858 158.815 44.9443 158.403C44.9027 157.991 44.5458 157.702 44.228 157.576C43.9102 157.45 43.4849 157.42 43.183 157.683C43.1124 157.744 43.0259 157.784 42.9336 157.798Z" fill="black"/>
<path d="M71.8103 159.03C71.7796 159.03 71.7488 159.027 71.7186 159.021C71.6554 159.009 71.5951 158.986 71.5414 158.95C71.4876 158.915 71.4413 158.87 71.405 158.816C71.3688 158.763 71.3434 158.703 71.3303 158.64C71.3172 158.578 71.3167 158.513 71.3287 158.449C71.7639 156.154 71.8665 153.807 71.633 151.482C71.6201 151.352 71.6592 151.223 71.7417 151.123C71.8242 151.021 71.9434 150.958 72.0731 150.944C72.2028 150.931 72.3323 150.97 72.4332 151.053C72.534 151.135 72.5979 151.255 72.6109 151.384C72.8544 153.803 72.7477 156.243 72.2943 158.631C72.2732 158.744 72.213 158.845 72.1246 158.919C72.0362 158.991 71.9249 159.031 71.8103 159.03ZM70.8997 164.623C70.8656 164.623 70.8316 164.619 70.7982 164.612C70.7354 164.599 70.6757 164.573 70.6228 164.537C70.5698 164.501 70.5244 164.454 70.4893 164.401C70.4543 164.347 70.4302 164.287 70.4183 164.223C70.4066 164.161 70.4073 164.096 70.4205 164.033L71.0256 161.16C71.0523 161.033 71.1283 160.922 71.237 160.851C71.3457 160.78 71.478 160.756 71.6049 160.783C71.7319 160.809 71.843 160.885 71.9138 160.994C71.9846 161.103 72.0094 161.235 71.9826 161.362L71.3776 164.234C71.3546 164.344 71.2946 164.443 71.2076 164.513C71.1205 164.584 71.0119 164.623 70.8997 164.623Z" fill="#1B5EC9"/>
<path d="M36.8664 150.315C36.7955 151.554 37.1952 153.248 38.4346 153.202C39.3305 153.169 39.8378 152.184 40.1311 151.337C41.3669 147.77 42.2518 143.935 44.2711 140.81C44.329 140.72 44.417 140.652 44.5197 140.621C44.6223 140.589 44.733 140.595 44.8317 140.638C44.9305 140.679 45.011 140.755 45.059 140.852C45.107 140.948 45.1193 141.058 45.0937 141.162L43.0365 149.768C42.5965 151.602 42.1944 153.694 43.3824 155.23C43.5123 155.402 43.6832 155.539 43.8799 155.628C44.6219 155.949 45.1792 155.355 45.5557 154.794C48.3266 150.667 48.2973 144.985 51.2443 141.083C51.299 141.011 51.3741 140.957 51.4597 140.927C51.5456 140.898 51.6381 140.894 51.7256 140.918C51.813 140.942 51.8915 140.991 51.9507 141.059C52.01 141.128 52.0476 141.212 52.0583 141.303C52.6022 145.962 50.0464 150.642 50.1369 155.414C50.1392 155.654 50.1981 155.89 50.3091 156.102C50.4199 156.315 50.5796 156.498 50.7749 156.636C51.8359 157.37 53.0068 156.048 53.4701 154.903C55.3096 150.355 55.6836 144.973 58.7577 141.262C58.8161 141.19 58.8951 141.138 58.9842 141.112C59.0732 141.086 59.168 141.088 59.2561 141.117C59.3439 141.147 59.4207 141.202 59.4761 141.277C59.5314 141.352 59.5627 141.441 59.5657 141.534C59.8101 145.934 57.4878 150.199 56.9609 154.634C56.8387 155.661 56.9609 156.973 58.1062 157.201C58.3753 157.251 58.6524 157.234 58.9134 157.152C59.1745 157.07 59.4119 156.927 59.6048 156.733C65.7884 150.65 64.1004 139.962 69.6997 133.509C70.8768 133.599 71.0858 135.241 70.8707 136.402C70.4983 138.409 69.9026 140.368 69.0947 142.241L73.8861 143.559C76.4114 138.565 76.9761 132.226 74.9617 127.005C74.5254 125.876 73.9558 124.747 72.9987 124.005C72.0747 123.29 70.8939 123.015 69.7535 122.758L57.3655 119.975C55.5993 119.578 53.5678 118.816 51.743 119.094C50.5977 119.268 50.0415 120.091 49.4426 120.992C48.5552 122.328 47.4478 123.488 46.4687 124.755C45.3895 126.155 44.3913 127.615 43.479 129.13C41.6518 132.16 40.1732 135.388 39.0714 138.751C37.9693 142.097 37.2585 145.56 36.9532 149.07C36.9202 149.485 36.8896 149.9 36.8664 150.315Z" fill="#FBD2B5"/>
<path d="M46.8924 134.848C46.8693 134.85 46.846 134.85 46.8228 134.848L45.3291 134.634C45.2656 134.625 45.2044 134.603 45.1492 134.57C45.0939 134.538 45.0457 134.494 45.0072 134.443C44.9685 134.392 44.9405 134.333 44.9247 134.271C44.9086 134.21 44.9051 134.145 44.9141 134.081C44.9233 134.018 44.9447 133.957 44.9775 133.9C45.0102 133.845 45.0535 133.798 45.1048 133.759C45.1562 133.721 45.2146 133.693 45.2768 133.677C45.339 133.661 45.4037 133.657 45.4672 133.666L46.9609 133.88C47.0252 133.885 47.0879 133.902 47.1454 133.93C47.203 133.959 47.2544 133.998 47.2966 134.047C47.3388 134.096 47.3711 134.152 47.3915 134.213C47.4119 134.274 47.4201 134.339 47.4156 134.403C47.4112 134.468 47.3941 134.53 47.3653 134.587C47.3366 134.645 47.2968 134.696 47.2482 134.739C47.1996 134.78 47.1432 134.813 47.0821 134.833C47.0211 134.854 46.9567 134.862 46.8924 134.857V134.848ZM62.6797 137.407C62.6565 137.41 62.6332 137.41 62.6101 137.407L61.1164 137.195C60.988 137.176 60.8722 137.108 60.7944 137.004C60.7165 136.9 60.6831 136.77 60.7015 136.642C60.7197 136.514 60.7882 136.398 60.892 136.319C60.9958 136.241 61.1261 136.208 61.2545 136.226L62.7482 136.439C62.8778 136.449 62.9985 136.509 63.0838 136.607C63.1691 136.704 63.2119 136.833 63.2029 136.962C63.1937 137.092 63.1336 137.213 63.0354 137.298C62.9373 137.384 62.8093 137.427 62.6797 137.417V137.407ZM54.3631 136.006C54.3146 136.006 54.2664 136 54.2201 135.986C53.8493 135.872 53.4637 135.815 53.076 135.812C52.9463 135.812 52.8219 135.761 52.7302 135.669C52.6386 135.577 52.5871 135.453 52.5871 135.323C52.5871 135.194 52.6386 135.069 52.7302 134.977C52.8219 134.886 52.9463 134.834 53.076 134.834C53.5591 134.837 54.0392 134.91 54.5012 135.051C54.6127 135.085 54.7082 135.159 54.7703 135.257C54.8323 135.356 54.857 135.475 54.8397 135.59C54.8224 135.706 54.7644 135.811 54.676 135.888C54.5878 135.964 54.475 136.006 54.3582 136.006H54.3631ZM39.6088 149.26C39.5117 149.26 39.4169 149.23 39.3363 149.177C39.2558 149.123 39.1932 149.046 39.1565 148.955C39.1234 148.905 39.08 148.863 39.0291 148.83C38.9783 148.797 38.9212 148.775 38.8614 148.766C38.8017 148.757 38.7408 148.76 38.6825 148.777C38.6242 148.793 38.57 148.821 38.5234 148.859C38.4836 148.911 38.4336 148.957 38.3763 148.99C38.319 149.023 38.2556 149.043 38.1899 149.052C38.1242 149.059 38.0575 149.053 37.9941 149.035C37.9305 149.017 37.8715 148.985 37.8205 148.943C37.7696 148.9 37.7276 148.849 37.6973 148.789C37.667 148.731 37.6489 148.667 37.6443 148.601C37.6396 148.535 37.6483 148.468 37.6701 148.405C37.6917 148.343 37.7258 148.286 37.7704 148.237C37.925 148.068 38.1189 147.94 38.335 147.863C38.5511 147.787 38.7826 147.765 39.0091 147.799C39.2356 147.835 39.4501 147.924 39.6336 148.061C39.817 148.199 39.9638 148.379 40.061 148.586C40.0912 148.661 40.1028 148.742 40.0946 148.821C40.0864 148.9 40.0588 148.977 40.0142 149.043C39.9695 149.111 39.9091 149.164 39.8384 149.202C39.7678 149.24 39.6888 149.26 39.6088 149.26ZM45.6091 151.384C45.543 151.384 45.4776 151.371 45.417 151.345C45.3562 151.318 45.3014 151.28 45.2559 151.233C45.1283 151.103 44.9739 151.003 44.8034 150.939C44.633 150.876 44.4506 150.851 44.2695 150.866C44.2052 150.872 44.1406 150.865 44.0791 150.845C44.0176 150.826 43.9605 150.795 43.911 150.753C43.8616 150.712 43.8208 150.662 43.791 150.604C43.7611 150.547 43.7428 150.485 43.7372 150.421C43.7314 150.356 43.7384 150.291 43.7577 150.23C43.777 150.169 43.8083 150.112 43.8496 150.062C43.8911 150.013 43.9417 149.972 43.9989 149.942C44.056 149.913 44.1184 149.894 44.1827 149.888C44.5107 149.861 44.8406 149.906 45.1487 150.023C45.4567 150.139 45.735 150.321 45.9636 150.558C46.03 150.628 46.0746 150.714 46.0918 150.808C46.1091 150.904 46.0981 151 46.0603 151.09C46.0224 151.178 45.9596 151.252 45.8793 151.305C45.7991 151.359 45.7051 151.385 45.6091 151.385V151.384ZM52.553 153.077C52.4528 153.077 52.3551 153.046 52.2731 152.989C52.0745 152.851 51.8387 152.778 51.5972 152.776H51.5848C51.4553 152.776 51.3308 152.725 51.2392 152.633C51.1475 152.542 51.0959 152.417 51.0959 152.287C51.0959 152.158 51.1475 152.033 51.2392 151.942C51.3308 151.85 51.4553 151.799 51.5848 151.799C52.0321 151.797 52.469 151.933 52.8366 152.187C52.9219 152.247 52.9859 152.333 53.0194 152.43C53.0531 152.529 53.0543 152.636 53.0231 152.735C52.9918 152.834 52.9297 152.921 52.8459 152.983C52.762 153.044 52.6607 153.077 52.5567 153.077H52.553ZM59.9208 153.922C59.815 153.922 59.7121 153.887 59.6274 153.824C59.4095 153.66 59.1524 153.555 58.8818 153.521C58.7531 153.505 58.6361 153.438 58.5566 153.335C58.4771 153.234 58.4416 153.103 58.4577 152.974C58.4739 152.846 58.5406 152.729 58.643 152.649C58.7455 152.57 58.8753 152.534 59.004 152.55C59.442 152.606 59.8579 152.775 60.2117 153.039C60.2938 153.1 60.3544 153.187 60.385 153.285C60.4157 153.383 60.4146 153.488 60.3822 153.586C60.3497 153.682 60.2875 153.768 60.2042 153.828C60.121 153.887 60.021 153.919 59.9183 153.919L59.9208 153.922Z" fill="black"/>
<path d="M79.9645 137.034C80.1124 137.481 80.2835 137.955 80.7235 138.257C81.1917 138.575 81.8529 138.616 82.4653 138.641C90.8845 138.983 102.984 138.115 111.411 137.974L160.047 137.16C161.193 137.142 166.735 136.865 167.688 136.355C168.93 135.692 169.38 134.426 169.736 133.267C174.576 117.524 175.224 101.876 178.352 85.9755C178.457 85.4497 178.445 84.9071 178.315 84.3867C178.187 83.8661 177.946 83.3802 177.607 82.9637C177.27 82.547 176.845 82.2097 176.363 81.9759C175.88 81.7421 175.352 81.6174 174.816 81.6107C145.534 81.288 116.232 82.2304 87.0795 84.433C84.245 84.6469 81.4129 84.873 78.5857 85.1395C75.8576 85.3961 72.9497 85.5318 70.2888 86.0929C69.4857 86.2628 68.4627 86.6282 68.2109 87.3323C68.0165 87.8847 68.3465 88.4886 68.5861 88.997C69.4759 90.883 69.9441 92.8742 70.5296 94.8335C71.8582 99.2827 77.977 131.06 79.4413 135.482L79.9645 137.034Z" fill="#3982F0"/>
<path d="M90.5533 133.052C90.4384 133.052 90.3273 133.012 90.2395 132.937C90.1516 132.864 90.0927 132.761 90.0729 132.648C88.4277 123.269 86.8693 116.451 85.3622 109.858C83.4896 101.669 81.7222 93.9401 79.967 82.151C79.9554 82.0866 79.9568 82.0205 79.9712 81.9565C79.9857 81.8926 80.0128 81.8324 80.0509 81.7791C80.0892 81.7259 80.1377 81.6809 80.1936 81.6468C80.2496 81.6127 80.3118 81.5902 80.3766 81.5807C80.4413 81.5712 80.5074 81.5746 80.5708 81.5911C80.6342 81.6075 80.6936 81.6366 80.7456 81.6764C80.7976 81.7162 80.841 81.7661 80.8733 81.8231C80.9057 81.88 80.9262 81.943 80.9338 82.008C82.6841 93.758 84.4479 101.473 86.3119 109.64C87.8251 116.244 89.3897 123.077 91.0361 132.479C91.0585 132.607 91.0291 132.738 90.9546 132.844C90.8801 132.951 90.7666 133.023 90.6389 133.045C90.6105 133.05 90.5819 133.052 90.5533 133.052ZM163.168 110.1C163.144 110.101 163.121 110.101 163.096 110.1C163.033 110.09 162.972 110.069 162.917 110.035C162.862 110.002 162.814 109.959 162.775 109.907C162.737 109.855 162.709 109.797 162.694 109.734C162.678 109.672 162.675 109.607 162.684 109.544L166.525 83.7535C166.532 83.6884 166.553 83.6255 166.586 83.5685C166.618 83.5116 166.662 83.4617 166.713 83.4218C166.766 83.382 166.824 83.3529 166.888 83.3365C166.951 83.32 167.017 83.3165 167.082 83.3261C167.147 83.3357 167.209 83.3582 167.266 83.3923C167.321 83.4264 167.369 83.4713 167.407 83.5245C167.446 83.5778 167.473 83.6381 167.488 83.702C167.501 83.7659 167.504 83.832 167.492 83.8965L163.651 109.687C163.633 109.802 163.574 109.907 163.486 109.983C163.398 110.058 163.285 110.1 163.168 110.1ZM160.609 125.298C160.578 125.298 160.548 125.294 160.517 125.289C160.455 125.277 160.394 125.254 160.34 125.219C160.286 125.183 160.24 125.138 160.204 125.084C160.168 125.032 160.142 124.972 160.13 124.908C160.116 124.846 160.115 124.781 160.127 124.717C160.138 124.661 161.201 119.03 161.435 115.982C161.44 115.918 161.458 115.855 161.488 115.797C161.516 115.74 161.556 115.69 161.605 115.647C161.654 115.605 161.711 115.573 161.773 115.554C161.834 115.533 161.898 115.526 161.962 115.531C162.027 115.535 162.089 115.554 162.147 115.582C162.204 115.611 162.255 115.652 162.297 115.701C162.338 115.749 162.37 115.807 162.391 115.868C162.411 115.929 162.418 115.994 162.413 116.057C162.169 119.16 161.134 124.666 161.09 124.9C161.07 125.012 161.01 125.113 160.922 125.186C160.834 125.259 160.724 125.298 160.609 125.298ZM148.249 98.1533C148.233 98.1546 148.217 98.1546 148.2 98.1533C148.072 98.1406 147.953 98.0774 147.871 97.9776C147.788 97.8777 147.749 97.7492 147.761 97.6204L148.821 86.742C148.827 86.6778 148.847 86.6155 148.877 86.5585C148.907 86.5015 148.948 86.4512 148.998 86.4102C149.048 86.3693 149.106 86.3385 149.167 86.3197C149.229 86.3008 149.294 86.2945 149.358 86.3007C149.422 86.3069 149.485 86.3258 149.541 86.3562C149.598 86.3865 149.649 86.4278 149.69 86.4776C149.73 86.5275 149.761 86.5849 149.781 86.6466C149.799 86.7082 149.805 86.7731 149.799 86.8373L148.739 97.7158C148.727 97.8365 148.67 97.9482 148.579 98.0291C148.489 98.1101 148.371 98.1543 148.249 98.1533ZM146.45 122.967H146.409C146.281 122.956 146.161 122.895 146.077 122.796C145.993 122.698 145.952 122.57 145.962 122.44C145.974 122.289 147.199 107.256 147.363 104.465C147.367 104.402 147.384 104.338 147.412 104.281C147.44 104.222 147.479 104.171 147.527 104.128C147.574 104.085 147.631 104.052 147.692 104.031C147.753 104.01 147.816 104.002 147.881 104.006C147.945 104.009 148.008 104.025 148.066 104.053C148.123 104.081 148.176 104.12 148.218 104.168C148.261 104.217 148.294 104.273 148.315 104.333C148.336 104.394 148.344 104.459 148.341 104.523C148.176 107.324 146.95 122.368 146.938 122.52C146.928 122.642 146.872 122.756 146.781 122.839C146.691 122.922 146.573 122.967 146.45 122.967ZM104.912 103.7C104.788 103.7 104.668 103.652 104.576 103.568C104.486 103.482 104.431 103.365 104.424 103.24L103.645 90.2218C103.641 90.1577 103.65 90.0933 103.671 90.0325C103.693 89.9718 103.724 89.9157 103.767 89.8675C103.81 89.8195 103.863 89.7801 103.92 89.752C103.977 89.7239 104.041 89.7075 104.105 89.7036C104.169 89.6997 104.233 89.7086 104.294 89.7296C104.355 89.7506 104.411 89.7834 104.459 89.8261C104.507 89.8687 104.547 89.9204 104.575 89.9784C104.603 90.0362 104.619 90.099 104.623 90.1632L105.401 103.182C105.405 103.247 105.397 103.31 105.376 103.371C105.355 103.431 105.322 103.487 105.279 103.536C105.236 103.584 105.185 103.623 105.126 103.651C105.069 103.679 105.007 103.695 104.942 103.699L104.912 103.7ZM105.333 113.94C105.208 113.94 105.088 113.893 104.997 113.807C104.906 113.722 104.851 113.604 104.844 113.48L104.558 108.577C104.554 108.513 104.564 108.449 104.585 108.388C104.606 108.328 104.639 108.271 104.681 108.224C104.724 108.175 104.776 108.136 104.834 108.108C104.892 108.079 104.955 108.064 105.019 108.06C105.084 108.056 105.147 108.065 105.208 108.087C105.269 108.108 105.324 108.141 105.373 108.183C105.421 108.226 105.46 108.277 105.488 108.336C105.516 108.394 105.532 108.457 105.536 108.521L105.822 113.421C105.829 113.55 105.785 113.678 105.698 113.774C105.613 113.871 105.492 113.929 105.362 113.937L105.333 113.94ZM106.454 127.854C106.332 127.854 106.213 127.809 106.123 127.725C106.032 127.642 105.976 127.529 105.965 127.406L105.279 119.254C105.274 119.19 105.282 119.125 105.301 119.063C105.321 119.002 105.351 118.946 105.393 118.896C105.434 118.847 105.486 118.806 105.543 118.777C105.601 118.746 105.663 118.729 105.727 118.723C105.791 118.718 105.856 118.726 105.917 118.745C105.978 118.765 106.036 118.795 106.085 118.837C106.134 118.878 106.175 118.93 106.204 118.987C106.234 119.043 106.252 119.107 106.257 119.171L106.951 127.323C106.962 127.453 106.922 127.581 106.839 127.68C106.756 127.779 106.636 127.842 106.506 127.853L106.454 127.854ZM128.206 115.223C128.076 115.223 127.952 115.171 127.86 115.08C127.768 114.988 127.717 114.863 127.717 114.734L127.901 92.543C127.901 92.4133 127.953 92.289 128.044 92.1973C128.136 92.1055 128.261 92.0541 128.39 92.0541C128.52 92.0541 128.645 92.1055 128.736 92.1973C128.828 92.289 128.879 92.4133 128.879 92.543L128.695 114.735C128.695 114.864 128.643 114.988 128.552 115.08C128.46 115.171 128.335 115.223 128.206 115.223ZM128.603 123.879C128.473 123.879 128.349 123.828 128.257 123.736C128.165 123.644 128.114 123.52 128.114 123.39V121.572C128.114 121.443 128.165 121.318 128.257 121.227C128.349 121.135 128.473 121.084 128.603 121.084C128.733 121.084 128.857 121.135 128.949 121.227C129.041 121.318 129.092 121.443 129.092 121.572V123.39C129.092 123.52 129.041 123.644 128.949 123.736C128.857 123.828 128.733 123.879 128.603 123.879ZM126 135.266C125.87 135.267 125.745 135.217 125.652 135.125C125.561 135.035 125.508 134.91 125.507 134.781C125.506 134.651 125.557 134.526 125.648 134.433C125.739 134.342 125.863 134.289 125.992 134.288C128.899 134.246 130.148 134.183 131.353 134.122C132.558 134.061 133.825 134 136.75 133.954H136.757C136.822 133.954 136.885 133.967 136.944 133.991C137.004 134.014 137.058 134.051 137.104 134.095C137.149 134.14 137.186 134.194 137.21 134.254C137.236 134.312 137.248 134.376 137.25 134.441C137.25 134.504 137.237 134.568 137.213 134.628C137.188 134.688 137.153 134.741 137.108 134.787C137.063 134.833 137.009 134.869 136.95 134.894C136.891 134.919 136.828 134.932 136.763 134.932C133.856 134.974 132.607 135.037 131.403 135.098C130.199 135.159 128.931 135.221 126.007 135.265L126 135.266ZM141.215 134.933C141.085 134.933 140.96 134.882 140.869 134.79C140.777 134.699 140.726 134.574 140.726 134.444C140.726 134.315 140.777 134.19 140.869 134.099C140.96 134.007 141.085 133.956 141.215 133.956C141.858 133.956 142.483 133.904 143.087 133.853C143.894 133.786 144.655 133.722 145.385 133.787C145.45 133.793 145.512 133.811 145.57 133.841C145.626 133.871 145.677 133.912 145.719 133.96C145.759 134.011 145.791 134.068 145.811 134.129C145.83 134.19 145.836 134.255 145.831 134.32C145.825 134.383 145.807 134.446 145.778 134.503C145.747 134.561 145.707 134.611 145.657 134.652C145.608 134.694 145.55 134.724 145.489 134.744C145.428 134.763 145.363 134.771 145.298 134.765C144.653 134.707 143.933 134.765 143.169 134.832C142.542 134.88 141.897 134.933 141.215 134.933ZM156.566 134.738C156.436 134.738 156.311 134.686 156.22 134.595C156.128 134.503 156.077 134.378 156.077 134.249C156.077 134.119 156.128 133.995 156.22 133.903C156.311 133.811 156.436 133.76 156.566 133.76L157.616 133.749H157.86L158.951 133.739C161.263 133.716 163.638 133.566 165.034 132.028C165.076 131.979 165.129 131.94 165.188 131.912C165.245 131.884 165.309 131.868 165.373 131.864C165.438 131.861 165.503 131.87 165.564 131.892C165.624 131.913 165.68 131.947 165.728 131.991C165.777 132.034 165.815 132.087 165.843 132.145C165.87 132.204 165.886 132.268 165.888 132.332C165.89 132.397 165.881 132.462 165.859 132.522C165.835 132.583 165.801 132.638 165.757 132.686C164.096 134.519 161.378 134.693 158.961 134.716L157.911 134.726C157.865 134.726 157.814 134.726 157.761 134.726H157.668L156.575 134.737L156.566 134.738ZM89.7281 176.549C89.6182 176.549 89.5115 176.512 89.4252 176.444C89.3389 176.375 89.2782 176.281 89.2526 176.174C88.2748 172.084 86.7078 164.991 85.1861 158.133C83.6643 151.274 82.0936 144.189 81.1231 140.106C81.1063 140.043 81.1021 139.978 81.1112 139.913C81.1202 139.848 81.1421 139.786 81.1756 139.73C81.2091 139.673 81.2534 139.625 81.3061 139.585C81.3588 139.548 81.4187 139.519 81.4824 139.505C81.5459 139.489 81.6118 139.486 81.6764 139.497C81.7408 139.508 81.8024 139.532 81.8575 139.567C81.9127 139.603 81.9603 139.648 81.9975 139.702C82.0346 139.755 82.0606 139.816 82.0741 139.88C83.0519 143.97 84.6201 151.062 86.1407 157.92C87.6612 164.778 89.2331 171.864 90.2036 175.946C90.2184 176.009 90.2207 176.075 90.2102 176.138C90.1998 176.202 90.1769 176.263 90.1428 176.318C90.1087 176.372 90.0641 176.419 90.0117 176.457C89.9591 176.494 89.8997 176.521 89.8369 176.535C89.8012 176.544 89.7648 176.549 89.7281 176.549Z" fill="black"/>
<path d="M89.1452 174.934C87.3227 175.423 86.2056 177.616 86.7764 179.415C87.3472 181.214 89.419 182.349 91.2695 181.982C93.1201 181.615 94.5587 179.848 94.6724 177.963C94.7178 177.42 94.6278 176.874 94.4108 176.374C93.6665 174.769 91.4773 174.381 89.7796 174.907L89.1452 174.934ZM158.674 176.549C158.629 176.549 158.585 176.543 158.541 176.531C158.48 176.513 158.421 176.484 158.371 176.444C158.321 176.405 158.279 176.355 158.247 176.298C158.216 176.242 158.196 176.181 158.189 176.117C158.181 176.054 158.186 175.989 158.203 175.927C158.326 175.501 158.426 175.041 158.532 174.552C158.639 174.063 158.753 173.549 158.899 173.031C159.459 170.981 159.427 169.537 158.804 168.738C158.03 167.748 156.377 167.703 154.458 167.745C132.643 168.226 110.53 168.994 88.7357 170.025C88.6715 170.029 88.6074 170.019 88.5469 169.997C88.4864 169.975 88.4308 169.942 88.3832 169.898C88.3357 169.856 88.297 169.803 88.2697 169.746C88.2423 169.687 88.2266 169.625 88.2236 169.56C88.2205 169.496 88.2302 169.431 88.2519 169.372C88.2737 169.31 88.3071 169.255 88.3503 169.208C88.3936 169.16 88.4458 169.121 88.504 169.094C88.5621 169.066 88.6251 169.051 88.6893 169.048C110.492 168.015 132.612 167.247 154.436 166.767C156.217 166.726 158.436 166.679 159.57 168.136C160.406 169.205 160.494 170.891 159.839 173.288C159.704 173.777 159.594 174.279 159.489 174.755C159.378 175.258 159.274 175.732 159.146 176.186C159.119 176.29 159.058 176.381 158.972 176.447C158.887 176.513 158.782 176.549 158.674 176.549Z" fill="black"/>
<path d="M157.821 173.901C157.21 173.92 156.586 174.399 156.11 174.773C155.145 175.529 154.478 176.689 154.422 177.914C154.365 179.139 154.968 180.4 156.011 181.037C157.376 181.866 159.162 181.536 160.595 180.833C161.287 180.493 161.958 180.057 162.399 179.425C163.269 178.181 163.011 176.35 161.984 175.23C160.957 174.11 159.322 173.68 157.821 173.901ZM33.2628 61.653C32.3314 61.653 31.4489 61.4672 30.724 60.8867C29.602 59.9883 29.2744 58.4115 29.8501 56.671C30.2168 55.5587 30.8279 55.082 31.6836 54.6872C33.0394 54.0633 34.4265 53.5096 35.8394 53.0285C38.7594 52.0225 41.7968 51.2647 44.6399 50.5974C45.6177 50.3676 46.84 50.0803 48.0244 50.3529C48.7484 50.517 49.4136 50.8762 49.9481 51.3912C50.4826 51.9064 50.8659 52.558 51.0565 53.2754C51.2472 53.9929 51.2377 54.7488 51.0296 55.4612C50.8213 56.1738 50.422 56.8157 49.875 57.3175C49.0683 58.0509 48.0416 58.4066 46.9794 58.733C43.0596 59.9333 39.0596 60.8535 35.0094 61.4868C34.4324 61.587 33.8484 61.6426 33.2628 61.653ZM31.3303 60.1288C32.2043 60.8292 33.5402 60.74 34.853 60.531C38.8594 59.9047 42.8161 58.9942 46.6934 57.8065C47.648 57.5143 48.5586 57.2026 49.2162 56.6037C49.6336 56.2231 49.9388 55.7354 50.0984 55.1936C50.2581 54.6517 50.2661 54.0765 50.1217 53.5304C49.9773 52.9843 49.6859 52.4881 49.2794 52.096C48.8727 51.7039 48.3664 51.4308 47.8154 51.3063C46.851 51.0875 45.7999 51.3344 44.8709 51.5507C42.0486 52.2132 39.0406 52.9637 36.162 53.955C34.7809 54.4251 33.4247 54.9661 32.0991 55.5758C31.323 55.9363 31.015 56.2639 30.7778 56.9802C30.6128 57.4789 30.1642 59.1852 31.3303 60.1288Z" fill="black"/>
<path d="M92.5873 71.7896C85.0091 70.1823 76.6596 71.3618 70.4246 75.9577C66.4387 78.8912 63.5174 83.0128 60.3908 86.8532C57.6668 90.1994 54.7434 93.3782 51.6367 96.3725C48.5357 99.3598 45.0363 102.577 44.5999 106.86C44.2821 109.979 45.8613 113.216 48.5113 114.885C47.2193 115.863 45.6193 116.352 44.2968 117.28C42.9743 118.207 41.9194 119.899 42.5 121.405C42.9413 122.554 44.2112 123.204 45.4335 123.318C46.6558 123.432 47.8781 123.116 49.087 122.88C56.6396 121.414 64.7617 123.125 71.07 127.532C72.0992 128.251 73.1601 129.068 74.4118 129.153C76.0093 129.264 77.503 128.06 78.0713 126.563C78.6397 125.066 78.416 123.364 77.8269 121.874C81.0855 120.81 83.3052 117.869 85.3098 115.089C90.8834 107.363 96.5427 99.4686 99.4359 90.3918C100.078 88.3774 100.68 86.1626 102.369 84.8914C104.099 83.5958 106.383 83.7021 108.433 83.652C109.235 83.6325 110.054 83.6423 110.541 82.8966C110.72 82.6112 110.815 82.2821 110.818 81.9458C110.82 81.6094 110.73 81.2789 110.555 80.9911C110.066 80.1844 108.979 79.6013 108.232 79.0574C107.326 78.399 106.399 77.77 105.451 77.1702C103.589 75.9907 101.641 74.9533 99.6229 74.0668C97.3606 73.0719 95.0034 72.309 92.5873 71.7896Z" fill="#292A2E"/>
<path d="M47.0666 115.988C46.9561 115.988 46.8488 115.951 46.7622 115.883C46.6756 115.813 46.6148 115.718 46.5897 115.61C46.5646 115.502 46.5767 115.39 46.624 115.29C46.6713 115.19 46.7511 115.109 46.8502 115.06C49.3908 113.813 52.2242 113.285 55.0433 113.535C55.173 113.546 55.2928 113.608 55.3765 113.708C55.4601 113.808 55.5008 113.937 55.4894 114.066C55.4781 114.196 55.4157 114.316 55.316 114.4C55.2163 114.483 55.0874 114.523 54.9577 114.512C52.3145 114.279 49.6579 114.775 47.2768 115.946C47.2106 115.976 47.1388 115.989 47.0666 115.988ZM61.1951 116.043C61.1502 116.043 61.1053 116.037 61.0619 116.024L58.0722 115.18C58.0103 115.163 57.9526 115.133 57.9023 115.093C57.8518 115.054 57.8097 115.004 57.7784 114.948C57.7472 114.891 57.7271 114.83 57.7196 114.767C57.7122 114.703 57.7173 114.638 57.7348 114.576C57.7523 114.515 57.7819 114.456 57.8216 114.406C57.8614 114.356 57.9108 114.313 57.9668 114.283C58.0229 114.251 58.0846 114.231 58.1484 114.224C58.2122 114.217 58.2768 114.222 58.3386 114.239L61.3284 115.083C61.442 115.115 61.5403 115.187 61.605 115.286C61.6696 115.385 61.6963 115.504 61.68 115.621C61.6638 115.738 61.6057 115.846 61.5166 115.923C61.4275 116 61.3132 116.043 61.1951 116.043ZM66.0929 117.78C66.0406 117.78 65.9886 117.771 65.9389 117.755L64.0186 117.115C63.9578 117.094 63.9014 117.062 63.8529 117.021C63.8044 116.978 63.7646 116.926 63.7359 116.869C63.7072 116.813 63.6901 116.749 63.6856 116.686C63.681 116.622 63.6891 116.557 63.7094 116.496C63.7297 116.435 63.7618 116.379 63.8039 116.331C63.8459 116.282 63.8971 116.242 63.9546 116.214C64.012 116.185 64.0746 116.167 64.1387 116.164C64.2027 116.159 64.267 116.166 64.3279 116.187L66.2481 116.827C66.3579 116.864 66.4509 116.94 66.5107 117.039C66.5704 117.138 66.593 117.255 66.5743 117.369C66.5558 117.484 66.4971 117.588 66.4088 117.664C66.3207 117.738 66.2087 117.78 66.0929 117.78ZM73.7738 120.767C73.7132 120.767 73.6532 120.756 73.5966 120.734L69.7561 119.24C69.6352 119.194 69.5379 119.1 69.4856 118.981C69.4333 118.863 69.4304 118.728 69.4774 118.607C69.5244 118.486 69.6175 118.39 69.7363 118.337C69.855 118.284 69.9897 118.282 70.1106 118.328L73.951 119.822C74.0575 119.864 74.1461 119.941 74.2016 120.041C74.2571 120.14 74.276 120.256 74.255 120.368C74.2339 120.481 74.1743 120.581 74.0865 120.654C73.9986 120.728 73.888 120.767 73.7738 120.767Z" fill="white"/>
</g>
<defs>
<clipPath id="clip0_61_761">
<rect width="201" height="201" fill="white"/>
</clipPath>
</defs>
</svg>
