<svg width="44" height="44" viewBox="0 0 44 44" fill="none" xmlns="http://www.w3.org/2000/svg">
<circle cx="22" cy="22" r="22" fill="#F3F6FB"/>
<path d="M22 26.0001V22.0001M22 18.0001H22.01M13 17.9415V26.0586C13 26.4013 13 26.5726 13.0505 26.7254C13.0951 26.8606 13.1682 26.9847 13.2646 27.0893C13.3737 27.2077 13.5234 27.2909 13.823 27.4573L21.223 31.5684C21.5066 31.726 21.6484 31.8047 21.7985 31.8356C21.9315 31.863 22.0685 31.863 22.2015 31.8356C22.3516 31.8047 22.4934 31.726 22.777 31.5684L30.177 27.4573C30.4766 27.2909 30.6263 27.2077 30.7354 27.0893C30.8318 26.9847 30.9049 26.8606 30.9495 26.7254C31 26.5726 31 26.4013 31 26.0586V17.9415C31 17.5989 31 17.4276 30.9495 17.2748C30.9049 17.1396 30.8318 17.0155 30.7354 16.9108C30.6263 16.7925 30.4766 16.7093 30.177 16.5429L22.777 12.4318C22.4934 12.2742 22.3516 12.1954 22.2015 12.1645C22.0685 12.1372 21.9315 12.1372 21.7985 12.1645C21.6484 12.1954 21.5066 12.2742 21.223 12.4318L13.823 16.5429C13.5234 16.7093 13.3737 16.7925 13.2646 16.9108C13.1682 17.0155 13.0951 17.1396 13.0505 17.2748C13 17.4276 13 17.5989 13 17.9415Z" stroke="#053969" stroke-width="1.5" stroke-linecap="round" stroke-linejoin="round"/>
</svg>
