<svg width="44" height="44" viewBox="0 0 44 44" fill="none" xmlns="http://www.w3.org/2000/svg">
<circle cx="22" cy="22" r="22" fill="#F3F6FB"/>
<path d="M25.0327 28.015C25.4615 29.6154 24.5118 31.2604 22.9114 31.6893C21.311 32.1181 19.666 31.1683 19.2372 29.5679M21.5332 15.7411C21.8375 15.1938 21.9377 14.5323 21.7628 13.8797C21.4054 12.546 20.0346 11.7546 18.7009 12.1119C17.3673 12.4693 16.5758 13.8401 16.9332 15.1738C17.108 15.8264 17.5256 16.3492 18.0627 16.671M26.8776 19.4455C26.5207 18.1134 25.5678 16.9994 24.2285 16.3487C22.8892 15.698 21.2733 15.5638 19.7362 15.9756C18.1991 16.3875 16.8668 17.3117 16.0323 18.5449C15.1978 19.778 14.9296 21.2192 15.2865 22.5514C15.8771 24.7554 15.7624 26.5138 15.3895 27.8499C14.9644 29.3728 14.7519 30.1342 14.8093 30.2871C14.875 30.462 14.9225 30.5101 15.0967 30.5776C15.249 30.6366 15.8888 30.4651 17.1683 30.1223L29.0334 26.9431C30.3129 26.6002 30.9527 26.4288 31.0551 26.3015C31.1722 26.1559 31.1894 26.0906 31.1588 25.9063C31.1321 25.7451 30.5673 25.192 29.4378 24.0857C28.4467 23.115 27.4682 21.6496 26.8776 19.4455Z" stroke="#053969" stroke-width="1.5" stroke-linecap="round" stroke-linejoin="round"/>
</svg>
