<svg width="44" height="44" viewBox="0 0 44 44" fill="none" xmlns="http://www.w3.org/2000/svg">
<circle cx="22" cy="22" r="22" fill="#F3F6FB"/>
<path d="M27 20V18C27 15.2386 24.7614 13 22 13C19.2386 13 17 15.2386 17 18V20M22 24.5V26.5M18.8 31H25.2C26.8802 31 27.7202 31 28.362 30.673C28.9265 30.3854 29.3854 29.9265 29.673 29.362C30 28.7202 30 27.8802 30 26.2V24.8C30 23.1198 30 22.2798 29.673 21.638C29.3854 21.0735 28.9265 20.6146 28.362 20.327C27.7202 20 26.8802 20 25.2 20H18.8C17.1198 20 16.2798 20 15.638 20.327C15.0735 20.6146 14.6146 21.0735 14.327 21.638C14 22.2798 14 23.1198 14 24.8V26.2C14 27.8802 14 28.7202 14.327 29.362C14.6146 29.9265 15.0735 30.3854 15.638 30.673C16.2798 31 17.1198 31 18.8 31Z" stroke="#053969" stroke-width="1.5" stroke-linecap="round" stroke-linejoin="round"/>
</svg>
