<svg width="44" height="44" viewBox="0 0 44 44" fill="none" xmlns="http://www.w3.org/2000/svg">
<circle cx="22" cy="22" r="22" fill="#F3F6FB"/>
<path d="M12 18H32M12 18.8H32M15.0769 24.4H21.2308M15.0769 26.8H18.1538M14.3077 30H29.6923C30.3043 30 30.8913 29.7471 31.3241 29.2971C31.7569 28.847 32 28.2365 32 27.6V16.4C32 15.7635 31.7569 15.153 31.3241 14.7029C30.8913 14.2529 30.3043 14 29.6923 14H14.3077C13.6957 14 13.1087 14.2529 12.6759 14.7029C12.2431 15.153 12 15.7635 12 16.4V27.6C12 28.2365 12.2431 28.847 12.6759 29.2971C13.1087 29.7471 13.6957 30 14.3077 30Z" stroke="#053969" stroke-width="1.5" stroke-linecap="round" stroke-linejoin="round"/>
</svg>
