<svg width="44" height="44" viewBox="0 0 44 44" fill="none" xmlns="http://www.w3.org/2000/svg">
<circle cx="22" cy="22" r="22" fill="#F3F6FB"/>
<path d="M19 21.5001L21 23.5001L25.5 19.0001M30 22.0001C30 26.9086 24.646 30.4785 22.698 31.615C22.4766 31.7442 22.3659 31.8087 22.2097 31.8422C22.0884 31.8682 21.9116 31.8682 21.7903 31.8422C21.6341 31.8087 21.5234 31.7442 21.302 31.615C19.354 30.4785 14 26.9086 14 22.0001V17.2177C14 16.4182 14 16.0184 14.1308 15.6748C14.2463 15.3713 14.434 15.1004 14.6777 14.8856C14.9535 14.6426 15.3278 14.5022 16.0764 14.2215L21.4382 12.2108C21.6461 12.1328 21.75 12.0938 21.857 12.0784C21.9518 12.0647 22.0482 12.0647 22.143 12.0784C22.25 12.0938 22.3539 12.1328 22.5618 12.2108L27.9236 14.2215C28.6722 14.5022 29.0465 14.6426 29.3223 14.8856C29.566 15.1004 29.7537 15.3713 29.8692 15.6748C30 16.0184 30 16.4182 30 17.2177V22.0001Z" stroke="#053969" stroke-width="1.5" stroke-linecap="round" stroke-linejoin="round"/>
</svg>
