<svg width="44" height="44" viewBox="0 0 44 44" fill="none" xmlns="http://www.w3.org/2000/svg">
<circle cx="22" cy="22" r="22" fill="#F3F6FB"/>
<path d="M32 31V29C32 27.1362 30.7252 25.5701 29 25.126M25.5 13.2908C26.9659 13.8841 28 15.3213 28 17C28 18.6787 26.9659 20.1159 25.5 20.7092M27 31C27 29.1362 27 28.2044 26.6955 27.4693C26.2895 26.4892 25.5108 25.7105 24.5307 25.3045C23.7956 25 22.8638 25 21 25H18C16.1362 25 15.2044 25 14.4693 25.3045C13.4892 25.7105 12.7105 26.4892 12.3045 27.4693C12 28.2044 12 29.1362 12 31M23.5 17C23.5 19.2091 21.7091 21 19.5 21C17.2909 21 15.5 19.2091 15.5 17C15.5 14.7909 17.2909 13 19.5 13C21.7091 13 23.5 14.7909 23.5 17Z" stroke="#053969" stroke-width="1.5" stroke-linecap="round" stroke-linejoin="round"/>
</svg>
