<svg width="72" height="26" viewBox="0 0 72 26" fill="none" xmlns="http://www.w3.org/2000/svg">
<rect y="0.5" width="72" height="25" rx="6" fill="#101010" fill-opacity="0.08"/>
<path d="M10.77 17.5V10.05H11.95V17.5H10.77ZM13.5846 17.5V12.09H14.6646V13.15L14.5346 13.01C14.6679 12.67 14.8813 12.4133 15.1746 12.24C15.4679 12.06 15.8079 11.97 16.1946 11.97C16.5946 11.97 16.9479 12.0567 17.2546 12.23C17.5613 12.4033 17.8013 12.6433 17.9746 12.95C18.1479 13.2567 18.2346 13.61 18.2346 14.01V17.5H17.1146V14.31C17.1146 14.0367 17.0646 13.8067 16.9646 13.62C16.8646 13.4267 16.7213 13.28 16.5346 13.18C16.3546 13.0733 16.1479 13.02 15.9146 13.02C15.6813 13.02 15.4713 13.0733 15.2846 13.18C15.1046 13.28 14.9646 13.4267 14.8646 13.62C14.7646 13.8133 14.7146 14.0433 14.7146 14.31V17.5H13.5846ZM21.702 17.5V10.05H24.142C24.9154 10.05 25.5854 10.2067 26.152 10.52C26.7254 10.8267 27.1687 11.26 27.482 11.82C27.7954 12.38 27.952 13.03 27.952 13.77C27.952 14.5033 27.7954 15.1533 27.482 15.72C27.1687 16.28 26.7254 16.7167 26.152 17.03C25.5854 17.3433 24.9154 17.5 24.142 17.5H21.702ZM22.882 16.45H24.162C24.6887 16.45 25.1454 16.34 25.532 16.12C25.9254 15.9 26.2287 15.59 26.442 15.19C26.6554 14.79 26.762 14.3167 26.762 13.77C26.762 13.2233 26.652 12.7533 26.432 12.36C26.2187 11.96 25.9187 11.65 25.532 11.43C25.1454 11.21 24.6887 11.1 24.162 11.1H22.882V16.45ZM31.7441 17.62C31.2041 17.62 30.7241 17.4967 30.3041 17.25C29.8908 16.9967 29.5675 16.6567 29.3341 16.23C29.1008 15.7967 28.9841 15.3133 28.9841 14.78C28.9841 14.2333 29.1008 13.75 29.3341 13.33C29.5741 12.91 29.8941 12.58 30.2941 12.34C30.6941 12.0933 31.1475 11.97 31.6541 11.97C32.0608 11.97 32.4241 12.04 32.7441 12.18C33.0641 12.32 33.3341 12.5133 33.5541 12.76C33.7741 13 33.9408 13.2767 34.0541 13.59C34.1741 13.9033 34.2341 14.2367 34.2341 14.59C34.2341 14.6767 34.2308 14.7667 34.2241 14.86C34.2175 14.9533 34.2041 15.04 34.1841 15.12H29.8741V14.22H33.5441L33.0041 14.63C33.0708 14.3033 33.0475 14.0133 32.9341 13.76C32.8275 13.5 32.6608 13.2967 32.4341 13.15C32.2141 12.9967 31.9541 12.92 31.6541 12.92C31.3541 12.92 31.0875 12.9967 30.8541 13.15C30.6208 13.2967 30.4408 13.51 30.3141 13.79C30.1875 14.0633 30.1375 14.3967 30.1641 14.79C30.1308 15.1567 30.1808 15.4767 30.3141 15.75C30.4541 16.0233 30.6475 16.2367 30.8941 16.39C31.1475 16.5433 31.4341 16.62 31.7541 16.62C32.0808 16.62 32.3575 16.5467 32.5841 16.4C32.8175 16.2533 33.0008 16.0633 33.1341 15.83L34.0541 16.28C33.9475 16.5333 33.7808 16.7633 33.5541 16.97C33.3341 17.17 33.0675 17.33 32.7541 17.45C32.4475 17.5633 32.1108 17.62 31.7441 17.62ZM35.537 17.5V9.93H36.667V17.5H35.537ZM38.1881 17.5V12.09H39.3181V17.5H38.1881ZM38.1881 11.35V10.05H39.3181V11.35H38.1881ZM42.4093 17.5L40.2893 12.09H41.5193L43.1493 16.5H42.6993L44.3293 12.09H45.5693L43.4393 17.5H42.4093ZM48.9797 17.62C48.4397 17.62 47.9597 17.4967 47.5397 17.25C47.1264 16.9967 46.803 16.6567 46.5697 16.23C46.3364 15.7967 46.2197 15.3133 46.2197 14.78C46.2197 14.2333 46.3364 13.75 46.5697 13.33C46.8097 12.91 47.1297 12.58 47.5297 12.34C47.9297 12.0933 48.383 11.97 48.8897 11.97C49.2964 11.97 49.6597 12.04 49.9797 12.18C50.2997 12.32 50.5697 12.5133 50.7897 12.76C51.0097 13 51.1764 13.2767 51.2897 13.59C51.4097 13.9033 51.4697 14.2367 51.4697 14.59C51.4697 14.6767 51.4664 14.7667 51.4597 14.86C51.453 14.9533 51.4397 15.04 51.4197 15.12H47.1097V14.22H50.7797L50.2397 14.63C50.3064 14.3033 50.283 14.0133 50.1697 13.76C50.063 13.5 49.8964 13.2967 49.6697 13.15C49.4497 12.9967 49.1897 12.92 48.8897 12.92C48.5897 12.92 48.323 12.9967 48.0897 13.15C47.8564 13.2967 47.6764 13.51 47.5497 13.79C47.423 14.0633 47.373 14.3967 47.3997 14.79C47.3664 15.1567 47.4164 15.4767 47.5497 15.75C47.6897 16.0233 47.883 16.2367 48.1297 16.39C48.383 16.5433 48.6697 16.62 48.9897 16.62C49.3164 16.62 49.593 16.5467 49.8197 16.4C50.053 16.2533 50.2364 16.0633 50.3697 15.83L51.2897 16.28C51.183 16.5333 51.0164 16.7633 50.7897 16.97C50.5697 17.17 50.303 17.33 49.9897 17.45C49.683 17.5633 49.3464 17.62 48.9797 17.62ZM52.7725 17.5V12.09H53.8525V13.18L53.7525 13.02C53.8725 12.6667 54.0658 12.4133 54.3325 12.26C54.5992 12.1 54.9192 12.02 55.2925 12.02H55.6225V13.05H55.1525C54.7792 13.05 54.4758 13.1667 54.2425 13.4C54.0158 13.6267 53.9025 13.9533 53.9025 14.38V17.5H52.7725ZM57.0755 19.71C56.9422 19.71 56.8089 19.6967 56.6755 19.67C56.5489 19.65 56.4322 19.6167 56.3255 19.57V18.6C56.4055 18.62 56.5022 18.6367 56.6155 18.65C56.7289 18.67 56.8389 18.68 56.9455 18.68C57.2589 18.68 57.4889 18.61 57.6355 18.47C57.7889 18.3367 57.9255 18.1267 58.0455 17.84L58.4055 17.02L58.3855 17.97L56.0455 12.09H57.2555L58.9855 16.6H58.5755L60.2955 12.09H61.5155L59.1255 18.09C58.9989 18.41 58.8389 18.69 58.6455 18.93C58.4589 19.1767 58.2355 19.3667 57.9755 19.5C57.7222 19.64 57.4222 19.71 57.0755 19.71Z" fill="#35383F"/>
</svg>
