<svg width="44" height="44" viewBox="0 0 44 44" fill="none" xmlns="http://www.w3.org/2000/svg">
<circle cx="22" cy="22" r="22" fill="#F3F6FB"/>
<path d="M22.913 27H30.087M22.913 27L21 31M22.913 27L25.7783 21.009C26.0092 20.5263 26.1246 20.2849 26.2826 20.2086C26.4199 20.1423 26.5801 20.1423 26.7174 20.2086C26.8754 20.2849 26.9908 20.5263 27.2217 21.009L30.087 27M30.087 27L32 31M12 15H18M18 15H21.5M18 15V13M21.5 15H24M21.5 15C21.0039 17.9573 19.8526 20.6362 18.1655 22.8844M20 24C19.3875 23.7248 18.7626 23.3421 18.1655 22.8844M18.1655 22.8844C16.813 21.8478 15.6028 20.4266 15 19M18.1655 22.8844C16.5609 25.0229 14.4714 26.7718 12 28" stroke="#053969" stroke-width="1.5" stroke-linecap="round" stroke-linejoin="round"/>
</svg>
