<svg width="44" height="44" viewBox="0 0 44 44" fill="none" xmlns="http://www.w3.org/2000/svg">
<circle cx="22" cy="22" r="22" fill="#F3F6FB"/>
<path d="M26 26.9998L31 21.9998M31 21.9998L26 16.9998M31 21.9998H19M22 26.9998C22 27.2954 22 27.4432 21.989 27.5712C21.8748 28.9018 20.8949 29.9967 19.585 30.2571C19.459 30.2821 19.312 30.2985 19.0184 30.3311L17.9969 30.4446C16.4625 30.6151 15.6952 30.7003 15.0857 30.5053C14.2729 30.2452 13.6094 29.6513 13.2612 28.8723C13 28.288 13 27.5161 13 25.9721V18.0275C13 16.4836 13 15.7116 13.2612 15.1273C13.6094 14.3483 14.2729 13.7544 15.0857 13.4943C15.6952 13.2993 16.4625 13.3845 17.9969 13.555L19.0183 13.6685C19.3121 13.7012 19.459 13.7175 19.585 13.7425C20.8949 14.003 21.8748 15.0979 21.989 16.4284C22 16.5565 22 16.7042 22 16.9998" stroke="#FF5944" stroke-width="1.5" stroke-linecap="round" stroke-linejoin="round"/>
</svg>
