<svg width="44" height="44" viewBox="0 0 44 44" fill="none" xmlns="http://www.w3.org/2000/svg">
<rect width="44" height="44" rx="12" fill="#F3F6FB"/>
<path fill-rule="evenodd" clip-rule="evenodd" d="M12.7283 17.563L21.2283 12.463C21.7033 12.178 22.2967 12.178 22.7717 12.463L31.2717 17.563C31.371 17.6226 31.4619 17.6927 31.5432 17.7713L23.7618 23.4309C22.912 24.049 22.6465 24.2265 22.3868 24.2947C22.132 24.3617 21.868 24.3617 21.6132 24.2947C21.3535 24.2265 21.088 24.049 20.2382 23.4309L12.4568 17.7713C12.5381 17.6927 12.629 17.6226 12.7283 17.563ZM12 19.2939V28.9123L17.5342 23.319L12 19.2939ZM12.4596 30.5805C12.7293 30.8403 13.096 31 13.5 31H30.5C30.904 31 31.2707 30.8403 31.5404 30.5805L25.2387 24.2115L24.644 24.644L24.5322 24.7254L24.5322 24.7254C23.845 25.226 23.3368 25.5961 22.7678 25.7455C22.2632 25.8781 21.7368 25.8781 21.2322 25.7455C20.6632 25.5961 20.1551 25.226 19.4678 24.7254L19.356 24.644L18.7613 24.2115L12.4596 30.5805ZM32 28.9123V19.2939L26.4657 23.319L32 28.9123Z" fill="#053969"/>
</svg>
