<svg width="44" height="44" viewBox="0 0 44 44" fill="none" xmlns="http://www.w3.org/2000/svg">
<rect width="44" height="44" rx="22" fill="white" fill-opacity="0.2"/>
<path d="M24.5272 27.0124C24.8846 28.3461 24.0931 29.7169 22.7595 30.0743C21.4258 30.4316 20.0549 29.6402 19.6976 28.3065M21.611 16.7841C21.8645 16.3281 21.948 15.7768 21.8023 15.233C21.5045 14.1216 20.3621 13.462 19.2507 13.7598C18.1394 14.0576 17.4798 15.2 17.7776 16.3114C17.9233 16.8552 18.2713 17.2909 18.7188 17.5591M26.0646 19.8712C25.7672 18.7611 24.9731 17.8328 23.857 17.2905C22.741 16.7482 21.3944 16.6364 20.1135 16.9796C18.8326 17.3228 17.7223 18.093 17.0269 19.1206C16.3315 20.1483 16.1079 21.3493 16.4054 22.4594C16.8975 24.2961 16.802 25.7614 16.4912 26.8749C16.137 28.1439 15.9598 28.7784 16.0077 28.9058C16.0624 29.0516 16.102 29.0916 16.2472 29.1479C16.3741 29.197 16.9073 29.0542 17.9736 28.7685L27.8611 26.1191C28.9274 25.8334 29.4605 25.6905 29.5459 25.5845C29.6435 25.4632 29.6578 25.4087 29.6323 25.2551C29.61 25.1209 29.1394 24.6599 28.1981 23.738C27.3722 22.9291 26.5568 21.7079 26.0646 19.8712Z" stroke="white" stroke-width="1.5" stroke-linecap="round" stroke-linejoin="round"/>
</svg>
