<svg width="243" height="243" viewBox="0 0 243 243" fill="none" xmlns="http://www.w3.org/2000/svg">
<path d="M73.3458 35.2738C81.9425 31.0343 93.0223 30.6952 102.433 30.6952C104.311 30.0692 111.926 26.5481 113.853 25.8472C119.388 23.8346 125.491 24.0019 131.009 21.9689C135.161 20.4392 139.455 19.5029 143.533 17.7135C147.005 16.1899 150.493 14.9623 154.306 14.7239C160.432 14.341 165.581 15.0711 170.843 18.3599C174.865 20.8733 179.872 21.806 183.502 24.8776C188.402 29.0237 191.208 34.3351 193.79 40.1217C195.366 43.6548 198.275 48.5333 198.423 52.5109C198.506 54.7754 198.423 57.0582 198.423 59.3249C198.423 67.3162 202.301 74.7561 202.301 82.7566C202.301 91.4522 204.108 100.76 206.664 109.124C208.017 113.552 210.274 117.674 210.919 122.321C211.503 126.521 211.512 130.668 211.512 134.899C211.512 140.273 213.507 145.209 213.828 150.547C214.041 154.086 214.201 162.424 210.542 164.66C208.383 165.979 203.201 164.983 200.847 164.983C195.704 164.983 190.255 165.116 186.841 169.615C184.378 172.863 182.345 175.449 179.139 178.072C177.444 179.459 177.18 180.855 176.849 182.974C176.247 186.83 176.607 190.934 176.607 194.825C176.607 199.021 176.013 202.776 175.422 206.918C174.409 214.005 174.687 215.684 166.884 218.667C161.449 220.745 156.232 221.431 150.374 221.226C146.784 221.1 142.445 221.398 139.008 220.094C135.606 218.804 134.02 217.637 132.275 214.439C129.991 210.252 128.089 214.195 126.781 209.584C125.615 205.475 125.804 201.031 124.626 197.006C123.393 192.792 115.216 192.912 111.887 192.616C108.035 192.274 104.14 192.069 100.494 190.677C95.9688 188.949 104.839 216.587 93.4614 222.566C82.4898 224.308 84.2609 198.498 80.0517 197.006C67.7957 192.662 65.7095 186.348 55.6704 190.677C50.1709 193.048 42.7039 182.946 36.9863 181.358C32.1918 180.026 31.2465 176.611 30.5763 172.255C29.8382 167.458 27.2315 162.972 25.9438 158.304C24.7376 153.931 25.9184 148.044 25.8361 143.598C25.8006 141.681 24.5502 140.357 23.6814 138.777C21.8287 135.409 19.6493 131.834 18.2948 128.246C14.7123 118.758 13.9496 106.499 15.3861 96.5193C16.2312 90.6479 20.0633 86.1774 22.8465 81.1675C24.149 78.8231 23.9814 76.9581 22.5503 74.8114C19.9327 70.885 23.8344 64.4677 24.8665 60.7524C26.1172 56.2499 28.6359 50.8047 33.108 48.6325C41.9247 44.3501 52.9653 49.0327 62.1956 45.7238C67.6553 43.7665 68.1266 37.8477 73.3458 35.2738Z" fill="#F4F7FA"/>
<path d="M166.15 99.853C170.155 99.1603 175.379 99.8784 176.563 103.768C177.422 106.593 175.566 109.474 173.634 111.711C170.868 114.9 167.744 117.763 164.327 120.24C167.243 119.02 170.792 117.863 173.361 119.692C175.216 121.015 175.859 123.58 175.452 125.823C175.045 128.065 173.767 130.047 172.401 131.873C169.088 136.295 165.108 140.175 160.605 143.377C163.458 141.438 167.202 139.6 170.191 141.33C172.36 142.587 173.23 145.426 172.792 147.894C172.355 150.362 170.856 152.511 169.202 154.393C165.086 159.065 159.841 162.608 153.97 164.681C154.076 164.643 150.981 149.279 150.751 147.848C149.833 142.142 149.087 136.411 148.51 130.654C147.98 125.36 147.876 120.004 147.21 114.729C147.031 113.321 146.735 111.81 147.163 110.419C147.69 108.704 149.207 107.529 150.593 106.51C155.194 103.12 160.52 100.841 166.15 99.853ZM53.5046 207.821C41.563 187.805 41.0732 163.166 42.0385 139.877C42.2462 134.849 42.5251 129.733 44.2988 125.021C46.5289 119.091 50.9559 114.272 55.5287 109.893C63.6033 102.199 72.4213 95.3244 81.8528 89.3712C84.2842 87.8306 86.9709 86.2931 89.8413 86.5293C92.8973 86.7797 95.4016 88.9765 97.5731 91.1417C115.233 108.761 126.793 131.426 138.063 153.681C139.317 156.158 140.599 158.712 140.835 161.478C141.101 164.527 140.084 167.528 139.082 170.42C136.229 178.663 133.349 186.954 129.255 194.66C126.709 199.452 123.525 204.17 118.812 206.854C115.368 208.819 111.363 209.548 107.437 210.079C99.9284 211.097 92.352 211.506 84.7788 211.595C77.2055 211.683 69.6005 211.436 62.0178 211.119C60.4534 211.056 58.61 211.255 57.0915 210.818C55.5033 210.369 54.3304 209.206 53.5046 207.821Z" fill="#FBD2B5"/>
<path d="M60.5769 40.9027C60.3138 38.2779 60.4596 33.6115 61.5549 31.215C63.6154 26.6897 68.1724 24.9478 71.4169 24.5293C107.017 19.9328 130.908 21.4909 161.837 24.5198C166.047 24.9319 170.883 25.7229 173.03 29.3684C174.528 31.9045 174.213 35.0745 173.851 38.0052L155.763 184.364C155.616 185.556 155.438 186.818 154.679 187.748C153.555 189.121 151.566 189.32 149.794 189.411C129.026 190.466 108.24 190.845 87.4336 190.546C85.7582 190.522 83.9957 190.469 82.5597 189.604C80.2439 188.208 79.5481 185.228 79.0726 182.566L73.9799 154.54C73.2254 150.389 72.2221 146.204 71.8037 142.004C71.3725 137.683 70.7956 133.375 70.2789 129.064C69.1419 119.644 68.0399 110.222 66.9725 100.796C65.9064 91.4054 64.8692 82.0103 63.8611 72.6111C62.853 63.2119 61.8757 53.8106 60.9288 44.4072L60.5769 40.9027Z" fill="#57585C"/>
<path d="M111.875 178.821C112.105 182.058 115.112 184.884 118.358 184.884C122.655 184.884 126.318 181.777 125.332 176.705C124.799 173.968 121.545 171.817 118.779 171.674C116.537 171.56 114.341 172.514 113.048 174.345C112.308 175.388 111.736 176.848 111.875 178.821Z" fill="black"/>
<path d="M115.473 179.274C115.373 179.275 115.275 179.242 115.194 179.181C115.113 179.12 115.052 179.034 115.021 178.937C114.99 178.839 114.99 178.732 115.021 178.633C115.053 178.535 115.113 178.45 115.194 178.389C117.136 176.938 119.164 175.614 121.266 174.424C121.32 174.389 121.382 174.366 121.446 174.356C121.509 174.347 121.574 174.35 121.637 174.366C121.699 174.383 121.757 174.413 121.808 174.454C121.859 174.494 121.902 174.546 121.932 174.605C121.963 174.662 121.982 174.727 121.988 174.793C121.995 174.859 121.988 174.925 121.968 174.989C121.949 175.052 121.917 175.11 121.874 175.16C121.833 175.21 121.781 175.252 121.722 175.28C119.655 176.451 117.661 177.754 115.752 179.181C115.671 179.242 115.573 179.275 115.473 179.274ZM118.283 181.344C118.169 181.344 118.058 181.3 117.972 181.221C117.925 181.18 117.886 181.128 117.858 181.071C117.831 181.013 117.814 180.951 117.809 180.886C117.805 180.823 117.813 180.758 117.833 180.697C117.853 180.635 117.884 180.579 117.925 180.53C118.755 179.552 119.756 178.741 120.876 178.14C120.931 178.111 120.992 178.094 121.053 178.088C121.116 178.083 121.178 178.09 121.237 178.11C121.298 178.129 121.352 178.16 121.4 178.202C121.447 178.243 121.486 178.295 121.515 178.351C121.543 178.408 121.561 178.471 121.567 178.534C121.572 178.599 121.565 178.664 121.546 178.725C121.527 178.786 121.496 178.842 121.456 178.891C121.416 178.94 121.367 178.981 121.311 179.01C120.299 179.554 119.396 180.288 118.646 181.175C118.601 181.229 118.545 181.271 118.482 181.301C118.42 181.33 118.352 181.345 118.283 181.344Z" fill="white"/>
<path d="M118.357 185.518C114.756 185.518 111.497 182.471 111.242 178.861C111.111 177.008 111.543 175.364 112.529 173.974C113.926 172.005 116.273 170.909 118.811 171.037C121.77 171.195 125.346 173.451 125.954 176.585C126.43 178.992 125.954 181.14 124.583 182.796C123.157 184.526 120.889 185.518 118.357 185.518ZM112.507 178.775C112.713 181.691 115.447 184.25 118.357 184.25C120.508 184.25 122.421 183.426 123.605 181.989C124.715 180.636 125.103 178.85 124.715 176.827C124.228 174.318 121.182 172.432 118.752 172.308C116.65 172.197 114.713 173.101 113.571 174.713C112.759 175.857 112.403 177.223 112.513 178.775H112.507Z" fill="black"/>
<path d="M70.027 38.1859C69.03 40.1894 69.133 42.54 69.2677 44.7717C71.4754 81.3186 76.109 117.679 83.1383 153.611C83.4743 155.333 83.8468 157.119 84.9072 158.517C86.8948 161.135 90.5895 161.589 93.8689 161.79C108.11 162.663 122.386 162.815 136.643 162.243C139.02 162.148 141.475 162.01 143.576 160.902C148.242 158.439 149.374 152.384 149.974 147.141C153.954 112.431 157.86 77.7122 161.692 42.9854C161.949 40.6633 162.124 38.0496 160.615 36.2649C159.253 34.6529 156.969 34.2614 154.869 33.9935C142.845 32.4565 130.747 31.557 118.627 31.299C112.567 31.169 106.507 31.1991 100.448 31.3893C97.3861 31.486 78.0092 33.3532 75.7965 33.9793C73.4348 34.6482 71.1587 35.9114 70.027 38.1859Z" fill="white"/>
<path d="M128.879 62.3289C128.879 62.3289 129.482 63.922 130.125 63.8794C130.769 63.8369 134.159 63.5586 134.716 64.3992C135.274 65.2397 136.261 65.1613 137.049 64.8998C138.076 64.5589 139.378 63.6504 140.252 65.5931C141.125 67.5357 142.052 66.4934 142.655 66.7593C143.258 67.0251 143.183 67.4798 143.183 67.4798L141.925 69.3622L124.618 67.8279L128.879 62.3289Z" fill="#1B5EC9"/>
<path d="M127.496 62.3289C128.111 62.9217 128.681 63.5587 129.201 64.2347C129.33 64.4021 129.508 64.5252 129.712 64.5863C129.916 64.6474 130.133 64.6436 130.334 64.5753C131.037 64.333 131.779 64.217 132.39 64.592C132.91 64.9116 133.184 65.516 133.673 65.88C134.42 66.4363 135.484 66.3037 136.354 65.9654C137.262 65.6124 138.105 65.0628 139.076 64.9254C139.139 64.9156 139.203 64.9166 139.266 64.9283C139.666 65.007 139.663 65.4421 139.73 65.7813C139.923 66.7621 140.434 67.2668 141.429 67.4314C141.815 67.4953 143.235 67.1628 143.185 67.4529C141.778 74.1893 139.438 80.5346 137.142 86.8049C135.624 86.3279 134.08 85.931 132.523 85.5971C130.958 85.2631 129.38 84.9879 127.796 84.7522C126.213 84.5165 124.629 84.3195 123.041 84.1363C121.453 83.9531 119.861 83.7833 118.272 83.6039C117.575 83.5252 116.754 83.5352 116.098 83.27C115.899 83.1951 115.724 83.0677 115.593 82.9017C115.461 82.7357 115.378 82.5372 115.353 82.3278C115.192 81.1671 116.097 80.0027 116.646 79.0648C117.44 77.7125 118.248 76.3682 119.07 75.0318C119.892 73.6954 120.728 72.3681 121.578 71.0498C122.428 69.7313 123.292 68.4216 124.17 67.1208C125.051 65.814 125.946 64.5169 126.856 63.2295C126.911 63.1527 127.514 62.346 127.496 62.3289Z" fill="#FF8D55"/>
<path d="M138.597 74.8489C138.564 74.8488 138.532 74.8403 138.503 74.824C138.475 74.8078 138.451 74.7845 138.434 74.7563C138.417 74.728 138.407 74.6958 138.406 74.6628C138.405 74.6297 138.412 74.597 138.427 74.5676C139.339 72.7746 140.054 70.8866 140.561 68.9371C140.576 68.8893 140.607 68.8489 140.651 68.8244C140.694 68.7998 140.744 68.7931 140.792 68.8056C140.84 68.8181 140.881 68.8488 140.907 68.8913C140.933 68.9339 140.941 68.9849 140.931 69.0336C140.417 71.0106 139.691 72.9251 138.767 74.7432C138.751 74.7749 138.727 74.8016 138.697 74.8203C138.667 74.8389 138.632 74.8488 138.597 74.8489ZM137.468 77.5208C137.449 77.5208 137.43 77.5177 137.411 77.5116C137.363 77.4962 137.323 77.4622 137.299 77.417C137.276 77.3717 137.272 77.319 137.286 77.2704C137.305 77.212 137.324 77.1468 137.345 77.0773C137.488 76.6093 137.679 75.9675 137.951 75.6335C137.967 75.6129 137.986 75.5956 138.009 75.5827C138.031 75.5699 138.056 75.5617 138.081 75.5586C138.107 75.5556 138.132 75.5577 138.157 75.565C138.182 75.5722 138.204 75.5845 138.225 75.6009C138.244 75.6173 138.26 75.6375 138.272 75.6605C138.284 75.6834 138.292 75.7086 138.294 75.7344C138.296 75.7603 138.293 75.7863 138.285 75.8109C138.277 75.8355 138.264 75.8582 138.247 75.8777C138.024 76.1537 137.835 76.7777 137.711 77.1903C137.689 77.2612 137.669 77.3273 137.651 77.3867C137.638 77.4257 137.614 77.4597 137.581 77.4838C137.549 77.508 137.509 77.5209 137.468 77.5208Z" fill="black"/>
<path d="M138.37 68.2367H138.366C138.236 68.2384 138.11 68.1919 138.009 68.1051C137.832 67.9449 137.788 67.6441 137.91 67.4202C137.967 67.3211 138.049 67.2403 138.145 67.1861C138.242 67.132 138.351 67.1064 138.46 67.1123C138.501 67.114 138.539 67.1315 138.569 67.1615C138.673 67.1773 138.769 67.2325 138.837 67.3173C138.89 67.3783 138.928 67.4519 138.949 67.5319C138.969 67.6118 138.972 67.6959 138.956 67.777C138.898 68.0398 138.647 68.2367 138.37 68.2367ZM138.382 67.4757C138.345 67.4821 138.31 67.4964 138.278 67.5181C138.247 67.5396 138.221 67.5679 138.2 67.6011C138.181 67.6373 138.172 67.6794 138.177 67.7211C138.181 67.7627 138.198 67.8017 138.226 67.8321C138.267 67.8646 138.317 67.8811 138.368 67.8791C138.49 67.8813 138.606 67.7976 138.629 67.696C138.632 67.671 138.63 67.6454 138.623 67.6214C138.615 67.5974 138.603 67.5754 138.587 67.5572C138.578 67.5448 138.566 67.5347 138.552 67.5278C138.539 67.5208 138.524 67.5171 138.51 67.5169C138.487 67.5197 138.464 67.5175 138.442 67.5103C138.419 67.5031 138.399 67.4912 138.382 67.4753V67.4757Z" fill="black"/>
<path d="M138.676 67.3927C138.642 67.3927 138.608 67.3834 138.579 67.3655C138.549 67.3477 138.525 67.322 138.509 67.2913C138.492 67.2607 138.485 67.2261 138.486 67.1912C138.488 67.1564 138.498 67.1226 138.517 67.0934C139.649 65.317 140.26 63.2483 140.275 61.1308C140.275 60.5882 140.228 59.9121 139.816 59.4977C139.552 59.2322 139.187 59.1282 138.926 59.088C138.078 58.9575 137.125 59.2592 136.013 60.0122C133.776 61.526 132.221 63.7269 131.745 66.0502C131.733 66.0994 131.704 66.1422 131.662 66.1694C131.62 66.1966 131.57 66.2061 131.521 66.1958C131.472 66.1855 131.43 66.1562 131.402 66.1143C131.374 66.0724 131.364 66.0211 131.373 65.9714C131.869 63.5489 133.483 61.26 135.802 59.6901C136.997 58.8815 138.036 58.5594 138.983 58.7055C139.437 58.7756 139.817 58.9546 140.083 59.223C140.595 59.7385 140.658 60.5142 140.653 61.1323C140.637 63.3244 140.006 65.4662 138.834 67.3052C138.816 67.3318 138.793 67.3538 138.766 67.369C138.738 67.3843 138.708 67.3924 138.676 67.3927Z" fill="black"/>
<path d="M139.984 66.8301C139.956 66.8301 139.927 66.8235 139.902 66.811C139.857 66.7893 139.823 66.7508 139.806 66.704C139.79 66.6571 139.793 66.6058 139.815 66.5612C140.175 65.824 140.723 64.39 140.813 63.5083C140.907 62.5779 140.766 61.8478 140.39 61.338C139.944 60.7299 139.088 60.388 138.21 60.4628C137.474 60.5255 136.695 60.8534 135.893 61.4385C134.678 62.3266 133.725 63.5247 133.138 64.9063C133.118 64.952 133.081 64.9882 133.035 65.0068C132.989 65.0255 132.937 65.0251 132.891 65.0057C132.845 64.9864 132.809 64.9497 132.79 64.9036C132.771 64.8577 132.772 64.8061 132.791 64.7604C133.405 63.3166 134.4 62.0647 135.671 61.1368C136.529 60.5105 137.372 60.1583 138.178 60.0901C139.2 60.0031 140.164 60.3964 140.694 61.1191C141.125 61.7061 141.291 62.5223 141.186 63.5485C141.092 64.4756 140.524 65.9653 140.151 66.7268C140.136 66.7576 140.112 66.7836 140.082 66.8018C140.053 66.8201 140.019 66.8299 139.984 66.8301Z" fill="black"/>
<path d="M113.676 55.3345C113.738 55.1808 113.845 55.0486 113.982 54.9547C114.12 54.8608 114.282 54.8093 114.449 54.8067L118.689 54.7362C119.152 54.7285 119.624 54.7223 120.067 54.8543C120.52 54.9887 120.917 55.2593 121.31 55.5213C123.768 57.1517 126.378 58.5442 129.104 59.6795C129.221 59.7283 129.327 59.7999 129.415 59.8903C129.504 59.9806 129.573 60.0877 129.619 60.2052C129.665 60.3226 129.686 60.4481 129.681 60.5739C129.677 60.6999 129.647 60.8236 129.594 60.9378L124.428 71.968C122.88 75.2701 121.332 78.5784 120.014 81.9791C119.352 83.6866 118.748 85.4218 118.355 87.2098C118.337 87.2979 118.302 87.3813 118.252 87.4561C118.046 87.7524 117.761 87.6467 117.527 87.5366C115.607 86.6238 114.053 85.1216 112.532 83.6457C111.222 82.3736 109.909 81.0982 108.739 79.6975C108.211 79.0653 107.698 78.3792 107.525 77.576C107.353 76.7727 107.538 75.9357 107.726 75.1334C108.055 73.7165 108.398 72.302 108.742 70.8889C109.09 69.4625 109.446 68.0378 109.809 66.6149C109.976 65.9603 110.204 65.2957 110.283 64.6234C110.331 64.2208 110.304 63.823 110.415 63.4285C110.607 62.7563 110.928 62.1065 111.19 61.46L112.016 59.4242L113.676 55.3345Z" fill="white"/>
<path d="M117.909 87.9302C117.713 87.9302 117.532 87.844 117.435 87.7985C115.453 86.8572 113.877 85.3286 112.35 83.8504C111.048 82.5886 109.701 81.2838 108.514 79.8664C108.002 79.2551 107.44 78.5299 107.25 77.6509C107.06 76.7719 107.27 75.8929 107.453 75.1121C107.739 73.8848 108.055 72.568 108.478 70.843C108.827 69.416 109.189 67.9689 109.554 66.5438C109.602 66.3584 109.655 66.1702 109.705 65.9881C109.836 65.5216 109.971 65.0392 110.027 64.5664C110.043 64.4313 110.051 64.2919 110.058 64.1568C110.072 63.89 110.087 63.6141 110.166 63.3353C110.304 62.8453 110.512 62.3667 110.713 61.9045C110.793 61.7177 110.877 61.5241 110.954 61.3359L113.459 55.1771C113.536 54.9875 113.668 54.8246 113.838 54.7089C114.008 54.5932 114.209 54.5298 114.415 54.5266L118.687 54.4547C119.14 54.4476 119.654 54.4389 120.135 54.5812C120.6 54.7196 121.005 54.986 121.392 55.2437L121.44 55.2753C123.907 56.9072 126.527 58.3012 129.262 59.4385C129.404 59.4975 129.533 59.5843 129.64 59.6936C129.747 59.8029 129.831 59.9326 129.886 60.0747C129.942 60.2168 129.968 60.3687 129.963 60.521C129.958 60.6733 129.922 60.8231 129.857 60.9613L124.649 72.053C123.116 75.3166 121.532 78.6932 120.205 82.1063C119.655 83.5222 118.97 85.3962 118.542 87.3377C118.519 87.4507 118.474 87.5575 118.409 87.6533C118.262 87.8655 118.08 87.9302 117.909 87.9302ZM113.638 55.248L113.818 55.3194L111.313 61.4782C111.234 61.6698 111.15 61.8657 111.068 62.053C110.875 62.5042 110.67 62.9708 110.539 63.4364C110.471 63.6759 110.458 63.9154 110.442 64.1746C110.434 64.3154 110.426 64.462 110.409 64.6086C110.35 65.1111 110.211 65.6078 110.076 66.0883C110.027 66.2684 109.973 66.4542 109.927 66.6353C109.563 68.0599 109.201 69.5051 108.851 70.9312C108.429 72.6556 108.113 73.9696 107.828 75.1945C107.654 75.9369 107.456 76.7786 107.626 77.5671C107.797 78.3555 108.327 79.0424 108.809 79.6182C109.983 81.0203 111.324 82.318 112.619 83.573C114.122 85.0297 115.677 86.5358 117.6 87.4497C117.904 87.5934 118 87.5594 118.088 87.4325C118.124 87.3779 118.149 87.3166 118.162 87.2524C118.597 85.2855 119.287 83.3939 119.842 81.9654C121.172 78.539 122.76 75.1576 124.295 71.8878L129.502 60.798C129.544 60.7066 129.568 60.6076 129.571 60.507C129.574 60.4064 129.557 60.3062 129.521 60.2123C129.484 60.1185 129.428 60.0329 129.358 59.9607C129.287 59.8885 129.202 59.8311 129.109 59.792C126.35 58.6454 123.709 57.2396 121.221 55.5939L121.173 55.5622C120.808 55.3227 120.431 55.0703 120.02 54.9486C119.598 54.8231 119.136 54.8308 118.69 54.838L114.417 54.9069C114.287 54.9089 114.16 54.9489 114.053 55.0219C113.946 55.095 113.863 55.1978 113.814 55.3175L113.638 55.248Z" fill="black"/>
<path d="M124.343 61.0176C124.31 61.0176 124.276 61.0176 124.242 61.0128C124.064 60.9961 123.912 60.9171 123.778 60.8492C123.708 60.8109 123.635 60.7777 123.56 60.7497C121.562 60.0646 119.697 58.8408 117.895 57.6553C117.608 57.4678 117.322 57.2808 117.037 57.0946C116.994 57.0669 116.964 57.0235 116.953 56.9737C116.943 56.924 116.953 56.8722 116.98 56.8295C117.008 56.7869 117.052 56.757 117.101 56.7464C117.151 56.7358 117.203 56.7454 117.245 56.7731C117.532 56.9593 117.819 57.1467 118.107 57.3352C119.89 58.5064 121.735 59.7168 123.687 60.3861C123.779 60.42 123.869 60.4604 123.955 60.5071C124.069 60.5655 124.176 60.6205 124.281 60.6306C124.436 60.6454 124.603 60.6028 124.766 60.5617L126.91 60.0182C126.934 60.0119 126.96 60.0105 126.985 60.014C127.01 60.0175 127.034 60.0259 127.056 60.0387C127.077 60.0515 127.096 60.0684 127.111 60.0886C127.126 60.1087 127.137 60.1316 127.144 60.156C127.15 60.1803 127.151 60.2057 127.148 60.2307C127.144 60.2556 127.136 60.2795 127.123 60.3012C127.11 60.3229 127.093 60.3418 127.073 60.357C127.053 60.3721 127.03 60.3831 127.006 60.3894L124.857 60.9339C124.69 60.9831 124.517 61.0112 124.343 61.0176ZM116.082 56.4593C116.047 56.4593 116.012 56.4494 115.982 56.4305C115.686 56.2488 115.413 56.0861 115.148 55.9344C115.126 55.9219 115.107 55.9051 115.092 55.8852C115.076 55.8652 115.065 55.8424 115.059 55.8181C115.052 55.7938 115.051 55.7685 115.054 55.7435C115.057 55.7186 115.065 55.6945 115.078 55.6727C115.09 55.6509 115.107 55.6318 115.127 55.6165C115.147 55.6011 115.17 55.5899 115.194 55.5834C115.219 55.5768 115.244 55.5751 115.269 55.5784C115.294 55.5817 115.318 55.5898 115.34 55.6024C115.608 55.756 115.884 55.9206 116.184 56.1047C116.219 56.1266 116.247 56.1594 116.262 56.1983C116.277 56.2371 116.279 56.2799 116.268 56.32C116.256 56.3602 116.232 56.3955 116.199 56.4206C116.165 56.4458 116.125 56.4594 116.083 56.4593H116.082ZM116.747 79.4902C116.721 79.4902 116.696 79.4851 116.672 79.4754C116.649 79.4655 116.628 79.4513 116.61 79.4333C116.593 79.4154 116.579 79.3941 116.569 79.3708C116.56 79.3475 116.555 79.3225 116.555 79.2974C116.555 79.2722 116.561 79.2473 116.571 79.2242C116.815 78.6501 116.962 78.2066 117.149 77.6454C117.472 76.6771 117.915 75.349 119.168 72.3829L123.502 62.1218C123.522 62.0757 123.559 62.0394 123.606 62.0207C123.653 62.0021 123.705 62.0026 123.751 62.0222C123.798 62.0417 123.835 62.0788 123.854 62.1252C123.873 62.1717 123.873 62.2239 123.854 62.2706L119.522 72.5312C118.273 75.4873 117.834 76.8049 117.512 77.7674C117.321 78.3358 117.173 78.785 116.923 79.3739C116.908 79.4084 116.884 79.4378 116.852 79.4585C116.821 79.4792 116.784 79.4902 116.747 79.4902Z" fill="black"/>
<path d="M114.611 60.5067C114.713 60.2464 114.837 59.9614 115.092 59.8478C115.366 59.7245 115.682 59.8478 115.958 59.9731L120.526 62.0377C120.773 62.1494 121.037 62.2771 121.164 62.5184C121.339 62.8525 121.184 63.2584 121.027 63.6017C119.468 67.0043 117.756 70.3288 115.89 73.5754C115.83 73.6788 115.764 73.7885 115.655 73.8371C115.507 73.9031 115.337 73.8327 115.191 73.7628L110.27 71.4214C110.57 70.8387 110.943 70.2638 111.098 69.6248C111.27 68.9289 111.582 68.2652 111.842 67.5985L113.621 63.0492L114.121 61.7673L114.375 61.1171C114.437 60.9534 114.611 60.6805 114.611 60.5067Z" fill="#1B5EC9"/>
<path d="M112.792 70.928C112.674 71.1492 112.827 71.4355 113.068 71.5452C113.309 71.6549 113.602 71.6193 113.849 71.5224C114.15 71.4047 114.423 71.1772 114.48 70.8819C114.512 70.6888 114.464 70.4918 114.344 70.3302C114.071 69.9465 113.457 69.8079 113.022 70.0334C112.586 70.2589 112.395 70.8102 112.608 71.2247L112.792 70.928Z" fill="black"/>
<path d="M114.606 63.6488L113.151 67.9267C113.103 68.0598 113.06 68.2025 113.096 68.3385C113.144 68.5186 113.318 68.6306 113.48 68.7244C114.125 69.0999 114.783 69.4553 115.454 69.7908C115.627 69.878 115.825 69.9656 116.009 69.9043C116.169 69.8507 116.273 69.6989 116.363 69.5567C117.522 67.7332 118.553 65.832 119.449 63.8667C119.526 63.6981 119.602 63.4994 119.515 63.3357C119.459 63.2289 119.346 63.1657 119.24 63.1087L116.888 61.8441C116.485 61.6272 115.629 61.2063 115.316 61.7555C115.184 61.9873 115.113 62.2727 115.014 62.5216C114.863 62.8913 114.735 63.2701 114.606 63.6488Z" fill="white"/>
<path d="M86.3061 71.5164C86.0011 70.9542 85.6889 70.3279 85.828 69.7036C85.9619 69.0935 86.4892 68.658 87.0026 68.3024C88.1882 67.4825 89.4761 66.8227 90.7693 66.1864C96.2332 63.4987 101.871 61.1802 107.645 59.2464C108.314 59.0227 109.057 58.8056 109.705 59.0843C110.531 59.4395 110.843 60.4282 111.05 61.303C112.48 67.3582 113.361 73.5281 114.24 79.6874C114.398 80.7956 114.979 85.4294 115.053 86.5462C115.075 86.877 97.2686 87.1677 96.3603 87.0654C95.7526 86.997 95.3711 86.6088 95.0332 86.1283C94.4303 85.2707 93.8858 84.3657 93.3255 83.4794C92.1622 81.6389 91.0281 79.7803 89.9231 77.9038C88.8182 76.0272 87.7423 74.134 86.6957 72.2244C86.5653 71.9882 86.4355 71.7522 86.3061 71.5164Z" fill="#FACBDF"/>
<path d="M102.866 84.6371C103.094 85.0721 103.343 85.5267 103.763 85.7891C104.183 86.0516 104.829 86.0281 105.092 85.6147C105.45 85.0496 104.891 84.3747 104.438 83.8804C103.939 83.3364 103.526 82.7232 103.128 82.1041C99.5735 76.5759 97.1485 70.4286 94.8248 64.2981C94.6948 64.3368 94.3821 64.3684 94.2875 64.4625C94.1842 64.5648 94.2555 64.6929 94.2919 64.822C94.3918 65.1786 94.4952 65.5344 94.6022 65.8894C94.8156 66.5984 95.0419 67.3035 95.2811 68.0046C95.7573 69.4009 96.2815 70.7809 96.842 72.1457C97.406 73.5195 98.0058 74.878 98.6362 76.2241C99.2666 77.5702 99.9129 78.8976 100.581 80.2207C101.248 81.5439 101.938 82.8699 102.629 84.1883C102.707 84.3374 102.785 84.488 102.866 84.6371Z" fill="#FF5400"/>
<path d="M112.009 67.3928C112.323 67.7314 112.505 68.1706 112.521 68.6307C104.693 71.0372 97.1229 74.2034 89.9196 78.0835C90.0077 78.0178 89.1025 76.2814 89.1739 75.9267C89.2358 75.6215 89.5233 75.5006 89.783 75.3892C90.1957 75.2124 90.609 75.0378 91.0227 74.8655C92.6839 74.1671 94.3542 73.4912 96.0336 72.8377C97.713 72.1841 99.4005 71.5522 101.096 70.9418C102.793 70.3333 104.497 69.7486 106.21 69.1878C107.922 68.6269 109.643 68.0916 111.373 67.5818C111.585 67.5174 111.797 67.4544 112.009 67.3928Z" fill="#FF5400"/>
<path d="M92.6017 70.7322C92.4989 70.7322 92.381 70.7379 92.3151 70.8162C92.2492 70.8945 92.2618 70.9924 92.2739 71.0855C92.4333 72.2766 92.9157 73.4035 93.6704 74.3476C93.7941 74.5018 93.94 74.6598 94.1359 74.698C94.3735 74.7458 94.6019 74.6026 94.8027 74.4679C96.8252 73.1226 99.112 72.0393 101.548 71.8899L98.8245 68.1011C98.6388 67.8429 98.3148 67.5536 98.0462 67.7264C97.9356 67.7975 97.8823 67.9274 97.8382 68.0501C97.6299 68.6274 97.4766 69.2226 97.3804 69.8279C97.2893 70.4008 97.3508 71.0115 97.232 71.5724C97.0909 72.2384 96.6312 71.8398 96.2273 71.6335C95.6961 71.3626 95.1364 71.1496 94.5583 70.9981C93.9197 70.8306 93.2625 70.7412 92.6017 70.7322Z" fill="#FF5400"/>
<path d="M93.7311 79.8444C93.6439 80.3075 93.6051 80.8597 93.9475 81.1782L95.2004 79.7898C95.3369 79.6379 95.4844 79.4792 95.6793 79.4246C96.0304 79.3272 96.3776 79.6019 96.5893 79.9023C96.801 80.2028 96.9686 80.5592 97.2799 80.7516C97.3585 80.8073 97.4542 80.8328 97.5496 80.8232C97.6206 80.8066 97.6856 80.7701 97.7373 80.718C98.039 80.4404 98.0917 79.9875 98.1171 79.5731C98.1869 78.4197 98.1905 77.2632 98.1276 76.1094C98.0957 75.5322 98.0478 74.9566 97.9839 74.3827C97.9255 73.8636 97.9236 73.2252 97.7162 72.7416C97.5247 72.2922 97.2512 72.4353 97.0175 72.7533C96.7368 73.1346 96.4633 73.5276 96.1947 73.9186C94.9737 75.6963 94.1341 77.7153 93.7306 79.8444H93.7311Z" fill="#FF5400"/>
<path d="M136.598 80.3342C136.584 80.3342 136.571 80.3327 136.558 80.3299C136.508 80.3195 136.464 80.2897 136.436 80.2471C136.409 80.2045 136.398 80.1526 136.409 80.1028C136.466 79.8286 136.949 78.1228 137.183 77.4895C137.191 77.4647 137.204 77.4418 137.221 77.4221C137.237 77.4024 137.259 77.3864 137.282 77.375C137.305 77.3636 137.331 77.357 137.357 77.3557C137.383 77.3543 137.409 77.3583 137.433 77.3672C137.458 77.3762 137.48 77.39 137.499 77.4078C137.518 77.4257 137.533 77.4471 137.543 77.4709C137.554 77.4947 137.559 77.5204 137.559 77.5464C137.559 77.5723 137.554 77.598 137.544 77.622C137.321 78.2266 136.841 79.9198 136.786 80.181C136.777 80.2243 136.753 80.2631 136.719 80.291C136.685 80.3189 136.642 80.3341 136.598 80.3342ZM131.155 66.9594C131.025 66.9613 130.898 66.9226 130.791 66.8487C130.685 66.7747 130.605 66.6694 130.561 66.5474C130.518 66.4254 130.514 66.2929 130.551 66.1687C130.587 66.0444 130.661 65.9347 130.764 65.8549C130.831 65.7973 130.911 65.7547 130.997 65.7299C131.083 65.7051 131.173 65.6986 131.262 65.7108C131.293 65.7159 131.322 65.7286 131.348 65.7478C131.373 65.7669 131.393 65.792 131.406 65.8208C131.485 65.8475 131.556 65.8926 131.613 65.9524C131.671 66.0121 131.713 66.0847 131.737 66.1642C131.762 66.2498 131.768 66.3401 131.755 66.4283C131.741 66.5166 131.708 66.6008 131.657 66.6746C131.609 66.7509 131.544 66.8157 131.468 66.8642C131.392 66.9127 131.305 66.9437 131.216 66.9551C131.196 66.9579 131.175 66.9594 131.155 66.9594ZM131.112 66.0974C131.074 66.1078 131.038 66.1265 131.007 66.1522C130.98 66.1728 130.958 66.1987 130.941 66.2283C130.924 66.258 130.914 66.2907 130.911 66.3246C130.911 66.3587 130.919 66.3925 130.933 66.4235C130.947 66.4545 130.968 66.4822 130.994 66.5046C131.017 66.5283 131.045 66.5467 131.077 66.5586C131.108 66.5706 131.141 66.5757 131.174 66.5738C131.207 66.5684 131.239 66.5559 131.266 66.5371C131.294 66.5184 131.317 66.4939 131.335 66.4653C131.354 66.4387 131.367 66.4084 131.373 66.3764C131.379 66.3444 131.378 66.3115 131.37 66.2799C131.353 66.2256 131.309 66.1838 131.277 66.1838C131.244 66.1847 131.211 66.1772 131.183 66.1621C131.154 66.147 131.129 66.1247 131.111 66.0974H131.112Z" fill="black"/>
<path d="M87.6774 71.1975C87.8539 71.4667 88.2561 71.2983 88.2146 70.9757C88.1731 70.6662 88.1148 70.3502 88.1664 70.0498C88.259 69.5245 88.677 69.1304 89.112 68.8511C89.5831 68.5487 90.1096 68.3254 90.4891 67.898C90.5186 67.866 90.5416 67.828 90.5565 67.7864C90.5714 67.7448 90.5781 67.7004 90.5759 67.656C90.5605 67.4438 90.3473 67.3944 90.1733 67.3929C89.2359 67.3853 88.3718 67.9398 87.6302 68.4852C87.3143 68.7171 86.971 69.0608 86.9238 69.4867C86.8852 69.8366 87.0858 70.1602 87.2478 70.4485C87.3872 70.696 87.5236 70.9465 87.6712 71.1889C87.673 71.192 87.6751 71.1948 87.6774 71.1975Z" fill="white"/>
<path d="M93.4916 85.9257C95.2288 91.9585 96.4985 100.208 98.702 104.024C99.0034 104.548 99.047 105.203 99.4525 105.651C100.24 106.518 101.582 106.533 102.757 106.482L128.946 105.346C129.6 105.318 130.262 105.289 130.889 105.102C132.243 104.699 133.295 103.594 133.945 102.347C134.595 101.101 134.896 99.7092 135.192 98.3366C136.263 93.3544 137.333 88.3718 138.403 83.3896C136.808 83.341 135.213 83.3006 133.618 83.2677C132.023 83.2348 130.427 83.2096 128.832 83.191C127.23 83.172 125.627 83.1596 124.025 83.1534C122.429 83.1467 120.833 83.1458 119.238 83.1501C117.642 83.1543 116.047 83.1629 114.451 83.1758C112.855 83.1886 111.259 83.2044 109.664 83.2234C108.069 83.2425 106.473 83.2648 104.877 83.2906C103.274 83.3158 101.672 83.3425 100.069 83.3715C98.4737 83.3996 96.8782 83.4287 95.2825 83.4596C94.7259 83.4701 94.0349 83.3858 93.5046 83.6025C92.946 83.8311 93.1087 84.415 93.2167 84.8827C93.2939 85.2356 93.3928 85.5804 93.4916 85.9257Z" fill="#3982F0"/>
<path d="M84.6622 94.9635C84.3462 94.9635 84.0517 94.807 83.8443 94.6787C82.9704 94.1337 82.2664 93.3529 81.8127 92.4256C81.6745 92.1413 81.5259 91.7649 81.5885 91.3692C81.6726 90.8486 82.0784 90.4952 82.4872 90.1778C83.3084 89.5391 84.1555 88.9105 85.0049 88.3088C86.5126 87.2413 88.0815 86.2204 89.6686 85.2749C90.0644 85.0391 90.4683 84.8033 90.8703 84.5748L90.9879 84.5061C91.2441 84.3548 91.5615 84.1661 91.8962 84.1767C92.183 84.1863 92.3106 84.3279 92.3665 84.4456C92.6309 84.9997 91.7504 86.1849 91.7126 86.2353L85.6895 94.2706C85.5164 94.5015 85.2554 94.8502 84.862 94.94C84.7965 94.9549 84.7294 94.963 84.6622 94.9635ZM82.6067 90.331L82.7209 90.4832C82.3729 90.7536 82.0278 91.0498 81.9656 91.4326C81.9178 91.7207 82.0431 92.0242 82.1568 92.2576C82.5787 93.1195 83.2329 93.8451 84.0451 94.3517C84.3567 94.5438 84.5828 94.611 84.7774 94.5664C85.0164 94.5126 85.1995 94.2874 85.384 94.041L91.4071 86.0058C91.7255 85.5803 92.1242 84.8269 92.0219 84.6132C92.0066 84.582 91.9602 84.5652 91.8837 84.5623C91.6624 84.5556 91.4081 84.7063 91.1829 84.8384C91.1409 84.8634 91.0998 84.8864 91.0601 84.9104C90.6605 85.1381 90.2584 85.3724 89.865 85.6067C88.2875 86.547 86.7263 87.5626 85.2282 88.6243C84.3811 89.2227 83.5383 89.8479 82.7209 90.4832L82.6067 90.331ZM145.064 93.6151C145.029 93.6151 144.993 93.6122 144.958 93.6064C144.704 93.5642 144.528 93.3788 144.385 93.2079C143.524 92.1874 142.823 91.0354 142.145 89.9209L139.755 85.9928C139.688 85.8833 139.617 85.7743 139.541 85.6591C139.297 85.2864 139.044 84.9013 138.934 84.4624C138.856 84.1522 138.777 83.5865 139.131 83.2897C139.546 82.9411 140.127 83.3152 140.474 83.5385C140.517 83.5663 140.557 83.5923 140.592 83.6139C141.107 83.9279 141.626 84.2727 142.135 84.6391C143.922 85.9246 145.68 87.5323 147.51 89.5545C147.928 90.015 148.384 90.6282 148.213 91.2832C148.09 91.7553 147.694 92.0549 147.3 92.3214C146.76 92.6873 146.205 93.0484 145.652 93.3947C145.473 93.5085 145.281 93.6151 145.064 93.6151ZM142.474 89.7216C143.144 90.8261 143.839 91.9632 144.679 92.961C144.784 93.0849 144.896 93.2074 145.022 93.2285C145.147 93.2497 145.299 93.1656 145.452 93.0701C146.001 92.7262 146.551 92.3675 147.089 92.0045C147.423 91.7788 147.758 91.5296 147.845 91.1881C147.969 90.7142 147.606 90.2277 147.229 89.8148C145.418 87.8133 143.679 86.2228 141.914 84.9532C141.413 84.5925 140.902 84.253 140.396 83.9447C140.358 83.9217 140.315 83.8938 140.269 83.8641C140.011 83.6979 139.578 83.4189 139.378 83.587C139.214 83.7243 139.234 84.0821 139.306 84.3707C139.402 84.7467 139.636 85.1044 139.862 85.4502C139.936 85.563 140.013 85.6797 140.083 85.795L142.474 89.7216Z" fill="black"/>
<path d="M102.632 98.1365C102.59 98.1365 102.549 98.1223 102.515 98.0967C102.482 98.071 102.458 98.035 102.447 97.9941C101.616 94.8073 101.007 92.2082 100.238 88.5524C100.225 88.5315 100.216 88.5083 100.211 88.484L100.144 88.1043C100.136 88.0559 100.148 88.0061 100.177 87.9662C100.205 87.9263 100.248 87.8988 100.296 87.8893C100.345 87.8798 100.395 87.8898 100.436 87.9164C100.477 87.9434 100.507 87.9847 100.518 88.0327C101.328 91.9186 101.953 94.5928 102.817 97.9002C102.823 97.9244 102.824 97.9495 102.821 97.9742C102.818 97.9989 102.809 98.0226 102.796 98.044C102.784 98.0658 102.767 98.0843 102.747 98.0995C102.727 98.1147 102.704 98.1256 102.68 98.1318C102.664 98.1356 102.648 98.137 102.632 98.1365ZM109.705 94.861C109.658 94.861 109.612 94.8439 109.577 94.8121C109.541 94.7808 109.519 94.7371 109.514 94.6901L108.857 88.1798C108.825 87.8566 108.788 87.4901 108.613 87.2129C108.598 87.192 108.588 87.1683 108.583 87.1432C108.578 87.118 108.578 87.0924 108.584 87.0677C108.589 87.0425 108.599 87.0188 108.614 86.9979C108.628 86.977 108.647 86.9595 108.668 86.9457C108.69 86.9319 108.714 86.9229 108.739 86.9191C108.765 86.9149 108.79 86.9158 108.815 86.922C108.84 86.9277 108.863 86.9386 108.884 86.9538C108.905 86.969 108.922 86.9884 108.935 87.0103C109.158 87.3629 109.2 87.7768 109.237 88.1418L109.895 94.6517C109.897 94.6763 109.895 94.7015 109.888 94.7257C109.881 94.7494 109.869 94.7717 109.853 94.7912C109.837 94.8107 109.817 94.8263 109.795 94.8382C109.773 94.8501 109.749 94.8577 109.724 94.86L109.705 94.861ZM109.985 97.7582C109.939 97.7587 109.893 97.7421 109.858 97.7113C109.823 97.6804 109.801 97.6382 109.795 97.5921L109.637 96.3485C109.634 96.3239 109.636 96.2987 109.642 96.2745C109.649 96.2508 109.66 96.228 109.675 96.2085C109.691 96.1886 109.71 96.172 109.732 96.1596C109.753 96.1473 109.777 96.1397 109.802 96.1364C109.827 96.133 109.852 96.1349 109.877 96.1416C109.901 96.1482 109.923 96.1596 109.943 96.1748C109.963 96.19 109.979 96.209 109.992 96.2308C110.004 96.2522 110.012 96.2764 110.015 96.3011L110.173 97.5451C110.176 97.5698 110.174 97.595 110.168 97.6192C110.161 97.6429 110.15 97.6657 110.134 97.6851C110.119 97.7051 110.1 97.7217 110.078 97.734C110.056 97.7464 110.032 97.754 110.008 97.7573L109.985 97.7582ZM117.226 98.419C117.176 98.419 117.127 98.399 117.092 98.3634C117.056 98.3278 117.036 98.2794 117.036 98.2291L117.093 87.8722C117.093 87.8219 117.113 87.7735 117.149 87.7379C117.185 87.7023 117.234 87.6824 117.284 87.6824C117.335 87.6824 117.383 87.7023 117.419 87.7379C117.455 87.7735 117.475 87.8219 117.475 87.8722L117.419 98.2277C117.419 98.2528 117.414 98.278 117.405 98.3012C117.395 98.3245 117.381 98.3459 117.363 98.3634C117.345 98.3815 117.324 98.3952 117.3 98.4047C117.277 98.4142 117.252 98.419 117.226 98.419ZM117.236 101.153C117.186 101.153 117.137 101.133 117.102 101.097C117.066 101.062 117.046 101.013 117.046 100.963V100.217C117.046 100.167 117.066 100.119 117.102 100.083C117.137 100.047 117.186 100.028 117.236 100.028C117.287 100.028 117.335 100.047 117.371 100.083C117.407 100.119 117.427 100.167 117.427 100.217V100.963C117.427 101.013 117.407 101.062 117.371 101.097C117.335 101.133 117.287 101.153 117.236 101.153ZM124.699 93.5206C124.689 93.5206 124.679 93.5196 124.67 93.5182C124.62 93.5106 124.575 93.4835 124.545 93.4427C124.516 93.4024 124.503 93.3516 124.511 93.3017C124.85 91.0994 125.265 88.8709 125.744 86.6789C125.75 86.6547 125.76 86.6315 125.774 86.6111C125.788 86.5907 125.806 86.5731 125.827 86.5593C125.849 86.546 125.872 86.537 125.897 86.5323C125.921 86.528 125.946 86.5285 125.971 86.5337C125.995 86.5389 126.019 86.5489 126.039 86.5631C126.06 86.5774 126.077 86.5954 126.091 86.6168C126.104 86.6377 126.114 86.6609 126.118 86.6856C126.123 86.7103 126.122 86.7354 126.117 86.7596C125.64 88.943 125.226 91.1644 124.887 93.3573C124.88 93.4024 124.858 93.4437 124.824 93.4736C124.789 93.5035 124.745 93.5201 124.699 93.5206ZM131.038 97.0097C131.023 97.0097 131.008 97.0083 130.994 97.0045C130.969 96.9988 130.946 96.9884 130.926 96.9741C130.905 96.9594 130.888 96.9409 130.875 96.92C130.861 96.8987 130.852 96.8749 130.848 96.8502C130.844 96.8256 130.845 96.8004 130.851 96.7762C131.644 93.4498 132.254 90.0827 132.678 86.6899C132.681 86.6652 132.689 86.641 132.701 86.6196C132.714 86.5978 132.73 86.5788 132.75 86.5636C132.77 86.5484 132.792 86.537 132.817 86.5304C132.841 86.5237 132.866 86.5218 132.891 86.5252C132.916 86.5285 132.94 86.5361 132.962 86.5484C132.983 86.5608 133.002 86.5774 133.018 86.5973C133.033 86.6168 133.044 86.6396 133.051 86.6633C133.058 86.6875 133.059 86.7126 133.056 86.7373C132.631 90.1439 132.02 93.5248 131.223 96.8649C131.213 96.9062 131.19 96.9428 131.156 96.9694C131.122 96.9955 131.081 97.0097 131.038 97.0097Z" fill="white"/>
<path d="M93.6897 85.9656C93.0643 85.9689 92.4393 85.9334 91.8183 85.8593C91.5135 85.8213 91.088 85.7286 90.9214 85.3665C90.7975 85.0964 90.8841 84.793 90.9363 84.6113C90.9841 84.4425 91.0349 84.2709 91.0866 84.1012C91.1225 83.9824 91.1569 83.8497 91.1938 83.7094C91.4 82.9185 91.6829 81.8344 92.6904 81.7603C93.1211 81.7281 93.5657 81.7502 93.9946 81.7719C94.23 81.7834 94.4732 81.7959 94.7082 81.7983C95.3921 81.8055 96.1153 81.8022 96.8576 81.7887C98.1431 81.7647 99.5109 81.7108 101.162 81.6185C102.376 81.5507 103.611 81.469 104.805 81.3906L105.472 81.3464C106.829 81.258 108.277 81.1652 109.747 81.095C114.331 80.8762 118.994 80.8906 123.504 80.9027L137.774 80.9459C138.073 80.9459 138.411 80.9459 138.732 81.0531C139.82 81.4137 140.162 82.7046 140.338 83.7882C140.372 84.0007 140.436 84.3964 140.204 84.6718C140.027 84.8805 139.761 84.9334 139.525 84.9665C137.563 85.2425 135.55 85.1627 133.604 85.0853L133.118 85.0661C121.984 84.6367 110.655 85.1819 99.6995 85.7088C98.3661 85.7728 97.0327 85.8372 95.6993 85.9011C95.037 85.9343 94.365 85.9656 93.6897 85.9656ZM91.3058 84.7194C91.255 84.8954 91.21 85.0781 91.2703 85.2069C91.3364 85.3512 91.5259 85.4372 91.8672 85.4795C93.1374 85.6382 94.4306 85.5757 95.6812 85.5189C97.0142 85.4564 98.3475 85.3925 99.6809 85.3266C110.644 84.7978 121.984 84.2541 133.132 84.6839L133.619 84.7026C135.547 84.7795 137.543 84.8589 139.472 84.5877C139.645 84.5632 139.822 84.5305 139.911 84.4247C140.02 84.2954 139.994 84.0613 139.959 83.8521C139.8 82.8752 139.504 81.7161 138.611 81.4204C138.35 81.3339 138.057 81.3334 137.774 81.3325L123.502 81.2921C118.998 81.2786 114.34 81.2642 109.766 81.4844C108.3 81.5546 106.854 81.6469 105.499 81.7358L104.832 81.7796C103.635 81.8584 102.401 81.9397 101.185 82.0079C99.5287 82.1002 98.1565 82.1522 96.8662 82.1786C96.12 82.1921 95.393 82.1954 94.7053 82.1882C94.4636 82.1858 94.2162 82.1733 93.9769 82.1613C93.56 82.1406 93.1288 82.119 92.72 82.1493C91.9849 82.2036 91.7628 83.0584 91.5656 83.8122C91.5278 83.9565 91.4924 84.0925 91.4541 84.2185C91.4034 84.3863 91.3536 84.555 91.3058 84.7228V84.7194Z" fill="black"/>
<path d="M97.3148 73.4143C97.1988 73.4144 97.0844 73.3879 96.9814 73.3372C96.8784 73.2865 96.7897 73.2129 96.7227 73.1227C96.6452 73.0192 96.5792 72.9082 96.526 72.7917L96.504 72.7483C96.3944 72.5311 96.2938 72.2744 96.3764 72.0186C96.4108 71.9221 96.4671 71.8341 96.5413 71.7608C96.6155 71.6874 96.7058 71.6305 96.8058 71.5942C96.8302 71.5848 96.8563 71.5801 96.8826 71.5803C96.9089 71.5805 96.9349 71.5856 96.9591 71.5954C96.9833 71.6052 97.0053 71.6194 97.0237 71.6372C97.0422 71.6551 97.0567 71.6762 97.0666 71.6995C97.0764 71.7227 97.0814 71.7475 97.0811 71.7725C97.0809 71.7975 97.0755 71.8223 97.0653 71.8453C97.055 71.8684 97.04 71.8893 97.0213 71.9068C97.0026 71.9244 96.9803 71.9382 96.956 71.9476C96.9113 71.9629 96.8705 71.9872 96.8365 72.0187C96.8025 72.0503 96.776 72.0884 96.7588 72.1305C96.7167 72.2606 96.7893 72.4325 96.8654 72.5835L96.8879 72.6283C96.9298 72.721 96.9812 72.8096 97.0416 72.8927C97.0886 72.9513 97.2307 73.1308 97.5871 72.9632C97.7035 72.9145 97.8039 72.8366 97.8774 72.7379C97.9054 72.6899 97.9223 72.637 97.9273 72.5824C97.9322 72.5277 97.9249 72.4728 97.9059 72.4211C97.8483 72.2363 97.6867 72.0748 97.4635 71.9776C97.4388 71.9677 97.4165 71.9532 97.3979 71.935C97.3792 71.9167 97.3646 71.8951 97.3549 71.8714C97.3452 71.8477 97.3405 71.8223 97.3413 71.7969C97.342 71.7715 97.3481 71.7464 97.3592 71.7233C97.3702 71.7001 97.3861 71.6793 97.4058 71.662C97.4254 71.6448 97.4485 71.6314 97.4737 71.6229C97.4988 71.6142 97.5255 71.6105 97.5523 71.6119C97.5789 71.6132 97.6051 71.6197 97.6291 71.6309C97.9585 71.7738 98.1992 72.0219 98.2898 72.3125C98.3253 72.4164 98.3371 72.5264 98.3242 72.635C98.3114 72.7437 98.2742 72.8484 98.2152 72.9422C98.1033 73.1006 97.9473 73.2262 97.7648 73.3052C97.6255 73.3739 97.4716 73.4112 97.3148 73.4143ZM96.3083 76.9582C96.2952 76.9583 96.2821 76.957 96.2693 76.9544C96.2173 76.9446 96.1715 76.9155 96.1419 76.8737C96.1124 76.8318 96.1015 76.7805 96.1116 76.731C96.1367 76.609 96.1517 76.4852 96.1667 76.3537C96.1772 76.2646 96.1882 76.1718 96.2027 76.0798C96.2703 75.6554 96.4129 75.25 96.5531 74.858C96.6881 74.4513 96.8475 74.0522 97.0305 73.6629C97.0532 73.6171 97.0941 73.5819 97.1441 73.5648C97.1942 73.5478 97.2493 73.5503 97.2973 73.5719C97.3454 73.5935 97.3824 73.6324 97.4004 73.68C97.4183 73.7276 97.4156 73.7801 97.3929 73.8258C97.2097 74.195 97.0691 74.5937 96.9324 74.9795C96.7998 75.3558 96.6622 75.745 96.6001 76.1365C96.5866 76.2213 96.5771 76.3066 96.5661 76.3961C96.5506 76.5295 96.5346 76.6671 96.506 76.8043C96.4971 76.8479 96.4724 76.8871 96.4363 76.9151C96.4002 76.9432 96.3549 76.9584 96.3083 76.9582ZM95.5596 74.9542C95.5305 74.9542 95.5018 74.9482 95.4755 74.9366C95.4273 74.9154 95.39 74.8768 95.3717 74.8293C95.3533 74.782 95.3556 74.7295 95.3779 74.6837C95.6034 74.2198 95.9106 73.7961 96.2863 73.4309C96.3234 73.3948 96.3742 73.3742 96.4273 73.3736C96.4536 73.3734 96.4797 73.3781 96.5041 73.3874C96.5285 73.3967 96.5508 73.4105 96.5696 73.4281C96.5884 73.4456 96.6034 73.4664 96.6137 73.4895C96.624 73.5125 96.6294 73.5372 96.6297 73.5623C96.63 73.5873 96.6251 73.6121 96.6153 73.6354C96.6055 73.6586 96.591 73.6798 96.5726 73.6977C96.2288 74.0318 95.9477 74.4194 95.7413 74.8437C95.7252 74.8767 95.6996 74.9047 95.6674 74.9242C95.6352 74.9438 95.5978 74.9542 95.5596 74.9542ZM99.7071 72.8689C99.4436 72.8633 99.1809 72.8384 98.9214 72.7941C98.8213 72.7793 98.7252 72.7655 98.6361 72.755C98.6094 72.7527 98.5835 72.7453 98.5598 72.7333C98.5362 72.7213 98.5154 72.7049 98.4985 72.6852C98.4817 72.6654 98.4692 72.6425 98.4618 72.6181C98.4543 72.5935 98.4521 72.5679 98.4553 72.5426C98.4585 72.5173 98.467 72.4928 98.4803 72.4707C98.4935 72.4486 98.5114 72.4292 98.5326 72.4138C98.5539 72.3983 98.5783 72.387 98.6042 72.3807C98.6301 72.3744 98.6571 72.373 98.6836 72.3768C98.7797 72.3878 98.8783 72.4025 98.9839 72.4178C99.4344 72.484 99.9479 72.5607 100.416 72.353C100.513 72.3111 100.599 72.251 100.671 72.1764C100.743 72.1017 100.798 72.014 100.833 71.9186C100.864 71.8226 100.875 71.7214 100.863 71.6214C100.851 71.5215 100.817 71.425 100.763 71.3384C100.736 71.295 100.728 71.2431 100.741 71.1941C100.754 71.1451 100.787 71.103 100.832 71.0771C100.878 71.0512 100.933 71.0436 100.984 71.056C101.036 71.0684 101.08 71.0997 101.107 71.1431C101.189 71.2765 101.242 71.4248 101.26 71.5786C101.278 71.7324 101.263 71.8881 101.214 72.0357C101.162 72.1815 101.08 72.3155 100.971 72.4296C100.863 72.5437 100.731 72.6353 100.584 72.6988C100.308 72.8162 100.009 72.8742 99.7071 72.8689Z" fill="white"/>
<path d="M130.648 71.6508C130.809 71.7691 130.951 71.7852 131.144 71.7852C131.196 71.7852 131.421 71.7174 131.467 71.6911C131.516 71.663 131.573 71.6924 131.622 71.6643C131.709 71.6138 131.899 71.6508 131.996 71.6508C132.338 71.6508 132.675 71.7472 132.952 71.9673C133.082 72.0711 133.225 72.1605 133.263 72.3361C133.284 72.4357 133.339 72.5137 133.339 72.6242V72.9139C133.339 73.1644 133.272 73.3637 133.197 73.5991C133.152 73.7401 133.055 74.0292 132.887 74.0679C132.773 74.0943 132.613 74.0055 132.513 73.956C132.334 73.8678 132.007 73.8672 131.818 73.9216C131.384 74.0472 131.196 74.5479 131.196 74.9772C131.196 75.1734 131.147 75.3484 131.326 75.4534C131.47 75.5375 131.631 75.6392 131.744 75.7565C131.798 75.8129 131.883 75.8468 131.93 75.9103C131.971 75.965 131.862 76.0396 131.831 76.0715C131.679 76.2303 131.527 76.4061 131.365 76.5672C131.181 76.7497 130.967 76.6493 130.731 76.6493C130.61 76.6493 130.467 76.6736 130.356 76.6224C130.203 76.5514 130.077 76.4342 129.93 76.3537C129.792 76.2775 129.602 76.224 129.478 76.1238C129.346 76.0162 129.137 75.9585 128.969 75.9506C128.784 75.9418 128.621 75.8583 128.446 75.8177C128.04 75.7238 128.052 75.223 128.045 74.8756C128.036 74.3778 127.994 73.8803 127.994 73.3797C127.994 73.1761 128.051 72.9507 128.097 72.7526C128.142 72.5601 128.184 72.3503 128.258 72.1674C128.436 71.7243 128.76 71.0596 129.298 71.0596C129.402 71.0596 129.541 71.0348 129.641 71.0656C129.816 71.1197 129.987 71.1955 130.163 71.2477C130.346 71.3021 130.497 71.5402 130.648 71.6508Z" fill="white"/>
<path d="M131.34 70.702C131.224 70.8623 131.088 71.1345 131.088 71.3315C131.216 71.2726 131.337 71.1919 131.466 71.132C131.67 71.0377 131.862 70.9436 132.076 70.8652C132.346 70.7663 132.657 70.7285 132.938 70.6657C133.058 70.639 133.177 70.5945 133.299 70.5854C133.362 70.5807 133.332 70.3183 133.329 70.2745C133.312 70.0794 133.102 70.0964 132.983 69.9974C132.784 69.8315 132.448 69.9926 132.244 70.0608C131.845 70.1943 131.576 70.378 131.34 70.702Z" fill="white"/>
<path d="M143.936 123.537H143.924C126.74 122.954 109.312 122.561 92.1232 122.371C92.008 122.371 91.8975 122.31 91.8161 122.201C91.7347 122.091 91.689 121.943 91.689 121.789C91.689 121.634 91.7347 121.486 91.8161 121.377C91.8975 121.267 92.008 121.206 92.1232 121.206C109.316 121.4 126.754 121.789 143.939 122.371C144.054 122.373 144.165 122.437 144.245 122.547C144.325 122.658 144.37 122.807 144.368 122.961C144.367 123.116 144.32 123.263 144.237 123.371C144.155 123.479 144.043 123.539 143.928 123.537H143.936Z" fill="black"/>
<path d="M138.892 131.928H138.882C125.044 131.345 111.009 130.952 97.1666 130.763C97.0738 130.763 96.9848 130.701 96.9193 130.592C96.8537 130.483 96.8169 130.334 96.8169 130.18C96.8169 130.025 96.8537 129.877 96.9193 129.768C96.9848 129.659 97.0738 129.597 97.1666 129.597C111.012 129.791 125.055 130.18 138.894 130.763C138.987 130.765 139.076 130.828 139.141 130.938C139.206 131.049 139.241 131.198 139.24 131.353C139.239 131.507 139.201 131.655 139.135 131.763C139.068 131.87 138.978 131.93 138.886 131.928H138.892Z" fill="black"/>
<path d="M143.936 140.319H143.924C126.74 139.737 109.312 139.343 92.1232 139.154C92.008 139.154 91.8975 139.093 91.8161 138.983C91.7347 138.874 91.689 138.726 91.689 138.571C91.689 138.417 91.7347 138.269 91.8161 138.159C91.8975 138.05 92.008 137.989 92.1232 137.989C109.316 138.182 126.754 138.571 143.939 139.154C144.054 139.156 144.165 139.219 144.245 139.33C144.325 139.441 144.37 139.59 144.368 139.744C144.367 139.899 144.32 140.046 144.237 140.154C144.155 140.262 144.043 140.321 143.928 140.319H143.936Z" fill="black"/>
<path d="M58.1296 221.986C58.0107 221.986 57.8942 221.953 57.7934 221.889C57.6925 221.828 57.6113 221.737 57.559 221.631C55.1735 216.773 54.8993 210.282 56.8616 205.096C56.8912 205.018 56.9358 204.947 56.993 204.885C57.0501 204.825 57.1185 204.776 57.1946 204.741C57.2707 204.708 57.3526 204.689 57.436 204.686C57.5194 204.684 57.6023 204.698 57.6803 204.727C57.7583 204.757 57.8296 204.801 57.8903 204.858C57.951 204.915 57.9998 204.984 58.034 205.06C58.0683 205.136 58.0873 205.218 58.0897 205.302C58.0922 205.385 58.0784 205.469 58.0488 205.546C56.2323 210.344 56.4939 216.583 58.6971 221.079C58.734 221.154 58.7557 221.235 58.7609 221.319C58.7663 221.401 58.7552 221.485 58.7283 221.564C58.7013 221.642 58.6592 221.715 58.604 221.778C58.5489 221.84 58.482 221.893 58.407 221.929C58.32 221.969 58.2252 221.988 58.1296 221.986ZM63.1291 217.889C62.9955 217.889 62.8652 217.846 62.7571 217.767C62.6488 217.689 62.5683 217.578 62.5268 217.451C61.5962 214.521 61.6626 211.366 62.7154 208.479C62.7752 208.322 62.8948 208.193 63.0483 208.125C63.2017 208.055 63.3762 208.051 63.5333 208.111C63.6905 208.169 63.8177 208.29 63.8866 208.444C63.9555 208.596 63.9608 208.772 63.901 208.929C62.9643 211.401 62.8993 214.516 63.733 217.057C63.759 217.136 63.7691 217.218 63.7628 217.302C63.7565 217.385 63.7338 217.466 63.6962 217.54C63.6585 217.615 63.6065 217.681 63.5433 217.735C63.4799 217.789 63.4065 217.83 63.3272 217.857C63.2634 217.878 63.1965 217.889 63.1291 217.889ZM69.7086 220.908C69.6865 220.91 69.6642 220.91 69.642 220.908C69.4751 220.891 69.3218 220.807 69.2159 220.677C69.1102 220.547 69.0604 220.379 69.0777 220.212C69.5748 215.421 69.6564 210.595 69.3218 205.789C69.3161 205.705 69.3269 205.621 69.3535 205.543C69.38 205.464 69.422 205.391 69.4768 205.327C69.5315 205.264 69.5982 205.213 69.6731 205.175C69.7477 205.139 69.829 205.117 69.9122 205.11C69.9956 205.106 70.0791 205.115 70.1582 205.142C70.2373 205.169 70.3104 205.21 70.3733 205.266C70.4362 205.321 70.4878 205.388 70.525 205.462C70.5621 205.537 70.5841 205.618 70.5898 205.702C70.9289 210.579 70.8455 215.475 70.341 220.338C70.3253 220.495 70.2519 220.639 70.1349 220.745C70.0181 220.85 69.8661 220.908 69.7086 220.908ZM76.89 220.17C76.8585 220.171 76.8266 220.171 76.7949 220.17C76.6286 220.144 76.4792 220.054 76.3793 219.919C76.2794 219.783 76.2374 219.615 76.2623 219.448C76.8485 215.556 76.9433 211.604 76.5445 207.688C76.5361 207.604 76.5441 207.52 76.5682 207.44C76.5923 207.359 76.632 207.285 76.6847 207.22C76.7377 207.155 76.8028 207.101 76.8765 207.061C76.9502 207.022 77.0311 206.998 77.1143 206.989C77.1977 206.981 77.2817 206.989 77.3619 207.012C77.4421 207.036 77.5166 207.076 77.5814 207.13C77.6462 207.182 77.7001 207.247 77.7397 207.321C77.7794 207.394 77.8041 207.475 77.8125 207.559C78.2221 211.58 78.1246 215.638 77.5224 219.637C77.4982 219.786 77.421 219.922 77.305 220.021C77.1889 220.117 77.0417 220.171 76.89 220.17ZM82.9464 219.409H82.8655C82.6988 219.387 82.5476 219.301 82.4447 219.168C82.3419 219.035 82.2961 218.867 82.3171 218.7C82.9489 213.685 82.8695 208.607 82.081 203.614C82.0542 203.448 82.0946 203.278 82.1932 203.142C82.2916 203.005 82.4403 202.913 82.6064 202.887C82.7724 202.86 82.9423 202.901 83.0786 202.999C83.2149 203.097 83.3063 203.246 83.3331 203.413C84.1404 208.524 84.222 213.725 83.5756 218.86C83.5549 219.013 83.4798 219.152 83.3639 219.252C83.2482 219.353 83.0998 219.409 82.9464 219.409ZM90.1934 220.17C90.153 220.17 90.1126 220.165 90.073 220.157C89.9912 220.141 89.9132 220.109 89.8436 220.063C89.7742 220.017 89.7143 219.959 89.6677 219.889C89.6209 219.819 89.5884 219.742 89.5716 219.661C89.555 219.578 89.5547 219.494 89.5705 219.414C90.4497 214.808 90.26 210.064 89.0158 205.543C88.9928 205.462 88.9858 205.378 88.9955 205.296C89.005 205.212 89.0308 205.133 89.0716 205.06C89.1121 204.987 89.1668 204.922 89.2323 204.871C89.2979 204.819 89.3729 204.781 89.4532 204.758C89.5336 204.735 89.6178 204.728 89.7005 204.738C89.7834 204.749 89.8636 204.774 89.9364 204.815C90.0091 204.857 90.073 204.912 90.1245 204.977C90.176 205.044 90.2139 205.118 90.2362 205.199C91.5336 209.91 91.7314 214.857 90.8148 219.656C90.7869 219.8 90.7095 219.93 90.5962 220.024C90.4829 220.117 90.3405 220.17 90.1934 220.17ZM97.1135 218.307C97.0737 218.307 97.034 218.304 96.9946 218.296C96.9129 218.28 96.835 218.249 96.7653 218.203C96.6957 218.157 96.6358 218.098 96.589 218.03C96.5423 217.96 96.5095 217.882 96.4925 217.802C96.4757 217.719 96.4751 217.635 96.4906 217.554C97.1111 214.253 97.0896 210.862 96.4272 207.569C96.396 207.412 96.4245 207.25 96.5071 207.114C96.5897 206.979 96.7203 206.879 96.8732 206.835C97.026 206.79 97.1898 206.805 97.3321 206.876C97.4744 206.947 97.5847 207.069 97.6413 207.218L97.9821 208.119C98.0179 208.214 98.0303 208.315 98.0181 208.417C98.006 208.518 97.9697 208.615 97.9124 208.699C98.3601 211.718 98.3012 214.792 97.738 217.792C97.7104 217.936 97.6328 218.068 97.5188 218.161C97.4047 218.257 97.2614 218.307 97.1135 218.307ZM104.179 218.268C104.135 218.268 104.091 218.263 104.048 218.253C103.966 218.236 103.889 218.203 103.82 218.155C103.752 218.109 103.693 218.049 103.647 217.979C103.602 217.909 103.571 217.832 103.555 217.749C103.54 217.667 103.541 217.583 103.558 217.502C104.539 212.806 104.761 207.982 104.216 203.216C104.197 203.048 104.245 202.879 104.35 202.745C104.455 202.614 104.609 202.528 104.777 202.509C104.945 202.49 105.114 202.538 105.247 202.642C105.379 202.749 105.465 202.902 105.484 203.07C106.043 207.973 105.815 212.934 104.807 217.765C104.777 217.908 104.698 218.036 104.583 218.128C104.469 218.22 104.326 218.269 104.179 218.268ZM111.111 218.268C111.062 218.268 111.013 218.261 110.965 218.25C110.884 218.231 110.807 218.196 110.739 218.149C110.672 218.1 110.614 218.038 110.57 217.968C110.526 217.897 110.496 217.819 110.482 217.737C110.468 217.654 110.471 217.57 110.49 217.489C110.976 215.367 111.12 213.181 110.916 211.015C110.908 210.931 110.917 210.847 110.941 210.767C110.966 210.686 111.006 210.612 111.059 210.549C111.112 210.484 111.178 210.43 111.252 210.392C111.326 210.352 111.406 210.328 111.49 210.32C111.573 210.312 111.657 210.32 111.737 210.346C111.817 210.369 111.891 210.409 111.956 210.463C112.02 210.517 112.074 210.582 112.113 210.656C112.152 210.729 112.176 210.81 112.184 210.894C112.402 213.197 112.249 215.522 111.731 217.778C111.698 217.917 111.619 218.041 111.507 218.131C111.394 218.22 111.254 218.268 111.111 218.268ZM117.029 219.8C116.965 219.8 116.901 219.789 116.839 219.77C116.679 219.72 116.546 219.609 116.468 219.46C116.39 219.311 116.374 219.138 116.424 218.978C117.359 215.984 117.992 212.904 118.313 209.785C118.322 209.701 118.347 209.62 118.387 209.547C118.427 209.472 118.48 209.407 118.545 209.355C118.61 209.303 118.685 209.263 118.765 209.239C118.846 209.216 118.93 209.208 119.013 209.216C119.096 209.225 119.177 209.249 119.251 209.29C119.324 209.33 119.389 209.384 119.442 209.449C119.495 209.514 119.534 209.588 119.558 209.667C119.582 209.748 119.59 209.832 119.581 209.916C119.251 213.123 118.6 216.288 117.64 219.364C117.598 219.493 117.516 219.604 117.406 219.681C117.296 219.761 117.164 219.802 117.029 219.8ZM123.04 214.928C122.946 214.93 122.854 214.909 122.769 214.871C122.684 214.833 122.609 214.776 122.548 214.706C122.488 214.635 122.444 214.551 122.419 214.462C122.394 214.372 122.39 214.278 122.406 214.186L122.984 210.842C123.017 210.68 123.111 210.537 123.248 210.444C123.384 210.35 123.551 210.316 123.713 210.342C123.876 210.371 124.021 210.461 124.118 210.595C124.215 210.728 124.256 210.894 124.233 211.057L123.655 214.403C123.629 214.548 123.554 214.681 123.442 214.776C123.329 214.871 123.187 214.925 123.04 214.928Z" fill="black"/>
<path d="M71.128 122.657C74.5485 119.408 78.0387 116.182 82.0346 113.673C86.181 111.069 90.7839 109.292 95.3488 107.533L109.443 102.101C111.678 101.24 114.423 100.448 116.281 101.96C118.265 103.575 117.844 106.715 116.873 109.092C113.965 116.202 107.997 121.576 101.857 126.192C95.7165 130.808 89.1355 135.008 84.1506 140.85C80.0169 145.694 77.1591 151.47 73.9351 156.954C69.2403 164.946 63.718 172.416 58.2053 179.867C54.8768 171.004 52.6469 161.765 51.5656 152.359C51.3517 150.503 50.9427 148.162 49.4338 146.881C49.1469 146.64 48.3766 146.406 48.2704 146.032C48.1436 145.593 49.0946 144.881 49.372 144.585C50.3314 143.557 51.2951 142.537 52.263 141.519C56.1792 137.398 60.1612 133.342 64.2094 129.354C66.495 127.102 68.8012 124.87 71.128 122.657Z" fill="#FBD2B5"/>
<path d="M102.366 112.695C100.187 112.695 98.2246 111.814 97.1166 110.265C97.0637 110.198 97.025 110.12 97.0028 110.038C96.9806 109.955 96.9754 109.869 96.9876 109.784C96.9996 109.699 97.029 109.618 97.0734 109.544C97.1179 109.471 97.1767 109.408 97.2463 109.358C97.316 109.308 97.395 109.273 97.4786 109.254C97.5623 109.236 97.6487 109.235 97.7329 109.251C97.817 109.266 97.8971 109.299 97.9683 109.347C98.0394 109.395 98.1001 109.456 98.1469 109.528C99.3832 111.254 101.838 111.658 103.723 111.295C105.894 110.875 107.825 109.634 109.692 108.434C109.834 108.343 110.005 108.312 110.17 108.348C110.334 108.384 110.478 108.483 110.569 108.625C110.66 108.766 110.691 108.938 110.655 109.102C110.619 109.267 110.52 109.41 110.378 109.501C108.5 110.707 106.375 112.071 103.964 112.546C103.437 112.646 102.902 112.697 102.366 112.695ZM86.2433 123.325C86.0834 123.325 85.9293 123.263 85.8122 123.155C83.6756 121.172 81.8767 118.853 80.4865 116.292C80.4385 116.219 80.4063 116.136 80.3917 116.049C80.3773 115.964 80.3808 115.875 80.402 115.789C80.4234 115.705 80.462 115.626 80.5155 115.556C80.5691 115.487 80.6365 115.429 80.7133 115.388C80.7901 115.345 80.8748 115.32 80.962 115.312C81.0492 115.304 81.137 115.315 81.2199 115.344C81.3028 115.371 81.379 115.417 81.4437 115.475C81.5085 115.534 81.5604 115.605 81.596 115.686C82.9203 118.127 84.6334 120.335 86.6681 122.226C86.7613 122.312 86.8263 122.426 86.8547 122.549C86.8829 122.673 86.8732 122.803 86.8266 122.922C86.7802 123.041 86.699 123.142 86.5938 123.214C86.4887 123.285 86.3643 123.325 86.237 123.325H86.2433ZM81.5881 123.548C81.4946 123.55 81.4019 123.531 81.3166 123.491C81.2315 123.453 81.1559 123.396 81.0952 123.325L78.5972 120.288C78.5439 120.223 78.5038 120.148 78.4792 120.069C78.4547 119.99 78.4461 119.906 78.454 119.822C78.4621 119.739 78.4864 119.658 78.5255 119.585C78.5648 119.511 78.6181 119.446 78.6826 119.392C78.7471 119.34 78.8214 119.3 78.9013 119.276C78.9812 119.251 79.0652 119.243 79.1483 119.251C79.2313 119.261 79.312 119.284 79.3856 119.324C79.4591 119.364 79.5241 119.417 79.5767 119.482L82.0747 122.519C82.1815 122.649 82.2323 122.816 82.2159 122.984C82.1996 123.15 82.1175 123.304 81.9875 123.412C81.8744 123.502 81.7331 123.55 81.5881 123.548Z" fill="black"/>
<path d="M81.0391 47.5489C80.3273 47.547 79.6386 47.2958 79.0927 46.8388C78.5468 46.3819 78.1783 45.7482 78.0514 45.0477C77.3207 40.9267 77.0861 38.1624 78.1607 37.1226C78.7155 36.5837 80.4352 36.384 85.6103 35.9021C88.6726 35.6168 92.1438 35.2951 95.3345 34.7926C96.211 34.6547 96.9686 34.8338 97.5852 35.3236C99.1084 36.5361 99.3081 39.3448 99.454 41.3943C99.4904 41.9141 99.5221 42.3643 99.5713 42.7035C99.6676 43.3527 99.506 44.0138 99.1208 44.5454C98.7356 45.0769 98.1576 45.4364 97.5107 45.547C92.3071 46.4441 86.9433 46.9735 81.7556 47.495L81.3435 47.5346C81.2423 47.5451 81.1407 47.5499 81.0391 47.5489ZM79.0341 38.0498C78.5158 38.6014 78.6077 40.8823 79.3051 44.829C79.3842 45.2662 79.6248 45.6575 79.9792 45.9254C80.3338 46.1932 80.776 46.3178 81.2182 46.2745L81.6319 46.2333C86.7975 45.7198 92.1375 45.1888 97.2967 44.2996C97.6187 44.2443 97.9062 44.0653 98.0978 43.8008C98.2894 43.5363 98.37 43.2072 98.3223 42.8842C98.2668 42.5006 98.2335 42.0298 98.1955 41.4846C98.0734 39.7728 97.8895 37.1844 96.8022 36.3174C96.471 36.0543 96.0573 35.9655 95.5342 36.0464C92.3055 36.5536 88.8121 36.8785 85.7308 37.1654C82.8381 37.4301 79.5635 37.7328 79.0341 38.0498Z" fill="#1B5EC9"/>
<path d="M84.8897 47.1748C84.7641 47.1749 84.6416 47.1375 84.5378 47.067C84.3982 46.9738 84.3012 46.8289 84.2682 46.6642C84.2352 46.4997 84.269 46.3287 84.3619 46.1889C85.6299 44.2869 86.9074 40.8838 87.7491 38.6331C88.2246 37.373 88.456 36.7548 88.6272 36.4711C88.7143 36.3273 88.8551 36.2241 89.0185 36.184C89.1818 36.1441 89.3544 36.1707 89.4981 36.2579C89.6419 36.3451 89.7451 36.4858 89.785 36.6492C89.8251 36.8125 89.7985 36.9851 89.7113 37.1289C89.594 37.3222 89.2754 38.175 88.9378 39.0769C88.0692 41.3783 86.7695 44.8654 85.4175 46.8926C85.3595 46.9795 85.281 47.0507 85.1889 47.1C85.0968 47.1491 84.9941 47.1748 84.8897 47.1748Z" fill="#1B5EC9"/>
<path d="M112.162 36.7516C113.747 36.2095 115.627 37.85 115.299 39.5C114.971 41.15 112.614 41.9505 111.35 40.8425C110.087 39.7346 110.563 37.2921 112.162 36.7516Z" fill="black"/>
<path d="M119.39 41.1771C120.816 41.529 122.361 40.1246 122.151 38.6759C121.94 37.2272 120.005 36.2476 118.79 37.0671C116.549 38.5808 117.968 40.8236 119.39 41.1771Z" fill="#FF5400"/>
<path d="M124.674 38.5758C124.559 38.8806 124.516 39.2076 124.548 39.5318C124.58 39.8557 124.686 40.1682 124.857 40.4446C125.75 41.9361 128.262 41.7395 128.937 40.1276C129.132 39.6508 129.155 39.1209 129.002 38.6291C128.848 38.1373 128.529 37.7141 128.098 37.4321C127.667 37.1501 127.151 37.0268 126.639 37.0834C126.127 37.14 125.651 37.3728 125.292 37.7421C125.041 37.9838 124.832 38.2657 124.674 38.5758Z" fill="#1B5EC9"/>
<path d="M94.6881 187.054C95.2492 186.944 96.8009 186.065 93.0555 185.152C91.5656 184.789 87.714 185.004 86.7281 180.996C86.3255 179.36 86.7788 176.616 86.5474 174.973C86.4285 174.126 86.0846 172.923 84.9624 172.536C83.268 171.948 81.5625 173.204 81.5879 177.249C81.6053 180.013 82.7323 184.63 84.8927 186.203C86.9595 187.71 92.1711 187.537 94.6881 187.054ZM60.4641 177.444C60.3471 177.444 60.2322 177.41 60.1325 177.35C60.0326 177.288 59.9518 177.201 59.8987 177.097C59.8457 176.992 59.8226 176.875 59.8321 176.759C59.8415 176.642 59.883 176.529 59.9521 176.436C61.4246 174.429 62.4881 173.074 63.3551 171.985C65.1129 169.766 66.1749 168.414 68.6349 164.191C68.6735 164.114 68.7276 164.044 68.7938 163.988C68.8601 163.933 68.937 163.892 69.0199 163.866C69.1029 163.841 69.1901 163.833 69.276 163.844C69.3621 163.854 69.4451 163.882 69.5201 163.925C69.5951 163.968 69.6604 164.026 69.7119 164.096C69.7634 164.166 69.8002 164.245 69.8198 164.329C69.8395 164.413 69.8417 164.502 69.8263 164.586C69.811 164.672 69.7782 164.752 69.7301 164.825C67.2258 169.125 66.0846 170.574 64.349 172.768C63.4518 173.904 62.4342 175.193 60.9744 177.182C60.916 177.263 60.8392 177.328 60.7505 177.374C60.6619 177.418 60.5638 177.444 60.4641 177.444ZM48.2736 146.666C48.1365 146.666 48.0031 146.621 47.8932 146.539C47.7835 146.456 47.7035 146.341 47.665 146.209C47.4351 145.417 48.2197 144.714 48.8506 144.149C48.9631 144.046 49.0693 143.95 49.1248 143.892C50.2739 142.678 51.4342 141.46 52.5738 140.275C57.2258 135.433 62.0206 130.606 66.8264 125.913C66.9468 125.796 67.109 125.731 67.2773 125.732C67.4455 125.734 67.606 125.804 67.7235 125.924C67.8411 126.044 67.9059 126.206 67.9039 126.374C67.9016 126.542 67.8328 126.704 67.7124 126.821C62.9161 131.5 58.1293 136.322 53.4884 141.153C52.3503 142.337 51.1916 143.551 50.0457 144.764C49.9569 144.859 49.838 144.965 49.7001 145.081C49.5036 145.258 48.998 145.715 48.9076 145.935C48.9298 146.086 48.8965 146.241 48.8138 146.369C48.7311 146.498 48.6046 146.593 48.4575 146.636C48.398 146.655 48.3361 146.664 48.2736 146.666Z" fill="black"/>
<path d="M71.1091 162.541C70.9939 162.541 70.8807 162.509 70.7818 162.449C70.683 162.391 70.6024 162.305 70.5483 162.204C70.4944 162.102 70.4692 161.986 70.4756 161.872C70.4819 161.757 70.5196 161.646 70.5845 161.55L72.309 159.014C72.3551 158.943 72.4147 158.883 72.4844 158.837C72.5542 158.789 72.6325 158.756 72.7149 158.74C72.7973 158.723 72.8823 158.723 72.9647 158.74C73.0471 158.758 73.1254 158.789 73.195 158.837C73.2646 158.884 73.3242 158.945 73.3701 159.014C73.4161 159.086 73.4475 159.165 73.4627 159.247C73.4779 159.33 73.4765 159.415 73.4586 159.496C73.4407 159.579 73.4066 159.656 73.3583 159.726L71.6337 162.262C71.5757 162.348 71.4976 162.418 71.4061 162.467C71.3147 162.516 71.2126 162.541 71.1091 162.541Z" fill="black"/>
<path d="M97.4764 42.0916C97.3244 42.091 97.1778 42.036 97.063 41.9363C96.9482 41.8368 96.873 41.6992 96.8511 41.5489C96.8292 41.3985 96.862 41.2452 96.9437 41.1172C97.0253 40.9889 97.1502 40.8943 97.2957 40.8506C97.9782 40.6699 98.6769 40.5573 99.3816 40.5144C99.6162 40.4922 99.8571 40.47 100.084 40.4415C100.727 40.3654 101.653 40.2055 102.254 39.7109C102.302 39.6897 102.342 39.652 102.366 39.6044C102.389 39.5569 102.396 39.5027 102.384 39.4508C102.393 39.0879 102.327 38.817 102.185 38.6411C101.959 38.4109 101.659 38.2694 101.338 38.2415C100.901 38.1968 100.462 38.201 100.027 38.2543L97.2038 38.4873C97.0356 38.5011 96.8688 38.4477 96.7401 38.3385C96.6764 38.2844 96.624 38.2185 96.5858 38.1441C96.5476 38.0698 96.5243 37.9888 96.5174 37.9054C96.5105 37.8222 96.5201 37.7385 96.5457 37.659C96.5712 37.5794 96.6121 37.5055 96.6661 37.4418C96.7752 37.3131 96.931 37.2331 97.0991 37.2193L99.9221 36.9863C100.455 36.9235 100.994 36.9235 101.528 36.9863C102.162 37.0582 102.748 37.3626 103.171 37.8405C103.507 38.2557 103.669 38.8075 103.647 39.4827C103.648 39.7005 103.604 39.9164 103.519 40.1167C103.409 40.3381 103.251 40.5317 103.056 40.6824C102.198 41.3909 101.032 41.5985 100.23 41.6954C99.9855 41.7239 99.7398 41.7477 99.4941 41.7699C98.8723 41.807 98.2554 41.9041 97.6523 42.0598C97.5954 42.0785 97.5361 42.0891 97.4764 42.0916ZM74.9012 44.8304C73.8899 44.8304 73.0958 44.561 72.8834 43.7336C72.8652 43.6795 72.8435 43.6266 72.8184 43.5751C72.7214 43.3914 72.6606 43.1907 72.6393 42.9839C72.5743 42.1232 73.0388 41.2134 73.855 40.6063C74.2925 40.2893 75.3085 40.1102 77.4245 39.8471C77.9159 39.7853 78.534 39.7092 78.6624 39.6696C78.7423 39.6452 78.8262 39.6368 78.9092 39.6448C78.9923 39.6529 79.073 39.6773 79.1467 39.7166C79.2202 39.756 79.2853 39.8094 79.3383 39.874C79.3912 39.9386 79.4308 40.0129 79.4549 40.0928C79.5047 40.253 79.4889 40.4263 79.411 40.5748C79.3332 40.7235 79.1998 40.835 79.0397 40.8853C78.5594 40.9909 78.0728 41.066 77.583 41.1104C76.7224 41.2166 74.9329 41.4401 74.5984 41.6382C74.1499 41.971 73.8725 42.464 73.9042 42.8888C73.9042 42.9109 73.9438 42.9854 73.9676 43.0393C74.028 43.1598 74.0768 43.2855 74.1134 43.415C74.1134 43.415 74.3369 43.6527 75.5748 43.5164C76.4767 43.3942 77.3706 43.2191 78.2519 42.9918C78.6989 42.8856 79.0444 42.8016 79.3028 42.7604C79.4689 42.7337 79.6388 42.7742 79.775 42.8726C79.9113 42.9712 80.0029 43.1199 80.0295 43.2858C80.0563 43.4519 80.0159 43.6218 79.9173 43.7582C79.8189 43.8943 79.6702 43.9859 79.5041 44.0125C79.298 44.0458 78.9493 44.1282 78.5531 44.2249C77.3912 44.5023 76.0139 44.8304 74.9012 44.8304Z" fill="#1B5EC9"/>
<path d="M78.6035 37.5742C77.6255 38.5253 78.1914 42.1978 78.6748 44.9367C78.7809 45.5317 79.1077 46.0649 79.59 46.4293C80.0723 46.7937 80.6743 46.9627 81.2759 46.9021C83.0067 46.7309 83.1573 46.7246 84.8897 46.5407L89.5228 36.1588C84.1067 36.7167 79.1931 37.0068 78.6035 37.5742Z" fill="#1B5EC9"/>
<path d="M197.714 54.4473C197.583 54.4475 197.457 54.4066 197.353 54.331C197.25 54.2555 197.177 54.1494 197.144 54.0299C195.349 47.2112 190.004 41.2373 183.196 38.4444C183.058 38.3826 182.951 38.2725 182.898 38.1376C182.844 38.0026 182.847 37.853 182.908 37.7205C182.968 37.588 183.08 37.483 183.221 37.4274C183.361 37.3719 183.518 37.3704 183.661 37.423C190.797 40.3453 196.401 46.6073 198.283 53.7557C198.305 53.8381 198.306 53.9241 198.289 54.0075C198.271 54.0907 198.233 54.1689 198.177 54.2361C198.123 54.3033 198.053 54.3576 197.972 54.395C197.891 54.4323 197.803 54.4517 197.714 54.4515V54.4473Z" fill="black"/>
<path d="M200.098 51.2007C199.985 51.2004 199.873 51.1653 199.78 51.0999C199.688 51.0346 199.618 50.9423 199.581 50.8357C198.139 46.7811 195.801 43.0986 192.739 40.0589C192.651 39.9549 192.606 39.8222 192.612 39.6872C192.618 39.552 192.674 39.4239 192.77 39.3278C192.866 39.2315 192.994 39.1744 193.131 39.167C193.267 39.1596 193.401 39.2029 193.507 39.2883C196.687 42.4438 199.114 46.2669 200.611 50.4764C200.634 50.5438 200.645 50.6153 200.641 50.6868C200.637 50.7582 200.619 50.8282 200.588 50.8926C200.556 50.9571 200.512 51.0149 200.459 51.0625C200.405 51.1103 200.342 51.1469 200.275 51.1706C200.218 51.1899 200.159 51.2 200.098 51.2007ZM205.068 42.5436C204.935 42.5451 204.806 42.4988 204.706 42.4134C204.604 42.3282 204.539 42.2095 204.519 42.0793C203.559 35.7637 199.418 29.9983 193.718 27.0345C193.653 27.0011 193.597 26.9556 193.55 26.9008C193.505 26.8458 193.47 26.7823 193.448 26.714C193.427 26.6456 193.419 26.5738 193.426 26.5024C193.433 26.4312 193.453 26.3619 193.486 26.2985C193.52 26.2352 193.566 26.179 193.62 26.1331C193.677 26.0873 193.74 26.0527 193.81 26.0314C193.878 26.0101 193.949 26.0025 194.022 26.0089C194.093 26.0154 194.163 26.0359 194.228 26.0691C200.231 29.1908 204.591 35.2641 205.609 41.9173C205.63 42.0601 205.594 42.2057 205.508 42.3218C205.422 42.4379 205.293 42.5153 205.149 42.5368C205.121 42.541 205.094 42.5433 205.068 42.5436Z" fill="black"/>
<path d="M185.365 209.679C182.032 209.679 178.843 209.364 175.228 208.712C175.15 208.701 175.076 208.674 175.01 208.635C174.944 208.595 174.886 208.543 174.841 208.482C174.794 208.42 174.763 208.35 174.747 208.276C174.729 208.202 174.728 208.125 174.742 208.051C174.757 207.976 174.786 207.905 174.829 207.842C174.871 207.778 174.928 207.725 174.993 207.682C175.058 207.64 175.131 207.612 175.208 207.599C175.284 207.585 175.363 207.586 175.439 207.603C180.988 208.604 185.544 208.793 191.16 208.254C191.236 208.247 191.312 208.254 191.386 208.275C191.459 208.296 191.527 208.331 191.586 208.379C191.646 208.426 191.695 208.485 191.731 208.55C191.768 208.616 191.789 208.688 191.797 208.762C191.804 208.837 191.797 208.911 191.775 208.982C191.753 209.054 191.715 209.12 191.668 209.178C191.618 209.234 191.559 209.282 191.492 209.318C191.424 209.353 191.35 209.376 191.275 209.383C189.196 209.579 187.26 209.679 185.365 209.679ZM185.76 205.521C183.051 205.521 180.656 205.137 177.592 204.287C177.517 204.268 177.447 204.234 177.386 204.189C177.325 204.142 177.274 204.086 177.235 204.021C177.198 203.955 177.173 203.883 177.164 203.809C177.156 203.734 177.161 203.658 177.183 203.586C177.203 203.514 177.24 203.447 177.288 203.389C177.337 203.329 177.396 203.281 177.463 203.245C177.531 203.21 177.606 203.187 177.682 203.18C177.759 203.173 177.837 203.18 177.911 203.202C182.146 204.376 185.054 204.625 189.434 204.19C189.588 204.175 189.741 204.22 189.862 204.314C189.98 204.409 190.057 204.547 190.073 204.697C190.089 204.846 190.043 204.996 189.944 205.113C189.847 205.229 189.706 205.303 189.553 205.319C188.292 205.449 187.026 205.516 185.76 205.521Z" fill="black"/>
</svg>
