<svg width="299" height="299" viewBox="0 0 299 299" fill="none" xmlns="http://www.w3.org/2000/svg">
<path d="M41.3412 93.5079C40.3462 96.3777 35.4359 101.669 32.5988 102.236C32.5988 103.522 29.659 111.64 31.7677 111.64C38.636 111.64 44.6055 111.902 50.3299 116.188C53.6652 118.685 56.1986 121.545 58.9491 124.67C62.7131 128.946 67.935 134.464 69.6616 140.066C70.2272 141.902 67.8428 143.953 67.5376 145.629C67.1513 147.75 67.4816 149.23 66.1216 151.191C63.8809 154.422 60.1962 156.711 57.6562 159.766C54.7493 163.261 52.7003 167.393 49.2217 170.399C45.309 173.779 41.2578 176.646 36.5083 178.819C32.9053 180.468 28.2739 182.714 26.0112 186.103C23.9128 189.245 24.8415 194.434 24.8415 197.965C24.8415 202.038 25.245 206.047 25.3956 210.104C25.5426 214.068 29.6896 218.528 32.0447 221.475C36.4741 227.018 41.6798 232.008 48.5444 234.321C54.1976 236.225 59.5087 236.823 64.5516 240.221C69.1535 243.322 73.2012 246.733 77.4805 250.24L77.5785 250.32C79.3751 251.793 82.0197 253.96 84.4067 254.327C86.7356 254.685 88.3532 253.059 90.5018 252.729C93.166 252.32 96.0313 252.795 98.6593 253.129C105.047 253.938 111.552 252.769 117.929 252.698C123.607 252.635 126.477 252.438 130.92 255.987C132.941 257.6 134.094 259.231 134.829 261.58C136.376 266.521 139.988 272.324 145.357 273.872C148.807 274.867 152.788 274.082 156.285 273.842C160.78 273.533 165.276 273.234 169.768 272.889C180.01 272.103 190.741 273.893 200.798 271.383C204.944 270.348 209.891 268.238 211.449 263.885C213.661 257.701 224.461 254.362 220.868 246.613C215.041 234.047 210.118 218.813 214.096 205.095C216.146 198.023 221.225 190.368 227.702 186.656C237.299 181.155 248.794 180.891 259.439 179.372C265.372 178.526 270.451 177.041 273.63 171.812C275.175 169.273 274.15 164.899 274.862 161.978C276.047 157.112 277.509 152.407 277.509 147.35C277.509 144.327 278.141 140.512 277.232 137.608C274.16 127.795 269.789 118.207 264.211 109.55C260.919 104.441 257.703 98.9167 251.343 98.9167C245.938 98.9167 243.62 92.2142 241.37 88.1606C238.19 82.4334 235.709 76.0273 232.073 70.582C228.587 65.362 227.965 58.9752 226.224 52.9728C224.593 47.346 220.652 40.8624 217.544 35.8552C215.277 32.2034 211.464 27.7702 206.893 27.1274C198.064 25.886 189.472 29.5495 181.096 31.5835C179.757 31.9088 178.784 31.2489 177.526 30.8766C174.615 30.0158 171.563 30.1284 168.629 29.2171C163.759 27.7046 157.11 26.4468 152.037 27.8649C148.896 28.7431 146.077 29.5072 142.833 30.0469C135.87 31.2055 126.98 33.9918 123.901 41.2025C121.849 46.0103 121.839 50.2728 117.314 53.8025C109.805 59.6591 107.838 53.453 99.0857 53.8025C99.0857 47.6613 82.9176 49.8771 82.6762 51.5643C82.5414 52.5059 81.9897 60.8298 81.8825 61.7928C81.7392 63.0802 80.5935 62.9606 79.5738 62.9606C77.4253 62.9606 74.9905 63.362 73.0478 62.2845C70.5969 60.9252 71.7346 57.9498 71.2624 55.7693L71.2542 55.7318C70.544 52.4521 69.8263 49.1385 66.2755 47.5947C58.2483 44.1048 50.884 50.1893 50.884 58.0128C50.884 61.1185 52.0667 67.0597 49.2217 69.2913C46.6465 71.3113 43.0502 71.6493 40.9718 74.3006C37.706 78.4666 41.4643 83.5068 41.4643 87.8533C41.4643 89.5119 41.8987 91.9 41.3412 93.5079Z" fill="#F4F7FA"/>
<path d="M87.3702 54.1372C86.2577 31.4637 134.09 41.7734 150.561 40.2076C164.311 41.259 206.992 38.2751 210.84 46.1192C212.704 49.9224 212.868 54.59 212.737 56.7544C209.524 110.219 198.947 160.356 189.914 213.148C188.982 220.368 185.888 224.794 178.137 223.842C154.182 222.461 129.974 222.727 106.135 220.534C100.984 218.929 100.857 212.931 100.268 208.442C98.1159 191.998 95.9709 175.55 94.0644 159.074C90.0352 124.247 87.0627 89.225 87.3702 54.1372Z" fill="#57585C"/>
<path d="M97.5632 64.3565C97.4101 60.4677 96.9562 57.6153 99.3655 54.5452C102.117 51.0394 107.274 51.6685 111.751 51.5764C124.909 51.3042 138.592 51.9858 151.751 52.1717C166.973 52.3895 181.278 51.8788 196.171 53.5312C197.929 53.7158 199.592 54.4092 200.955 55.5254C202.018 56.4061 202.776 57.5252 202.686 59.9438C202.252 71.5859 198.884 82.4976 197.492 96.5094C196.269 108.816 194.143 120.248 192.925 132.562C190.955 152.447 187.044 172.121 183.98 191.871C183.804 192.998 183.602 194.173 182.955 195.11C181.66 196.96 179.08 197.281 176.817 197.414C157.703 198.548 138.534 198.475 119.429 197.198C117.212 197.05 114.928 196.868 112.951 195.861C109.311 194.008 107.567 189.852 106.418 185.96C104.148 178.261 103.354 170.493 103.176 162.51C103.027 155.75 102.231 148.991 101.775 142.244C101.201 133.914 100.667 125.582 100.173 117.247C99.6813 108.967 99.2286 100.683 98.8152 92.3953C98.3991 84.0818 98.0209 75.7677 97.6805 67.4529C97.6427 66.419 97.6035 65.3868 97.5632 64.3565Z" fill="white"/>
<path d="M30.7626 247.686C31.1534 249.05 31.5851 250.463 32.549 251.5C33.7623 252.804 35.5916 253.284 37.3203 253.701C44.2738 255.382 51.2508 256.969 58.2514 258.456C61.8243 259.215 65.4474 259.947 69.0947 259.781C76.4005 259.433 82.9898 255.509 89.2331 251.695C92.0113 249.999 94.879 248.217 96.6672 245.494C97.9699 243.501 98.6025 241.151 99.2111 238.845C102.638 225.849 106.068 212.857 109.502 199.866C109.721 199.033 109.928 198.088 109.477 197.354C109.027 196.619 108.154 196.388 107.345 196.205C103.809 195.402 100.216 194.878 96.6282 194.355C86.1273 192.822 75.6003 194.424 65.1069 192.891C62.63 192.53 60.1458 189.033 57.6541 189.266C55.1624 189.499 52.7376 190.33 50.3576 191.154L35.6344 196.245C31.2781 197.751 26.8678 199.285 23.0307 201.837C21.6183 202.778 21.0991 203.792 21.3298 205.496C21.5699 207.28 21.9253 209.054 22.2938 210.816C22.7664 213.08 23.3359 215.315 23.9016 217.558C25.4331 223.642 26.304 229.886 27.7294 236C28.6449 239.919 29.6561 243.814 30.7626 247.686Z" fill="#FF8D55"/>
<path d="M60.8136 212.668C60.7785 212.672 60.7433 212.672 60.7082 212.668C54.893 211.781 51.2294 210.886 47.3532 209.94C44.2384 209.187 41.0164 208.394 36.4096 207.542C36.2253 207.503 36.0636 207.388 35.9585 207.226C35.8535 207.064 35.8133 206.866 35.8466 206.674C35.8799 206.482 35.9838 206.31 36.1366 206.195C36.2895 206.08 36.4792 206.033 36.6658 206.06C41.3108 206.917 44.5527 207.708 47.6857 208.475C51.531 209.417 55.1619 210.298 60.919 211.176C61.1118 211.191 61.291 211.285 61.4175 211.436C61.544 211.589 61.6072 211.785 61.5932 211.984C61.5792 212.186 61.4893 212.371 61.343 212.502C61.1969 212.632 61.0064 212.698 60.8136 212.683V212.668ZM73.9541 212.446C73.7902 212.448 73.631 212.389 73.5023 212.284C73.3738 212.178 73.2833 212.031 73.2455 211.866C73.2079 211.702 73.2254 211.527 73.2948 211.374C73.3644 211.22 73.4821 211.095 73.6288 211.018C74.999 210.31 76.0076 209.795 76.6273 209.49C76.9089 209.351 77.0907 209.264 77.2052 209.215C77.8957 208.906 78.1919 209.311 78.2955 209.498C78.6353 210.166 77.9611 210.555 77.7394 210.683C77.6384 210.743 77.5248 210.775 77.4087 210.777C76.9562 210.999 76.0585 211.449 74.2848 212.367C74.1821 212.421 74.0687 212.448 73.9541 212.446ZM70.8595 258.685H70.8486C70.7528 258.685 70.6585 258.665 70.5707 258.625C70.4829 258.586 70.4035 258.529 70.337 258.458C70.2705 258.386 70.2181 258.301 70.1831 258.209C70.148 258.117 70.1307 258.019 70.1326 257.919C70.3924 242.004 70.4506 234.687 70.4433 218.766C70.4433 218.567 70.5198 218.376 70.6561 218.235C70.7924 218.094 70.9774 218.013 71.1702 218.013C71.3628 218.013 71.5478 218.094 71.6841 218.235C71.8204 218.376 71.8971 218.567 71.8971 218.766C71.8971 234.698 71.8462 242.021 71.5864 257.951C71.5815 258.149 71.5029 258.335 71.367 258.473C71.2313 258.61 71.049 258.685 70.8595 258.685Z" fill="black"/>
<path d="M42.7578 207.068C50.8137 203.262 58.7328 199.191 66.5149 194.854C67.8646 195.601 69.2047 195.778 70.5506 196.525C63.5763 200.296 56.6021 204.637 49.6298 208.409C49.2191 208.631 48.7872 208.872 48.5558 209.272C48.3052 209.706 48.338 210.239 48.3785 210.738C49.6568 226.504 51.3074 241.8 52.5857 257.566C52.4681 257.539 50.5091 257.131 48.3437 256.635C48.2878 256.621 48.1683 255.307 48.1143 254.751C48.0217 253.822 47.928 252.895 47.8328 251.966C47.4614 248.399 47.0499 244.837 46.5987 241.28C45.6887 234.119 44.616 226.98 43.3806 219.861C42.7829 216.429 42.1485 213.004 41.4775 209.583C41.3788 209.084 41.4509 208.566 41.6825 208.111C41.9141 207.658 42.2922 207.29 42.7578 207.068Z" fill="#3982F0"/>
<path d="M89.7815 205.836C89.808 205.384 89.8269 204.898 89.5924 204.516C89.3182 204.075 88.7812 203.9 88.2896 203.757C79.9281 201.347 71.3587 198.838 62.7117 197.961C63.9578 195.352 66.9832 194.896 69.827 194.855C72.6709 194.815 75.4203 195.807 78.128 196.699C82.8066 198.241 87.5641 199.522 92.3796 200.534C94.8377 201.052 95.5033 201.27 95.0589 203.792L88.6073 252.628L84.158 255.326C85.0184 249.62 85.7539 243.838 86.5594 238.109C87.5262 231.234 88.3153 224.338 88.9268 217.419C89.2659 213.563 89.5508 209.702 89.7815 205.836Z" fill="#3982F0"/>
<path d="M27.7099 222.133C27.5262 222.135 27.3484 222.067 27.2109 221.945C27.0733 221.822 26.9855 221.651 26.9645 221.467C26.5538 217.886 25.7863 214.355 24.6741 210.929C24.6123 210.741 24.6275 210.534 24.7168 210.355C24.8059 210.176 24.9615 210.043 25.1494 209.979C25.337 209.916 25.5418 209.933 25.7183 210.022C25.8948 210.112 26.0286 210.27 26.0905 210.458C27.2343 213.985 28.023 217.618 28.4442 221.305C28.4667 221.504 28.4104 221.702 28.2878 221.86C28.1652 222.016 27.9861 222.116 27.7901 222.138L27.7099 222.133ZM28.515 229.562C28.3286 229.564 28.1488 229.494 28.0107 229.368C27.8728 229.24 27.7867 229.067 27.7696 228.879L27.4956 225.907C27.4865 225.81 27.4967 225.71 27.5258 225.616C27.5551 225.52 27.6022 225.431 27.6652 225.356C27.728 225.279 27.805 225.217 27.892 225.17C27.979 225.123 28.0741 225.095 28.1721 225.085C28.2699 225.078 28.3687 225.087 28.4624 225.117C28.5564 225.145 28.6438 225.194 28.7192 225.256C28.7949 225.32 28.8575 225.399 28.9034 225.486C28.949 225.574 28.9774 225.67 28.9865 225.768L29.2604 228.749C29.2696 228.849 29.2595 228.948 29.2306 229.042C29.2019 229.137 29.155 229.225 29.0923 229.3C29.0299 229.377 28.9531 229.439 28.8667 229.487C28.78 229.532 28.6851 229.562 28.5877 229.569L28.515 229.562ZM33.9995 162.436C33.6859 162.442 33.375 162.378 33.0882 162.248C32.8806 162.154 32.695 162.017 32.5431 161.846C32.3913 161.674 32.2767 161.473 32.2068 161.253C32.1203 160.993 32.0886 160.717 32.1136 160.442C32.2459 158.733 32.8963 157.194 33.5243 155.705L41.4632 136.908C41.6438 136.476 41.8829 136.072 42.1732 135.707C42.3833 135.444 42.6742 135.258 42.9999 135.18C43.3259 135.102 43.6682 135.135 43.9735 135.274C44.2832 135.411 44.5394 135.647 44.7019 135.947C44.8644 136.246 44.9243 136.591 44.8717 136.928C44.5586 138.998 44.1785 141.087 43.7368 143.138C43.5206 144.142 43.2882 145.145 43.0398 146.149C43.8635 145.084 44.6239 144.162 45.0562 143.703C53.1636 134.957 62.7622 127.755 73.394 122.439C74.8736 121.701 76.085 121.244 77.205 121.003C78.2859 120.772 78.8822 121.255 79.0853 121.786C79.3742 122.552 78.9083 123.468 77.9541 124.016C65.6545 131.072 55.6228 138.088 46.562 149.39C46.4725 149.503 46.3756 149.637 46.2694 149.782C49.7003 148.722 53.1442 147.724 56.5396 146.804C57.2199 146.616 58.1516 146.367 59.0611 146.855C59.3261 146.99 59.5529 147.191 59.7202 147.438C59.8874 147.686 59.9895 147.973 60.0171 148.271C60.1028 149.336 59.2325 149.887 58.8132 150.152C51.4239 154.821 43.639 158.818 35.55 162.094C35.0582 162.305 34.5327 162.42 33.9995 162.436ZM43.3398 136.648C43.3398 136.648 43.3398 136.648 43.3268 136.663C43.1255 136.919 42.96 137.201 42.8348 137.502L34.8959 156.302C34.3145 157.678 33.7144 159.102 33.5914 160.566C33.584 160.636 33.5903 160.707 33.61 160.773C33.6149 160.799 33.6259 160.822 33.6421 160.843C33.6585 160.861 33.6794 160.876 33.7032 160.886C33.8896 160.972 34.3723 160.954 34.9872 160.698C42.9949 157.455 50.7012 153.5 58.0156 148.879C58.3883 148.646 58.5337 148.503 58.5244 148.396C58.5141 148.35 58.4934 148.307 58.464 148.271C58.4345 148.235 58.3971 148.206 58.3548 148.187C57.9932 147.999 57.5311 148.096 56.918 148.262C52.8591 149.36 48.7182 150.574 44.6332 151.871C44.4841 151.918 44.3242 151.918 44.176 151.867C44.0279 151.818 43.8987 151.722 43.8072 151.594C43.7155 151.468 43.666 151.314 43.6654 151.155C43.6647 150.997 43.7131 150.845 43.8039 150.715C44.0256 150.401 44.24 150.087 44.4412 149.789C44.786 149.283 45.1103 148.805 45.3954 148.448C54.6034 136.97 64.7767 129.851 77.2087 122.712C77.3226 122.648 77.4273 122.569 77.5199 122.477H77.5069C76.5117 122.689 75.4122 123.107 74.0462 123.794C63.5799 129.031 54.1295 136.123 46.1445 144.732C44.598 146.51 43.1662 148.387 41.8583 150.35C41.7593 150.504 41.6088 150.615 41.4347 150.664C41.2606 150.713 41.075 150.696 40.9121 150.617C40.7491 150.538 40.6201 150.403 40.5491 150.235C40.4781 150.068 40.4697 149.88 40.5258 149.705L40.5799 149.539C40.6153 149.432 40.647 149.334 40.6731 149.245C41.2769 147.133 41.8192 144.969 42.2813 142.818C42.7155 140.803 43.092 138.746 43.3995 136.706C43.3995 136.68 43.3995 136.676 43.3995 136.671C43.3855 136.658 43.3678 136.65 43.3492 136.648H43.3398ZM139.935 208.947C139.32 211.648 140.507 214.604 142.645 216.341C144.782 218.078 147.732 218.636 150.423 218.094C154.006 217.372 157.255 214.504 157.81 210.857C158.429 206.804 155.747 203.178 151.916 202.201C150.514 201.84 148.995 201.496 147.563 201.872C146.13 202.248 144.805 203.248 143.582 204.085C141.858 205.254 140.412 206.845 139.935 208.947Z" fill="black"/>
<path d="M149.047 219.491C146.538 219.491 144.118 218.757 142.276 217.391C139.636 215.433 138.341 212.192 139.056 209.327C139.564 207.278 141.007 205.513 143.348 204.051L143.833 203.747C145.034 202.986 146.394 202.123 147.915 201.758C149.626 201.348 151.385 201.693 153.038 202.082C157.738 203.187 160.746 207.235 160.035 211.497C159.406 215.256 155.846 218.457 151.379 219.278C150.61 219.42 149.83 219.491 149.047 219.491ZM149.571 203.062C149.15 203.06 148.73 203.107 148.321 203.2C147.076 203.5 145.895 204.25 144.747 204.975L144.254 205.286C142.262 206.529 141.044 208 140.629 209.66C140.051 211.981 141.12 214.623 143.289 216.231C145.329 217.743 148.234 218.336 151.059 217.816C154.813 217.127 157.914 214.373 158.434 211.27C159.018 207.769 156.527 204.44 152.638 203.526C151.593 203.278 150.556 203.062 149.571 203.062Z" fill="black"/>
<path d="M142.982 212.817C142.821 212.819 142.664 212.766 142.534 212.668C142.404 212.57 142.308 212.433 142.258 212.276C142.208 212.12 142.209 211.949 142.258 211.791C142.308 211.634 142.405 211.497 142.535 211.399C145.645 209.076 148.892 206.955 152.258 205.049C152.346 204.994 152.444 204.957 152.547 204.941C152.648 204.926 152.752 204.931 152.853 204.957C152.952 204.984 153.045 205.031 153.126 205.098C153.208 205.163 153.276 205.245 153.326 205.339C153.375 205.431 153.406 205.535 153.415 205.64C153.427 205.746 153.415 205.852 153.383 205.954C153.352 206.056 153.301 206.148 153.233 206.228C153.166 206.308 153.083 206.375 152.99 206.42C149.679 208.296 146.486 210.382 143.428 212.668C143.298 212.766 143.142 212.819 142.982 212.817ZM147.482 216.131C147.298 216.131 147.122 216.06 146.984 215.935C146.908 215.869 146.847 215.786 146.802 215.694C146.757 215.602 146.73 215.502 146.723 215.398C146.716 215.297 146.729 215.193 146.761 215.095C146.792 214.997 146.842 214.907 146.908 214.829C148.238 213.262 149.84 211.963 151.633 211.001C151.723 210.954 151.82 210.927 151.918 210.917C152.019 210.909 152.118 210.921 152.213 210.952C152.31 210.984 152.397 211.033 152.473 211.099C152.549 211.166 152.612 211.248 152.657 211.338C152.703 211.43 152.731 211.53 152.741 211.632C152.748 211.736 152.737 211.84 152.707 211.938C152.676 212.035 152.627 212.126 152.562 212.204C152.5 212.282 152.42 212.347 152.331 212.394C150.71 213.265 149.263 214.441 148.063 215.861C147.991 215.947 147.902 216.015 147.801 216.062C147.701 216.109 147.592 216.133 147.482 216.131Z" fill="white"/>
<path d="M180.638 221.73C180.374 221.73 180.106 221.719 179.832 221.695C179.632 221.678 179.447 221.583 179.318 221.431C179.188 221.278 179.126 221.082 179.143 220.882C179.162 220.684 179.258 220.501 179.411 220.374C179.566 220.245 179.764 220.183 179.964 220.2C183.203 220.484 185.474 218.706 185.894 215.586C185.925 215.391 186.028 215.218 186.187 215.098C186.346 214.98 186.544 214.928 186.742 214.954C186.938 214.98 187.116 215.081 187.238 215.236C187.359 215.391 187.416 215.587 187.391 215.782C186.897 219.466 184.283 221.73 180.638 221.73ZM129.943 219.083H129.92C129.205 219.062 127.825 218.98 126.228 218.896C123.195 218.709 119.418 218.493 117.155 218.493C116.955 218.493 116.763 218.414 116.621 218.274C116.48 218.134 116.4 217.945 116.4 217.745C116.4 217.547 116.48 217.359 116.621 217.218C116.763 217.078 116.955 216.998 117.155 216.998C119.464 216.998 123.265 217.222 126.319 217.403C127.902 217.497 129.271 217.579 129.965 217.59C130.065 217.592 130.162 217.613 130.253 217.652C130.344 217.691 130.427 217.747 130.496 217.818C130.565 217.889 130.619 217.971 130.656 218.063C130.692 218.154 130.711 218.252 130.709 218.349C130.708 218.448 130.687 218.545 130.647 218.635C130.608 218.724 130.551 218.806 130.48 218.876C130.409 218.943 130.325 218.997 130.232 219.033C130.14 219.07 130.042 219.087 129.943 219.085V219.083ZM98.6749 74.9256C98.4845 74.9262 98.3008 74.8554 98.1608 74.7276C98.0207 74.5996 97.9346 74.4242 97.9199 74.2362C97.4518 68.1046 97.3424 64.4148 97.4858 59.6097C97.5169 58.2606 97.895 56.9418 98.5843 55.7779C99.7545 53.9057 101.615 52.5576 103.771 52.0189C106.059 51.4958 110.017 51.4435 112.097 51.5724C112.297 51.5848 112.484 51.6754 112.617 51.8243C112.749 51.9732 112.817 52.1682 112.805 52.3664C112.792 52.5645 112.701 52.7496 112.55 52.8811C112.4 53.0125 112.203 53.0794 112.002 53.067C110.071 52.9475 106.227 52.996 104.111 53.4799C102.354 53.9206 100.839 55.0199 99.8867 56.5457C99.3301 57.4914 99.0254 58.5619 99.0014 59.6564C98.8599 64.4036 98.9675 68.0635 99.4318 74.126C99.4393 74.2239 99.4273 74.3222 99.3961 74.4154C99.3652 74.5088 99.3161 74.5951 99.2513 74.6695C99.1866 74.7438 99.1077 74.8049 99.0192 74.8492C98.9307 74.8935 98.8342 74.92 98.7353 74.9275L98.6749 74.9256ZM98.9977 88.1994C98.7976 88.1994 98.6055 88.1207 98.4639 87.9806C98.3223 87.8405 98.2427 87.6503 98.2427 87.4521C98.2427 85.9351 98.1219 84.3228 98.0067 82.7628C97.8954 81.257 97.7899 79.8352 97.7974 78.5947C97.7974 78.3967 97.8769 78.2065 98.0185 78.0663C98.16 77.9262 98.3522 77.8476 98.5524 77.8476C98.7525 77.8476 98.9446 77.9262 99.0862 78.0663C99.2278 78.2065 99.3074 78.3967 99.3074 78.5947C99.3074 79.7754 99.4037 81.1693 99.5131 82.6434C99.6302 84.2314 99.7527 85.8717 99.7527 87.4429C99.754 87.5418 99.7355 87.6398 99.6979 87.7318C99.6606 87.8235 99.6052 87.907 99.535 87.9773C99.4648 88.0477 99.381 88.1035 99.2889 88.1417C99.1966 88.1798 99.0977 88.1996 98.9977 88.1994ZM102.186 135.143C101.998 135.144 101.816 135.075 101.676 134.951C101.537 134.826 101.449 134.654 101.431 134.469C100.264 122.413 99.4299 110.166 98.9259 98.0675C98.918 97.8693 98.9899 97.6761 99.1258 97.5304C99.2617 97.3847 99.4505 97.2984 99.6507 97.2903C99.851 97.2825 100.046 97.3536 100.194 97.4882C100.341 97.6227 100.428 97.8095 100.436 98.0077C100.93 110.077 101.772 122.295 102.939 134.323C102.958 134.52 102.897 134.717 102.769 134.869C102.642 135.022 102.459 135.119 102.259 135.137C102.235 135.141 102.21 135.143 102.186 135.143ZM192.563 152.013C192.521 152.013 192.478 152.009 192.436 152.001C192.34 151.986 192.246 151.951 192.161 151.899C192.078 151.846 192.004 151.779 191.948 151.699C191.889 151.618 191.849 151.529 191.827 151.432C191.804 151.336 191.802 151.237 191.817 151.14C193.371 142.069 194.637 132.832 195.579 123.678C195.59 123.579 195.619 123.484 195.666 123.397C195.715 123.311 195.779 123.234 195.855 123.172C195.932 123.109 196.023 123.063 196.117 123.034C196.213 123.006 196.313 122.997 196.411 123.007C196.511 123.017 196.608 123.046 196.695 123.093C196.783 123.14 196.861 123.203 196.923 123.28C196.987 123.356 197.032 123.445 197.063 123.539C197.091 123.633 197.1 123.733 197.089 123.831C196.145 133.015 194.873 142.287 193.314 151.391C193.284 151.566 193.193 151.725 193.055 151.839C192.918 151.953 192.742 152.015 192.563 152.013Z" fill="black"/>
<path d="M107.133 55.0284C105.271 55.7571 104.619 59.103 106.021 60.7416C107.422 62.3801 110.193 61.5202 110.764 59.2737C111.334 57.0271 109.401 54.4849 107.478 54.9222L107.133 55.0284Z" fill="#FACBDF"/>
<path d="M115.081 55.0135C112.426 55.7165 112.496 59.7998 114.991 60.3622C116.57 60.8368 118.508 59.7154 118.686 58.0772C118.863 56.439 117.779 54.3016 115.081 55.0135Z" fill="#1B5EC9"/>
<path d="M125.145 60.9413C124.513 60.9476 123.895 60.7644 123.374 60.4169C122.509 59.8316 122.091 58.6516 122.312 57.4108C122.501 56.3269 123.137 55.5311 124.015 55.2652C125.187 54.7112 126.422 54.7407 127.422 55.3723C128.345 55.9576 128.935 56.9824 128.873 57.9204C128.833 58.385 128.668 58.8309 128.394 59.213C127.803 60.0735 126.886 60.6699 125.845 60.8711C125.615 60.9166 125.38 60.94 125.145 60.9413ZM125.669 56.3435C125.307 56.3516 124.952 56.444 124.634 56.6131C124.587 56.6371 124.538 56.6556 124.486 56.6685C124.095 56.7719 123.877 57.2501 123.803 57.6638C123.69 58.3082 123.871 58.9563 124.237 59.2038C124.429 59.3245 124.644 59.4061 124.869 59.4438C125.095 59.4817 125.326 59.4746 125.548 59.4235C126.185 59.2994 126.747 58.9377 127.115 58.4153C127.242 58.2452 127.324 58.0464 127.352 57.8373C127.37 57.492 127.109 56.9436 126.585 56.6094C126.313 56.4353 125.995 56.343 125.669 56.3435ZM197.46 70.5505H197.439C167.485 69.8119 137.105 69.3134 107.143 69.0733C106.942 69.0733 106.749 68.9956 106.607 68.8571C106.465 68.7186 106.386 68.5306 106.386 68.3347C106.386 68.139 106.465 67.951 106.607 67.8125C106.749 67.674 106.942 67.5961 107.143 67.5961C137.113 67.8417 167.509 68.3347 197.466 69.0733C197.666 69.0759 197.859 69.156 197.999 69.2962C198.14 69.4365 198.217 69.6254 198.213 69.8212C198.211 70.0171 198.13 70.2039 197.986 70.3408C197.842 70.4776 197.648 70.5531 197.447 70.5505H197.46Z" fill="black"/>
<path d="M163.014 142.221C159.824 142.221 156.62 142.176 153.491 142.134C148.127 142.06 142.58 141.983 137.192 142.134C136.667 142.147 135.787 142.171 135.12 141.625C134.555 141.157 134.384 140.459 134.271 139.999L127.9 114.135C127.647 113.108 127.406 111.629 128.25 110.649C128.804 110.003 129.708 109.721 130.942 109.81C136.593 110.218 142.16 110.478 147.483 110.584C152.945 110.691 158.496 110.652 163.961 110.467C166.708 110.374 169.49 110.242 172.233 110.075C173.621 109.99 175.024 109.889 176.401 109.791C176.512 109.791 176.712 109.778 177.087 109.769L177.948 109.747C178.326 109.734 178.699 109.815 179.036 109.981C179.376 110.147 179.666 110.393 179.882 110.698C180.099 111.002 180.236 111.355 180.28 111.724C180.325 112.093 180.274 112.468 180.135 112.813C176.616 121.504 173.73 130.844 171.374 138.835C171.097 139.795 170.513 140.64 169.708 141.246C168.904 141.851 167.923 142.184 166.909 142.195C165.613 142.214 164.313 142.221 163.014 142.221ZM144.007 140.562C147.195 140.562 150.383 140.606 153.512 140.649C157.907 140.708 162.45 140.771 166.887 140.71C167.576 140.702 168.245 140.474 168.791 140.062C169.339 139.65 169.737 139.074 169.925 138.421C172.287 130.406 175.181 121.012 178.728 112.262C178.775 112.145 178.792 112.019 178.777 111.895C178.761 111.771 178.714 111.652 178.641 111.55C178.567 111.448 178.47 111.365 178.356 111.309C178.243 111.254 178.117 111.227 177.989 111.232L177.115 111.254C176.842 111.254 176.584 111.267 176.509 111.272C175.124 111.376 173.713 111.471 172.317 111.556C169.561 111.725 166.764 111.857 164.006 111.952C158.513 112.137 152.941 112.176 147.445 112.069C142.095 111.963 136.503 111.697 130.823 111.291C130.326 111.256 129.674 111.291 129.392 111.608C129.19 111.844 129.015 112.414 129.358 113.782L135.744 139.645C135.815 139.936 135.913 140.333 136.102 140.487C136.29 140.641 136.729 140.658 137.151 140.647C139.419 140.586 141.713 140.562 144.007 140.562Z" fill="#1B5EC9"/>
<path d="M141.808 136.622C141.624 136.623 141.446 136.557 141.309 136.439C141.173 136.321 141.087 136.158 141.07 135.983C140.147 126.86 139.04 117.622 137.748 108.547C137.735 108.456 137.741 108.362 137.766 108.272C137.791 108.183 137.834 108.099 137.893 108.025C137.952 107.951 138.025 107.889 138.109 107.842C138.193 107.796 138.285 107.765 138.381 107.753C138.477 107.74 138.575 107.746 138.669 107.77C138.762 107.794 138.85 107.835 138.927 107.891C139.005 107.947 139.069 108.018 139.118 108.098C139.167 108.178 139.199 108.267 139.212 108.358C140.49 117.459 141.61 126.707 142.533 135.847C142.552 136.033 142.493 136.219 142.369 136.364C142.245 136.508 142.065 136.6 141.871 136.618L141.808 136.622ZM152.104 133.338C151.915 133.338 151.733 133.269 151.596 133.145C151.46 133.021 151.377 132.851 151.366 132.671C151.028 126.756 151.144 120.825 151.716 114.926C151.735 114.739 151.831 114.566 151.982 114.446C152.133 114.326 152.329 114.268 152.524 114.286C152.72 114.304 152.901 114.395 153.026 114.54C153.152 114.685 153.211 114.871 153.192 115.059C152.628 120.887 152.511 126.748 152.845 132.593C152.851 132.686 152.838 132.778 152.807 132.866C152.773 132.954 152.724 133.034 152.659 133.103C152.594 133.173 152.517 133.229 152.428 133.269C152.342 133.309 152.248 133.333 152.15 133.338H152.104ZM162.289 133.333C162.18 133.333 162.072 133.309 161.972 133.264C161.872 133.219 161.786 133.154 161.717 133.072C161.647 132.991 161.597 132.895 161.572 132.793C161.546 132.691 161.544 132.585 161.566 132.482C163.516 123.63 165.557 114.668 167.633 105.845C167.652 105.751 167.688 105.662 167.744 105.583C167.799 105.503 167.869 105.436 167.952 105.383C168.035 105.331 168.128 105.295 168.225 105.277C168.323 105.26 168.425 105.262 168.521 105.283C168.618 105.304 168.709 105.343 168.79 105.399C168.871 105.454 168.939 105.525 168.991 105.606C169.043 105.687 169.076 105.777 169.091 105.872C169.104 105.966 169.098 106.062 169.072 106.154C167 114.972 164.959 123.928 163.011 132.773C162.976 132.931 162.885 133.073 162.754 133.175C162.623 133.277 162.459 133.333 162.289 133.333Z" fill="#1B5EC9"/>
<path d="M160.673 121.429C155.652 121.429 150.656 121.358 145.528 121.286C139.246 121.196 132.751 121.094 126.088 121.153C125.89 121.153 125.699 121.072 125.559 120.927C125.419 120.783 125.34 120.586 125.34 120.382C125.34 120.177 125.419 119.981 125.559 119.836C125.699 119.692 125.89 119.611 126.088 119.611C132.766 119.56 139.271 119.653 145.56 119.744C156.608 119.9 167.046 120.05 178.391 119.495C178.49 119.49 178.587 119.505 178.681 119.539C178.772 119.574 178.859 119.627 178.932 119.695C179.004 119.763 179.062 119.845 179.106 119.937C179.147 120.029 179.171 120.128 179.175 120.23C179.18 120.331 179.165 120.432 179.132 120.528C179.098 120.623 179.048 120.711 178.982 120.786C178.915 120.861 178.836 120.922 178.746 120.965C178.656 121.008 178.561 121.033 178.462 121.038C172.336 121.329 166.488 121.429 160.673 121.429ZM129.561 132.141C129.463 132.146 129.365 132.131 129.272 132.097C129.179 132.062 129.094 132.01 129.021 131.941C128.949 131.873 128.89 131.791 128.848 131.699C128.806 131.607 128.782 131.508 128.777 131.407C128.772 131.305 128.787 131.204 128.82 131.109C128.854 131.013 128.905 130.926 128.971 130.85C129.037 130.775 129.117 130.715 129.206 130.671C129.295 130.628 129.392 130.604 129.49 130.599C142.471 129.306 155.525 128.972 168.55 129.602C168.649 129.607 168.745 129.631 168.835 129.674C168.924 129.718 169.003 129.778 169.07 129.853C169.136 129.929 169.186 130.016 169.22 130.112C169.254 130.207 169.269 130.308 169.263 130.41C169.259 130.511 169.235 130.61 169.194 130.702C169.151 130.794 169.093 130.876 169.02 130.944C168.947 131.013 168.861 131.065 168.769 131.1C168.676 131.134 168.578 131.149 168.479 131.144C155.525 130.519 142.543 130.85 129.634 132.136L129.561 132.141ZM128.347 113.438C128.176 113.437 128.01 113.376 127.878 113.266C127.745 113.155 127.653 113 127.617 112.828C126.35 106.748 125.237 102.264 124.062 97.5184C123.25 94.2401 122.409 90.8538 121.442 86.6575C121.399 86.4674 121.32 86.2879 121.208 86.1299C121.096 85.9718 120.955 85.8385 120.793 85.7377C120.631 85.6359 120.45 85.5684 120.262 85.5393C120.074 85.5101 119.882 85.52 119.698 85.568L116.826 86.3316C115.948 86.5631 115.316 86.7308 115.161 86.7675C115.064 86.7933 114.963 86.7989 114.864 86.7841C114.766 86.769 114.671 86.7339 114.585 86.6805C114.5 86.6273 114.426 86.5569 114.367 86.4736C114.308 86.3903 114.267 86.2956 114.244 86.1953C114.221 86.095 114.219 85.9913 114.235 85.8898C114.252 85.7884 114.289 85.6914 114.343 85.6048C114.397 85.518 114.467 85.4434 114.549 85.3852C114.631 85.3267 114.724 85.2861 114.822 85.2652C114.958 85.2325 115.651 85.0492 116.454 84.8371L119.328 84.0812C119.704 83.983 120.096 83.9628 120.48 84.0218C120.863 84.081 121.232 84.2181 121.564 84.4254C121.896 84.6325 122.185 84.9058 122.414 85.2292C122.642 85.5524 122.806 85.9194 122.896 86.3085C123.858 90.4932 124.698 93.8737 125.516 97.1443C126.698 101.906 127.813 106.401 129.088 112.512C129.129 112.712 129.092 112.921 128.985 113.093C128.877 113.264 128.707 113.385 128.513 113.428C128.458 113.437 128.402 113.441 128.347 113.438Z" fill="#1B5EC9"/>
<path d="M109.738 91.3778C109.257 91.3833 108.778 91.2914 108.333 91.108C106.803 90.4576 106.008 88.561 106.563 86.878C107.003 85.5398 107.96 84.4978 109.409 83.7818H109.424C110.857 83.109 112.334 82.5342 113.845 82.0613C114.532 81.8477 115.268 81.6509 116.052 81.8027C117.834 82.1494 118.848 83.988 118.908 86.9829C118.92 87.532 118.94 88.5572 118.222 89.2207C117.843 89.5327 117.389 89.7408 116.905 89.8242L111.701 91.078C111.061 91.2558 110.402 91.3567 109.738 91.3778ZM110.071 85.1312C109.001 85.6616 108.301 86.4075 107.992 87.3484C107.684 88.2892 108.12 89.3912 108.922 89.7304C109.578 90.0097 110.404 89.8448 111.336 89.6199L116.541 88.366C116.773 88.3306 116.995 88.2476 117.192 88.1224C117.416 87.9144 117.405 87.3278 117.397 87.0129C117.377 85.9802 117.175 83.5494 115.759 83.2758C115.319 83.1896 114.818 83.3302 114.289 83.4932C112.848 83.943 111.438 84.4903 110.071 85.1312ZM132.242 174.236C131.732 174.24 131.228 174.135 130.761 173.93C129.497 173.378 128.629 172.135 128.441 170.604C128.253 169.073 128.791 167.658 129.882 166.816C129.925 166.786 129.97 166.758 130.018 166.734C130.055 166.696 130.096 166.662 130.14 166.632C131.292 165.883 132.812 165.826 134.204 166.499C135.596 167.172 136.497 168.392 136.614 169.762C136.731 171.132 136.05 172.485 134.789 173.381C134.05 173.925 133.159 174.223 132.242 174.236ZM130.88 167.935C130.856 167.959 130.831 167.984 130.804 168.002C130.146 168.508 129.813 169.436 129.935 170.422C130.057 171.408 130.605 172.225 131.367 172.558C132.129 172.892 133.103 172.746 133.914 172.161C134.725 171.576 135.184 170.712 135.115 169.888C135.045 169.063 134.443 168.282 133.547 167.849C132.652 167.416 131.666 167.429 130.968 167.884C130.94 167.903 130.91 167.92 130.88 167.935ZM172.64 174.695C171.671 174.721 170.721 174.41 169.957 173.812C168.641 172.725 168.287 170.626 169.145 169.039C169.897 167.646 171.434 166.709 173.165 166.58C174.313 166.308 175.722 166.713 176.779 167.629C177.701 168.428 178.16 169.455 178.036 170.441C177.79 172.431 176.027 174.135 173.75 174.583C173.385 174.656 173.015 174.693 172.64 174.695ZM173.903 167.995C173.76 167.995 173.619 168.014 173.479 168.047C173.432 168.062 173.382 168.07 173.331 168.072C172.104 168.147 170.981 168.805 170.471 169.758C169.961 170.712 170.149 172.032 170.917 172.667C171.512 173.158 172.437 173.323 173.459 173.123C174.849 172.849 176.356 171.781 176.542 170.268C176.604 169.783 176.33 169.236 175.79 168.769C175.269 168.304 174.603 168.032 173.903 167.999V167.995ZM138.814 166.003C138.661 166.003 138.512 165.956 138.387 165.87C138.262 165.783 138.166 165.66 138.112 165.517C138.058 165.375 138.049 165.219 138.086 165.073C138.123 164.925 138.204 164.792 138.319 164.691C144.093 159.66 149.445 155.732 155.111 151.572C158.018 149.437 161.025 147.232 164.167 144.814C164.246 144.754 164.336 144.71 164.43 144.684C164.526 144.658 164.626 144.652 164.723 144.664C164.821 144.677 164.917 144.709 165.002 144.757C165.088 144.807 165.164 144.872 165.224 144.95C165.284 145.028 165.329 145.117 165.354 145.212C165.38 145.307 165.388 145.407 165.374 145.504C165.361 145.602 165.329 145.696 165.28 145.782C165.231 145.867 165.166 145.942 165.087 146.002C161.93 148.439 158.917 150.64 156.003 152.779C150.359 156.917 145.037 160.826 139.31 165.817C139.173 165.937 138.996 166.005 138.814 166.003Z" fill="#1B5EC9"/>
<path d="M166.075 166.852C165.903 166.852 165.733 166.8 165.596 166.7L138.044 146.878C137.88 146.76 137.774 146.587 137.748 146.396C137.722 146.205 137.779 146.013 137.906 145.861C138.034 145.709 138.221 145.61 138.427 145.586C138.633 145.562 138.84 145.615 139.004 145.733L166.554 165.56C166.683 165.654 166.777 165.781 166.824 165.926C166.871 166.071 166.869 166.225 166.816 166.368C166.764 166.512 166.664 166.635 166.531 166.724C166.398 166.811 166.24 166.858 166.075 166.858V166.852Z" fill="#1B5EC9"/>
<path d="M263.549 169.097C263.224 169.097 262.903 169.007 262.625 168.833C262.344 168.661 262.115 168.413 261.961 168.117C254.808 154.685 246.153 143.599 236.251 135.151C237.296 138.665 238.285 142.21 239.198 145.722C239.341 146.266 239.534 147.013 239.343 147.767C239.121 148.646 238.27 149.449 237.28 149.214C236.546 149.042 236.15 148.383 235.935 148.028C231.387 140.534 227.491 132.639 224.298 124.436C223.7 122.901 223.931 121.638 224.896 121.141C225.296 120.958 225.738 120.9 226.169 120.977C227.735 121.157 229.155 121.78 230.527 122.383L248.851 130.432C248.887 130.447 252.372 132.286 251.954 133.787C251.664 134.832 250.252 134.603 249.649 134.505C248.181 134.295 246.841 133.889 245.538 133.496C244.651 133.229 243.735 132.952 242.787 132.74C241.687 132.492 240.566 132.22 239.447 131.925C240.093 132.557 240.797 133.222 241.448 133.838C241.949 134.309 242.428 134.762 242.85 135.161C248.234 140.338 253.018 146.143 257.1 152.458L258.461 154.56C259.947 156.858 261.029 158.529 262.478 160.714C263.285 161.931 265.137 165.189 265.383 166.941C265.449 167.378 265.361 167.824 265.135 168.198C264.91 168.574 264.563 168.854 264.154 168.988C263.96 169.06 263.756 169.096 263.549 169.097ZM234.846 132.283C235.011 132.283 235.172 132.341 235.301 132.447C235.484 132.589 235.651 132.725 235.82 132.857C236.023 133.018 236.219 133.171 236.396 133.32C246.773 141.972 255.806 153.434 263.246 167.389C263.285 167.47 263.349 167.533 263.432 167.565C263.512 167.597 263.602 167.597 263.681 167.561C263.764 167.54 263.835 167.487 263.879 167.413C263.923 167.34 263.94 167.251 263.921 167.164C263.749 165.928 262.254 163.076 261.258 161.575C259.791 159.372 258.72 157.709 257.223 155.405L255.864 153.305C251.846 147.088 247.138 141.373 241.837 136.276C241.419 135.873 240.944 135.424 240.449 134.953C239.392 133.957 238.195 132.825 237.313 131.903C237.111 131.691 236.911 131.46 236.7 131.217L236.498 130.984C236.394 130.862 236.328 130.708 236.315 130.545C236.3 130.382 236.339 130.219 236.423 130.08C236.506 129.941 236.632 129.834 236.781 129.775C236.927 129.716 237.091 129.708 237.243 129.752C239.192 130.319 241.16 130.831 243.09 131.264C244.093 131.489 245.036 131.772 245.947 132.048C247.255 132.443 248.491 132.815 249.859 133.012L250.004 133.035C249.476 132.562 248.895 132.156 248.271 131.825L229.96 123.774C228.676 123.207 227.368 122.64 226.015 122.479C225.864 122.451 225.71 122.455 225.562 122.493C225.389 122.582 225.389 123.158 225.668 123.874C228.83 131.994 232.685 139.809 237.188 147.226C237.269 147.358 237.481 147.708 237.617 147.74C237.672 147.753 237.876 147.612 237.932 147.385C238.019 147.045 237.923 146.629 237.791 146.113C236.678 141.842 235.455 137.52 234.156 133.262C234.121 133.148 234.114 133.028 234.132 132.911C234.151 132.794 234.196 132.682 234.264 132.586C234.332 132.491 234.42 132.413 234.523 132.359C234.626 132.305 234.739 132.277 234.855 132.277L234.846 132.283Z" fill="black"/>
<path d="M78.2933 171.374C79.7584 171.732 80.6265 171.891 82.0006 172.518C85.2962 174.028 88.4253 175.881 91.3369 178.047C92.2979 178.764 93.2702 179.559 93.7478 180.663C94.7959 183.081 93.0863 185.782 91.2384 187.653C86.6233 192.319 80.6985 195.396 74.878 198.399C72.8064 199.467 67.7857 198.353 68.4433 198.763C70.0961 199.793 64.8801 199.438 64.9522 197.619C65.4013 186.179 67.4578 184.324 69.916 179.328C71.4702 176.192 76.1137 170.842 78.2933 171.374Z" fill="#3982F0"/>
<path d="M68.514 199.333C68.2892 199.333 68.0797 199.333 67.8855 199.308C67.0114 199.226 66.4477 198.954 66.1715 198.477C66.0978 198.353 66.0633 198.21 66.0725 198.066C66.1582 196.718 66.4857 195.795 68.295 193.559C68.4197 193.406 68.6025 193.307 68.8032 193.283C69.004 193.259 69.206 193.314 69.3652 193.434C69.5243 193.555 69.6273 193.732 69.6517 193.926C69.6759 194.121 69.6195 194.316 69.4947 194.469C68.0664 196.233 67.7312 196.957 67.6265 197.784C68.514 198.064 71.8848 197.712 76.6592 195.902C82.262 193.776 87.1831 190.634 90.1654 187.28C90.6893 186.693 91.0662 185.996 91.2666 185.245C91.4671 184.494 91.4858 183.709 91.3214 182.948C91.1696 182.259 90.8531 181.613 90.3972 181.064C89.9411 180.513 89.3582 180.075 88.6952 179.78C87.802 179.384 86.8993 179.351 85.1587 180.406C82.7629 181.854 79.9405 183.985 77.2039 186.38C77.1306 186.448 77.0439 186.501 76.9493 186.536C76.8544 186.571 76.7535 186.588 76.652 186.584C76.5507 186.58 76.4511 186.558 76.3589 186.518C76.2667 186.475 76.1841 186.418 76.1155 186.345C76.0471 186.273 75.9942 186.188 75.9601 186.096C75.926 186.004 75.9113 185.904 75.9169 185.807C75.9224 185.709 75.9481 185.613 75.9927 185.525C76.037 185.437 76.0991 185.359 76.1755 185.293C78.9788 182.83 81.8774 180.651 84.3436 179.158C86.2956 177.973 87.7868 177.76 89.3237 178.441C90.2014 178.83 90.9731 179.41 91.577 180.139C92.1809 180.867 92.6001 181.722 92.8012 182.633C93.0162 183.617 92.9939 184.634 92.736 185.606C92.478 186.578 91.9912 187.479 91.3138 188.24C85.2082 195.112 73.395 199.333 68.514 199.333Z" fill="black"/>
<path d="M73.5217 190.375C73.3809 190.376 73.2431 190.335 73.1248 190.261C73.0066 190.186 72.9128 190.078 72.8549 189.952C72.797 189.826 72.7775 189.686 72.7985 189.549C72.8195 189.411 72.8803 189.283 72.9737 189.179C73.6533 188.423 73.8415 188.242 74.3457 187.76L74.9321 187.197C75.0719 187.075 75.2545 187.01 75.4422 187.015C75.6296 187.021 75.8077 187.098 75.9394 187.229C76.0712 187.361 76.1466 187.537 76.1497 187.722C76.153 187.905 76.084 188.085 75.957 188.22L75.3651 188.792C74.8755 189.26 74.711 189.418 74.0662 190.134C73.9976 190.209 73.9138 190.27 73.8201 190.312C73.7262 190.353 73.6246 190.375 73.5217 190.375Z" fill="black"/>
<path d="M62.8957 183.098C60.3071 178.096 56.6884 173.546 51.948 170.889C51.1912 170.463 50.3409 170.079 49.5032 170.265C48.5846 170.469 47.9195 171.298 47.3658 172.106C42.8069 178.77 38.5483 189.491 39.2763 197.706C39.5286 198.689 40.0538 199.566 40.7828 200.222C41.1709 200.518 41.6014 200.741 42.0573 200.886C43.2294 201.316 44.7682 201.608 45.5268 201.57C51.4195 201.263 54.5151 201.608 60.4006 201.303C62.1497 201.213 65.2884 198.677 65.2273 199.355C65.1607 200.096 65.9463 198.011 65.9463 198.011C66.624 195.082 64.3896 185.991 62.8957 183.098Z" fill="#3982F0"/>
<path d="M55.2515 201.572C55.0637 201.584 54.8798 201.509 54.7404 201.369C54.601 201.23 54.5176 201.033 54.5084 200.825C54.4994 200.617 54.5653 200.412 54.6916 200.257C54.818 200.104 54.9946 200.011 55.1824 199.999C60.6734 199.396 64.0867 198.231 64.6145 197.578C64.5242 197.476 64.285 197.266 63.6952 196.989C62.032 196.202 60.3298 195.302 58.6966 194.434C55.5862 192.775 52.3713 191.059 49.1316 190.057C46.8981 189.363 44.7884 189.725 43.1872 191.071C41.5859 192.417 40.6082 194.673 40.6064 197.073C40.6084 197.336 40.6599 197.598 40.7579 197.838C40.8558 198.077 40.9979 198.292 41.175 198.467C41.5913 198.919 42.2378 199.31 43.0738 199.646C43.1732 199.669 43.2671 199.715 43.3493 199.779C43.4315 199.844 43.5 199.929 43.5505 200.027C43.6008 200.123 43.6318 200.231 43.6414 200.343C43.6507 200.455 43.6385 200.569 43.6056 200.676C43.5725 200.782 43.5193 200.878 43.4495 200.959C43.3799 201.041 43.2952 201.104 43.2014 201.147C43.1075 201.189 43.0067 201.208 42.9056 201.202C42.8044 201.198 42.7054 201.169 42.6151 201.118C41.5735 200.725 40.7588 200.204 40.1919 199.591C39.8777 199.27 39.6267 198.881 39.4551 198.447C39.2834 198.013 39.1949 197.545 39.1947 197.069C39.1947 194.182 40.3708 191.47 42.337 189.815C44.3031 188.16 46.8485 187.712 49.5178 188.54C52.8726 189.579 56.146 191.327 59.3113 193.015C60.9355 193.881 62.6147 194.784 64.2461 195.544C64.7385 195.774 66.2352 196.476 66.0563 197.781C65.9111 198.846 64.6677 199.644 62.0249 200.367C59.8175 200.933 57.5782 201.336 55.3223 201.568L55.2515 201.572Z" fill="black"/>
<path d="M65.3278 198.214H65.3053C65.2067 198.212 65.1098 198.191 65.0196 198.149C64.9296 198.109 64.8482 198.05 64.7803 197.978C64.7125 197.905 64.6592 197.82 64.6239 197.726C64.5885 197.633 64.5714 197.534 64.5741 197.433C64.6191 195.555 61.0284 190.417 57.0422 186.652C54.6365 184.382 53.3465 183.841 52.9565 183.877C52.8579 183.887 52.7585 183.877 52.664 183.849C52.5693 183.818 52.4814 183.771 52.4049 183.708C52.3286 183.643 52.2654 183.565 52.2189 183.476C52.1726 183.386 52.1437 183.289 52.1343 183.19C52.1248 183.089 52.1347 182.989 52.1638 182.894C52.1926 182.796 52.2399 182.709 52.3029 182.631C52.3659 182.553 52.4431 182.488 52.5305 182.443C52.6179 182.395 52.7135 182.364 52.8122 182.355C53.9503 182.243 55.7147 183.306 58.0622 185.529C61.3341 188.619 66.1416 194.549 66.0703 197.464C66.0673 197.664 65.988 197.852 65.8493 197.993C65.7105 198.134 65.5234 198.212 65.3278 198.214ZM46.664 178.757C46.6136 178.757 46.5635 178.753 46.514 178.741C46.4174 178.722 46.3257 178.682 46.244 178.627C46.1624 178.572 46.0925 178.5 46.0381 178.416C45.9837 178.332 45.9462 178.239 45.9275 178.142C45.9087 178.043 45.9093 177.942 45.929 177.843C46.1159 177.002 46.5633 176.243 47.2059 175.676C47.8486 175.111 48.6528 174.768 49.5009 174.698C49.5993 174.692 49.6979 174.707 49.7911 174.74C49.8845 174.772 49.9704 174.823 50.0441 174.89C50.1178 174.957 50.1779 175.037 50.2209 175.128C50.264 175.217 50.2891 175.314 50.2949 175.415C50.3008 175.514 50.2871 175.615 50.2546 175.71C50.2224 175.805 50.172 175.891 50.1063 175.967C50.0409 176.041 49.9614 176.102 49.8727 176.146C49.7838 176.19 49.6874 176.214 49.589 176.22C49.0704 176.268 48.5797 176.481 48.1867 176.827C47.7935 177.173 47.5179 177.636 47.399 178.15C47.3639 178.323 47.2719 178.477 47.1378 178.587C47.0039 178.698 46.8367 178.759 46.664 178.757Z" fill="black"/>
<path d="M275.623 217.696C280.157 213.279 276.613 208.764 271.939 205.901C252.947 193.127 238.859 174.174 220.828 160.054C216.632 156.063 212.326 158.12 208.846 162.12C198.174 173.736 186.566 184.693 176.228 196.568C175.292 197.633 174.753 198.995 174.7 200.417C174.65 201.839 175.092 203.236 175.947 204.365C179.068 208.42 185.563 212.042 188.426 214.375C194.81 219.175 201.087 224.114 207.258 229.192C216.514 236.801 225.512 244.715 234.251 252.936C240.776 260.025 245.029 255.155 249.523 249.078L275.623 217.696Z" fill="#3982F0"/>
<path d="M216.174 178.156C216.308 180.937 219.717 183.101 222.362 182.404C225.006 181.706 226.514 178.779 226.158 175.998C226.1 175.363 225.895 174.755 225.56 174.227C225.106 173.62 224.505 173.159 223.822 172.894C220.519 171.468 216.461 173.703 216.131 177.121L216.174 178.156Z" fill="white"/>
<path d="M219.428 175.737C220.436 174.223 220.867 172.348 220.455 170.56C219.301 165.618 212.748 165.741 211.036 170.228C208.582 175.638 215.687 181.372 219.428 175.737Z" fill="#FACBDF"/>
<path d="M250.645 253.086C250.233 253.086 249.824 252.997 249.447 252.825C249.072 252.653 248.736 252.403 248.464 252.092C244.172 247.194 239.188 242.067 233.642 236.853L214.422 218.786L212.081 216.579C202.109 207.19 191.797 197.48 180.497 189.603C180.131 189.347 179.825 189.014 179.599 188.627C179.373 188.241 179.233 187.811 179.19 187.367C179.147 186.921 179.202 186.471 179.347 186.05C179.494 185.626 179.73 185.24 180.039 184.918C180.814 184.114 181.607 183.274 182.372 182.461C183.137 181.648 183.954 180.783 184.717 179.992C185.214 179.484 185.889 179.19 186.598 179.177C187.307 179.162 187.994 179.428 188.509 179.915L189.487 180.848C193.297 184.477 200.39 191.235 204.268 194.824L251.291 238.331C251.699 238.704 252.114 239.077 252.528 239.45C253.34 240.183 254.179 240.942 254.974 241.727C255.245 241.996 255.779 242.46 256.516 243.072C256.81 243.318 257.053 243.619 257.232 243.956C257.409 244.296 257.52 244.667 257.553 245.047C257.589 245.428 257.548 245.812 257.434 246.178C257.32 246.543 257.135 246.883 256.889 247.175C255.726 248.557 254.09 250.52 252.869 252.01C252.606 252.334 252.276 252.597 251.899 252.78C251.524 252.963 251.112 253.062 250.694 253.069L250.645 253.086ZM186.641 180.659C186.481 180.661 186.322 180.695 186.175 180.76C186.029 180.824 185.895 180.917 185.785 181.032C185.027 181.818 184.227 182.668 183.45 183.489C182.674 184.31 181.887 185.149 181.107 185.958C180.948 186.126 180.825 186.326 180.75 186.544C180.674 186.764 180.646 186.995 180.668 187.227C180.691 187.456 180.763 187.678 180.881 187.88C180.997 188.079 181.155 188.251 181.344 188.383C192.726 196.323 203.085 206.072 213.096 215.499L215.437 217.704L234.657 235.772C240.238 241.018 245.258 246.181 249.585 251.115C249.722 251.269 249.888 251.393 250.074 251.476C250.263 251.56 250.466 251.601 250.669 251.598C250.871 251.596 251.069 251.549 251.25 251.462C251.429 251.374 251.588 251.247 251.713 251.089C252.933 249.596 254.582 247.621 255.749 246.239C255.87 246.097 255.96 245.933 256.016 245.754C256.072 245.577 256.092 245.39 256.073 245.204C256.058 245.017 256.004 244.835 255.919 244.669C255.831 244.503 255.711 244.355 255.566 244.234C254.784 243.587 254.234 243.115 253.927 242.803C253.157 242.041 252.33 241.293 251.53 240.565C251.112 240.192 250.694 239.819 250.281 239.427L203.258 195.92C199.371 192.324 192.273 185.563 188.461 181.931L187.485 180.999C187.261 180.783 186.962 180.661 186.649 180.659H186.641Z" fill="black"/>
<path d="M252.87 212.632C252.402 212.201 251.883 211.75 251.26 211.669C250.571 211.57 249.906 211.917 249.32 212.285C247.181 213.631 245.337 215.378 243.895 217.425C243.459 218.046 243.048 218.73 243.011 219.483C242.943 220.804 244.009 221.892 245.018 222.777C247.492 224.949 250.095 226.976 252.813 228.848C253.259 229.154 253.729 229.466 254.267 229.547C255.114 229.676 255.929 229.216 256.636 228.736C258.568 227.42 262.181 224.962 262.041 222.322C261.919 219.985 258.597 217.924 257.038 216.485L252.87 212.632Z" fill="#FF5400"/>
<path d="M261.258 222.971C261.221 222.975 261.185 222.975 261.148 222.971C260.089 222.809 258.774 222.658 257.032 222.493C256.838 222.477 256.659 222.379 256.535 222.226C256.411 222.075 256.35 221.877 256.369 221.679C256.385 221.481 256.48 221.298 256.63 221.172C256.78 221.045 256.971 220.983 257.165 221C258.942 221.164 260.27 221.321 261.365 221.487C261.559 221.502 261.74 221.595 261.868 221.745C261.994 221.896 262.058 222.092 262.043 222.29C262.028 222.488 261.937 222.673 261.791 222.801C261.643 222.932 261.451 222.996 261.258 222.981V222.971ZM254.922 229.569C254.774 229.569 254.632 229.524 254.509 229.439C254.387 229.353 254.294 229.231 254.241 229.089C254.058 228.604 253.85 227.783 253.647 226.969C253.514 226.436 253.331 225.708 253.258 225.538C253.163 225.367 253.14 225.161 253.193 224.971C253.246 224.779 253.372 224.616 253.54 224.519C253.709 224.422 253.91 224.398 254.097 224.452C254.285 224.506 254.442 224.635 254.537 224.807C254.67 225.044 254.789 225.486 255.068 226.597C255.251 227.325 255.457 228.148 255.616 228.555C255.66 228.669 255.675 228.791 255.66 228.912C255.645 229.032 255.603 229.147 255.536 229.246C255.468 229.347 255.379 229.427 255.275 229.485C255.169 229.541 255.052 229.571 254.933 229.569H254.922ZM251.324 217.346H251.299C251.105 217.34 250.922 217.255 250.791 217.111C250.659 216.965 250.588 216.773 250.594 216.575C250.594 216.446 250.594 216.002 250.594 215.531C250.583 214.852 250.57 214.008 250.575 213.351C250.575 213.11 250.575 212.763 250.557 212.417C250.532 211.579 250.528 211.297 250.579 211.086C250.628 210.901 250.745 210.741 250.908 210.64C251.069 210.541 251.262 210.507 251.447 210.55C251.629 210.593 251.792 210.705 251.896 210.868C252 211.028 252.038 211.224 252.004 211.413C251.993 211.551 252.004 212.044 252.016 212.372C252.029 212.701 252.038 213.084 252.037 213.354C252.037 213.993 252.037 214.827 252.053 215.5C252.053 216.106 252.068 216.457 252.053 216.62C252.049 216.814 251.969 216.999 251.834 217.135C251.697 217.269 251.514 217.346 251.324 217.346ZM251.993 211.433C251.993 211.444 251.993 211.454 251.993 211.465C251.993 211.476 251.989 211.446 251.993 211.433ZM247.798 220.188C247.743 220.189 247.686 220.182 247.631 220.169C247.241 220.076 246.813 219.969 246.384 219.865C245.332 219.603 244.141 219.304 243.668 219.262C243.475 219.243 243.298 219.146 243.173 218.991C243.051 218.836 242.993 218.64 243.011 218.44C243.031 218.242 243.126 218.061 243.277 217.934C243.427 217.809 243.621 217.749 243.814 217.768C244.388 217.826 245.524 218.108 246.737 218.405C247.16 218.509 247.584 218.614 247.969 218.705C248.145 218.746 248.3 218.853 248.404 219.002C248.508 219.151 248.554 219.334 248.534 219.517C248.514 219.7 248.428 219.868 248.294 219.992C248.161 220.113 247.988 220.18 247.807 220.18L247.798 220.188Z" fill="white"/>
<path d="M253.825 226.21C253.698 226.21 253.574 226.174 253.463 226.108C252.753 225.677 251.041 224.232 250.199 223.294C249.837 222.89 249.434 222.517 249.011 222.123C248.545 221.705 248.1 221.26 247.675 220.793C247.56 220.661 247.493 220.491 247.487 220.312C247.48 220.134 247.536 219.96 247.643 219.819C248.162 219.143 250.174 216.828 250.945 216.265C251.077 216.171 251.236 216.124 251.397 216.132C251.558 216.141 251.71 216.205 251.831 216.314C251.844 216.327 253.097 217.458 253.691 217.956C253.906 218.143 254.906 219.138 255.669 219.922C257.552 221.857 257.554 221.948 257.565 222.288C257.569 222.397 257.549 222.506 257.507 222.605C257.466 222.707 257.406 222.797 257.328 222.87C256.499 223.658 255.783 224.433 255.159 225.121C254.87 225.435 254.601 225.727 254.347 225.99C254.279 226.061 254.197 226.118 254.109 226.155C254.018 226.193 253.923 226.212 253.825 226.21ZM249.179 220.254C249.432 220.507 249.698 220.755 249.973 221.005C250.401 221.404 250.844 221.817 251.251 222.269C252.021 223.074 252.849 223.815 253.729 224.483L254.105 224.076C254.622 223.513 255.19 222.896 255.846 222.249C255.004 221.329 253.059 219.361 252.773 219.121C252.395 218.802 251.773 218.25 251.345 217.867C250.732 218.474 249.78 219.545 249.179 220.258V220.254Z" fill="white"/>
</svg>
