<svg width="65" height="65" viewBox="0 0 65 65" fill="none" xmlns="http://www.w3.org/2000/svg">
<path d="M1.90428 20.298C2.95595 20.298 3.80857 19.4454 3.80857 18.3937V7.62113C3.80857 5.51891 5.51887 3.8086 7.62119 3.8086H18.3446C19.3963 3.8086 20.2489 2.95598 20.2489 1.9043C20.2489 0.852618 19.3963 0 18.3446 0H7.62119C3.41882 0 0 3.41885 0 7.62113V18.3936C0 19.4454 0.852611 20.298 1.90428 20.298Z" fill="white"/>
<path d="M18.3446 61.1916H7.62119C5.51887 61.1916 3.80857 59.4813 3.80857 57.3791V46.642C3.80857 45.5904 2.95595 44.7377 1.90428 44.7377C0.852611 44.7377 0 45.5904 0 46.642V57.3791C0 61.5814 3.41882 65.0002 7.62119 65.0002H18.3446C19.3963 65.0002 20.2489 64.1476 20.2489 63.0959C20.2489 62.0443 19.3963 61.1916 18.3446 61.1916Z" fill="white"/>
<path d="M63.0958 44.7377C62.0441 44.7377 61.1915 45.5904 61.1915 46.642V57.3791C61.1915 59.4815 59.4812 61.1916 57.3789 61.1916H46.6631C45.6114 61.1916 44.7588 62.0443 44.7588 63.0959C44.7588 64.1476 45.6114 65.0002 46.6631 65.0002H57.3789C61.5812 65.0002 65.0001 61.5814 65.0001 57.3791V46.642C65.0001 45.5902 64.1474 44.7377 63.0958 44.7377Z" fill="white"/>
<path d="M57.3789 0H46.6631C45.6114 0 44.7588 0.852618 44.7588 1.9043C44.7588 2.95598 45.6114 3.8086 46.6631 3.8086H57.3789C59.4812 3.8086 61.1915 5.51891 61.1915 7.62113V18.3936C61.1915 19.4453 62.0441 20.2979 63.0958 20.2979C64.1474 20.2979 65.0001 19.4453 65.0001 18.3936V7.62113C65.0001 3.41885 61.5812 0 57.3789 0Z" fill="white"/>
<path d="M7.53784 9.97465V28.0756C7.53784 29.3798 8.59891 30.441 9.90321 30.441H28.0041C29.3082 30.441 30.3694 29.38 30.3694 28.0756V9.97465C30.3694 8.67045 29.3084 7.60925 28.0041 7.60925H9.90321C8.59891 7.60925 7.53784 8.67045 7.53784 9.97465ZM11.3464 11.4179H26.5607V26.6324H11.3464V11.4179Z" fill="white"/>
<path d="M36.9245 30.441H55.0253C56.3295 30.441 57.3907 29.38 57.3907 28.0756V9.97465C57.3907 8.67045 56.3296 7.60925 55.0253 7.60925H36.9245C35.6203 7.60925 34.5591 8.67033 34.5591 9.97465V28.0756C34.5591 29.38 35.6203 30.441 36.9245 30.441ZM38.3676 11.4179H53.5821V26.6324H38.3676V11.4179Z" fill="white"/>
<path d="M28.0385 34.5709H9.93764C8.63346 34.5709 7.57227 35.632 7.57227 36.9363V55.0373C7.57227 56.3415 8.63333 57.4027 9.93764 57.4027H28.0385C29.3427 57.4027 30.4038 56.3416 30.4038 55.0373V36.9363C30.4038 35.632 29.3428 34.5709 28.0385 34.5709ZM26.5953 53.594H11.3808V38.3795H26.5953V53.594Z" fill="white"/>
<path d="M46.8762 55.4976C46.8762 56.5493 47.7288 57.4019 48.7805 57.4019H55.0613C56.3655 57.4019 57.4267 56.3408 57.4267 55.0365V49.1282C57.4267 48.0765 56.5741 47.2239 55.5224 47.2239C54.4708 47.2239 53.6181 48.0765 53.6181 49.1282V53.5933H48.7805C47.7287 53.5933 46.8762 54.4459 46.8762 55.4976Z" fill="white"/>
<path d="M21.9293 13.7995H15.9755C14.7356 13.7995 13.7268 14.8083 13.7268 16.0483V22.0021C13.7268 23.2422 14.7356 24.251 15.9755 24.251H21.9293C23.1694 24.251 24.1781 23.2422 24.1781 22.0021V16.0483C24.1781 14.8083 23.1693 13.7995 21.9293 13.7995ZM20.3696 20.4424H17.5352V17.6081H20.3696V20.4424Z" fill="white"/>
<path d="M43.9431 42.7805C43.9431 41.7289 43.0904 40.8762 42.0388 40.8762H37.4585C36.134 40.8762 35.0564 41.9538 35.0564 43.2784V49.1282C35.0564 50.1799 35.909 51.0325 36.9607 51.0325C38.0124 51.0325 38.865 50.1799 38.865 49.1282V44.6848H42.0388C43.0904 44.6848 43.9431 43.8323 43.9431 42.7805Z" fill="white"/>
<path d="M36.4634 38.8397H48.0476V47.2238H43.2076C42.1559 47.2238 41.3033 48.0765 41.3033 49.1281C41.3033 50.1798 42.1559 51.0324 43.2076 51.0324H49.8131C50.9397 51.0324 51.8561 50.116 51.8561 48.9895V37.4333C51.8561 36.1087 50.7785 35.0311 49.4539 35.0311H36.4634C35.4117 35.0311 34.5591 35.8837 34.5591 36.9354C34.5591 37.9871 35.4117 38.8397 36.4634 38.8397Z" fill="white"/>
<path d="M55.4863 44.6846C56.538 44.6846 57.3906 43.832 57.3906 42.7803V36.9353C57.3906 35.8836 56.538 35.031 55.4863 35.031C54.4346 35.031 53.582 35.8836 53.582 36.9353V42.7803C53.582 43.8321 54.4346 44.6846 55.4863 44.6846Z" fill="white"/>
<path d="M45.5933 55.497C45.5933 54.4453 44.7407 53.5927 43.689 53.5927H36.4634C35.4117 53.5927 34.5591 54.4453 34.5591 55.497C34.5591 56.5487 35.4117 57.4013 36.4634 57.4013H43.689C44.7407 57.4013 45.5933 56.5488 45.5933 55.497Z" fill="white"/>
<path d="M48.9518 13.7995H42.998C41.758 13.7995 40.7493 14.8083 40.7493 16.0483V22.0021C40.7493 23.2422 41.758 24.251 42.998 24.251H48.9518C50.1918 24.251 51.2006 23.2422 51.2006 22.0021V16.0483C51.2006 14.8083 50.1918 13.7995 48.9518 13.7995ZM47.392 20.4424H44.5577V17.6081H47.392V20.4424Z" fill="white"/>
<path d="M15.9758 51.2116H21.9296C23.1696 51.2116 24.1784 50.2029 24.1784 48.9628V43.0089C24.1784 41.7689 23.1696 40.7601 21.9296 40.7601H15.9758C14.7358 40.7601 13.7271 41.7689 13.7271 43.0089V48.9628C13.7271 50.2027 14.7358 51.2116 15.9758 51.2116ZM17.5356 44.5686H20.3699V47.4029H17.5356V44.5686Z" fill="white"/>
</svg>
