<svg width="100" height="27" viewBox="0 0 100 27" fill="none" xmlns="http://www.w3.org/2000/svg">
<rect y="0.5" width="100" height="26" rx="13" fill="#053969"/>
<path d="M16.9942 17.5V10.05H18.1742V16.45H21.3942V17.5H16.9942ZM25.0148 17.62C24.4748 17.62 23.9948 17.4967 23.5748 17.25C23.1615 16.9967 22.8382 16.6567 22.6048 16.23C22.3715 15.7967 22.2548 15.3133 22.2548 14.78C22.2548 14.2333 22.3715 13.75 22.6048 13.33C22.8448 12.91 23.1648 12.58 23.5648 12.34C23.9648 12.0933 24.4182 11.97 24.9248 11.97C25.3315 11.97 25.6948 12.04 26.0148 12.18C26.3348 12.32 26.6048 12.5133 26.8248 12.76C27.0448 13 27.2115 13.2767 27.3248 13.59C27.4448 13.9033 27.5048 14.2367 27.5048 14.59C27.5048 14.6767 27.5015 14.7667 27.4948 14.86C27.4882 14.9533 27.4748 15.04 27.4548 15.12H23.1448V14.22H26.8148L26.2748 14.63C26.3415 14.3033 26.3182 14.0133 26.2048 13.76C26.0982 13.5 25.9315 13.2967 25.7048 13.15C25.4848 12.9967 25.2248 12.92 24.9248 12.92C24.6248 12.92 24.3582 12.9967 24.1248 13.15C23.8915 13.2967 23.7115 13.51 23.5848 13.79C23.4582 14.0633 23.4082 14.3967 23.4348 14.79C23.4015 15.1567 23.4515 15.4767 23.5848 15.75C23.7248 16.0233 23.9182 16.2367 24.1648 16.39C24.4182 16.5433 24.7048 16.62 25.0248 16.62C25.3515 16.62 25.6282 16.5467 25.8548 16.4C26.0882 16.2533 26.2715 16.0633 26.4048 15.83L27.3248 16.28C27.2182 16.5333 27.0515 16.7633 26.8248 16.97C26.6048 17.17 26.3382 17.33 26.0248 17.45C25.7182 17.5633 25.3815 17.62 25.0148 17.62ZM30.3788 17.62C30.0122 17.62 29.6888 17.5567 29.4088 17.43C29.1355 17.2967 28.9222 17.1167 28.7688 16.89C28.6155 16.6567 28.5388 16.3833 28.5388 16.07C28.5388 15.7767 28.6022 15.5133 28.7288 15.28C28.8622 15.0467 29.0655 14.85 29.3388 14.69C29.6122 14.53 29.9555 14.4167 30.3688 14.35L32.2488 14.04V14.93L30.5888 15.22C30.2888 15.2733 30.0688 15.37 29.9288 15.51C29.7888 15.6433 29.7188 15.8167 29.7188 16.03C29.7188 16.2367 29.7955 16.4067 29.9488 16.54C30.1088 16.6667 30.3122 16.73 30.5588 16.73C30.8655 16.73 31.1322 16.6633 31.3588 16.53C31.5922 16.3967 31.7722 16.22 31.8988 16C32.0255 15.7733 32.0888 15.5233 32.0888 15.25V13.86C32.0888 13.5933 31.9888 13.3767 31.7888 13.21C31.5955 13.0367 31.3355 12.95 31.0088 12.95C30.7088 12.95 30.4455 13.03 30.2188 13.19C29.9988 13.3433 29.8355 13.5433 29.7288 13.79L28.7888 13.32C28.8888 13.0533 29.0522 12.82 29.2788 12.62C29.5055 12.4133 29.7688 12.2533 30.0688 12.14C30.3755 12.0267 30.6988 11.97 31.0388 11.97C31.4655 11.97 31.8422 12.05 32.1688 12.21C32.5022 12.37 32.7588 12.5933 32.9388 12.88C33.1255 13.16 33.2188 13.4867 33.2188 13.86V17.5H32.1388V16.52L32.3688 16.55C32.2422 16.77 32.0788 16.96 31.8788 17.12C31.6855 17.28 31.4622 17.4033 31.2088 17.49C30.9622 17.5767 30.6855 17.62 30.3788 17.62ZM36.2124 17.5L34.0924 12.09H35.3224L36.9524 16.5H36.5024L38.1324 12.09H39.3724L37.2424 17.5H36.2124ZM42.7828 17.62C42.2428 17.62 41.7628 17.4967 41.3428 17.25C40.9295 16.9967 40.6061 16.6567 40.3728 16.23C40.1395 15.7967 40.0228 15.3133 40.0228 14.78C40.0228 14.2333 40.1395 13.75 40.3728 13.33C40.6128 12.91 40.9328 12.58 41.3328 12.34C41.7328 12.0933 42.1861 11.97 42.6928 11.97C43.0995 11.97 43.4628 12.04 43.7828 12.18C44.1028 12.32 44.3728 12.5133 44.5928 12.76C44.8128 13 44.9795 13.2767 45.0928 13.59C45.2128 13.9033 45.2728 14.2367 45.2728 14.59C45.2728 14.6767 45.2695 14.7667 45.2628 14.86C45.2561 14.9533 45.2428 15.04 45.2228 15.12H40.9128V14.22H44.5828L44.0428 14.63C44.1095 14.3033 44.0861 14.0133 43.9728 13.76C43.8661 13.5 43.6995 13.2967 43.4728 13.15C43.2528 12.9967 42.9928 12.92 42.6928 12.92C42.3928 12.92 42.1261 12.9967 41.8928 13.15C41.6595 13.2967 41.4795 13.51 41.3528 13.79C41.2261 14.0633 41.1761 14.3967 41.2028 14.79C41.1695 15.1567 41.2195 15.4767 41.3528 15.75C41.4928 16.0233 41.6861 16.2367 41.9328 16.39C42.1861 16.5433 42.4728 16.62 42.7928 16.62C43.1195 16.62 43.3961 16.5467 43.6228 16.4C43.8561 16.2533 44.0395 16.0633 44.1728 15.83L45.0928 16.28C44.9861 16.5333 44.8195 16.7633 44.5928 16.97C44.3728 17.17 44.1061 17.33 43.7928 17.45C43.4861 17.5633 43.1495 17.62 42.7828 17.62ZM48.6337 17.5V10.05H51.3437C51.8437 10.05 52.2837 10.1433 52.6637 10.33C53.0437 10.51 53.3403 10.7767 53.5537 11.13C53.7737 11.4767 53.8837 11.8933 53.8837 12.38C53.8837 12.8933 53.7537 13.3333 53.4937 13.7C53.2403 14.0667 52.897 14.3333 52.4637 14.5L54.1837 17.5H52.8437L51.0137 14.25L51.7837 14.7H49.8137V17.5H48.6337ZM49.8137 13.65H51.3637C51.637 13.65 51.8737 13.5967 52.0737 13.49C52.2737 13.3833 52.427 13.2367 52.5337 13.05C52.647 12.8567 52.7037 12.63 52.7037 12.37C52.7037 12.11 52.647 11.8867 52.5337 11.7C52.427 11.5067 52.2737 11.36 52.0737 11.26C51.8737 11.1533 51.637 11.1 51.3637 11.1H49.8137V13.65ZM57.5039 17.62C56.9639 17.62 56.4839 17.4967 56.0639 17.25C55.6506 16.9967 55.3272 16.6567 55.0939 16.23C54.8606 15.7967 54.7439 15.3133 54.7439 14.78C54.7439 14.2333 54.8606 13.75 55.0939 13.33C55.3339 12.91 55.6539 12.58 56.0539 12.34C56.4539 12.0933 56.9072 11.97 57.4139 11.97C57.8206 11.97 58.1839 12.04 58.5039 12.18C58.8239 12.32 59.0939 12.5133 59.3139 12.76C59.5339 13 59.7006 13.2767 59.8139 13.59C59.9339 13.9033 59.9939 14.2367 59.9939 14.59C59.9939 14.6767 59.9906 14.7667 59.9839 14.86C59.9772 14.9533 59.9639 15.04 59.9439 15.12H55.6339V14.22H59.3039L58.7639 14.63C58.8306 14.3033 58.8072 14.0133 58.6939 13.76C58.5872 13.5 58.4206 13.2967 58.1939 13.15C57.9739 12.9967 57.7139 12.92 57.4139 12.92C57.1139 12.92 56.8472 12.9967 56.6139 13.15C56.3806 13.2967 56.2006 13.51 56.0739 13.79C55.9472 14.0633 55.8972 14.3967 55.9239 14.79C55.8906 15.1567 55.9406 15.4767 56.0739 15.75C56.2139 16.0233 56.4072 16.2367 56.6539 16.39C56.9072 16.5433 57.1939 16.62 57.5139 16.62C57.8406 16.62 58.1172 16.5467 58.3439 16.4C58.5772 16.2533 58.7606 16.0633 58.8939 15.83L59.8139 16.28C59.7072 16.5333 59.5406 16.7633 59.3139 16.97C59.0939 17.17 58.8272 17.33 58.5139 17.45C58.2072 17.5633 57.8706 17.62 57.5039 17.62ZM62.7691 17.5L60.6491 12.09H61.8791L63.5091 16.5H63.0591L64.6891 12.09H65.9291L63.7991 17.5H62.7691ZM66.8971 17.5V12.09H68.0271V17.5H66.8971ZM66.8971 11.35V10.05H68.0271V11.35H66.8971ZM72.0883 17.62C71.5483 17.62 71.0683 17.4967 70.6483 17.25C70.2349 16.9967 69.9116 16.6567 69.6783 16.23C69.4449 15.7967 69.3283 15.3133 69.3283 14.78C69.3283 14.2333 69.4449 13.75 69.6783 13.33C69.9183 12.91 70.2383 12.58 70.6383 12.34C71.0383 12.0933 71.4916 11.97 71.9983 11.97C72.4049 11.97 72.7683 12.04 73.0883 12.18C73.4083 12.32 73.6783 12.5133 73.8983 12.76C74.1183 13 74.2849 13.2767 74.3983 13.59C74.5183 13.9033 74.5783 14.2367 74.5783 14.59C74.5783 14.6767 74.5749 14.7667 74.5683 14.86C74.5616 14.9533 74.5483 15.04 74.5283 15.12H70.2183V14.22H73.8883L73.3483 14.63C73.4149 14.3033 73.3916 14.0133 73.2783 13.76C73.1716 13.5 73.0049 13.2967 72.7783 13.15C72.5583 12.9967 72.2983 12.92 71.9983 12.92C71.6983 12.92 71.4316 12.9967 71.1983 13.15C70.9649 13.2967 70.7849 13.51 70.6583 13.79C70.5316 14.0633 70.4816 14.3967 70.5083 14.79C70.4749 15.1567 70.5249 15.4767 70.6583 15.75C70.7983 16.0233 70.9916 16.2367 71.2383 16.39C71.4916 16.5433 71.7783 16.62 72.0983 16.62C72.4249 16.62 72.7016 16.5467 72.9283 16.4C73.1616 16.2533 73.3449 16.0633 73.4783 15.83L74.3983 16.28C74.2916 16.5333 74.1249 16.7633 73.8983 16.97C73.6783 17.17 73.4116 17.33 73.0983 17.45C72.7916 17.5633 72.4549 17.62 72.0883 17.62ZM77.1911 17.5L75.3311 12.09H76.5311L77.9511 16.4H77.5311L78.9811 12.09H80.0111L81.4511 16.4H81.0311L82.4611 12.09H83.6611L81.7911 17.5H80.7711L79.3111 13.09H79.6811L78.2211 17.5H77.1911Z" fill="white"/>
</svg>
