<svg width="44" height="44" viewBox="0 0 44 44" fill="none" xmlns="http://www.w3.org/2000/svg">
<circle cx="22" cy="22" r="22" fill="#F3F6FB"/>
<path d="M16.9982 31.0037H15.9978C14.3403 31.0037 12.9966 29.66 12.9966 28.0025V27.002" stroke="#323232" stroke-width="1.5" stroke-linecap="round" stroke-linejoin="round"/>
<path d="M27.0024 12.9962H28.0029C29.6604 12.9962 31.0041 14.3399 31.0041 15.9975V16.9979" stroke="#323232" stroke-width="1.5" stroke-linecap="round" stroke-linejoin="round"/>
<path d="M12.9966 16.9979V15.9975C12.9966 14.3399 14.3403 12.9962 15.9978 12.9962H16.9982" stroke="#323232" stroke-width="1.5" stroke-linecap="round" stroke-linejoin="round"/>
<path d="M31.0041 27.002V28.0025C31.0041 29.66 29.6604 31.0037 28.0029 31.0037H27.0024" stroke="#323232" stroke-width="1.5" stroke-linecap="round" stroke-linejoin="round"/>
<path d="M15.9976 22V18.9987C15.9976 17.3412 17.3413 15.9975 18.9988 15.9975H25.0013C26.6589 15.9975 28.0026 17.3412 28.0026 18.9987V22" stroke="#323232" stroke-width="1.5" stroke-linecap="round" stroke-linejoin="round"/>
<path d="M28.0026 25.0012C28.0026 26.6588 26.6589 28.0025 25.0013 28.0025H18.9988C17.3413 28.0025 15.9976 26.6588 15.9976 25.0012" stroke="#323232" stroke-width="1.5" stroke-linecap="round" stroke-linejoin="round"/>
<path d="M13.9966 22H31.0037" stroke="#323232" stroke-width="1.5" stroke-linecap="round" stroke-linejoin="round"/>
</svg>
