<svg width="299" height="299" viewBox="0 0 299 299" fill="none" xmlns="http://www.w3.org/2000/svg">
<path d="M120.225 41.068C126.069 44.964 133.805 46.4281 140.714 46.9596C143.963 46.9596 152.215 45.518 155.443 45.1594C160.385 44.6102 162.419 40.412 166.932 39.0387C171.939 37.5148 177.783 39.3006 182.839 39.3006C191.45 39.3006 199.543 40.4573 207.878 42.5409C215.545 44.4578 227.416 44.3775 233.211 50.4945C236.451 53.9137 238.656 58.4156 241.787 61.983C247.122 68.0627 252.233 73.5498 258.872 78.1847C265.427 82.7609 266.368 89.723 269.15 96.6776C271.263 101.96 274.143 107.095 274.91 112.814C276.78 126.75 277.356 140.935 280.344 154.644C281.011 157.707 280.822 160.647 280.933 163.743C281.07 167.577 283.287 172.176 284.501 175.755C288.01 186.107 292.381 200.858 284.141 210.417C279.819 215.43 271.171 217.951 264.666 218.371C258.083 218.795 251.097 219.637 244.995 222.331C239.231 224.875 234.22 229.147 229.153 232.805C226.256 234.896 222.726 236.705 220.25 239.318C212.207 247.808 207.229 258.662 197.6 265.765C192.77 269.328 186.081 273.195 179.86 273.195C178.262 273.195 177.232 272.526 175.933 271.624C171.935 268.848 167.869 266.174 163.888 263.375C152.863 255.626 141.94 246.136 129.553 240.562C124.907 238.472 122.659 237.251 119.505 232.87C116.233 228.326 110.579 226.12 105.365 229.139C103.31 230.329 101.187 234.143 100.03 236.111C97.6214 240.205 94.2992 244.786 90.1779 247.272C79.937 253.449 69.6066 252.764 58.8218 248.45C53.7319 246.414 50.2105 243.789 46.7114 239.547C43.4515 235.596 39.3797 231.446 39.3797 226.062C39.3797 222.561 40.2861 217.752 39.2488 214.41C38.6274 212.408 34.9408 209.769 33.4227 208.715C30.2153 206.488 27.1605 205.624 25.371 201.907C23.5759 198.179 23.4726 193.621 23.4726 189.568C23.4726 184.03 22.6154 177.684 24.6509 172.449C25.8194 169.445 31.4531 161.503 29.9533 158.768C28.4348 155.999 27.461 152.946 26.0256 150.127C22.8588 143.908 18.8374 138.173 15.7154 131.929C13.6098 127.717 10.7113 121.845 12.0495 116.938C12.6773 114.636 15.0229 114.691 16.9919 114.418C20.2101 113.971 23.2899 113.948 26.4184 112.945C30.2799 111.706 33.7057 110.321 37.0231 107.937C39.7146 106.003 42.842 102.342 45.9914 101.293C47.8856 100.661 50.2881 101.238 52.2757 100.802C59.2791 99.2644 66.0346 96.9519 72.9615 95.1393C76.7334 94.1523 81.6273 92.5636 84.1554 89.3132C87.0701 85.5658 86.5121 79.3682 86.5121 74.9771C86.5121 62.9347 84.5315 49.6545 93.5819 40.1516C98.039 35.4716 105.594 35.5983 111.584 36.4857C114.947 36.984 117.457 39.2225 120.225 41.068Z" fill="#F4F7FA"/>
<path d="M31.977 71.5073C25.5599 77.6135 26.6235 87.579 28.2013 96.1182C34.113 128.115 37.1445 160.571 37.2601 193.101C37.2848 200.413 37.4175 208.431 42.3631 213.988C48.7461 221.155 60.0917 221.059 69.8824 220.43C126.772 216.78 185.937 220.716 242.963 220.698C248.519 220.698 252.427 214.768 256.675 211.323C261.539 207.371 262.301 200.565 262.711 194.457C265.07 159.296 267.429 124.135 269.786 88.9732C270.275 81.6797 270.38 73.3665 264.903 68.2972C259.908 63.6757 252.175 63.5684 245.246 63.7434C232.038 63.7434 218.794 64.737 205.586 64.7483C147.221 64.8047 103.051 64.6523 89.949 64.4961C76.8967 64.3286 42.6476 61.3461 31.977 71.5073Z" fill="#FACBDF"/>
<path d="M30.6177 144.698C29.2896 144.698 27.9105 144.395 27.1516 143.188C26.7342 142.523 26.6526 141.768 26.5824 141.16L25.8973 134.814C25.8195 134.102 25.7533 133.38 25.6887 132.682C25.5635 131.313 25.4324 129.879 25.218 128.502C24.0797 121.137 27.6847 120.529 29.434 120.237C29.6522 120.2 29.859 120.167 30.0032 120.126C31.9157 119.629 55.869 118.62 81.4692 117.605L88.4036 117.327C97.1729 116.958 106.058 116.649 114.816 116.406C123.532 116.164 132.379 115.982 141.108 115.864C149.838 115.747 158.681 115.694 167.407 115.698C176.133 115.702 184.985 115.776 193.705 115.907C202.469 116.04 211.35 116.238 220.127 116.494C228.855 116.752 237.696 117.081 246.408 117.454C246.814 117.474 247.915 117.494 249.444 117.521C260.448 117.717 270.884 118.026 272.68 118.839C274.672 119.739 274.098 124.681 272.993 132.119C272.836 133.171 272.69 134.166 272.576 135.031C272.434 136.118 272.208 137.35 271.329 138.217C270.276 139.257 268.779 139.359 267.334 139.373C244.686 139.597 221.63 139.308 199.333 139.026C144.343 138.332 87.4817 137.614 32.1149 144.592C31.6184 144.659 31.1184 144.694 30.6177 144.698ZM165.954 117.263C157.71 117.263 149.371 117.32 141.143 117.429C132.415 117.546 123.58 117.728 114.869 117.971C106.121 118.211 97.2395 118.522 88.4797 118.89C87.0567 118.949 84.6263 119.046 81.5413 119.168C66.8391 119.754 32.4012 121.123 30.3882 121.644C30.1719 121.7 29.9347 121.74 29.6843 121.783C27.9596 122.07 25.8159 122.43 26.7228 128.256C26.9448 129.682 27.0776 131.131 27.2066 132.533C27.2692 133.226 27.3356 133.941 27.4115 134.642L28.0962 140.988C28.1474 141.477 28.2027 141.983 28.4246 142.337C28.88 143.061 29.9956 143.284 31.9346 143.04C87.4039 136.048 144.317 136.767 199.357 137.462C221.647 137.743 244.703 138.033 267.326 137.808C268.464 137.796 269.633 137.732 270.286 137.086C270.81 136.568 270.959 135.717 271.077 134.821C271.195 133.926 271.341 132.942 271.498 131.888C271.878 129.365 272.297 126.508 272.447 124.182C272.665 120.662 272.09 120.282 272.085 120.271C270.309 119.471 254.593 119.179 249.429 119.084C247.898 119.056 246.79 119.035 246.365 119.017C237.66 118.636 228.824 118.313 220.104 118.057C211.343 117.799 202.46 117.601 193.704 117.47C184.991 117.339 176.15 117.275 167.428 117.261L165.954 117.263Z" fill="black"/>
<path d="M49.6627 161.696H49.6172C48.5419 161.696 47.5595 161.187 46.7725 160.247C45.3805 158.579 44.8267 155.8 45.0467 154.593C45.0372 153.455 45.1074 152.141 45.6384 150.95C46.2661 149.546 47.497 148.54 48.851 148.326C50.7247 148.031 52.3784 149.194 53.1863 150.479C54.0758 151.891 54.2085 153.525 54.2237 154.792C54.237 155.818 54.2749 158.938 52.5283 160.613C52.153 160.97 51.7052 161.251 51.2125 161.437C50.7198 161.623 50.1924 161.711 49.6627 161.696ZM49.4389 149.736C49.327 149.736 49.2155 149.745 49.1051 149.763C48.0905 149.923 47.3737 150.778 47.0399 151.527C46.6075 152.494 46.5582 153.603 46.5696 154.66C46.5698 154.714 46.5641 154.768 46.5525 154.821C46.4008 155.483 46.7877 157.94 47.9635 159.351C48.466 159.953 49.0103 160.247 49.6305 160.258C49.9665 160.277 50.303 160.229 50.6183 160.117C50.9335 160.004 51.2207 159.829 51.4606 159.603C52.3197 158.779 52.7407 157.171 52.7122 154.825C52.6933 153.216 52.4391 152.106 51.8929 151.24C51.4169 150.474 50.4744 149.733 49.4389 149.733V149.736ZM61.3563 161.566C59.6324 161.566 58.1645 160.553 57.5292 158.833L57.516 158.795C56.6948 156.091 56.7744 153.418 57.7454 151.267C58.4452 149.718 60.4289 148.197 62.4202 148.446C63.8862 148.627 65.7788 149.781 66.4786 154.244C67.1234 158.373 64.8401 160.864 62.4467 161.431C62.0904 161.519 61.7242 161.564 61.3563 161.566ZM58.9667 158.369C59.5755 160 61.0225 160.279 62.0807 160.029C63.8312 159.614 65.483 157.695 64.9785 154.462C64.5423 151.675 63.5638 150.049 62.2249 149.883C61.032 149.732 59.6115 150.789 59.1393 151.84C58.3219 153.679 58.2518 155.997 58.9686 158.369H58.9667ZM74.5519 160.954C73.4642 160.949 72.4047 160.624 71.5175 160.022C70.6175 159.412 69.9634 158.526 69.6647 157.51C69.5266 157.387 69.442 157.218 69.4276 157.038C69.2911 155.3 69.1356 153.33 69.8278 151.496C70.4953 149.735 72.2932 147.881 74.6467 147.97C75.3882 147.999 76.5242 148.399 77.4914 149.439C78.4074 150.425 79.4409 152.284 79.1716 155.544C78.9403 158.324 78.2424 160.18 75.483 160.85C75.1782 160.921 74.8655 160.956 74.5519 160.954ZM70.8784 155.986C70.9345 156.078 70.9683 156.181 70.977 156.287C71.0718 157.4 71.546 158.259 72.407 158.844C73.3419 159.482 74.4665 159.604 75.1151 159.446C76.8485 159.025 77.444 158.087 77.6639 155.43C77.8934 152.679 77.0836 151.177 76.363 150.401C75.6423 149.626 74.9236 149.43 74.5936 149.417C73.0764 149.359 71.7622 150.668 71.2634 151.989C70.7931 153.234 70.795 154.649 70.8784 155.986ZM136.858 160.491C135.921 160.486 135.01 160.191 134.262 159.652C133.096 158.822 132.398 157.539 132.248 155.983C132.219 155.914 132.202 155.841 132.197 155.767C132.06 154.029 131.905 152.061 132.597 150.227C133.262 148.464 135.062 146.612 137.416 146.701C138.933 146.759 140.387 147.656 141.224 149.044C141.848 150.081 141.918 151.219 141.982 152.315C141.998 152.549 142.011 152.781 142.032 153.013C142.474 158.098 139.786 159.754 138.144 160.289C137.73 160.423 137.295 160.491 136.858 160.491ZM133.634 154.716C133.705 154.834 133.74 154.968 133.735 155.104C133.676 156.59 134.182 157.791 135.163 158.489C135.51 158.748 135.919 158.922 136.353 158.997C136.786 159.071 137.233 159.044 137.653 158.917C139.796 158.219 140.786 156.218 140.518 153.132C140.497 152.89 140.482 152.647 140.467 152.408C140.406 151.433 140.35 150.514 139.898 149.774C139.329 148.827 138.324 148.192 137.344 148.154C135.826 148.098 134.512 149.403 134.013 150.726C133.555 151.964 133.556 153.379 133.64 154.716H133.634ZM86.6664 160.939C85.9648 160.943 85.275 160.766 84.6695 160.428C82.058 158.978 81.9082 155.716 82.0675 153.054C82.0675 153.029 82.0675 153.002 82.077 152.975C82.627 149.894 84.1176 147.951 86.2796 147.513C87.7626 147.21 89.4125 147.848 90.484 149.135C91.2748 150.084 91.7658 151.34 91.9877 152.978C92.3101 155.357 91.8988 157.389 90.7988 158.855C89.9018 160.049 88.286 160.939 86.6664 160.939ZM83.5809 153.179C83.3913 156.501 83.9602 158.353 85.4337 159.177C86.8049 159.942 88.6786 159.192 89.5661 158.009C90.668 156.541 90.6737 154.566 90.484 153.165C90.2944 151.797 89.9151 150.773 89.2987 150.039C88.7089 149.332 87.645 148.716 86.5963 148.93C84.5746 149.341 83.8407 151.75 83.5809 153.179ZM182.519 160.114H182.491C181.857 160.127 181.23 160 180.655 159.742C180.082 159.484 179.58 159.103 179.185 158.628C177.778 156.95 177.725 154.395 177.922 153.373C177.922 152.235 177.985 150.923 178.516 149.733C179.142 148.328 180.372 147.322 181.728 147.109C183.602 146.811 185.254 147.977 186.064 149.262C186.953 150.675 187.086 152.309 187.101 153.574C187.114 154.625 187.148 157.414 185.499 159.002C184.736 159.743 183.735 160.114 182.519 160.114ZM182.311 148.517C182.199 148.517 182.087 148.526 181.977 148.544C180.962 148.703 180.245 149.56 179.912 150.307C179.479 151.275 179.43 152.386 179.441 153.44C179.441 153.495 179.436 153.549 179.422 153.602C179.265 154.292 179.312 156.457 180.371 157.719C180.623 158.026 180.947 158.271 181.317 158.435C181.687 158.599 182.093 158.676 182.5 158.661H182.521C183.329 158.661 183.951 158.44 184.418 157.985C185.62 156.829 185.59 154.397 185.58 153.598C185.559 151.989 185.307 150.88 184.761 150.013C184.287 149.261 183.346 148.52 182.311 148.52V148.517ZM194.298 160.531C194.097 160.531 193.894 160.518 193.695 160.493C192.051 160.283 190.818 159.234 190.314 157.615C190.314 157.597 190.302 157.579 190.298 157.561C189.764 155.068 190.029 152.479 191.057 150.131C191.774 148.471 193.005 147.92 193.902 147.75C194.586 147.633 195.292 147.67 195.958 147.859C196.625 148.048 197.238 148.383 197.746 148.837C198.884 149.936 199.515 151.608 199.568 153.678C199.616 155.479 199.178 157.142 198.302 158.487C197.492 159.737 195.903 160.531 194.298 160.531ZM191.776 157.228C192.204 158.569 193.164 158.962 193.898 159.056C195.098 159.21 196.413 158.647 197.021 157.713C197.74 156.61 198.099 155.223 198.059 153.707C198.028 152.525 197.763 150.9 196.676 149.85C196.346 149.567 195.952 149.358 195.525 149.239C195.098 149.121 194.649 149.095 194.211 149.165C193.424 149.314 192.836 149.821 192.466 150.677C191.558 152.746 191.317 155.027 191.778 157.228H191.776ZM207.251 160.533C206.494 160.535 205.751 160.342 205.098 159.974C204.308 159.523 203.346 158.637 202.916 156.914C202.827 156.81 202.772 156.684 202.753 156.552C202.525 154.893 202.269 153.014 202.815 151.22C203.339 149.497 204.926 147.621 207.177 147.572H207.276C211.385 147.572 211.901 153.26 211.947 153.915C212.182 157.263 211.199 159.322 208.945 160.212C208.408 160.424 207.831 160.533 207.251 160.533ZM204.139 155.459C204.2 155.553 204.237 155.658 204.251 155.768C204.404 157.187 204.968 158.209 205.876 158.728C206.25 158.933 206.669 159.053 207.101 159.078C207.532 159.102 207.964 159.031 208.36 158.869C209.366 158.472 210.674 157.537 210.428 154.009C210.414 153.804 210.048 149.02 207.259 149.02H207.205C205.791 149.051 204.659 150.352 204.272 151.622C203.904 152.835 203.983 154.186 204.139 155.469V155.459ZM219.457 160.518C218.719 160.507 217.991 160.349 217.321 160.053C215.375 159.224 214.539 156.934 214.765 153.047C214.765 150.827 216.193 148.248 218.607 147.757C219.967 147.48 221.478 148.063 222.459 149.24C223.301 150.251 223.612 151.501 223.82 152.701C224.365 155.81 223.655 158.431 221.924 159.714C221.22 160.24 220.35 160.524 219.457 160.518ZM219.295 149.138C219.168 149.137 219.041 149.149 218.916 149.174C217.274 149.51 216.261 151.452 216.276 153.061C216.276 153.076 216.276 153.092 216.276 153.107C216.087 156.289 216.656 158.181 217.934 158.724C219.113 159.224 220.17 159.17 220.991 158.563C222.273 157.613 222.772 155.511 222.318 152.936C222.142 151.929 221.894 150.892 221.266 150.14C220.83 149.611 220.079 149.138 219.295 149.138ZM112.542 160.597C111.692 160.574 110.854 160.393 110.076 160.066C107.41 159.015 107.463 154.323 107.582 153.442C107.583 153.438 107.583 153.433 107.582 153.428C107.791 152.098 108.096 150.71 108.91 149.539C109.887 148.129 111.491 147.346 112.989 147.546C115.365 147.855 116.524 150.287 116.814 152.458C116.888 153.016 117.467 157.958 114.831 159.888C114.173 160.365 113.367 160.615 112.542 160.597ZM109.079 153.636C108.912 154.874 109.253 158.176 110.647 158.725C112.041 159.274 113.147 159.281 113.896 158.734C115.284 157.717 115.602 154.861 115.297 152.639C115.089 151.076 114.301 149.178 112.773 148.979C111.715 148.841 110.7 149.563 110.164 150.338C109.555 151.217 109.289 152.292 109.079 153.636ZM124.668 160.491C124.143 160.485 123.622 160.409 123.12 160.264C121.283 159.757 119.416 157.231 119.517 155.406C119.413 153.775 119.428 151.88 120.276 150.232C121.123 148.585 123.12 147.126 125.29 147.501C127.831 147.943 129.204 150.617 129.204 152.905C129.204 156.379 128.43 158.704 126.9 159.791C126.257 160.254 125.472 160.5 124.668 160.491ZM124.615 148.893C123.353 148.893 122.174 149.861 121.643 150.878C120.939 152.229 120.934 153.831 121.034 155.363C121.037 155.395 121.037 155.428 121.034 155.46C120.949 156.579 122.403 158.557 123.543 158.871C124.58 159.157 125.383 159.081 126.009 158.639C127.105 157.851 127.715 155.816 127.715 152.907C127.715 151.178 126.716 149.219 125.047 148.92C124.904 148.899 124.759 148.89 124.615 148.893Z" fill="white"/>
<path d="M55.5466 198.552C55.9336 202.382 62.1588 202.338 69.2219 202.513C77.3164 202.714 86.5254 202.801 89.7125 202.513C92.3423 202.276 92.745 196.309 92.8727 190.501C92.9772 185.801 93.3893 182.018 91.8277 180.753C89.9913 179.264 83.2282 178.702 75.8438 178.698C67.5365 178.698 58.7802 179.168 56.8373 180.369C55.5795 181.148 55.111 184.109 55.0181 187.553C54.9136 191.421 55.2834 195.882 55.5466 198.552Z" fill="black"/>
<path d="M81.6404 203.698C77.7017 203.698 72.9805 203.618 68.7689 203.506L67.7823 203.481C60.9125 203.315 54.9608 203.171 54.5429 198.775C54.1154 194.299 53.9399 190.496 54.0181 187.47C54.1364 182.908 54.8196 180.381 56.1649 179.522C58.7335 177.88 70.2747 177.698 75.2267 177.698H75.3183C81.4992 177.698 89.3346 178.098 91.5711 179.971C93.1607 181.312 93.0653 184.282 92.9336 188.402C92.9126 189.08 92.8897 189.783 92.8745 190.509C92.7371 196.915 92.3306 203.194 89.0579 203.497C87.6019 203.641 84.8845 203.698 81.6404 203.698ZM75.221 179.239C65.7903 179.239 58.468 179.875 56.9853 180.823C56.6036 181.07 55.6821 182.218 55.5447 187.518C55.4665 190.479 55.642 194.225 56.0619 198.632C56.3519 201.673 61.6665 201.803 67.8188 201.95L68.8073 201.975C76.4404 202.167 85.743 202.274 88.9241 201.975C91.1072 201.772 91.283 193.567 91.3478 190.479C91.3631 189.747 91.386 189.038 91.407 188.356C91.5177 184.945 91.6112 182.002 90.5922 181.147C89.1648 179.951 83.4552 179.231 75.3259 179.231L75.221 179.239Z" fill="black"/>
<path d="M73.0942 196.698C69.5953 196.698 66.6568 196.581 65.5283 196.049C64.9928 195.796 64.6089 195.198 64.3498 194.219C63.774 192.024 63.8468 187.353 65.0387 185.758C65.2613 185.458 65.6377 184.957 69.8966 184.763C72.0884 184.664 74.7985 184.679 76.9673 184.801C81.7329 185.07 81.7943 187.899 81.827 189.417C81.827 189.508 81.827 189.6 81.827 189.686C81.8481 190.312 81.8845 190.884 81.921 191.438C82.0496 193.491 82.1436 194.975 81.1706 195.906C80.5449 196.506 79.5871 196.751 78.1592 196.674C77.8214 196.658 77.0076 196.674 75.9673 196.674C74.9904 196.691 74.0212 196.698 73.0942 196.698ZM66.2231 194.742C67.4668 195.311 73.1959 195.247 75.9558 195.216C77.0613 195.203 77.8617 195.194 78.259 195.216C79.1918 195.266 79.8098 195.15 80.0958 194.876C80.5833 194.409 80.5025 193.138 80.4007 191.53C80.3662 190.99 80.328 190.381 80.3069 189.733C80.3069 189.642 80.3069 189.551 80.3069 189.448C80.2762 187.985 80.2416 186.453 76.8924 186.265C72.2996 186.005 67.104 186.274 66.2595 186.675C65.82 187.35 65.5283 189.102 65.5417 191.003C65.5436 193.401 66.0062 194.567 66.2231 194.742Z" fill="white"/>
<path d="M79.9756 187.042C79.8178 187.042 79.6641 186.99 79.5368 186.893C79.4094 186.796 79.3145 186.66 79.2663 186.503C79.218 186.346 79.2187 186.18 79.2681 186.023C79.3175 185.868 79.4133 185.732 79.5415 185.637C83.0165 183.046 89.2883 178.7 92.2547 178.7C92.4524 178.7 92.6419 178.781 92.7816 178.926C92.9216 179.072 93 179.269 93 179.475C93 179.68 92.9216 179.876 92.7816 180.021C92.6419 180.168 92.4524 180.25 92.2547 180.25C90.4473 180.25 85.9083 182.796 80.4098 186.897C80.2832 186.99 80.1314 187.042 79.9756 187.042ZM91.1852 203.698C91.0637 203.696 90.9439 203.665 90.8367 203.607C86.8344 201.39 81.7977 197.6 79.9475 195.842C79.8733 195.772 79.8128 195.691 79.7695 195.598C79.7263 195.505 79.7013 195.404 79.6959 195.301C79.6905 195.199 79.7049 195.096 79.738 194.999C79.7714 194.902 79.8228 194.813 79.8895 194.737C79.9562 194.662 80.0365 194.6 80.1264 194.555C80.2162 194.513 80.3136 194.489 80.4124 194.485C80.5113 194.482 80.6099 194.497 80.7025 194.534C80.7951 194.571 80.8801 194.625 80.952 194.697C82.7426 196.39 87.6356 200.078 91.5373 202.239C91.6842 202.32 91.8006 202.45 91.868 202.607C91.9355 202.766 91.9502 202.942 91.9098 203.111C91.8692 203.279 91.7758 203.427 91.6446 203.533C91.5133 203.64 91.3516 203.698 91.1852 203.698ZM55.8237 202.299C55.677 202.299 55.5337 202.254 55.4113 202.171C55.2889 202.086 55.193 201.967 55.1354 201.826C55.078 201.686 55.0614 201.531 55.088 201.382C55.1147 201.233 55.1833 201.094 55.2852 200.985C58.2459 197.788 60.6885 195.383 65.1492 193.584C65.3337 193.509 65.5389 193.515 65.7198 193.598C65.9005 193.679 66.0423 193.834 66.1137 194.026C66.185 194.218 66.1802 194.431 66.1004 194.619C66.0205 194.807 65.8722 194.954 65.6879 195.03C61.5011 196.718 59.2763 198.906 56.3603 202.06C56.2908 202.134 56.2075 202.194 56.1153 202.235C56.023 202.278 55.9239 202.297 55.8237 202.299ZM65.9262 186.277C65.8083 186.277 65.6922 186.248 65.5873 186.191C64.1507 185.426 62.7309 184.722 61.3558 184.044C58.6615 182.711 56.116 181.453 54.3105 180.103C54.2309 180.044 54.1637 179.969 54.1121 179.882C54.0604 179.796 54.0256 179.7 54.0098 179.599C53.9939 179.498 53.9975 179.395 54.0196 179.296C54.042 179.198 54.0828 179.105 54.14 179.021C54.1972 178.938 54.2695 178.868 54.3528 178.814C54.4359 178.762 54.5285 178.725 54.6252 178.707C54.7217 178.692 54.8205 178.696 54.9159 178.719C55.0113 178.742 55.1011 178.785 55.1806 178.843C56.8781 180.112 59.3637 181.343 61.9966 182.643C63.3791 183.327 64.812 184.034 66.2672 184.812C66.4161 184.891 66.5352 185.021 66.6048 185.18C66.6747 185.337 66.6913 185.515 66.6518 185.686C66.6125 185.854 66.5195 186.003 66.3878 186.112C66.2562 186.218 66.0936 186.279 65.9262 186.277Z" fill="white"/>
<path d="M62.4171 105.698C59.9752 105.686 57.5525 105.245 55.2504 104.395C52.6095 103.435 48.9347 100.195 47.1039 95.3513C45.8851 92.1296 45.0621 87.04 48.0575 81.0953C50.592 76.0661 55.424 72.9303 60.9856 72.7102C67.4133 72.4609 73.49 76.0466 77.2675 82.3166C79.0144 85.2266 79.466 89.1124 78.5049 92.9788C77.3739 97.525 74.537 101.392 70.7167 103.583C68.2606 104.989 65.4144 105.698 62.4171 105.698ZM61.6258 74.2546C61.4317 74.2546 61.2376 74.2585 61.0435 74.2663C56.0212 74.4611 51.6614 77.2895 49.3789 81.8201C46.6466 87.2427 47.3894 91.8608 48.4924 94.7806C50.1516 99.167 53.412 102.075 55.7412 102.922C60.8102 104.767 66.006 104.51 69.9981 102.217C73.4583 100.231 76.032 96.7206 77.0603 92.5873C77.9188 89.1339 77.5325 85.6921 76.0021 83.1463C72.6352 77.5405 67.2957 74.2546 61.6258 74.2546Z" fill="#1B5EC9"/>
<path d="M61.0992 105.696C60.9333 105.696 60.7724 105.635 60.643 105.524C59.205 104.292 56.393 99.9073 54.9259 94.4041C53.6485 89.6049 53.0536 82.6252 57.5116 76.6351C57.6326 76.4728 57.8087 76.3685 58.0014 76.3454C58.1941 76.3222 58.3873 76.3822 58.5388 76.5119C58.6904 76.6415 58.7875 76.8303 58.8091 77.0368C58.8306 77.2433 58.7747 77.4506 58.6538 77.6129C54.5826 83.0887 55.1428 89.5306 56.329 93.9758C57.7414 99.2717 60.4733 103.379 61.5554 104.304C61.674 104.405 61.7601 104.543 61.8021 104.699C61.8441 104.855 61.8397 105.021 61.7895 105.174C61.7393 105.328 61.6459 105.461 61.5222 105.554C61.3984 105.648 61.2506 105.698 61.0992 105.698V105.696ZM67.9678 102.655C67.8966 102.656 67.8258 102.645 67.7579 102.622C67.6654 102.593 67.5794 102.544 67.5048 102.479C67.43 102.414 67.3681 102.334 67.3225 102.243C67.2769 102.152 67.2484 102.052 67.2389 101.949C67.2294 101.847 67.2389 101.743 67.267 101.644C68.5225 97.1463 70.5006 82.3812 63.3802 73.9973C63.2537 73.8432 63.1888 73.6423 63.1992 73.4376C63.2096 73.2328 63.2948 73.0406 63.4362 72.9023C63.5776 72.7641 63.7639 72.6909 63.9552 72.6985C64.1464 72.7062 64.3271 72.794 64.4585 72.943C72.0716 81.9057 70.0772 97.0229 68.6667 102.082C68.6241 102.246 68.5329 102.391 68.4068 102.494C68.2807 102.598 68.1265 102.654 67.9678 102.655Z" fill="#1B5EC9"/>
<path d="M59.6977 86.6788C53.7881 86.6788 48.2924 86.2196 44.6394 85.6534C44.4413 85.6225 44.2635 85.5145 44.1452 85.3531C44.027 85.1917 43.9781 84.9902 44.0091 84.7929C44.0403 84.5956 44.1487 84.4185 44.3109 84.3008C44.473 84.1832 44.6756 84.1345 44.8739 84.1655C52.6374 85.3733 68.8466 86.0806 79.2937 82.8487C79.3884 82.8191 79.488 82.8086 79.5868 82.8176C79.6859 82.8265 79.7821 82.8549 79.8699 82.9008C79.958 82.9467 80.0359 83.0093 80.0994 83.0853C80.163 83.1613 80.2109 83.249 80.2403 83.3434C80.27 83.4377 80.2804 83.537 80.2713 83.6354C80.2625 83.7338 80.2341 83.8295 80.188 83.917C80.1419 84.0047 80.0788 84.0822 80.0026 84.1454C79.9263 84.2088 79.8382 84.2564 79.7433 84.2857C73.9963 86.0597 66.5673 86.6788 59.6977 86.6788ZM55.0375 97.4803C51.8576 97.4891 48.6887 97.11 45.6015 96.3515C45.4136 96.2975 45.2541 96.1732 45.1564 96.0048C45.0587 95.8363 45.0306 95.6367 45.0774 95.4478C45.1245 95.2589 45.243 95.0956 45.4083 94.992C45.5737 94.8883 45.7729 94.8524 45.9643 94.8917C55.3758 97.2169 63.8688 95.3582 71.0993 93.4337C71.1951 93.4082 71.2951 93.4016 71.3936 93.4146C71.492 93.4275 71.5871 93.4595 71.6731 93.509C71.7591 93.5585 71.8345 93.6243 71.895 93.7028C71.9554 93.7812 71.9997 93.8706 72.0254 93.9661C72.0511 94.0615 72.0575 94.1612 72.0446 94.2592C72.0316 94.3572 71.9995 94.4517 71.9498 94.5373C71.9001 94.6229 71.8339 94.6979 71.7551 94.7581C71.6765 94.8181 71.5865 94.8624 71.4905 94.8879C66.5561 96.201 61.0472 97.4803 55.0375 97.4803ZM163.059 85.3919C171.549 69.6479 187.627 59.3424 204.101 58.7272C220.575 58.1121 242.781 67.0046 253.615 104.55C258.699 122.158 258.828 141.253 256.7 159.599C256.656 159.975 244.24 159.241 244.578 158.094C248.178 145.96 249.936 116.518 234.983 89.3517C228.994 78.4726 215.329 69.5988 203.878 70.007C192.428 70.4153 180.796 79.7668 173.686 89.7731C167.329 98.7239 164.324 110.111 163.006 121.43C162.196 128.391 161.975 135.43 161.776 142.447C161.678 145.975 161.587 149.5 161.427 153.025C161.36 154.498 150.18 155.595 149.961 153.643C149.617 150.584 149.789 147.421 149.885 144.347C149.993 140.867 150.199 137.393 150.507 133.925C151.125 126.974 151.605 106.637 163.059 85.3919Z" fill="#FF8D55"/>
<path d="M158.113 110.712C158.063 110.712 158.012 110.706 157.962 110.695C157.775 110.654 157.613 110.538 157.51 110.374C157.406 110.209 157.37 110.009 157.41 109.817C158.764 103.179 161.22 96.8306 164.668 91.05C164.769 90.8828 164.929 90.7634 165.114 90.718C165.299 90.6726 165.495 90.7052 165.657 90.8084C165.821 90.9115 165.936 91.0769 165.981 91.268C166.024 91.4593 165.994 91.6606 165.893 91.8278C162.531 97.4642 160.138 103.654 158.816 110.127C158.782 110.292 158.692 110.441 158.564 110.547C158.437 110.654 158.277 110.712 158.113 110.712ZM155.735 121.698C155.55 121.698 155.372 121.624 155.237 121.492C155.102 121.36 155.023 121.18 155.015 120.989C154.927 118.816 155.217 116.646 155.873 114.579C155.902 114.487 155.951 114.401 156.012 114.328C156.073 114.254 156.149 114.193 156.233 114.149C156.318 114.106 156.41 114.079 156.503 114.072C156.597 114.065 156.692 114.077 156.782 114.107C156.872 114.137 156.955 114.186 157.026 114.249C157.098 114.313 157.156 114.39 157.199 114.477C157.242 114.563 157.268 114.658 157.275 114.755C157.282 114.852 157.269 114.95 157.241 115.042C156.64 116.939 156.372 118.932 156.453 120.926C156.456 121.023 156.442 121.12 156.41 121.212C156.377 121.303 156.327 121.387 156.264 121.459C156.199 121.531 156.123 121.589 156.037 121.63C155.951 121.671 155.859 121.694 155.764 121.698H155.735Z" fill="white"/>
<path d="M46.7907 129.301C46.5905 129.31 46.3948 129.239 46.2467 129.105C46.0985 128.97 46.0101 128.782 46.0008 128.582C45.9916 128.382 46.0623 128.187 46.1972 128.039C46.3321 127.891 46.5207 127.803 46.7207 127.794C71.3848 125.441 96.4528 124.063 121.228 123.698H121.24C121.44 123.697 121.632 123.775 121.775 123.915C121.918 124.055 121.998 124.246 122 124.446C122.001 124.646 121.923 124.838 121.783 124.98C121.642 125.123 121.451 125.204 121.251 125.205C96.515 125.569 71.4886 126.944 46.8641 129.293L46.7907 129.301ZM56.6837 133.696C56.4835 133.711 56.2854 133.646 56.1331 133.516C55.9806 133.385 55.8867 133.2 55.8714 133C55.8561 132.8 55.9208 132.602 56.0516 132.45C56.1823 132.298 56.3684 132.204 56.5684 132.189C62.0513 131.345 67.5753 130.793 73.117 130.537C73.317 130.527 73.5129 130.598 73.6608 130.733C73.809 130.868 73.8973 131.056 73.9065 131.255C73.9158 131.455 73.8454 131.65 73.7103 131.798C73.5753 131.946 73.387 132.035 73.1868 132.044C67.6989 132.297 62.2283 132.842 56.7986 133.679C56.7607 133.688 56.7224 133.693 56.6837 133.696Z" fill="black"/>
<path d="M136.401 159.121C138.94 151.553 148.348 151.177 151.559 150.902C157.469 150.396 163.398 150.138 169.344 150.129C170.617 150.129 171.925 150.145 173.107 150.617C175.56 151.595 176.914 154.317 177.316 156.942C177.718 159.567 177.397 162.256 177.646 164.9C178.363 172.513 184.103 179.242 191.304 181.694C198.504 184.146 206.797 182.499 212.93 177.983C219.063 173.468 223.056 166.314 224.362 158.781C224.965 155.296 225.405 151.126 228.512 149.463C229.962 148.685 231.685 148.681 233.328 148.704C241.768 148.856 250.187 149.425 258.583 150.412C260.706 150.663 262.89 150.963 264.726 152.062C268.597 154.381 269.738 159.411 270.362 163.902C272.933 182.413 272.86 201.586 267.357 219.44C261.854 237.293 250.506 253.759 234.32 262.931C212.043 275.555 182.49 272.298 162.134 256.735C141.778 241.173 132.153 214.755 132 189.024C132 189.024 132 172.238 136.401 159.121Z" fill="#3982F0"/>
<path d="M141.363 199.698C143.253 199.698 141.965 195.886 141.965 189.831C141.965 175.727 144.3 169.7 146.563 165.873C150.906 158.53 144.358 153.275 140.755 159.371C139.594 161.332 137.4 166.746 137.089 173.752C136.609 184.551 138.086 199.698 141.363 199.698Z" fill="white"/>
<path d="M187 215.596C187.01 219.835 190.496 223.826 194.851 224.583C194.374 230.547 194.309 236.536 194.658 242.508C194.695 243.131 194.762 243.814 195.224 244.254C195.836 244.834 196.831 244.729 197.679 244.585L202.121 243.823C202.834 243.701 203.618 243.534 204.033 242.968C204.397 242.473 204.366 241.816 204.319 241.213C204.012 237.122 203.705 233.033 203.396 228.944C203.309 227.799 203.282 226.495 204.138 225.691C204.758 225.108 205.683 224.951 206.471 224.627C208.713 223.702 209.932 221.35 210.527 219.079C211.197 216.517 211.271 213.686 209.984 211.348C208.698 209.01 206.141 207.433 203.469 206.662C200.97 205.942 197.221 205.182 194.693 206.17C192.165 207.157 189.739 208.801 188.348 211.052C187.481 212.424 187.015 213.995 187 215.596Z" fill="black"/>
<path d="M196.754 245.737C196.122 245.737 195.42 245.595 194.886 245.062C194.201 244.38 194.144 243.38 194.112 242.783C193.785 236.864 193.834 230.929 194.259 225.018C189.954 223.899 186.665 219.726 186.656 215.24C186.667 213.465 187.153 211.728 188.063 210.211C189.369 207.996 191.693 206.113 194.607 204.908C197.217 203.828 200.971 204.573 203.661 205.386C206.79 206.331 209.204 208.166 210.453 210.547C211.959 213.421 211.611 216.721 211.048 218.981C210.504 221.168 209.304 224.012 206.67 225.16C206.418 225.269 206.162 225.358 205.917 225.445C205.411 225.623 204.933 225.791 204.626 226.091C204.028 226.683 204.062 227.811 204.128 228.822L205.027 241.36C205.07 241.97 205.138 242.892 204.615 243.643C204.007 244.512 202.922 244.707 202.269 244.824L197.941 245.604C197.55 245.682 197.153 245.727 196.754 245.737ZM197.749 205.877C196.873 205.852 196.001 206 195.181 206.31C192.566 207.391 190.5 209.05 189.36 210.983C188.586 212.267 188.172 213.737 188.161 215.24C188.161 219.189 191.324 222.977 195.192 223.682C195.375 223.714 195.54 223.814 195.653 223.963C195.766 224.111 195.821 224.296 195.808 224.483C195.347 230.544 195.283 236.629 195.619 242.7C195.65 243.214 195.698 243.737 195.951 243.988C196.282 244.317 197.01 244.24 197.678 244.119L202.005 243.34C202.57 243.238 203.151 243.11 203.383 242.773C203.584 242.488 203.571 241.993 203.527 241.469L202.628 228.932C202.53 227.582 202.517 226.057 203.569 225.014C204.115 224.473 204.807 224.232 205.418 224.018C205.65 223.937 205.868 223.861 206.069 223.772C208.139 222.871 209.125 220.471 209.586 218.617C210.085 216.61 210.41 213.703 209.121 211.246C207.689 208.521 204.813 207.31 203.225 206.828C201.605 206.344 199.574 205.877 197.749 205.877ZM266.67 175.539C266.47 175.539 266.278 175.457 266.137 175.316C265.996 175.174 265.917 174.983 265.917 174.783C265.883 171.082 265.558 167.39 264.946 163.741C264.758 162.647 264.557 161.589 264.056 160.684C263.313 159.332 261.808 158.257 259.93 157.732C258.152 157.234 256.231 157.221 254.372 157.21C254.173 157.21 253.981 157.13 253.84 156.988C253.698 156.847 253.619 156.654 253.619 156.454C253.619 156.253 253.698 156.061 253.84 155.919C253.981 155.778 254.173 155.698 254.372 155.698C256.329 155.711 258.353 155.724 260.323 156.276C262.623 156.919 264.412 158.223 265.364 159.95C265.977 161.063 266.222 162.309 266.421 163.49C267.05 167.221 267.385 170.997 267.422 174.783C267.422 174.983 267.343 175.174 267.202 175.316C267.061 175.457 266.869 175.539 266.67 175.539ZM267.247 194.29C267.048 194.29 266.856 194.211 266.715 194.069C266.574 193.925 266.495 193.735 266.495 193.534V186.277C266.495 186.077 266.574 185.884 266.715 185.742C266.856 185.6 267.048 185.521 267.247 185.521C267.447 185.521 267.639 185.6 267.78 185.742C267.921 185.884 268 186.077 268 186.277V193.534C268 193.735 267.921 193.925 267.78 194.069C267.639 194.211 267.447 194.29 267.247 194.29ZM255.256 236.225C255.125 236.225 254.995 236.191 254.88 236.125C254.765 236.058 254.669 235.962 254.604 235.849C254.538 235.733 254.502 235.603 254.502 235.469C254.502 235.337 254.538 235.206 254.604 235.091C261.377 223.101 264.764 213.624 265.915 203.399C265.927 203.301 265.957 203.205 266.006 203.118C266.053 203.029 266.118 202.953 266.196 202.891C266.273 202.829 266.363 202.781 266.457 202.755C266.553 202.727 266.653 202.717 266.753 202.728C266.852 202.74 266.946 202.77 267.035 202.819C267.121 202.868 267.198 202.933 267.261 203.01C267.323 203.089 267.368 203.178 267.396 203.275C267.422 203.371 267.432 203.471 267.421 203.569C266.239 214.011 262.801 223.661 255.921 235.837C255.855 235.956 255.759 236.055 255.642 236.123C255.524 236.191 255.392 236.227 255.256 236.225ZM245.849 248.698C245.694 248.698 245.544 248.651 245.418 248.562C245.29 248.473 245.194 248.346 245.141 248.201C245.089 248.055 245.081 247.897 245.121 247.747C245.16 247.596 245.245 247.462 245.363 247.364C247.16 245.837 248.795 244.126 250.242 242.261C250.366 242.108 250.545 242.01 250.739 241.989C250.935 241.966 251.13 242.021 251.284 242.142C251.441 242.263 251.542 242.439 251.569 242.635C251.597 242.83 251.548 243.028 251.431 243.187C249.92 245.137 248.214 246.927 246.336 248.524C246.199 248.638 246.026 248.698 245.849 248.698ZM198.25 192.13H198.225C191.559 191.92 184.876 188.959 179.892 184.004C175.188 179.339 171.989 172.94 170.849 165.983C170.804 165.713 170.763 165.441 170.721 165.167C170.49 163.642 170.27 162.202 169.581 160.97C168.892 159.738 167.376 158.614 165.968 159.043C165.778 159.1 165.573 159.079 165.396 158.985C165.221 158.891 165.09 158.731 165.033 158.54C164.975 158.349 164.994 158.142 165.086 157.965C165.18 157.789 165.338 157.656 165.528 157.597C167.713 156.928 169.88 158.415 170.894 160.231C171.716 161.702 171.967 163.348 172.211 164.938C172.251 165.207 172.292 165.473 172.336 165.74C173.421 172.383 176.475 178.487 180.951 182.928C185.67 187.617 191.984 190.418 198.274 190.616C198.474 190.62 198.664 190.703 198.803 190.847C198.942 190.99 199.019 191.183 199.016 191.384C199.012 191.584 198.931 191.777 198.788 191.915C198.643 192.054 198.451 192.132 198.252 192.128L198.25 192.13ZM207.452 190.363C207.272 190.363 207.097 190.299 206.961 190.18C206.824 190.061 206.736 189.896 206.709 189.719C206.683 189.539 206.72 189.356 206.818 189.203C206.914 189.05 207.063 188.936 207.236 188.883C211.313 187.645 215.027 185.425 218.055 182.414C218.196 182.274 218.388 182.195 218.589 182.197C218.789 182.197 218.979 182.278 219.12 182.42C219.261 182.563 219.338 182.756 219.338 182.957C219.336 183.157 219.255 183.35 219.114 183.489C215.91 186.672 211.983 189.021 207.671 190.331C207.599 190.352 207.526 190.363 207.452 190.363ZM221.923 180.12C221.795 180.12 221.667 180.088 221.556 180.023C221.443 179.959 221.349 179.868 221.283 179.759C221.216 179.647 221.178 179.523 221.172 179.394C221.169 179.264 221.197 179.135 221.255 179.02L222.93 175.737C223.02 175.56 223.178 175.425 223.368 175.363C223.558 175.302 223.765 175.32 223.942 175.41C224.121 175.501 224.254 175.66 224.317 175.851C224.377 176.041 224.36 176.249 224.269 176.427L222.595 179.71C222.531 179.834 222.435 179.938 222.316 180.01C222.198 180.084 222.062 180.122 221.923 180.12Z" fill="black"/>
<path d="M75.6859 93.698C75.5318 93.6982 75.382 93.6408 75.261 93.5349C75.14 93.429 75.0547 93.2807 75.0187 93.1144C74.983 92.9478 74.9987 92.7729 75.0636 92.6176C75.1285 92.4625 75.2386 92.336 75.376 92.2589L77.9868 90.791C78.0673 90.7423 78.1558 90.7119 78.2471 90.7019C78.3381 90.6916 78.4303 90.7019 78.5179 90.7321C78.6054 90.7621 78.6867 90.8115 78.7567 90.8771C78.8269 90.9427 78.8843 91.0235 78.9259 91.1142C78.9673 91.2051 78.992 91.3041 78.9983 91.4057C79.0048 91.5072 78.9926 91.6093 78.9629 91.7054C78.9331 91.8018 78.8862 91.8902 78.825 91.9661C78.7638 92.0419 78.6896 92.1034 78.6066 92.1467L75.9958 93.6163C75.8997 93.6701 75.7934 93.698 75.6859 93.698Z" fill="#1B5EC9"/>
</svg>
