<svg width="243" height="243" viewBox="0 0 243 243" fill="none" xmlns="http://www.w3.org/2000/svg">
<path d="M73.3458 35.2738C81.9425 31.0343 93.0223 30.6952 102.433 30.6952C104.311 30.0692 111.926 26.5481 113.853 25.8472C119.388 23.8346 125.491 24.0019 131.009 21.9689C135.161 20.4392 139.455 19.5029 143.533 17.7135C147.005 16.1899 150.493 14.9623 154.306 14.7239C160.432 14.341 165.581 15.0711 170.843 18.3599C174.865 20.8733 179.872 21.806 183.502 24.8776C188.402 29.0237 191.208 34.3351 193.79 40.1217C195.366 43.6548 198.275 48.5333 198.423 52.5109C198.506 54.7754 198.423 57.0582 198.423 59.3249C198.423 67.3162 202.301 74.7561 202.301 82.7566C202.301 91.4522 204.108 100.76 206.664 109.124C208.017 113.552 210.274 117.674 210.919 122.321C211.503 126.521 211.512 130.668 211.512 134.899C211.512 140.273 213.507 145.209 213.828 150.547C214.041 154.086 214.201 162.424 210.542 164.66C208.383 165.979 203.201 164.983 200.847 164.983C195.704 164.983 190.255 165.116 186.841 169.615C184.378 172.863 182.345 175.449 179.139 178.072C177.444 179.459 177.18 180.855 176.849 182.974C176.247 186.83 176.607 190.934 176.607 194.825C176.607 199.021 176.013 202.776 175.422 206.918C174.409 214.005 174.687 215.684 166.884 218.667C161.449 220.745 156.232 221.431 150.374 221.226C146.784 221.1 142.445 221.398 139.008 220.094C135.606 218.804 134.02 217.637 132.275 214.439C129.991 210.252 128.089 214.195 126.781 209.584C125.615 205.475 125.804 201.031 124.626 197.006C123.393 192.792 115.216 192.912 111.887 192.616C108.035 192.274 104.14 192.069 100.494 190.677C95.9688 188.949 104.839 216.587 93.4614 222.566C82.4898 224.308 84.2609 198.498 80.0517 197.006C67.7957 192.662 65.7095 186.348 55.6704 190.677C50.1709 193.048 42.7039 182.946 36.9863 181.358C32.1918 180.026 31.2465 176.611 30.5763 172.255C29.8382 167.458 27.2315 162.972 25.9438 158.304C24.7376 153.931 25.9184 148.044 25.8361 143.598C25.8006 141.681 24.5502 140.357 23.6814 138.777C21.8287 135.409 19.6493 131.834 18.2948 128.246C14.7123 118.758 13.9496 106.499 15.3861 96.5193C16.2312 90.6479 20.0633 86.1774 22.8465 81.1675C24.149 78.8231 23.9814 76.9581 22.5503 74.8114C19.9327 70.885 23.8344 64.4677 24.8665 60.7524C26.1172 56.2499 28.6359 50.8047 33.108 48.6325C41.9247 44.3501 52.9653 49.0327 62.1956 45.7238C67.6553 43.7665 68.1266 37.8477 73.3458 35.2738Z" fill="#F4F7FA"/>
<path d="M166.15 99.853C170.155 99.1603 175.379 99.8784 176.563 103.768C177.422 106.593 175.566 109.474 173.634 111.711C170.868 114.9 167.744 117.763 164.327 120.24C167.243 119.02 170.792 117.863 173.361 119.692C175.216 121.015 175.859 123.58 175.452 125.823C175.045 128.065 173.767 130.047 172.401 131.873C169.088 136.295 165.108 140.175 160.605 143.377C163.458 141.438 167.202 139.6 170.191 141.33C172.36 142.587 173.23 145.426 172.792 147.894C172.355 150.362 170.856 152.511 169.202 154.393C165.086 159.065 159.841 162.608 153.97 164.681C154.076 164.643 150.981 149.279 150.751 147.848C149.833 142.142 149.087 136.411 148.51 130.654C147.98 125.36 147.876 120.004 147.21 114.729C147.031 113.321 146.735 111.81 147.163 110.419C147.69 108.704 149.207 107.529 150.593 106.51C155.194 103.12 160.52 100.841 166.15 99.853ZM53.5046 207.821C41.563 187.805 41.0732 163.166 42.0385 139.877C42.2462 134.849 42.5251 129.733 44.2988 125.021C46.5289 119.091 50.9559 114.272 55.5287 109.893C63.6033 102.199 72.4213 95.3244 81.8528 89.3712C84.2842 87.8306 86.9709 86.2931 89.8413 86.5293C92.8973 86.7797 95.4016 88.9765 97.5731 91.1417C115.233 108.761 126.793 131.426 138.063 153.681C139.317 156.158 140.599 158.712 140.835 161.478C141.101 164.527 140.084 167.528 139.082 170.42C136.229 178.663 133.349 186.954 129.255 194.66C126.709 199.452 123.525 204.17 118.812 206.854C115.368 208.819 111.363 209.548 107.437 210.079C99.9284 211.097 92.352 211.506 84.7788 211.595C77.2055 211.683 69.6005 211.436 62.0178 211.119C60.4534 211.056 58.61 211.255 57.0915 210.818C55.5033 210.369 54.3304 209.206 53.5046 207.821Z" fill="#FBD2B5"/>
<path d="M60.5769 40.9027C60.3138 38.2779 60.4596 33.6115 61.5549 31.215C63.6154 26.6897 68.1724 24.9478 71.4169 24.5293C107.017 19.9328 130.908 21.4909 161.837 24.5198C166.047 24.9319 170.883 25.7229 173.03 29.3684C174.528 31.9045 174.213 35.0745 173.851 38.0052L155.763 184.364C155.616 185.556 155.438 186.818 154.679 187.748C153.555 189.121 151.566 189.32 149.794 189.411C129.026 190.466 108.24 190.845 87.4336 190.546C85.7582 190.522 83.9957 190.469 82.5597 189.604C80.2439 188.208 79.5481 185.228 79.0726 182.566L73.9799 154.54C73.2254 150.389 72.2221 146.204 71.8037 142.004C71.3725 137.683 70.7956 133.375 70.2789 129.064C69.1419 119.644 68.0399 110.222 66.9725 100.796C65.9064 91.4054 64.8692 82.0103 63.8611 72.6111C62.853 63.2119 61.8757 53.8106 60.9288 44.4072L60.5769 40.9027Z" fill="#57585C"/>
<path d="M111.875 178.821C112.104 182.058 115.111 184.884 118.357 184.884C122.654 184.884 126.317 181.777 125.331 176.705C124.799 173.968 121.545 171.817 118.779 171.674C116.536 171.56 114.341 172.514 113.047 174.345C112.307 175.388 111.735 176.848 111.875 178.821Z" fill="black"/>
<path d="M115.473 179.274C115.373 179.275 115.275 179.242 115.194 179.181C115.113 179.12 115.052 179.034 115.021 178.937C114.99 178.839 114.99 178.732 115.021 178.633C115.053 178.535 115.113 178.45 115.194 178.389C117.136 176.938 119.164 175.614 121.266 174.424C121.32 174.389 121.382 174.366 121.446 174.356C121.509 174.347 121.574 174.35 121.637 174.366C121.699 174.383 121.757 174.413 121.808 174.454C121.859 174.494 121.902 174.546 121.932 174.605C121.963 174.662 121.982 174.727 121.988 174.793C121.995 174.859 121.988 174.925 121.968 174.989C121.949 175.052 121.917 175.11 121.874 175.16C121.833 175.21 121.781 175.252 121.722 175.28C119.655 176.451 117.661 177.754 115.752 179.181C115.671 179.242 115.573 179.275 115.473 179.274ZM118.283 181.344C118.169 181.344 118.058 181.3 117.972 181.221C117.925 181.18 117.886 181.128 117.858 181.071C117.831 181.013 117.814 180.951 117.809 180.886C117.805 180.823 117.813 180.758 117.833 180.697C117.853 180.635 117.884 180.579 117.925 180.53C118.755 179.552 119.756 178.741 120.876 178.14C120.931 178.111 120.992 178.094 121.053 178.088C121.116 178.083 121.178 178.09 121.237 178.11C121.298 178.129 121.352 178.16 121.4 178.202C121.447 178.243 121.486 178.295 121.515 178.351C121.543 178.408 121.561 178.471 121.567 178.534C121.572 178.599 121.565 178.664 121.546 178.725C121.527 178.786 121.496 178.842 121.456 178.891C121.416 178.94 121.367 178.981 121.311 179.01C120.299 179.554 119.396 180.288 118.646 181.175C118.601 181.229 118.545 181.271 118.482 181.301C118.42 181.33 118.352 181.345 118.283 181.344Z" fill="white"/>
<path d="M118.357 185.518C114.756 185.518 111.497 182.471 111.242 178.861C111.111 177.008 111.543 175.364 112.529 173.974C113.926 172.005 116.273 170.909 118.811 171.037C121.77 171.195 125.346 173.451 125.954 176.585C126.43 178.992 125.954 181.14 124.583 182.796C123.157 184.526 120.889 185.518 118.357 185.518ZM112.507 178.775C112.713 181.691 115.447 184.25 118.357 184.25C120.508 184.25 122.421 183.426 123.605 181.989C124.715 180.636 125.103 178.85 124.715 176.827C124.228 174.318 121.182 172.432 118.752 172.308C116.65 172.197 114.713 173.101 113.571 174.713C112.759 175.857 112.403 177.223 112.513 178.775H112.507Z" fill="black"/>
<path d="M70.027 38.1859C69.03 40.1894 69.133 42.54 69.2677 44.7717C71.4754 81.3186 76.109 117.679 83.1383 153.611C83.4743 155.333 83.8468 157.119 84.9072 158.517C86.8948 161.135 90.5895 161.589 93.8689 161.79C108.11 162.663 122.386 162.815 136.643 162.243C139.02 162.148 141.475 162.01 143.576 160.902C148.242 158.439 149.374 152.384 149.974 147.141C153.954 112.431 157.86 77.7122 161.692 42.9854C161.949 40.6633 162.124 38.0496 160.615 36.2649C159.253 34.6529 156.969 34.2614 154.869 33.9935C142.845 32.4565 130.747 31.557 118.627 31.299C112.567 31.169 106.507 31.1991 100.448 31.3893C97.3861 31.486 78.0092 33.3532 75.7965 33.9793C73.4348 34.6482 71.1587 35.9114 70.027 38.1859Z" fill="white"/>
<path d="M143.936 123.537H143.924C126.74 122.954 109.312 122.561 92.1232 122.371C92.008 122.371 91.8975 122.31 91.8161 122.201C91.7347 122.091 91.689 121.943 91.689 121.789C91.689 121.634 91.7347 121.486 91.8161 121.377C91.8975 121.267 92.008 121.206 92.1232 121.206C109.316 121.4 126.754 121.789 143.939 122.371C144.054 122.373 144.165 122.437 144.245 122.547C144.325 122.658 144.37 122.807 144.368 122.961C144.367 123.116 144.32 123.263 144.237 123.371C144.155 123.479 144.043 123.539 143.928 123.537H143.936Z" fill="black"/>
<path d="M138.892 131.928H138.882C125.044 131.345 111.009 130.952 97.1666 130.763C97.0738 130.763 96.9848 130.701 96.9193 130.592C96.8537 130.483 96.8169 130.335 96.8169 130.18C96.8169 130.026 96.8537 129.877 96.9193 129.768C96.9848 129.659 97.0738 129.597 97.1666 129.597C111.012 129.791 125.055 130.18 138.894 130.763C138.987 130.765 139.076 130.828 139.141 130.939C139.206 131.049 139.241 131.198 139.24 131.353C139.239 131.507 139.201 131.655 139.135 131.763C139.068 131.871 138.978 131.93 138.886 131.928H138.892Z" fill="black"/>
<path d="M143.936 140.319H143.924C126.74 139.737 109.312 139.343 92.1232 139.154C92.008 139.154 91.8975 139.093 91.8161 138.983C91.7347 138.874 91.689 138.726 91.689 138.571C91.689 138.417 91.7347 138.269 91.8161 138.159C91.8975 138.05 92.008 137.989 92.1232 137.989C109.316 138.182 126.754 138.571 143.939 139.154C144.054 139.156 144.165 139.219 144.245 139.33C144.325 139.441 144.37 139.59 144.368 139.744C144.367 139.899 144.32 140.046 144.237 140.154C144.155 140.262 144.043 140.321 143.928 140.319H143.936Z" fill="black"/>
<path d="M98.4711 99.1808C98.8859 101.932 99.3957 104.687 100.372 107.294C100.557 107.783 100.789 108.307 101.255 108.542C101.864 108.85 102.589 108.542 103.205 108.248C111.219 104.447 120.086 102.799 128.93 103.467C131.358 103.652 133.771 104.016 136.204 104.135C136.686 104.159 137.22 104.156 137.583 103.838C137.969 103.5 138.026 102.929 138.052 102.417C138.641 90.7417 137.526 79.0432 134.743 67.6895C134.329 66.0043 133.873 64.3111 133.06 62.7781C132.843 62.3676 132.584 61.9534 132.181 61.7217C131.67 61.4289 131.04 61.4874 130.455 61.5589C118.752 62.9926 107.242 66.1203 95.4582 66.5037C94.4103 66.5376 93.1023 66.5609 92.3762 67.4442C91.8646 68.0649 92.2942 68.7115 92.661 69.2823C93.9018 71.2159 94.4232 73.6015 94.9681 75.8125C95.5691 78.2515 96.0228 80.7247 96.4013 83.2094C96.7816 85.7089 97.0854 88.2188 97.3875 90.7294C97.6895 93.24 97.9798 95.7512 98.3398 98.2537C98.3805 98.5619 98.4243 98.8708 98.4711 99.1808Z" fill="#FF8D55"/>
<path d="M116.57 85.2164C116.856 85.4747 117.176 85.7435 117.56 85.7712C117.92 85.7965 118.257 85.6042 118.552 85.397C120.07 84.335 121.141 82.7644 122.21 81.2536C126.444 75.2833 131.23 69.7235 136.502 64.6471C137.104 64.0671 137.778 63.468 138.536 63.1709C138.665 63.1206 138.805 63.1042 138.942 63.1231C139.079 63.142 139.209 63.1957 139.319 63.2791C139.429 63.3625 139.517 63.4727 139.572 63.5993C139.629 63.7259 139.651 63.8647 139.638 64.0024C139.532 65.0601 138.885 66.0951 138.269 67.011C134.101 73.2035 130.279 79.622 126.821 86.2378C124.884 89.9448 122.472 94.0155 120.511 97.0636C120.112 97.6836 119.541 98.2569 118.822 98.4196C117.548 98.7106 116.462 97.5221 115.695 96.4644L110.04 88.659L104.318 80.763L102.894 78.7965C102.472 78.2134 101.908 77.6112 101.665 76.9239C101.265 75.7953 102.117 75.0581 103.211 75.1918C104.403 75.3373 105.652 76.1355 106.663 76.7464C107.796 77.445 108.878 78.2253 109.898 79.0813C111.975 80.7981 113.868 82.7182 115.843 84.5507C116.084 84.7739 116.326 84.9958 116.57 85.2164Z" fill="#1B5EC9"/>
<path d="M116.598 95.2106C116.921 95.7364 117.338 96.3201 117.951 96.3663C118.564 96.4125 119.053 95.9053 119.416 95.4177C119.966 94.678 120.412 93.5722 119.769 92.912C119.486 92.6217 119.068 92.5194 118.688 92.3776C116.413 91.5325 115.206 89.1249 113.589 87.3152C113.158 86.8313 110.151 84.3441 112.588 88.5005C112.941 89.1015 113.303 89.6821 113.671 90.2708C114.213 91.1337 114.661 92.0583 115.195 92.9262L116.598 95.2106ZM99.9689 93.2332C99.9084 93.2332 99.8498 93.2116 99.8043 93.1715C99.7588 93.1315 99.7297 93.076 99.7224 93.0162C99.077 87.7676 98.2474 82.4715 97.2568 77.2764C97.2445 77.2121 97.2584 77.1456 97.2951 77.0915C97.3318 77.0375 97.3886 77.0002 97.4528 76.9879C97.5171 76.9756 97.5836 76.9894 97.6377 77.0262C97.6917 77.0629 97.729 77.1197 97.7413 77.1839C98.7331 82.3902 99.5646 87.6961 100.211 92.9564C100.216 92.9909 100.212 93.0267 100.202 93.06C100.191 93.0933 100.174 93.1241 100.151 93.1506C100.127 93.1765 100.099 93.1974 100.067 93.2116C100.034 93.2258 99.9997 93.2332 99.9646 93.2332H99.9689ZM100.606 98.7123C100.55 98.7117 100.495 98.6926 100.451 98.6568C100.407 98.6205 100.377 98.5712 100.365 98.5157C100.148 97.4709 100.106 96.91 100.078 96.3817C100.076 96.3491 100.081 96.317 100.092 96.2862C100.103 96.2554 100.119 96.2276 100.141 96.2036C100.163 96.1796 100.189 96.1598 100.218 96.1456C100.248 96.1315 100.279 96.1235 100.312 96.1222C100.344 96.1204 100.376 96.1247 100.407 96.1358C100.438 96.1469 100.466 96.1635 100.49 96.1851C100.514 96.2067 100.534 96.2332 100.547 96.2621C100.561 96.2917 100.57 96.3232 100.571 96.3558C100.598 96.8644 100.639 97.4037 100.849 98.4152C100.862 98.4787 100.849 98.5459 100.813 98.6001C100.778 98.655 100.721 98.6932 100.657 98.7068C100.641 98.7105 100.623 98.7123 100.606 98.7123ZM102.776 106.188C102.387 106.188 102.086 106.069 101.897 105.769C101.678 105.421 101.045 102.459 101.085 101.52C101.087 101.488 101.094 101.456 101.108 101.427C101.122 101.397 101.141 101.371 101.165 101.349C101.189 101.327 101.217 101.31 101.247 101.299C101.278 101.288 101.31 101.283 101.342 101.284C101.375 101.286 101.406 101.293 101.436 101.307C101.465 101.321 101.492 101.34 101.514 101.364C101.536 101.387 101.552 101.416 101.564 101.446C101.575 101.476 101.58 101.509 101.578 101.541C101.541 102.391 102.158 105.228 102.318 105.508C102.604 105.962 103.836 105.508 105.14 105.031C106.174 104.651 107.346 104.221 108.486 104.052C108.518 104.047 108.552 104.047 108.584 104.055C108.616 104.062 108.646 104.076 108.673 104.095C108.7 104.114 108.723 104.138 108.74 104.167C108.757 104.195 108.768 104.227 108.773 104.259C108.778 104.292 108.776 104.325 108.768 104.357C108.76 104.389 108.745 104.419 108.725 104.445C108.705 104.471 108.68 104.493 108.651 104.51C108.622 104.526 108.591 104.536 108.558 104.54C107.468 104.701 106.322 105.122 105.31 105.494C104.299 105.866 103.416 106.188 102.776 106.188ZM104.197 67.4484C104.132 67.4531 104.067 67.4316 104.018 67.3886C103.968 67.3457 103.938 67.2848 103.933 67.2194C103.929 67.154 103.95 67.0895 103.993 67.0399C104.036 66.9904 104.097 66.96 104.162 66.9553C106.481 66.6187 108.84 66.2156 111.122 65.8223C113.404 65.4291 115.769 65.0253 118.094 64.6876C118.159 64.6782 118.225 64.6949 118.277 64.734C118.33 64.7731 118.364 64.8315 118.374 64.8962C118.383 64.9609 118.366 65.0268 118.327 65.0792C118.288 65.1316 118.23 65.1664 118.165 65.1757C115.846 65.5123 113.486 65.9154 111.205 66.3087C108.924 66.7019 106.558 67.1057 104.233 67.4435C104.221 67.4472 104.209 67.4484 104.197 67.4484ZM121.871 64.4343C121.81 64.4342 121.751 64.4114 121.706 64.3704C121.661 64.3294 121.632 64.273 121.627 64.2122C121.62 64.1514 121.637 64.0905 121.673 64.0414C121.71 63.9922 121.763 63.9582 121.823 63.9461C122.775 63.7532 124.262 63.5146 125.317 63.4659C125.382 63.4631 125.446 63.4864 125.494 63.5307C125.543 63.575 125.572 63.6366 125.574 63.702C125.577 63.7674 125.554 63.8313 125.509 63.8795C125.465 63.9277 125.403 63.9563 125.338 63.959C124.311 64.0034 122.856 64.2401 121.921 64.4293C121.905 64.4325 121.888 64.4342 121.871 64.4343Z" fill="white"/>
<path d="M117.613 86.0633C116.853 86.0633 116.188 85.3544 115.674 84.8058C115.524 84.6394 115.366 84.481 115.2 84.3306C115.041 84.195 114.628 83.8227 114.056 83.3074C112.172 81.6111 108.252 78.0818 107.185 77.4414C107.131 77.4069 107.093 77.3526 107.078 77.2901C107.063 77.2276 107.073 77.1619 107.106 77.1068C107.139 77.0517 107.193 77.0116 107.255 76.9952C107.317 76.9787 107.383 76.9871 107.439 77.0186C108.548 77.6837 112.345 81.1038 114.385 82.9412C114.955 83.4535 115.366 83.8239 115.52 83.9552C115.7 84.1173 115.872 84.2887 116.034 84.4687C116.762 85.2459 117.371 85.8124 118.01 85.4598C118.039 85.4432 118.07 85.4315 118.104 85.4272C118.136 85.4222 118.169 85.4247 118.202 85.4327C118.234 85.4413 118.264 85.4567 118.29 85.4771C118.316 85.4974 118.338 85.5227 118.354 85.5523C118.37 85.5813 118.38 85.6133 118.383 85.646C118.386 85.6793 118.383 85.7126 118.373 85.7446C118.364 85.776 118.348 85.8056 118.326 85.8309C118.304 85.8562 118.278 85.8765 118.248 85.8913C118.055 86.0029 117.837 86.062 117.613 86.0633ZM102.129 77.7428C102.093 77.7428 102.057 77.7349 102.025 77.7195C101.992 77.7042 101.963 77.6818 101.94 77.6541C101.602 77.2485 101.416 76.8608 101.37 76.4693C101.309 75.9448 101.54 75.4344 101.943 75.1977C102.287 74.9955 102.672 74.9974 102.934 75.0338C103.71 75.1435 104.81 75.522 105.384 75.8099C105.442 75.8392 105.486 75.8905 105.507 75.9526C105.528 76.0147 105.523 76.0824 105.493 76.1408C105.464 76.1992 105.413 76.2437 105.351 76.2643C105.288 76.2849 105.221 76.2799 105.162 76.2506C104.623 75.9806 103.592 75.6249 102.865 75.5226C102.605 75.4856 102.366 75.5226 102.192 75.623C101.959 75.7599 101.823 76.0847 101.86 76.4126C101.894 76.706 102.045 77.0087 102.319 77.3372C102.361 77.3875 102.381 77.4524 102.375 77.5174C102.369 77.5825 102.337 77.6425 102.287 77.6843C102.243 77.722 102.187 77.7428 102.129 77.7428ZM103.635 80.0596C103.598 80.0596 103.563 80.0516 103.53 80.0356C103.497 80.0201 103.468 79.9973 103.444 79.9696C103.139 79.5991 102.862 79.2068 102.615 78.7951C102.582 78.739 102.572 78.6718 102.588 78.6083C102.604 78.5449 102.644 78.4903 102.7 78.4567C102.757 78.4231 102.824 78.4132 102.887 78.4292C102.951 78.4451 103.005 78.4856 103.039 78.5418C103.273 78.9321 103.535 79.3044 103.825 79.6559C103.855 79.6916 103.873 79.7354 103.879 79.7816C103.885 79.8284 103.878 79.8753 103.858 79.9178C103.838 79.9604 103.806 79.9961 103.767 80.0208C103.727 80.046 103.682 80.0596 103.635 80.0596ZM108.367 86.7413C108.323 86.7413 108.281 86.7302 108.243 86.708C108.205 86.6865 108.174 86.6556 108.152 86.618C107.083 84.7485 105.865 82.9684 104.508 81.2961C104.469 81.2449 104.452 81.1808 104.459 81.1173C104.467 81.0532 104.499 80.9953 104.548 80.9546C104.598 80.9145 104.662 80.8948 104.725 80.9004C104.789 80.9059 104.848 80.9361 104.89 80.9848C106.264 82.678 107.498 84.4804 108.581 86.3733C108.597 86.4011 108.607 86.4319 108.611 86.4646C108.615 86.4966 108.613 86.5293 108.605 86.5601C108.596 86.5915 108.581 86.6211 108.562 86.6464C108.542 86.6723 108.517 86.6932 108.489 86.7099C108.452 86.7302 108.41 86.7413 108.367 86.7413ZM118.346 98.6581C117.848 98.6581 117.355 98.5003 116.995 98.1218C116.972 98.0978 116.955 98.0707 116.943 98.0405C116.932 98.0103 116.926 97.9776 116.927 97.9455C116.928 97.9129 116.935 97.8814 116.948 97.8518C116.961 97.8223 116.98 97.7951 117.004 97.7729C117.027 97.7508 117.054 97.7335 117.085 97.7218C117.115 97.7101 117.147 97.7045 117.18 97.7051C117.212 97.7064 117.244 97.7132 117.274 97.7267C117.303 97.7397 117.33 97.7581 117.352 97.7822C117.867 98.3234 118.78 98.2389 119.376 97.8845C120.072 97.4703 120.557 96.7503 120.94 96.1013C122.453 93.5352 123.784 91.016 125.07 88.5813C126.629 85.6318 128.102 82.8488 129.85 80.022C130.261 79.3584 130.589 78.8605 130.908 78.408C130.926 78.3816 130.95 78.3591 130.978 78.3418C131.005 78.3246 131.036 78.3129 131.068 78.3075C131.1 78.3021 131.132 78.3029 131.164 78.3101C131.196 78.3174 131.225 78.3307 131.252 78.3494C131.278 78.3682 131.301 78.3919 131.318 78.4194C131.335 78.4468 131.347 78.4774 131.352 78.5093C131.358 78.5412 131.357 78.5739 131.35 78.6055C131.342 78.6371 131.329 78.667 131.31 78.6934C130.995 79.1372 130.674 79.6275 130.269 80.2821C128.53 83.0916 127.061 85.8704 125.506 88.8118C124.216 91.2533 122.881 93.7775 121.364 96.3534C120.949 97.0567 120.418 97.8389 119.626 98.3104C119.237 98.536 118.796 98.6562 118.346 98.6581ZM132.017 77.3058C131.978 77.3058 131.939 77.2965 131.905 77.2788C131.869 77.261 131.84 77.2353 131.816 77.2036C131.794 77.1719 131.779 77.1353 131.773 77.0967C131.767 77.0581 131.77 77.0186 131.783 76.9816C131.897 76.6382 132.076 76.32 132.31 76.044C132.331 76.0194 132.357 75.9991 132.386 75.9844C132.414 75.9696 132.446 75.9607 132.478 75.9582C132.511 75.9556 132.543 75.9593 132.574 75.9693C132.605 75.9793 132.633 75.9953 132.658 76.0162C132.682 76.0372 132.703 76.063 132.718 76.0917C132.732 76.1206 132.741 76.1521 132.744 76.1843C132.747 76.2166 132.742 76.2491 132.732 76.2799C132.723 76.3107 132.707 76.3393 132.686 76.3639C132.494 76.5913 132.347 76.8535 132.254 77.1363C132.237 77.1861 132.206 77.2294 132.163 77.2599C132.12 77.2903 132.069 77.3064 132.017 77.3058ZM136.531 69.7027C136.484 69.7027 136.439 69.6897 136.4 69.6651C136.361 69.6405 136.329 69.6054 136.309 69.5636C136.288 69.522 136.28 69.4754 136.285 69.4294C136.29 69.3833 136.308 69.3396 136.337 69.3033C137.185 68.2283 139.531 64.7549 139.183 63.6743C139.113 63.458 139.004 63.4093 138.927 63.3914C138.453 63.2792 137.521 63.9714 137.246 64.2544C137.2 64.2995 137.138 64.3249 137.074 64.3251C137.01 64.3253 136.947 64.3002 136.902 64.2552C136.855 64.2102 136.828 64.1489 136.827 64.0845C136.825 64.0201 136.849 63.9576 136.893 63.9104C137.13 63.6676 138.255 62.7288 139.04 62.9131C139.245 62.9612 139.518 63.1066 139.653 63.5246C140.172 65.1364 136.759 69.5652 136.724 69.6108C136.701 69.6397 136.671 69.663 136.638 69.6789C136.605 69.6948 136.568 69.7029 136.531 69.7027ZM130.796 70.7862C130.747 70.7863 130.7 70.772 130.659 70.7453C130.619 70.7184 130.587 70.6803 130.568 70.6357C130.55 70.591 130.544 70.5418 130.553 70.4941C130.562 70.4464 130.585 70.4025 130.619 70.3677C130.828 70.1526 131.211 69.7445 131.654 69.2724C133.367 67.4491 134.94 65.7885 135.376 65.4994C135.403 65.4815 135.433 65.4692 135.465 65.463C135.497 65.4568 135.53 65.4569 135.562 65.4634C135.593 65.4698 135.623 65.4823 135.65 65.5005C135.677 65.5186 135.7 65.5418 135.718 65.5688C135.736 65.5958 135.748 65.626 135.755 65.6578C135.761 65.6896 135.761 65.7223 135.754 65.7541C135.748 65.7858 135.735 65.8159 135.717 65.8428C135.699 65.8696 135.676 65.8927 135.649 65.9106C135.224 66.1916 133.214 68.3318 132.012 69.6089C131.567 70.0829 131.183 70.4916 130.971 70.7104C130.948 70.7341 130.921 70.753 130.891 70.766C130.861 70.779 130.828 70.7859 130.796 70.7862Z" fill="black"/>
<path d="M58.1296 221.986C58.0107 221.986 57.8942 221.953 57.7934 221.889C57.6925 221.828 57.6113 221.737 57.559 221.631C55.1735 216.773 54.8993 210.282 56.8616 205.096C56.8912 205.018 56.9358 204.947 56.993 204.885C57.0501 204.825 57.1185 204.776 57.1946 204.741C57.2707 204.708 57.3526 204.689 57.436 204.686C57.5194 204.684 57.6023 204.698 57.6803 204.727C57.7583 204.757 57.8296 204.801 57.8903 204.858C57.951 204.915 57.9998 204.984 58.034 205.06C58.0683 205.136 58.0873 205.218 58.0897 205.302C58.0922 205.385 58.0784 205.469 58.0488 205.546C56.2323 210.344 56.4939 216.583 58.6971 221.079C58.734 221.154 58.7557 221.235 58.7609 221.319C58.7663 221.401 58.7552 221.485 58.7283 221.564C58.7013 221.642 58.6592 221.715 58.604 221.778C58.5489 221.84 58.482 221.893 58.407 221.929C58.32 221.969 58.2252 221.988 58.1296 221.986ZM63.1291 217.889C62.9955 217.889 62.8652 217.846 62.7571 217.767C62.6488 217.689 62.5683 217.578 62.5268 217.451C61.5962 214.521 61.6626 211.366 62.7154 208.479C62.7752 208.322 62.8948 208.193 63.0483 208.125C63.2017 208.055 63.3762 208.051 63.5333 208.111C63.6905 208.169 63.8176 208.29 63.8866 208.444C63.9555 208.596 63.9608 208.772 63.901 208.929C62.9643 211.401 62.8993 214.516 63.733 217.057C63.759 217.136 63.7691 217.218 63.7628 217.302C63.7565 217.385 63.7338 217.466 63.6962 217.54C63.6585 217.615 63.6065 217.681 63.5433 217.735C63.4799 217.789 63.4065 217.83 63.3272 217.857C63.2634 217.878 63.1965 217.889 63.1291 217.889ZM69.7086 220.908C69.6865 220.91 69.6642 220.91 69.642 220.908C69.4751 220.891 69.3218 220.807 69.2159 220.677C69.1102 220.547 69.0604 220.379 69.0777 220.212C69.5748 215.421 69.6564 210.595 69.3218 205.789C69.3161 205.705 69.3269 205.621 69.3535 205.543C69.38 205.464 69.422 205.391 69.4768 205.327C69.5315 205.264 69.5982 205.213 69.673 205.175C69.7477 205.139 69.829 205.117 69.9122 205.11C69.9956 205.106 70.0791 205.115 70.1582 205.142C70.2373 205.169 70.3104 205.21 70.3733 205.266C70.4362 205.321 70.4878 205.388 70.525 205.462C70.5621 205.537 70.5841 205.618 70.5898 205.702C70.9289 210.579 70.8455 215.475 70.341 220.338C70.3253 220.495 70.2519 220.639 70.1349 220.745C70.0181 220.85 69.8661 220.908 69.7086 220.908ZM76.89 220.17C76.8585 220.171 76.8266 220.171 76.7949 220.17C76.6286 220.144 76.4792 220.054 76.3793 219.919C76.2794 219.783 76.2374 219.615 76.2623 219.448C76.8485 215.556 76.9432 211.604 76.5445 207.688C76.5361 207.604 76.5441 207.52 76.5682 207.44C76.5923 207.359 76.6319 207.285 76.6847 207.22C76.7377 207.155 76.8028 207.101 76.8765 207.061C76.9502 207.022 77.0311 206.998 77.1143 206.989C77.1976 206.981 77.2817 206.989 77.3619 207.012C77.4421 207.036 77.5166 207.076 77.5814 207.13C77.6462 207.182 77.7001 207.247 77.7397 207.321C77.7794 207.394 77.8041 207.475 77.8125 207.559C78.222 211.58 78.1246 215.638 77.5224 219.637C77.4982 219.786 77.421 219.922 77.305 220.021C77.1889 220.117 77.0417 220.171 76.89 220.17ZM82.9464 219.409H82.8655C82.6988 219.387 82.5476 219.301 82.4447 219.168C82.3419 219.035 82.296 218.867 82.3171 218.7C82.9489 213.685 82.8695 208.607 82.081 203.614C82.0542 203.448 82.0946 203.278 82.1932 203.142C82.2916 203.005 82.4403 202.913 82.6064 202.887C82.7723 202.86 82.9423 202.901 83.0786 202.999C83.2149 203.097 83.3063 203.246 83.3331 203.413C84.1404 208.524 84.222 213.725 83.5756 218.86C83.5549 219.013 83.4797 219.152 83.3639 219.252C83.2482 219.353 83.0998 219.409 82.9464 219.409ZM90.1934 220.17C90.153 220.17 90.1126 220.165 90.073 220.157C89.9912 220.141 89.9132 220.109 89.8436 220.063C89.7742 220.017 89.7143 219.959 89.6677 219.889C89.6209 219.819 89.5884 219.742 89.5716 219.661C89.555 219.578 89.5547 219.494 89.5705 219.414C90.4497 214.808 90.26 210.064 89.0158 205.543C88.9928 205.462 88.9858 205.378 88.9955 205.296C89.005 205.212 89.0308 205.133 89.0716 205.06C89.1121 204.987 89.1668 204.922 89.2323 204.871C89.2979 204.819 89.3729 204.781 89.4532 204.758C89.5336 204.735 89.6178 204.728 89.7005 204.738C89.7834 204.749 89.8636 204.774 89.9363 204.815C90.0091 204.857 90.073 204.912 90.1245 204.977C90.176 205.044 90.2139 205.118 90.2362 205.199C91.5336 209.91 91.7314 214.857 90.8148 219.656C90.7869 219.8 90.7095 219.93 90.5962 220.024C90.4829 220.117 90.3405 220.17 90.1934 220.17ZM97.1135 218.307C97.0737 218.307 97.0339 218.304 96.9946 218.296C96.9128 218.28 96.835 218.249 96.7653 218.203C96.6957 218.157 96.6358 218.098 96.589 218.03C96.5423 217.96 96.5094 217.882 96.4925 217.802C96.4757 217.719 96.4751 217.635 96.4906 217.554C97.1111 214.253 97.0896 210.862 96.4272 207.569C96.396 207.412 96.4245 207.25 96.5071 207.114C96.5896 206.979 96.7203 206.879 96.8732 206.835C97.026 206.79 97.1897 206.805 97.3321 206.876C97.4744 206.947 97.5847 207.069 97.6413 207.218L97.9821 208.119C98.0179 208.214 98.0303 208.315 98.0181 208.417C98.006 208.518 97.9697 208.615 97.9124 208.699C98.3601 211.718 98.3012 214.792 97.738 217.792C97.7104 217.936 97.6328 218.068 97.5188 218.161C97.4047 218.257 97.2614 218.307 97.1135 218.307ZM104.179 218.268C104.135 218.268 104.091 218.263 104.048 218.253C103.966 218.236 103.889 218.203 103.82 218.155C103.752 218.109 103.693 218.049 103.647 217.979C103.602 217.909 103.571 217.832 103.555 217.749C103.54 217.667 103.541 217.583 103.558 217.502C104.539 212.806 104.761 207.982 104.216 203.216C104.197 203.048 104.245 202.879 104.35 202.745C104.455 202.614 104.609 202.528 104.777 202.509C104.945 202.49 105.114 202.538 105.247 202.642C105.379 202.749 105.465 202.902 105.484 203.07C106.043 207.973 105.815 212.934 104.807 217.765C104.777 217.908 104.698 218.036 104.583 218.128C104.469 218.22 104.326 218.269 104.179 218.268ZM111.111 218.268C111.062 218.268 111.013 218.261 110.965 218.25C110.884 218.231 110.807 218.196 110.739 218.149C110.671 218.1 110.614 218.038 110.57 217.968C110.526 217.897 110.496 217.819 110.482 217.737C110.468 217.654 110.471 217.57 110.49 217.489C110.976 215.367 111.12 213.181 110.916 211.015C110.908 210.931 110.917 210.847 110.941 210.767C110.966 210.686 111.006 210.612 111.059 210.549C111.112 210.484 111.178 210.43 111.252 210.392C111.326 210.352 111.406 210.328 111.49 210.32C111.573 210.312 111.657 210.32 111.737 210.346C111.817 210.369 111.891 210.409 111.956 210.463C112.02 210.517 112.074 210.582 112.113 210.656C112.152 210.729 112.176 210.81 112.184 210.894C112.402 213.197 112.249 215.522 111.731 217.778C111.698 217.917 111.619 218.041 111.506 218.131C111.394 218.22 111.254 218.268 111.111 218.268ZM117.029 219.8C116.965 219.8 116.901 219.789 116.839 219.77C116.679 219.72 116.546 219.609 116.468 219.46C116.39 219.311 116.374 219.138 116.424 218.978C117.359 215.984 117.992 212.904 118.313 209.785C118.322 209.701 118.347 209.62 118.387 209.547C118.427 209.472 118.48 209.407 118.545 209.355C118.61 209.303 118.685 209.263 118.765 209.239C118.846 209.216 118.93 209.208 119.013 209.216C119.096 209.225 119.177 209.249 119.251 209.29C119.324 209.33 119.389 209.384 119.442 209.449C119.495 209.514 119.534 209.588 119.558 209.667C119.582 209.748 119.59 209.832 119.581 209.916C119.251 213.123 118.6 216.288 117.64 219.364C117.598 219.493 117.516 219.604 117.406 219.681C117.296 219.761 117.164 219.802 117.029 219.8ZM123.04 214.928C122.946 214.93 122.854 214.909 122.769 214.871C122.684 214.833 122.609 214.776 122.548 214.706C122.488 214.635 122.444 214.551 122.419 214.462C122.394 214.372 122.39 214.278 122.406 214.186L122.984 210.842C123.017 210.68 123.111 210.537 123.248 210.444C123.384 210.35 123.551 210.316 123.713 210.342C123.876 210.371 124.021 210.461 124.118 210.595C124.215 210.728 124.256 210.894 124.233 211.057L123.655 214.403C123.629 214.548 123.554 214.681 123.442 214.776C123.329 214.871 123.187 214.925 123.04 214.928Z" fill="black"/>
<path d="M71.128 122.657C74.5485 119.408 78.0387 116.182 82.0346 113.673C86.181 111.069 90.7839 109.292 95.3488 107.533L109.443 102.101C111.678 101.24 114.423 100.448 116.281 101.96C118.265 103.575 117.844 106.715 116.873 109.092C113.965 116.201 107.997 121.576 101.857 126.192C95.7165 130.807 89.1355 135.008 84.1506 140.85C80.0169 145.694 77.1591 151.47 73.9351 156.954C69.2403 164.946 63.718 172.416 58.2053 179.867C54.8768 171.004 52.6469 161.765 51.5656 152.359C51.3517 150.503 50.9427 148.162 49.4338 146.881C49.1469 146.64 48.3766 146.406 48.2704 146.032C48.1436 145.593 49.0946 144.881 49.372 144.585C50.3314 143.557 51.2951 142.537 52.263 141.519C56.1792 137.398 60.1612 133.342 64.2094 129.354C66.495 127.102 68.8012 124.87 71.128 122.657Z" fill="#FBD2B5"/>
<path d="M102.366 112.695C100.187 112.695 98.2246 111.814 97.1166 110.265C97.0637 110.198 97.025 110.12 97.0028 110.038C96.9806 109.955 96.9754 109.869 96.9876 109.784C96.9996 109.699 97.029 109.618 97.0733 109.544C97.1179 109.471 97.1767 109.408 97.2463 109.358C97.316 109.308 97.3949 109.273 97.4786 109.254C97.5623 109.236 97.6487 109.235 97.7329 109.251C97.817 109.266 97.8971 109.299 97.9683 109.347C98.0394 109.395 98.1001 109.456 98.1469 109.528C99.3832 111.254 101.838 111.658 103.723 111.295C105.894 110.875 107.825 109.634 109.692 108.434C109.834 108.343 110.005 108.312 110.17 108.348C110.334 108.384 110.478 108.483 110.569 108.625C110.66 108.766 110.691 108.938 110.655 109.102C110.619 109.267 110.52 109.41 110.378 109.501C108.5 110.707 106.375 112.071 103.964 112.546C103.437 112.646 102.902 112.697 102.366 112.695ZM86.2433 123.325C86.0834 123.325 85.9293 123.263 85.8122 123.155C83.6756 121.172 81.8767 118.853 80.4865 116.292C80.4385 116.219 80.4063 116.136 80.3917 116.049C80.3773 115.964 80.3808 115.875 80.402 115.789C80.4234 115.705 80.462 115.626 80.5155 115.556C80.5691 115.487 80.6365 115.429 80.7133 115.388C80.7901 115.345 80.8748 115.32 80.962 115.312C81.0492 115.304 81.137 115.315 81.2199 115.344C81.3028 115.371 81.379 115.417 81.4437 115.475C81.5085 115.534 81.5604 115.605 81.596 115.686C82.9203 118.127 84.6334 120.335 86.6681 122.226C86.7613 122.312 86.8263 122.426 86.8547 122.549C86.8829 122.673 86.8732 122.803 86.8266 122.922C86.7802 123.041 86.699 123.142 86.5938 123.214C86.4887 123.285 86.3643 123.325 86.237 123.325H86.2433ZM81.5881 123.548C81.4946 123.55 81.4019 123.531 81.3166 123.491C81.2315 123.453 81.1559 123.396 81.0952 123.325L78.5972 120.288C78.5439 120.223 78.5038 120.148 78.4792 120.069C78.4547 119.99 78.4461 119.906 78.454 119.822C78.4621 119.739 78.4864 119.658 78.5255 119.585C78.5648 119.511 78.6181 119.446 78.6826 119.392C78.7471 119.34 78.8214 119.3 78.9013 119.276C78.9812 119.251 79.0652 119.243 79.1483 119.251C79.2313 119.261 79.312 119.284 79.3856 119.324C79.4591 119.364 79.5241 119.417 79.5767 119.482L82.0747 122.519C82.1815 122.649 82.2323 122.816 82.2159 122.984C82.1996 123.15 82.1175 123.304 81.9875 123.412C81.8744 123.502 81.7331 123.55 81.5881 123.548Z" fill="black"/>
<path d="M81.0391 47.5489C80.3273 47.547 79.6386 47.2958 79.0927 46.8388C78.5468 46.3819 78.1783 45.7482 78.0514 45.0477C77.3207 40.9267 77.0861 38.1624 78.1607 37.1226C78.7155 36.5837 80.4352 36.384 85.6103 35.9021C88.6726 35.6168 92.1438 35.2951 95.3345 34.7926C96.211 34.6547 96.9686 34.8338 97.5852 35.3236C99.1084 36.5361 99.3082 39.3448 99.454 41.3943C99.4904 41.9141 99.5221 42.3643 99.5713 42.7035C99.6676 43.3527 99.506 44.0138 99.1208 44.5454C98.7356 45.0769 98.1576 45.4364 97.5107 45.547C92.3071 46.4441 86.9434 46.9735 81.7556 47.495L81.3435 47.5346C81.2423 47.5451 81.1407 47.5499 81.0391 47.5489ZM79.0341 38.0498C78.5158 38.6014 78.6077 40.8823 79.3051 44.829C79.3842 45.2662 79.6248 45.6575 79.9792 45.9254C80.3338 46.1932 80.776 46.3178 81.2182 46.2745L81.6319 46.2333C86.7975 45.7198 92.1375 45.1888 97.2968 44.2996C97.6187 44.2443 97.9062 44.0653 98.0978 43.8008C98.2895 43.5363 98.37 43.2072 98.3223 42.8842C98.2668 42.5006 98.2335 42.0298 98.1955 41.4846C98.0734 39.7728 97.8896 37.1844 96.8022 36.3174C96.471 36.0543 96.0573 35.9655 95.5342 36.0464C92.3055 36.5536 88.8121 36.8785 85.7308 37.1654C82.8381 37.4301 79.5635 37.7328 79.0341 38.0498Z" fill="#1B5EC9"/>
<path d="M84.8897 47.1748C84.7641 47.1749 84.6416 47.1375 84.5378 47.067C84.3982 46.9738 84.3012 46.8289 84.2682 46.6642C84.2352 46.4997 84.269 46.3287 84.3619 46.1889C85.6299 44.2869 86.9074 40.8838 87.7491 38.6331C88.2246 37.373 88.456 36.7548 88.6272 36.4711C88.7144 36.3273 88.8551 36.2241 89.0185 36.184C89.1818 36.1441 89.3544 36.1707 89.4981 36.2579C89.6419 36.3451 89.7451 36.4858 89.785 36.6492C89.8251 36.8125 89.7985 36.9851 89.7113 37.1289C89.594 37.3222 89.2755 38.175 88.9378 39.0769C88.0692 41.3783 86.7695 44.8654 85.4175 46.8926C85.3595 46.9795 85.281 47.0507 85.1889 47.1C85.0968 47.1491 84.9941 47.1748 84.8897 47.1748Z" fill="#1B5EC9"/>
<path d="M112.162 36.7516C113.747 36.2095 115.627 37.85 115.299 39.5C114.971 41.15 112.614 41.9505 111.35 40.8425C110.087 39.7346 110.563 37.2921 112.162 36.7516Z" fill="black"/>
<path d="M119.39 41.1771C120.816 41.529 122.361 40.1246 122.151 38.6759C121.94 37.2272 120.005 36.2476 118.79 37.0671C116.549 38.5808 117.968 40.8236 119.39 41.1771Z" fill="#FF5400"/>
<path d="M124.674 38.5758C124.559 38.8806 124.516 39.2076 124.548 39.5318C124.58 39.8557 124.686 40.1682 124.857 40.4446C125.75 41.9361 128.262 41.7395 128.937 40.1276C129.132 39.6508 129.155 39.1209 129.002 38.6291C128.848 38.1373 128.529 37.7141 128.098 37.4321C127.667 37.1501 127.151 37.0268 126.639 37.0834C126.127 37.14 125.651 37.3728 125.292 37.7421C125.041 37.9838 124.832 38.2657 124.674 38.5758Z" fill="#1B5EC9"/>
<path d="M94.6881 187.054C95.2492 186.944 96.8009 186.065 93.0555 185.152C91.5656 184.789 87.714 185.004 86.7281 180.996C86.3255 179.36 86.7788 176.616 86.5474 174.973C86.4285 174.126 86.0846 172.923 84.9624 172.537C83.268 171.948 81.5625 173.204 81.5879 177.249C81.6053 180.013 82.7323 184.63 84.8927 186.203C86.9595 187.71 92.1711 187.537 94.6881 187.054ZM60.4641 177.444C60.3471 177.444 60.2322 177.41 60.1325 177.35C60.0326 177.288 59.9518 177.201 59.8987 177.097C59.8457 176.992 59.8226 176.875 59.8321 176.759C59.8415 176.642 59.883 176.529 59.9521 176.436C61.4246 174.429 62.4881 173.074 63.3551 171.985C65.1129 169.766 66.1749 168.414 68.6349 164.191C68.6735 164.114 68.7276 164.044 68.7938 163.988C68.8601 163.933 68.937 163.892 69.0199 163.866C69.1029 163.841 69.1901 163.833 69.276 163.844C69.3621 163.854 69.4451 163.882 69.5201 163.925C69.5951 163.968 69.6604 164.027 69.7119 164.096C69.7634 164.166 69.8002 164.245 69.8198 164.329C69.8395 164.413 69.8417 164.502 69.8263 164.586C69.811 164.672 69.7782 164.752 69.7301 164.825C67.2258 169.126 66.0846 170.574 64.349 172.768C63.4518 173.904 62.4342 175.193 60.9744 177.182C60.916 177.263 60.8392 177.328 60.7505 177.374C60.6619 177.418 60.5638 177.444 60.4641 177.444ZM48.2736 146.666C48.1365 146.666 48.0031 146.621 47.8932 146.539C47.7835 146.456 47.7035 146.341 47.665 146.209C47.4351 145.417 48.2197 144.715 48.8506 144.149C48.9631 144.046 49.0693 143.951 49.1248 143.892C50.2739 142.678 51.4342 141.46 52.5738 140.275C57.2258 135.433 62.0206 130.606 66.8264 125.913C66.9468 125.796 67.109 125.731 67.2773 125.732C67.4455 125.734 67.606 125.804 67.7235 125.924C67.8411 126.045 67.9059 126.206 67.9039 126.374C67.9016 126.542 67.8328 126.704 67.7124 126.821C62.9161 131.5 58.1293 136.322 53.4884 141.153C52.3503 142.337 51.1916 143.551 50.0457 144.764C49.9569 144.859 49.838 144.965 49.7001 145.081C49.5036 145.258 48.998 145.715 48.9076 145.935C48.9298 146.086 48.8965 146.241 48.8138 146.369C48.7311 146.498 48.6046 146.593 48.4575 146.636C48.398 146.655 48.3361 146.664 48.2736 146.666Z" fill="black"/>
<path d="M71.1091 162.541C70.9939 162.541 70.8807 162.509 70.7818 162.449C70.683 162.391 70.6024 162.305 70.5483 162.204C70.4944 162.102 70.4692 161.986 70.4756 161.872C70.4819 161.757 70.5196 161.646 70.5845 161.55L72.309 159.014C72.3551 158.943 72.4147 158.883 72.4844 158.837C72.5542 158.789 72.6325 158.756 72.7149 158.74C72.7973 158.723 72.8823 158.723 72.9647 158.74C73.0471 158.758 73.1254 158.789 73.195 158.837C73.2646 158.884 73.3242 158.945 73.3701 159.014C73.4161 159.086 73.4475 159.165 73.4627 159.247C73.4779 159.33 73.4765 159.415 73.4586 159.496C73.4407 159.579 73.4066 159.656 73.3583 159.726L71.6337 162.262C71.5757 162.348 71.4976 162.418 71.4061 162.467C71.3147 162.516 71.2126 162.541 71.1091 162.541Z" fill="black"/>
<path d="M97.4764 42.0916C97.3244 42.091 97.1778 42.036 97.063 41.9363C96.9482 41.8368 96.873 41.6992 96.8511 41.5489C96.8292 41.3985 96.862 41.2452 96.9436 41.1172C97.0253 40.9889 97.1502 40.8943 97.2957 40.8506C97.9782 40.6699 98.6769 40.5573 99.3816 40.5144C99.6162 40.4922 99.8571 40.47 100.084 40.4415C100.727 40.3654 101.653 40.2055 102.254 39.7109C102.302 39.6897 102.342 39.652 102.366 39.6044C102.389 39.5569 102.396 39.5027 102.384 39.4508C102.393 39.0879 102.327 38.817 102.185 38.6411C101.959 38.4109 101.659 38.2694 101.337 38.2415C100.901 38.1968 100.462 38.201 100.027 38.2543L97.2037 38.4873C97.0356 38.5011 96.8688 38.4477 96.7401 38.3385C96.6764 38.2844 96.6239 38.2185 96.5858 38.1441C96.5476 38.0698 96.5242 37.9888 96.5174 37.9054C96.5105 37.8222 96.5201 37.7385 96.5457 37.659C96.5712 37.5794 96.6121 37.5055 96.6661 37.4418C96.7752 37.3131 96.931 37.2331 97.0991 37.2193L99.9221 36.9863C100.455 36.9235 100.994 36.9235 101.528 36.9863C102.162 37.0582 102.748 37.3626 103.171 37.8405C103.507 38.2557 103.669 38.8075 103.647 39.4827C103.648 39.7005 103.604 39.9164 103.518 40.1167C103.409 40.3381 103.251 40.5317 103.056 40.6824C102.198 41.3909 101.032 41.5985 100.23 41.6954C99.9855 41.7239 99.7398 41.7477 99.4941 41.7699C98.8723 41.807 98.2554 41.9041 97.6523 42.0598C97.5954 42.0785 97.5361 42.0891 97.4764 42.0916ZM74.9012 44.8304C73.8899 44.8304 73.0958 44.561 72.8834 43.7336C72.8652 43.6795 72.8435 43.6266 72.8184 43.5751C72.7214 43.3914 72.6606 43.1907 72.6393 42.9839C72.5743 42.1232 73.0388 41.2134 73.855 40.6063C74.2925 40.2893 75.3085 40.1102 77.4245 39.8471C77.9159 39.7853 78.534 39.7092 78.6624 39.6696C78.7423 39.6452 78.8262 39.6368 78.9092 39.6448C78.9923 39.6529 79.073 39.6773 79.1467 39.7166C79.2202 39.756 79.2853 39.8094 79.3383 39.874C79.3912 39.9386 79.4308 40.0129 79.4549 40.0928C79.5047 40.253 79.4889 40.4263 79.411 40.5748C79.3332 40.7235 79.1997 40.835 79.0397 40.8853C78.5594 40.9909 78.0728 41.066 77.583 41.1104C76.7224 41.2166 74.9329 41.4401 74.5984 41.6382C74.1499 41.971 73.8725 42.464 73.9042 42.8888C73.9042 42.9109 73.9438 42.9854 73.9676 43.0393C74.028 43.1598 74.0768 43.2855 74.1134 43.415C74.1134 43.415 74.3369 43.6527 75.5748 43.5164C76.4767 43.3942 77.3706 43.2191 78.2519 42.9918C78.6989 42.8856 79.0444 42.8016 79.3028 42.7604C79.4689 42.7337 79.6388 42.7742 79.775 42.8726C79.9113 42.9712 80.0029 43.1199 80.0295 43.2858C80.0563 43.4519 80.0159 43.6218 79.9173 43.7582C79.8189 43.8943 79.6702 43.9859 79.5041 44.0125C79.298 44.0458 78.9493 44.1282 78.5531 44.2249C77.3912 44.5023 76.0138 44.8304 74.9012 44.8304Z" fill="#1B5EC9"/>
<path d="M78.6035 37.5742C77.6255 38.5253 78.1914 42.1978 78.6748 44.9367C78.7809 45.5317 79.1077 46.0649 79.59 46.4293C80.0723 46.7937 80.6743 46.9627 81.2759 46.9021C83.0067 46.7309 83.1573 46.7246 84.8897 46.5407L89.5228 36.1588C84.1067 36.7167 79.1931 37.0068 78.6035 37.5742Z" fill="#1B5EC9"/>
<path d="M197.714 54.4473C197.583 54.4475 197.457 54.4066 197.353 54.331C197.25 54.2555 197.177 54.1494 197.144 54.0299C195.349 47.2112 190.004 41.2373 183.196 38.4444C183.058 38.3826 182.951 38.2725 182.898 38.1376C182.844 38.0026 182.847 37.853 182.908 37.7205C182.968 37.588 183.08 37.483 183.221 37.4274C183.361 37.3719 183.518 37.3704 183.661 37.423C190.797 40.3453 196.401 46.6073 198.283 53.7557C198.305 53.8381 198.306 53.9241 198.289 54.0075C198.271 54.0907 198.233 54.1689 198.177 54.2361C198.123 54.3033 198.053 54.3576 197.972 54.395C197.891 54.4323 197.803 54.4517 197.714 54.4515V54.4473Z" fill="black"/>
<path d="M200.098 51.2007C199.985 51.2004 199.873 51.1653 199.78 51.0999C199.688 51.0346 199.618 50.9423 199.581 50.8357C198.139 46.7811 195.801 43.0986 192.739 40.0589C192.651 39.9549 192.606 39.8222 192.612 39.6872C192.618 39.552 192.674 39.4239 192.77 39.3278C192.866 39.2315 192.994 39.1744 193.131 39.167C193.267 39.1596 193.401 39.2029 193.507 39.2883C196.687 42.4438 199.114 46.2669 200.611 50.4764C200.634 50.5438 200.645 50.6153 200.641 50.6868C200.637 50.7582 200.619 50.8282 200.588 50.8926C200.556 50.9571 200.512 51.0149 200.459 51.0625C200.405 51.1103 200.342 51.1469 200.275 51.1706C200.218 51.1899 200.159 51.2 200.098 51.2007ZM205.068 42.5436C204.935 42.5451 204.806 42.4988 204.706 42.4134C204.604 42.3282 204.539 42.2095 204.519 42.0793C203.559 35.7637 199.418 29.9983 193.718 27.0345C193.653 27.0011 193.597 26.9556 193.55 26.9008C193.505 26.8458 193.47 26.7823 193.448 26.714C193.427 26.6456 193.419 26.5738 193.426 26.5024C193.433 26.4312 193.453 26.3619 193.486 26.2985C193.52 26.2352 193.566 26.179 193.62 26.1331C193.677 26.0873 193.74 26.0527 193.81 26.0314C193.878 26.0101 193.949 26.0025 194.022 26.0089C194.093 26.0154 194.163 26.0359 194.228 26.0691C200.231 29.1908 204.591 35.2641 205.609 41.9173C205.63 42.0601 205.594 42.2057 205.508 42.3218C205.422 42.4379 205.293 42.5153 205.149 42.5368C205.121 42.541 205.094 42.5433 205.068 42.5436Z" fill="black"/>
<path d="M185.365 209.679C182.032 209.679 178.843 209.364 175.228 208.712C175.15 208.701 175.076 208.674 175.01 208.635C174.944 208.595 174.886 208.543 174.841 208.482C174.794 208.42 174.763 208.35 174.747 208.276C174.729 208.202 174.728 208.125 174.742 208.051C174.757 207.976 174.786 207.905 174.829 207.842C174.871 207.778 174.928 207.725 174.993 207.682C175.058 207.64 175.131 207.612 175.208 207.599C175.284 207.585 175.363 207.586 175.439 207.603C180.988 208.604 185.544 208.793 191.16 208.254C191.236 208.247 191.312 208.254 191.386 208.275C191.459 208.296 191.527 208.331 191.586 208.379C191.646 208.426 191.695 208.485 191.731 208.55C191.768 208.616 191.789 208.688 191.797 208.762C191.804 208.837 191.797 208.911 191.775 208.982C191.753 209.054 191.715 209.12 191.668 209.178C191.618 209.234 191.559 209.282 191.492 209.318C191.424 209.353 191.35 209.376 191.275 209.383C189.196 209.579 187.26 209.679 185.365 209.679ZM185.76 205.521C183.051 205.521 180.656 205.137 177.592 204.287C177.517 204.268 177.447 204.234 177.386 204.189C177.325 204.142 177.274 204.086 177.235 204.021C177.198 203.955 177.173 203.883 177.164 203.809C177.156 203.734 177.161 203.658 177.183 203.586C177.203 203.514 177.24 203.447 177.288 203.389C177.337 203.329 177.396 203.281 177.463 203.245C177.531 203.21 177.606 203.187 177.682 203.18C177.759 203.173 177.837 203.18 177.911 203.202C182.146 204.376 185.054 204.625 189.434 204.19C189.588 204.175 189.741 204.22 189.862 204.314C189.98 204.409 190.057 204.547 190.073 204.697C190.089 204.846 190.043 204.996 189.944 205.113C189.847 205.229 189.706 205.303 189.553 205.319C188.292 205.449 187.026 205.516 185.76 205.521Z" fill="black"/>
</svg>
