<svg width="91" height="27" viewBox="0 0 91 27" fill="none" xmlns="http://www.w3.org/2000/svg">
<rect y="0.5" width="91" height="26" rx="13" fill="#053969"/>
<path d="M18.3527 17.5V11.1H16.3727V10.05H21.4727V11.1H19.5227V17.5H18.3527ZM21.8493 17.5V12.09H22.9293V13.18L22.8293 13.02C22.9493 12.6667 23.1426 12.4133 23.4093 12.26C23.6759 12.1 23.9959 12.02 24.3693 12.02H24.6993V13.05H24.2293C23.8559 13.05 23.5526 13.1667 23.3193 13.4C23.0926 13.6267 22.9793 13.9533 22.9793 14.38V17.5H21.8493ZM27.2923 17.62C26.9256 17.62 26.6023 17.5567 26.3223 17.43C26.049 17.2967 25.8356 17.1167 25.6823 16.89C25.529 16.6567 25.4523 16.3833 25.4523 16.07C25.4523 15.7767 25.5156 15.5133 25.6423 15.28C25.7756 15.0467 25.979 14.85 26.2523 14.69C26.5256 14.53 26.869 14.4167 27.2823 14.35L29.1623 14.04V14.93L27.5023 15.22C27.2023 15.2733 26.9823 15.37 26.8423 15.51C26.7023 15.6433 26.6323 15.8167 26.6323 16.03C26.6323 16.2367 26.709 16.4067 26.8623 16.54C27.0223 16.6667 27.2256 16.73 27.4723 16.73C27.779 16.73 28.0456 16.6633 28.2723 16.53C28.5056 16.3967 28.6856 16.22 28.8123 16C28.939 15.7733 29.0023 15.5233 29.0023 15.25V13.86C29.0023 13.5933 28.9023 13.3767 28.7023 13.21C28.509 13.0367 28.249 12.95 27.9223 12.95C27.6223 12.95 27.359 13.03 27.1323 13.19C26.9123 13.3433 26.749 13.5433 26.6423 13.79L25.7023 13.32C25.8023 13.0533 25.9656 12.82 26.1923 12.62C26.419 12.4133 26.6823 12.2533 26.9823 12.14C27.289 12.0267 27.6123 11.97 27.9523 11.97C28.379 11.97 28.7556 12.05 29.0823 12.21C29.4156 12.37 29.6723 12.5933 29.8523 12.88C30.039 13.16 30.1323 13.4867 30.1323 13.86V17.5H29.0523V16.52L29.2823 16.55C29.1556 16.77 28.9923 16.96 28.7923 17.12C28.599 17.28 28.3756 17.4033 28.1223 17.49C27.8756 17.5767 27.599 17.62 27.2923 17.62ZM34.2236 17.62C33.6836 17.62 33.2036 17.4967 32.7836 17.25C32.3702 16.9967 32.0402 16.6567 31.7936 16.23C31.5536 15.8033 31.4336 15.32 31.4336 14.78C31.4336 14.2467 31.5536 13.7667 31.7936 13.34C32.0336 12.9133 32.3636 12.58 32.7836 12.34C33.2036 12.0933 33.6836 11.97 34.2236 11.97C34.5902 11.97 34.9336 12.0367 35.2536 12.17C35.5736 12.2967 35.8502 12.4733 36.0836 12.7C36.3236 12.9267 36.5002 13.19 36.6136 13.49L35.6236 13.95C35.5102 13.67 35.3269 13.4467 35.0736 13.28C34.8269 13.1067 34.5436 13.02 34.2236 13.02C33.9169 13.02 33.6402 13.0967 33.3936 13.25C33.1536 13.3967 32.9636 13.6067 32.8236 13.88C32.6836 14.1467 32.6136 14.45 32.6136 14.79C32.6136 15.13 32.6836 15.4367 32.8236 15.71C32.9636 15.9767 33.1536 16.1867 33.3936 16.34C33.6402 16.4933 33.9169 16.57 34.2236 16.57C34.5502 16.57 34.8336 16.4867 35.0736 16.32C35.3202 16.1467 35.5036 15.9167 35.6236 15.63L36.6136 16.1C36.5069 16.3867 36.3336 16.6467 36.0936 16.88C35.8602 17.1067 35.5836 17.2867 35.2636 17.42C34.9436 17.5533 34.5969 17.62 34.2236 17.62ZM37.918 17.5V9.93H39.048V15L38.608 14.89L41.318 12.09H42.728L40.688 14.26L42.818 17.5H41.518L39.618 14.63L40.288 14.54L38.688 16.24L39.048 15.49V17.5H37.918ZM49.4699 17.62C48.9299 17.62 48.4266 17.5233 47.9599 17.33C47.4999 17.1367 47.0932 16.8667 46.7399 16.52C46.3932 16.1733 46.1199 15.7667 45.9199 15.3C45.7266 14.8333 45.6299 14.3233 45.6299 13.77C45.6299 13.2167 45.7266 12.7067 45.9199 12.24C46.1199 11.7667 46.3932 11.36 46.7399 11.02C47.0866 10.6733 47.4932 10.4067 47.9599 10.22C48.4266 10.0267 48.9299 9.93 49.4699 9.93C50.0166 9.93 50.5199 10.0267 50.9799 10.22C51.4466 10.4067 51.8532 10.6733 52.1999 11.02C52.5532 11.3667 52.8266 11.7733 53.0199 12.24C53.2132 12.7067 53.3099 13.2167 53.3099 13.77C53.3099 14.3233 53.2099 14.8333 53.0099 15.3C52.8166 15.7667 52.5466 16.1733 52.1999 16.52C51.8532 16.8667 51.4466 17.1367 50.9799 17.33C50.5132 17.5233 50.0099 17.62 49.4699 17.62ZM49.4699 16.54C49.8566 16.54 50.2099 16.47 50.5299 16.33C50.8566 16.19 51.1399 15.9967 51.3799 15.75C51.6199 15.4967 51.8066 15.2033 51.9399 14.87C52.0732 14.53 52.1399 14.1633 52.1399 13.77C52.1399 13.3767 52.0732 13.0133 51.9399 12.68C51.8066 12.3467 51.6199 12.0533 51.3799 11.8C51.1399 11.5467 50.8566 11.35 50.5299 11.21C50.2099 11.07 49.8566 11 49.4699 11C49.0832 11 48.7266 11.07 48.3999 11.21C48.0799 11.35 47.7999 11.5467 47.5599 11.8C47.3199 12.0533 47.1332 12.3467 46.9999 12.68C46.8732 13.0133 46.8099 13.3767 46.8099 13.77C46.8099 14.1633 46.8732 14.53 46.9999 14.87C47.1332 15.2033 47.3199 15.4967 47.5599 15.75C47.7999 15.9967 48.0832 16.19 48.4099 16.33C48.7366 16.47 49.0899 16.54 49.4699 16.54ZM54.7192 17.5V12.09H55.7992V13.18L55.6992 13.02C55.8192 12.6667 56.0125 12.4133 56.2792 12.26C56.5458 12.1 56.8658 12.02 57.2392 12.02H57.5692V13.05H57.0992C56.7258 13.05 56.4225 13.1667 56.1892 13.4C55.9625 13.6267 55.8492 13.9533 55.8492 14.38V17.5H54.7192ZM61.0422 17.62C60.5222 17.62 60.0556 17.4967 59.6422 17.25C59.2356 16.9967 58.9122 16.6567 58.6722 16.23C58.4389 15.8033 58.3222 15.3233 58.3222 14.79C58.3222 14.2567 58.4422 13.7767 58.6822 13.35C58.9222 12.9233 59.2456 12.5867 59.6522 12.34C60.0589 12.0933 60.5189 11.97 61.0322 11.97C61.4656 11.97 61.8489 12.0567 62.1822 12.23C62.5156 12.4033 62.7789 12.6433 62.9722 12.95L62.8022 13.21V9.93H63.9222V17.5H62.8522V16.4L62.9822 16.61C62.7956 16.9367 62.5289 17.1867 62.1822 17.36C61.8356 17.5333 61.4556 17.62 61.0422 17.62ZM61.1522 16.57C61.4656 16.57 61.7456 16.4933 61.9922 16.34C62.2456 16.1867 62.4422 15.9767 62.5822 15.71C62.7289 15.4367 62.8022 15.13 62.8022 14.79C62.8022 14.45 62.7289 14.1467 62.5822 13.88C62.4422 13.6133 62.2456 13.4033 61.9922 13.25C61.7456 13.0967 61.4656 13.02 61.1522 13.02C60.8389 13.02 60.5556 13.0967 60.3022 13.25C60.0489 13.4033 59.8522 13.6133 59.7122 13.88C59.5722 14.1467 59.5022 14.45 59.5022 14.79C59.5022 15.13 59.5722 15.4367 59.7122 15.71C59.8522 15.9767 60.0456 16.1867 60.2922 16.34C60.5456 16.4933 60.8322 16.57 61.1522 16.57ZM67.9814 17.62C67.4414 17.62 66.9614 17.4967 66.5414 17.25C66.1281 16.9967 65.8048 16.6567 65.5714 16.23C65.3381 15.7967 65.2214 15.3133 65.2214 14.78C65.2214 14.2333 65.3381 13.75 65.5714 13.33C65.8114 12.91 66.1314 12.58 66.5314 12.34C66.9314 12.0933 67.3848 11.97 67.8914 11.97C68.2981 11.97 68.6614 12.04 68.9814 12.18C69.3014 12.32 69.5714 12.5133 69.7914 12.76C70.0114 13 70.1781 13.2767 70.2914 13.59C70.4114 13.9033 70.4714 14.2367 70.4714 14.59C70.4714 14.6767 70.4681 14.7667 70.4614 14.86C70.4548 14.9533 70.4414 15.04 70.4214 15.12H66.1114V14.22H69.7814L69.2414 14.63C69.3081 14.3033 69.2848 14.0133 69.1714 13.76C69.0648 13.5 68.8981 13.2967 68.6714 13.15C68.4514 12.9967 68.1914 12.92 67.8914 12.92C67.5914 12.92 67.3248 12.9967 67.0914 13.15C66.8581 13.2967 66.6781 13.51 66.5514 13.79C66.4248 14.0633 66.3748 14.3967 66.4014 14.79C66.3681 15.1567 66.4181 15.4767 66.5514 15.75C66.6914 16.0233 66.8848 16.2367 67.1314 16.39C67.3848 16.5433 67.6714 16.62 67.9914 16.62C68.3181 16.62 68.5948 16.5467 68.8214 16.4C69.0548 16.2533 69.2381 16.0633 69.3714 15.83L70.2914 16.28C70.1848 16.5333 70.0181 16.7633 69.7914 16.97C69.5714 17.17 69.3048 17.33 68.9914 17.45C68.6848 17.5633 68.3481 17.62 67.9814 17.62ZM71.7743 17.5V12.09H72.8543V13.18L72.7543 13.02C72.8743 12.6667 73.0676 12.4133 73.3343 12.26C73.6009 12.1 73.9209 12.02 74.2943 12.02H74.6243V13.05H74.1543C73.7809 13.05 73.4776 13.1667 73.2443 13.4C73.0176 13.6267 72.9043 13.9533 72.9043 14.38V17.5H71.7743Z" fill="white"/>
</svg>
