<svg width="98" height="32" viewBox="0 0 98 32" fill="none" xmlns="http://www.w3.org/2000/svg">
<rect x="0.5" y="0.5" width="97" height="31" rx="15.5" stroke="#EAEAEA"/>
<path d="M16.508 21V13.32H14.132V12.06H20.252V13.32H17.912V21H16.508ZM20.0799 21V19.764H21.0639V15.732H20.0799V14.508H22.3599V15.84L22.2279 15.636C22.3799 15.204 22.6119 14.896 22.9239 14.712C23.2439 14.52 23.6319 14.424 24.0879 14.424H24.4839V15.66H23.9199C23.4719 15.66 23.1079 15.8 22.8279 16.08C22.5559 16.352 22.4199 16.744 22.4199 17.256V19.764H23.6439V21H20.0799ZM27.3532 21.144C26.9132 21.144 26.5252 21.068 26.1892 20.916C25.8612 20.756 25.6052 20.54 25.4212 20.268C25.2372 19.988 25.1452 19.66 25.1452 19.284C25.1452 18.932 25.2212 18.616 25.3732 18.336C25.5332 18.056 25.7772 17.82 26.1052 17.628C26.4332 17.436 26.8452 17.3 27.3412 17.22L29.5972 16.848V17.916L27.6052 18.264C27.2452 18.328 26.9812 18.444 26.8132 18.612C26.6452 18.772 26.5612 18.98 26.5612 19.236C26.5612 19.484 26.6532 19.688 26.8372 19.848C27.0292 20 27.2732 20.076 27.5692 20.076C27.9372 20.076 28.2572 19.996 28.5292 19.836C28.8092 19.676 29.0252 19.464 29.1772 19.2C29.3292 18.928 29.4052 18.628 29.4052 18.3V16.632C29.4052 16.312 29.2852 16.052 29.0452 15.852C28.8132 15.644 28.5012 15.54 28.1092 15.54C27.7492 15.54 27.4332 15.636 27.1612 15.828C26.8972 16.012 26.7012 16.252 26.5732 16.548L25.4452 15.984C25.5652 15.664 25.7612 15.384 26.0332 15.144C26.3052 14.896 26.6212 14.704 26.9812 14.568C27.3492 14.432 27.7372 14.364 28.1452 14.364C28.6572 14.364 29.1092 14.46 29.5012 14.652C29.9012 14.844 30.2092 15.112 30.4252 15.456C30.6492 15.792 30.7612 16.184 30.7612 16.632V19.86H31.4812V21H29.4652V19.824L29.7412 19.86C29.5892 20.124 29.3932 20.352 29.1532 20.544C28.9212 20.736 28.6532 20.884 28.3492 20.988C28.0532 21.092 27.7212 21.144 27.3532 21.144ZM35.7588 21.144C35.1108 21.144 34.5348 20.996 34.0308 20.7C33.5348 20.396 33.1388 19.988 32.8428 19.476C32.5548 18.964 32.4108 18.384 32.4108 17.736C32.4108 17.096 32.5548 16.52 32.8428 16.008C33.1308 15.496 33.5268 15.096 34.0308 14.808C34.5348 14.512 35.1108 14.364 35.7588 14.364C36.1988 14.364 36.6108 14.444 36.9948 14.604C37.3788 14.756 37.7108 14.968 37.9908 15.24C38.2788 15.512 38.4908 15.828 38.6268 16.188L37.4388 16.74C37.3028 16.404 37.0828 16.136 36.7788 15.936C36.4828 15.728 36.1428 15.624 35.7588 15.624C35.3908 15.624 35.0588 15.716 34.7628 15.9C34.4748 16.076 34.2468 16.328 34.0788 16.656C33.9108 16.976 33.8268 17.34 33.8268 17.748C33.8268 18.156 33.9108 18.524 34.0788 18.852C34.2468 19.172 34.4748 19.424 34.7628 19.608C35.0588 19.792 35.3908 19.884 35.7588 19.884C36.1508 19.884 36.4908 19.784 36.7788 19.584C37.0748 19.376 37.2948 19.1 37.4388 18.756L38.6268 19.32C38.4988 19.664 38.2908 19.976 38.0028 20.256C37.7228 20.528 37.3908 20.744 37.0068 20.904C36.6228 21.064 36.2068 21.144 35.7588 21.144ZM39.9522 21V11.916H41.3082V18L40.7802 17.868L44.0322 14.508H45.7242L43.2762 17.112L45.8322 21H44.2722L41.9922 17.556L42.7962 17.448L40.8762 19.488L41.3082 18.588V21H39.9522ZM53.3344 21.144C52.6864 21.144 52.0824 21.028 51.5224 20.796C50.9704 20.564 50.4824 20.24 50.0584 19.824C49.6424 19.408 49.3144 18.92 49.0744 18.36C48.8424 17.8 48.7264 17.188 48.7264 16.524C48.7264 15.86 48.8424 15.248 49.0744 14.688C49.3144 14.12 49.6424 13.632 50.0584 13.224C50.4744 12.808 50.9624 12.488 51.5224 12.264C52.0824 12.032 52.6864 11.916 53.3344 11.916C53.9904 11.916 54.5944 12.032 55.1464 12.264C55.7064 12.488 56.1944 12.808 56.6104 13.224C57.0344 13.64 57.3624 14.128 57.5944 14.688C57.8264 15.248 57.9424 15.86 57.9424 16.524C57.9424 17.188 57.8224 17.8 57.5824 18.36C57.3504 18.92 57.0264 19.408 56.6104 19.824C56.1944 20.24 55.7064 20.564 55.1464 20.796C54.5864 21.028 53.9824 21.144 53.3344 21.144ZM53.3344 19.848C53.7984 19.848 54.2224 19.764 54.6064 19.596C54.9984 19.428 55.3384 19.196 55.6264 18.9C55.9144 18.596 56.1384 18.244 56.2984 17.844C56.4584 17.436 56.5384 16.996 56.5384 16.524C56.5384 16.052 56.4584 15.616 56.2984 15.216C56.1384 14.816 55.9144 14.464 55.6264 14.16C55.3384 13.856 54.9984 13.62 54.6064 13.452C54.2224 13.284 53.7984 13.2 53.3344 13.2C52.8704 13.2 52.4424 13.284 52.0504 13.452C51.6664 13.62 51.3304 13.856 51.0424 14.16C50.7544 14.464 50.5304 14.816 50.3704 15.216C50.2184 15.616 50.1424 16.052 50.1424 16.524C50.1424 16.996 50.2184 17.436 50.3704 17.844C50.5304 18.244 50.7544 18.596 51.0424 18.9C51.3304 19.196 51.6704 19.428 52.0624 19.596C52.4544 19.764 52.8784 19.848 53.3344 19.848ZM59.0096 21V19.764H59.9936V15.732H59.0096V14.508H61.2896V15.84L61.1576 15.636C61.3096 15.204 61.5416 14.896 61.8536 14.712C62.1736 14.52 62.5616 14.424 63.0176 14.424H63.4136V15.66H62.8496C62.4016 15.66 62.0376 15.8 61.7576 16.08C61.4856 16.352 61.3496 16.744 61.3496 17.256V19.764H62.5736V21H59.0096ZM67.3389 21.144C66.7149 21.144 66.1549 20.996 65.6589 20.7C65.1709 20.396 64.7829 19.988 64.4949 19.476C64.2149 18.964 64.0749 18.388 64.0749 17.748C64.0749 17.108 64.2189 16.532 64.5069 16.02C64.7949 15.508 65.1829 15.104 65.6709 14.808C66.1589 14.512 66.7109 14.364 67.3269 14.364C67.8469 14.364 68.3069 14.468 68.7069 14.676C69.1069 14.884 69.4229 15.172 69.6549 15.54L69.4509 15.852V11.916H70.7949V21H69.5109V19.68L69.6669 19.932C69.4429 20.324 69.1229 20.624 68.7069 20.832C68.2909 21.04 67.8349 21.144 67.3389 21.144ZM67.4709 19.884C67.8469 19.884 68.1829 19.792 68.4789 19.608C68.7829 19.424 69.0189 19.172 69.1869 18.852C69.3629 18.524 69.4509 18.156 69.4509 17.748C69.4509 17.34 69.3629 16.976 69.1869 16.656C69.0189 16.336 68.7829 16.084 68.4789 15.9C68.1829 15.716 67.8469 15.624 67.4709 15.624C67.0949 15.624 66.7549 15.716 66.4509 15.9C66.1469 16.084 65.9109 16.336 65.7429 16.656C65.5749 16.976 65.4909 17.34 65.4909 17.748C65.4909 18.156 65.5749 18.524 65.7429 18.852C65.9109 19.172 66.1429 19.424 66.4389 19.608C66.7429 19.792 67.0869 19.884 67.4709 19.884ZM75.4259 21.144C74.7779 21.144 74.2019 20.996 73.6979 20.7C73.2019 20.396 72.8139 19.988 72.5339 19.476C72.2539 18.956 72.1139 18.376 72.1139 17.736C72.1139 17.08 72.2539 16.5 72.5339 15.996C72.8219 15.492 73.2059 15.096 73.6859 14.808C74.1659 14.512 74.7099 14.364 75.3179 14.364C75.8059 14.364 76.2419 14.448 76.6259 14.616C77.0099 14.784 77.3339 15.016 77.5979 15.312C77.8619 15.6 78.0619 15.932 78.1979 16.308C78.3419 16.684 78.4139 17.084 78.4139 17.508C78.4139 17.612 78.4099 17.72 78.4019 17.832C78.3939 17.944 78.3779 18.048 78.3539 18.144H73.1819V17.064H77.5859L76.9379 17.556C77.0179 17.164 76.9899 16.816 76.8539 16.512C76.7259 16.2 76.5259 15.956 76.2539 15.78C75.9899 15.596 75.6779 15.504 75.3179 15.504C74.9579 15.504 74.6379 15.596 74.3579 15.78C74.0779 15.956 73.8619 16.212 73.7099 16.548C73.5579 16.876 73.4979 17.276 73.5299 17.748C73.4899 18.188 73.5499 18.572 73.7099 18.9C73.8779 19.228 74.1099 19.484 74.4059 19.668C74.7099 19.852 75.0539 19.944 75.4379 19.944C75.8299 19.944 76.1619 19.856 76.4339 19.68C76.7139 19.504 76.9339 19.276 77.0939 18.996L78.1979 19.536C78.0699 19.84 77.8699 20.116 77.5979 20.364C77.3339 20.604 77.0139 20.796 76.6379 20.94C76.2699 21.076 75.8659 21.144 75.4259 21.144ZM79.3533 21V19.764H80.3373V15.732H79.3533V14.508H81.6333V15.84L81.5013 15.636C81.6533 15.204 81.8853 14.896 82.1973 14.712C82.5173 14.52 82.9053 14.424 83.3613 14.424H83.7573V15.66H83.1933C82.7453 15.66 82.3813 15.8 82.1013 16.08C81.8293 16.352 81.6933 16.744 81.6933 17.256V19.764H82.9173V21H79.3533Z" fill="#053969"/>
</svg>
