<svg width="44" height="44" viewBox="0 0 44 44" fill="none" xmlns="http://www.w3.org/2000/svg">
<rect width="44" height="44" rx="12" fill="#F3F6FB"/>
<path d="M31.9798 21.41C31.6398 15.61 26.3698 11.14 20.2998 12.14C16.1198 12.83 12.7698 16.22 12.1198 20.4C11.7398 22.82 12.2398 25.11 13.3298 27L12.4398 30.31C12.2398 31.06 12.9298 31.74 13.6698 31.53L16.9298 30.63C18.4098 31.5 20.1398 32 21.9898 32C27.6298 32 32.3098 27.03 31.9798 21.41ZM26.8798 25.72C26.7898 25.9 26.6798 26.07 26.5398 26.23C26.2898 26.5 26.0198 26.7 25.7198 26.82C25.4198 26.95 25.0898 27.01 24.7398 27.01C24.2298 27.01 23.6798 26.89 23.1098 26.64C22.5298 26.39 21.9598 26.06 21.3898 25.65C20.8098 25.23 20.2698 24.76 19.7498 24.25C19.2298 23.73 18.7698 23.18 18.3498 22.61C17.9398 22.04 17.6098 21.47 17.3698 20.9C17.1298 20.33 17.0098 19.78 17.0098 19.26C17.0098 18.92 17.0698 18.59 17.1898 18.29C17.3098 17.98 17.4998 17.7 17.7698 17.45C18.0898 17.13 18.4398 16.98 18.8098 16.98C18.9498 16.98 19.0898 17.01 19.2198 17.07C19.3498 17.13 19.4698 17.22 19.5598 17.35L20.7198 18.99C20.8098 19.12 20.8798 19.23 20.9198 19.34C20.9698 19.45 20.9898 19.55 20.9898 19.65C20.9898 19.77 20.9498 19.89 20.8798 20.01C20.8098 20.13 20.7198 20.25 20.5998 20.37L20.2198 20.77C20.1598 20.83 20.1398 20.89 20.1398 20.97C20.1398 21.01 20.1498 21.05 20.1598 21.09C20.1798 21.13 20.1898 21.16 20.1998 21.19C20.2898 21.36 20.4498 21.57 20.6698 21.83C20.8998 22.09 21.1398 22.36 21.3998 22.62C21.6698 22.89 21.9298 23.13 22.1998 23.36C22.4598 23.58 22.6798 23.73 22.8498 23.82C22.8798 23.83 22.9098 23.85 22.9398 23.86C22.9798 23.88 23.0198 23.88 23.0698 23.88C23.1598 23.88 23.2198 23.85 23.2798 23.79L23.6598 23.41C23.7898 23.28 23.9098 23.19 24.0198 23.13C24.1398 23.06 24.2498 23.02 24.3798 23.02C24.4798 23.02 24.5798 23.04 24.6898 23.09C24.7998 23.14 24.9198 23.2 25.0398 23.29L26.6998 24.47C26.8298 24.56 26.9198 24.67 26.9798 24.79C27.0298 24.92 27.0598 25.04 27.0598 25.18C26.9998 25.35 26.9598 25.54 26.8798 25.72Z" fill="#053969"/>
</svg>
